<?xml version="1.0" ?><!DOCTYPE svg  PUBLIC '-//W3C//DTD SVG 1.1//EN'  'http://www.w3.org/Graphics/SVG/1.1/DTD/svg11.dtd'><svg enable-background="new 0 0 128 128" id="Layer_1" version="1.1" viewBox="0 0 128 128" xml:space="preserve" xmlns="http://www.w3.org/2000/svg" xmlns:xlink="http://www.w3.org/1999/xlink"><path d="M94.2,40L90,108.1c-0.1,2.1-1.9,3.9-4,3.9H42c-2.1,0-3.9-1.8-4-3.9L33.8,40h-4l4.2,68.4  c0.3,4.2,3.8,7.6,8,7.6h44c4.2,0,7.7-3.4,8-7.6L98.2,40H94.2z" fill="#3B97D3"/><path d="M102,22H26c-2.2,0-4,1.8-4,4v8c0,2.2,1.8,4,4,4h76c2.2,0,4-1.8,4-4v-8C106,23.8,104.2,22,102,22z M102,34H26  v-8h76V34z" fill="#3B97D3"/><path d="M65,103.7c-0.6,0-1-0.4-1-1V45c0-0.6,0.4-1,1-1s1,0.4,1,1v57.7C66,103.2,65.6,103.7,65,103.7z" fill="#2C3E50"/><path d="M79.8,103.7C79.8,103.7,79.8,103.7,79.8,103.7c-0.6,0-1-0.5-1-1L81,45c0-0.6,0.5-1,1-1c0.6,0,1,0.5,1,1  l-2.2,57.7C80.8,103.2,80.4,103.7,79.8,103.7z" fill="#2C3E50"/><path d="M49.7,103.7c-0.5,0-1-0.4-1-1L46.2,45c0-0.6,0.4-1,1-1c0.5,0,1,0.4,1,1l2.5,57.7  C50.7,103.2,50.3,103.6,49.7,103.7C49.7,103.7,49.7,103.7,49.7,103.7z" fill="#2C3E50"/><path d="M53,20v-2c0-1.1,0.9-2,2-2h20c1.1,0,2,0.9,2,2v2h4v-2c0-3.3-2.7-6-6-6H55c-3.3,0-6,2.7-6,6v2H53z" fill="#3B97D3"/></svg>