<?xml version="1.0" ?><!DOCTYPE svg  PUBLIC '-//W3C//DTD SVG 1.1//EN'  'http://www.w3.org/Graphics/SVG/1.1/DTD/svg11.dtd'><svg height="128px" id="Layer_1" style="enable-background:new 0 0 128 128;" version="1.1" viewBox="0 0 128 128" width="128px" xml:space="preserve" xmlns="http://www.w3.org/2000/svg" xmlns:xlink="http://www.w3.org/1999/xlink"><g><path d="M36.108,110.473l70.436-70.436L87.963,21.457L17.526,91.893c-0.378,0.302-0.671,0.716-0.803,1.22   l-5.476,20.803c-0.01,0.04-0.01,0.082-0.019,0.121c-0.018,0.082-0.029,0.162-0.039,0.247c-0.007,0.075-0.009,0.147-0.009,0.222   c-0.001,0.077,0.001,0.147,0.009,0.225c0.01,0.084,0.021,0.166,0.039,0.246c0.008,0.04,0.008,0.082,0.019,0.121   c0.007,0.029,0.021,0.055,0.031,0.083c0.023,0.078,0.053,0.154,0.086,0.23c0.029,0.067,0.057,0.134,0.09,0.196   c0.037,0.066,0.077,0.127,0.121,0.189c0.041,0.063,0.083,0.126,0.13,0.184c0.047,0.059,0.1,0.109,0.152,0.162   c0.053,0.054,0.105,0.105,0.163,0.152c0.056,0.048,0.119,0.09,0.182,0.131c0.063,0.043,0.124,0.084,0.192,0.12   c0.062,0.033,0.128,0.062,0.195,0.09c0.076,0.033,0.151,0.063,0.23,0.087c0.028,0.009,0.054,0.023,0.083,0.031   c0.04,0.01,0.081,0.01,0.121,0.02c0.081,0.017,0.162,0.028,0.246,0.037c0.077,0.009,0.148,0.011,0.224,0.01   c0.075,0,0.147-0.001,0.223-0.008c0.084-0.011,0.166-0.022,0.247-0.039c0.04-0.01,0.082-0.01,0.121-0.02l20.804-5.475   C35.393,111.146,35.808,110.853,36.108,110.473z M19.651,108.349c-0.535-0.535-1.267-0.746-1.964-0.649l3.183-12.094l11.526,11.525   L20.3,110.313C20.398,109.616,20.188,108.884,19.651,108.349z" style="fill:#2F3435;"/><path d="M109.702,36.879l-18.58-18.581l7.117-7.117c0,0,12.656,4.514,18.58,18.582L109.702,36.879z" style="fill:#2F3435;"/></g></svg>