<svg xmlns="http://www.w3.org/2000/svg" width="29" height="29" viewBox="0 -4 26 26"><g fill="none" fill-rule="evenodd"><path fill="#AAB7C4" d="M7.65 16.914A2.721 2.721 0 0 0 10.298 19c1.282 0 2.36-.886 2.647-2.086H7.65zm7.917-8.129a50.014 50.014 0 0 1-.45-2.963c-.242-2.031-2.076-3.56-4.246-3.56h-.86c-2.17 0-4.004 1.529-4.245 3.56a47.54 47.54 0 0 1-.451 2.963c-.42 2.314-1.342 3.98-2.097 5.11-.576.859.053 1.98 1.133 1.82h12.117c1.08.16 1.72-.961 1.133-1.82-.85-1.256-1.657-3.026-2.034-5.11zm-5.137-6.69a1.048 1.048 0 1 0 .002-2.096 1.048 1.048 0 0 0-.002 2.095z"/></g></svg>
