<?xml version="1.0" encoding="utf-8"?>
<!DOCTYPE svg PUBLIC "-//W3C//DTD SVG 1.1//EN" "http://www.w3.org/Graphics/SVG/1.1/DTD/svg11.dtd">
<svg xmlns="http://www.w3.org/2000/svg" xmlns:xlink="http://www.w3.org/1999/xlink" version="1.1" baseProfile="full" width="2360.38" height="590" viewBox="0 0 2360.38 590.00" enable-background="new 0 0 2360.38 590.00" xml:space="preserve">
	<g>
		<rect x="0.384445" y="0.125163" fill="#549AFC" fill-opacity="1" stroke-width="0.2" stroke-linejoin="round" width="2360" height="589.875"/>
		<ellipse fill="#F8F8F8" fill-opacity="1" stroke-width="0.2" stroke-linejoin="round" cx="312.304" cy="320.211" rx="17.6667" ry="16.6667"/>
		<ellipse fill="#F8F8F8" fill-opacity="1" stroke-width="0.2" stroke-linejoin="round" cx="257.97" cy="319.877" rx="17.6667" ry="16.6667"/>
		<ellipse fill="#F8F8F8" fill-opacity="1" stroke-width="0.2" stroke-linejoin="round" cx="284.637" cy="369.877" rx="17.6667" ry="16.6667"/>
		<ellipse fill="#F8F8F8" fill-opacity="1" stroke-width="0.2" stroke-linejoin="round" cx="342.637" cy="370.544" rx="17.6667" ry="16.6667"/>
		<ellipse fill="#F8F8F8" fill-opacity="1" stroke-width="0.2" stroke-linejoin="round" cx="226.637" cy="369.877" rx="17.6667" ry="16.6667"/>
		<ellipse fill="#F8F8F8" fill-opacity="1" stroke-width="0.2" stroke-linejoin="round" cx="256.637" cy="421.211" rx="17.6667" ry="16.6667"/>
		<ellipse fill="#F8F8F8" fill-opacity="1" stroke-width="0.2" stroke-linejoin="round" cx="313.304" cy="421.211" rx="17.6667" ry="16.6667"/>
		<path fill="#FFFFFF" fill-opacity="0.976471" stroke-width="0.2" stroke-linejoin="round" d="M 379.462,392.402L 379.43,425.31L 536.9,425.258C 536.9,425.258 603.465,413.384 604.617,344.143C 605.234,307.092 572.617,281.685 570.95,278.685C 569.284,275.685 575.705,233.316 538.962,205.235C 495.128,171.735 455.2,191.393 451.867,190.393C 448.534,189.393 422.337,151.652 371.462,153.235C 277.435,156.161 268.753,239.86 267.378,246.36C 266.974,248.274 241.392,258.248 230.234,281.425C 229.042,283.899 263.849,284.53 271.567,282.425C 275.234,281.425 279.509,273.166 299.567,268.425C 300.899,268.11 288.42,216.506 342.67,193.006C 406.198,165.487 440.187,229.272 439.42,240.006C 439.17,243.506 461.802,204.726 507.42,224.506C 548.911,242.496 538.411,296.912 532.42,297.256C 527.208,297.555 573.636,307.804 571.17,347.256C 568.67,387.256 531.17,393.256 526.567,392.758C 520.519,392.105 379.795,392.402 379.462,392.402 Z "/>
		<g>
			<path fill="#FFFFFF" fill-opacity="1" stroke-linejoin="round" d="M 751.788,422.752C 739.404,422.752 728.534,420.83 719.179,416.984C 709.823,413.139 701.951,407.765 695.562,400.861C 689.173,393.958 684.405,385.753 681.256,376.246C 678.107,366.738 676.532,356.232 676.532,344.726C 676.532,333.191 678.243,322.624 681.664,313.026C 685.086,303.427 689.93,295.124 696.198,288.115C 702.465,281.105 710.156,275.632 719.269,271.696C 728.383,267.76 738.511,265.792 749.653,265.792C 756.496,265.792 763.346,266.375 770.204,267.541C 777.062,268.706 783.625,270.546 789.892,273.059L 783.534,295.404C 779.325,293.466 774.458,291.922 768.933,290.771C 763.407,289.621 757.525,289.046 751.288,289.046C 735.574,289.046 723.546,293.784 715.205,303.261C 706.863,312.738 702.692,326.56 702.692,344.726C 702.692,352.841 703.654,360.274 705.576,367.026C 707.499,373.778 710.534,379.576 714.682,384.421C 718.83,389.265 724.137,392.989 730.601,395.593C 737.065,398.197 744.96,399.499 754.286,399.499C 761.764,399.499 768.539,398.818 774.61,397.455C 780.68,396.093 785.426,394.639 788.848,393.095L 792.799,415.168C 791.225,416.137 788.961,417.06 786.009,417.938C 783.057,418.816 779.711,419.596 775.972,420.277C 772.233,420.958 768.251,421.541 764.028,422.026C 759.804,422.51 755.724,422.752 751.788,422.752 Z "/>
			<path fill="#FFFFFF" fill-opacity="1" stroke-linejoin="round" d="M 867.509,419.845C 850.948,419.452 839.2,415.94 832.266,409.309C 825.333,402.678 821.866,392.338 821.866,378.289L 821.866,200.574L 848.026,196.032L 848.026,373.066C 848.026,377.426 848.427,381.022 849.229,383.853C 850.032,386.684 851.326,388.947 853.112,390.643C 854.899,392.338 857.283,393.61 860.265,394.458C 863.248,395.305 866.919,396.017 871.279,396.592L 867.509,419.845 Z "/>
			<path fill="#FFFFFF" fill-opacity="1" stroke-linejoin="round" d="M 1034.05,344.272C 1034.05,356.141 1032.3,366.867 1028.81,376.45C 1025.31,386.033 1020.4,394.276 1014.07,401.179C 1007.74,408.083 1000.2,413.404 991.451,417.143C 982.701,420.883 973.164,422.752 962.839,422.752C 952.514,422.752 942.977,420.883 934.227,417.143C 925.476,413.404 917.937,408.083 911.609,401.179C 905.281,394.276 900.368,386.033 896.871,376.45C 893.374,366.867 891.626,356.141 891.626,344.272C 891.626,332.585 893.374,321.904 896.871,312.231C 900.368,302.557 905.281,294.268 911.609,287.365C 917.937,280.462 925.476,275.14 934.227,271.401C 942.977,267.662 952.514,265.792 962.839,265.792C 973.164,265.792 982.701,267.662 991.451,271.401C 1000.2,275.14 1007.74,280.462 1014.07,287.365C 1020.4,294.268 1025.31,302.557 1028.81,312.231C 1032.3,321.904 1034.05,332.585 1034.05,344.272 Z M 1007.89,344.272C 1007.89,327.317 1003.86,313.873 995.789,303.942C 987.72,294.011 976.737,289.046 962.839,289.046C 948.942,289.046 937.958,294.011 929.889,303.942C 921.82,313.873 917.786,327.317 917.786,344.272C 917.786,361.228 921.82,374.671 929.889,384.602C 937.958,394.533 948.942,399.499 962.839,399.499C 976.737,399.499 987.72,394.533 995.789,384.602C 1003.86,374.671 1007.89,361.228 1007.89,344.272 Z "/>
			<path fill="#FFFFFF" fill-opacity="1" stroke-linejoin="round" d="M 1191.01,415.213C 1184.96,416.757 1176.96,418.4 1167.03,420.141C 1157.1,421.882 1145.61,422.752 1132.56,422.752C 1121.21,422.752 1111.65,421.057 1103.9,417.665C 1096.15,414.274 1089.91,409.491 1085.17,403.314C 1080.43,397.137 1077.02,389.84 1074.95,381.423C 1072.88,373.006 1071.84,363.665 1071.84,353.401L 1071.84,268.699L 1098,268.699L 1098,347.951C 1098,366.39 1100.85,379.591 1106.56,387.554C 1112.27,395.517 1121.89,399.499 1135.42,399.499C 1138.27,399.499 1141.22,399.4 1144.28,399.204C 1147.34,399.007 1150.2,398.765 1152.86,398.477C 1155.53,398.189 1157.96,397.902 1160.15,397.614C 1162.35,397.326 1163.91,396.986 1164.85,396.592L 1164.85,268.699L 1191.01,268.699L 1191.01,415.213 Z "/>
			<path fill="#FFFFFF" fill-opacity="1" stroke-linejoin="round" d="M 1336.35,300.672C 1332.89,297.947 1327.93,295.328 1321.45,292.815C 1314.97,290.302 1307.88,289.046 1300.19,289.046C 1292.11,289.046 1285.18,290.453 1279.42,293.269C 1273.65,296.085 1268.94,299.961 1265.29,304.896C 1261.64,309.831 1259.01,315.69 1257.39,322.472C 1255.77,329.254 1254.96,336.521 1254.96,344.272C 1254.96,361.894 1259.52,375.504 1268.63,385.102C 1277.74,394.7 1289.88,399.499 1305.05,399.499C 1312.74,399.499 1319.17,399.158 1324.33,398.477C 1329.5,397.796 1333.5,397.077 1336.35,396.32L 1336.35,300.672 Z M 1336.35,200.619L 1362.51,196.032L 1362.51,414.895C 1356.27,416.651 1348.29,418.4 1338.57,420.141C 1328.85,421.882 1317.66,422.752 1305.01,422.752C 1293.32,422.752 1282.81,420.928 1273.47,417.279C 1264.13,413.631 1256.15,408.438 1249.53,401.702C 1242.92,394.965 1237.81,386.737 1234.2,377.018C 1230.6,367.298 1228.8,356.383 1228.8,344.272C 1228.8,332.736 1230.32,322.162 1233.36,312.549C 1236.41,302.935 1240.87,294.662 1246.76,287.728C 1252.65,280.795 1259.87,275.405 1268.43,271.56C 1276.98,267.715 1286.75,265.792 1297.74,265.792C 1306.58,265.792 1314.39,266.958 1321.18,269.289C 1327.96,271.621 1333.02,273.846 1336.35,275.966L 1336.35,200.619 Z "/>
			<path fill="#FFFFFF" fill-opacity="1" stroke-linejoin="round" d="M 1435.17,275.966C 1438.5,273.846 1443.56,271.621 1450.34,269.289C 1457.12,266.958 1464.94,265.792 1473.78,265.792C 1484.77,265.792 1494.54,267.715 1503.09,271.56C 1511.65,275.405 1518.87,280.795 1524.76,287.728C 1530.65,294.662 1535.11,302.935 1538.15,312.549C 1541.2,322.162 1542.72,332.736 1542.72,344.272C 1542.72,356.383 1540.92,367.298 1537.31,377.018C 1533.71,386.737 1528.6,394.965 1521.99,401.702C 1515.37,408.438 1507.39,413.631 1498.05,417.279C 1488.71,420.928 1478.2,422.752 1466.51,422.752C 1453.85,422.752 1442.67,421.882 1432.95,420.141C 1423.23,418.4 1415.25,416.651 1409.01,414.895L 1409.01,200.619L 1435.17,196.032L 1435.17,275.966 Z M 1435.17,396.32C 1438.02,397.077 1442.02,397.796 1447.18,398.477C 1452.35,399.158 1458.77,399.499 1466.46,399.499C 1481.63,399.499 1493.77,394.7 1502.89,385.102C 1512,375.504 1516.56,361.894 1516.56,344.272C 1516.56,336.521 1515.75,329.254 1514.13,322.472C 1512.51,315.69 1509.88,309.831 1506.23,304.896C 1502.58,299.961 1497.87,296.085 1492.1,293.269C 1486.33,290.453 1479.41,289.046 1471.32,289.046C 1463.63,289.046 1456.55,290.302 1450.07,292.815C 1443.59,295.328 1438.62,297.947 1435.17,300.672L 1435.17,396.32 Z "/>
			<path fill="#FFFFFF" fill-opacity="1" stroke-linejoin="round" d="M 1714.21,344.272C 1714.21,356.141 1712.46,366.867 1708.97,376.45C 1705.47,386.033 1700.56,394.276 1694.23,401.179C 1687.9,408.083 1680.36,413.404 1671.61,417.143C 1662.86,420.883 1653.32,422.752 1643,422.752C 1632.67,422.752 1623.14,420.883 1614.39,417.143C 1605.64,413.404 1598.1,408.083 1591.77,401.179C 1585.44,394.276 1580.53,386.033 1577.03,376.45C 1573.53,366.867 1571.79,356.141 1571.79,344.272C 1571.79,332.585 1573.53,321.904 1577.03,312.231C 1580.53,302.557 1585.44,294.268 1591.77,287.365C 1598.1,280.462 1605.64,275.14 1614.39,271.401C 1623.14,267.662 1632.67,265.792 1643,265.792C 1653.32,265.792 1662.86,267.662 1671.61,271.401C 1680.36,275.14 1687.9,280.462 1694.23,287.365C 1700.56,294.268 1705.47,302.557 1708.97,312.231C 1712.46,321.904 1714.21,332.585 1714.21,344.272 Z M 1688.05,344.272C 1688.05,327.317 1684.02,313.873 1675.95,303.942C 1667.88,294.011 1656.9,289.046 1643,289.046C 1629.1,289.046 1618.12,294.011 1610.05,303.942C 1601.98,313.873 1597.95,327.317 1597.95,344.272C 1597.95,361.228 1601.98,374.671 1610.05,384.602C 1618.12,394.533 1629.1,399.499 1643,399.499C 1656.9,399.499 1667.88,394.533 1675.95,384.602C 1684.02,374.671 1688.05,361.228 1688.05,344.272 Z "/>
			<path fill="#FFFFFF" fill-opacity="1" stroke-linejoin="round" d="M 1885.71,344.272C 1885.71,356.141 1883.96,366.867 1880.46,376.45C 1876.96,386.033 1872.05,394.276 1865.72,401.179C 1859.39,408.083 1851.85,413.404 1843.1,417.143C 1834.35,420.883 1824.82,422.752 1814.49,422.752C 1804.17,422.752 1794.63,420.883 1785.88,417.143C 1777.13,413.404 1769.59,408.083 1763.26,401.179C 1756.93,394.276 1752.02,386.033 1748.52,376.45C 1745.03,366.867 1743.28,356.141 1743.28,344.272C 1743.28,332.585 1745.03,321.904 1748.52,312.231C 1752.02,302.557 1756.93,294.268 1763.26,287.365C 1769.59,280.462 1777.13,275.14 1785.88,271.401C 1794.63,267.662 1804.17,265.792 1814.49,265.792C 1824.82,265.792 1834.35,267.662 1843.1,271.401C 1851.85,275.14 1859.39,280.462 1865.72,287.365C 1872.05,294.268 1876.96,302.557 1880.46,312.231C 1883.96,321.904 1885.71,332.585 1885.71,344.272 Z M 1859.55,344.272C 1859.55,327.317 1855.51,313.873 1847.44,303.942C 1839.37,294.011 1828.39,289.046 1814.49,289.046C 1800.59,289.046 1789.61,294.011 1781.54,303.942C 1773.47,313.873 1769.44,327.317 1769.44,344.272C 1769.44,361.228 1773.47,374.671 1781.54,384.602C 1789.61,394.533 1800.59,399.499 1814.49,399.499C 1828.39,399.499 1839.37,394.533 1847.44,384.602C 1855.51,374.671 1859.55,361.228 1859.55,344.272 Z "/>
			<path fill="#FFFFFF" fill-opacity="1" stroke-linejoin="round" d="M 1959.87,399.499C 1971.19,399.499 1979.59,398.076 1985.05,395.23C 1990.52,392.384 1993.25,387.827 1993.25,381.559C 1993.25,375.14 1990.51,370.031 1985.03,366.231C 1979.55,362.431 1970.73,358.563 1958.55,354.627C 1952.68,352.72 1947.05,350.782 1941.66,348.814C 1936.27,346.846 1931.61,344.159 1927.69,340.752C 1923.77,337.346 1920.64,333.251 1918.29,328.467C 1915.95,323.683 1914.77,317.779 1914.77,310.755C 1914.77,296.978 1919.7,286.04 1929.56,277.941C 1939.41,269.842 1952.83,265.792 1969.82,265.792C 1974.09,265.792 1978.34,266.034 1982.58,266.519C 1986.82,267.003 1990.78,267.586 1994.46,268.267C 1998.13,268.949 2001.37,269.675 2004.17,270.447C 2006.98,271.219 2009.15,271.893 2010.69,272.468L 2005.7,296.312C 2002.76,294.768 1998.16,293.171 1991.91,291.521C 1985.66,289.871 1978.14,289.046 1969.36,289.046C 1961.73,289.046 1955.09,290.506 1949.42,293.428C 1943.76,296.35 1940.93,300.914 1940.93,307.121C 1940.93,310.331 1941.59,313.154 1942.91,315.592C 1944.22,318.029 1946.25,320.239 1948.99,322.222C 1951.73,324.206 1955.13,326.045 1959.19,327.741C 1963.25,329.436 1968.03,331.086 1973.54,332.691C 1980.81,334.962 1987.29,337.18 1992.98,339.344C 1998.67,341.509 2003.46,344.371 2007.33,347.928C 2011.21,351.486 2014.19,355.793 2016.28,360.849C 2018.37,365.906 2019.41,372.097 2019.41,379.425C 2019.41,393.655 2014.19,404.434 2003.74,411.761C 1993.3,419.089 1978.4,422.752 1959.05,422.752C 1945.58,422.752 1935.03,421.632 1927.4,419.391C 1919.77,417.151 1914.59,415.455 1911.87,414.305L 1916.95,390.779C 1920.13,391.929 1925.2,393.67 1932.14,396.002C 1939.09,398.333 1948.33,399.499 1959.87,399.499 Z "/>
			<path fill="#FFFFFF" fill-opacity="1" stroke-linejoin="round" d="M 2080.45,268.699L 2135.68,268.699L 2135.68,291.952L 2080.45,291.952L 2080.45,361.53C 2080.45,369.07 2081.01,375.299 2082.13,380.219C 2083.25,385.14 2084.93,389 2087.17,391.801C 2089.41,394.601 2092.21,396.585 2095.58,397.75C 2098.94,398.916 2102.86,399.499 2107.34,399.499C 2115.21,399.499 2121.52,398.575 2126.28,396.728C 2131.03,394.882 2134.35,393.564 2136.22,392.777L 2141.49,414.623C 2138.86,415.985 2134.26,417.681 2127.71,419.709C 2121.15,421.738 2113.65,422.752 2105.2,422.752C 2095.27,422.752 2087.07,421.45 2080.59,418.846C 2074.11,416.242 2068.9,412.329 2064.96,407.106C 2061.03,401.883 2058.27,395.457 2056.68,387.827C 2055.09,380.197 2054.29,371.356 2054.29,361.303L 2054.29,226.825L 2080.45,222.192L 2080.45,268.699 Z "/>
		</g>
		<rect x="0" y="-2.00272e-005" fill="#549AFC" fill-opacity="0" stroke-width="0.2" stroke-linejoin="round" width="2360" height="589.875"/>
	</g>
</svg>
