<?xml version="1.0" encoding="utf-8"?>
<!DOCTYPE svg PUBLIC "-//W3C//DTD SVG 1.1//EN" "http://www.w3.org/Graphics/SVG/1.1/DTD/svg11.dtd">
<svg xmlns="http://www.w3.org/2000/svg" xmlns:xlink="http://www.w3.org/1999/xlink" version="1.1" baseProfile="full" width="1785" height="1785" viewBox="0 0 1785.00 1785.00" enable-background="new 0 0 1785.00 1785.00" xml:space="preserve">
	<g>
		<ellipse fill="#549AFC" fill-opacity="1" stroke-width="0.2" stroke-linejoin="round" cx="845.282" cy="713.061" rx="388.113" ry="388.113"/>
		<ellipse fill="#F8F8F8" fill-opacity="1" stroke-width="0.2" stroke-linejoin="round" cx="719.48" cy="734.544" rx="24.3519" ry="22.9736"/>
		<ellipse fill="#F8F8F8" fill-opacity="1" stroke-width="0.2" stroke-linejoin="round" cx="644.587" cy="734.085" rx="24.3519" ry="22.9735"/>
		<ellipse fill="#F8F8F8" fill-opacity="1" stroke-width="0.2" stroke-linejoin="round" cx="681.344" cy="803.005" rx="24.3519" ry="22.9735"/>
		<ellipse fill="#F8F8F8" fill-opacity="1" stroke-width="0.2" stroke-linejoin="round" cx="761.292" cy="803.924" rx="24.3519" ry="22.9735"/>
		<ellipse fill="#F8F8F8" fill-opacity="1" stroke-width="0.2" stroke-linejoin="round" cx="601.397" cy="803.005" rx="24.3519" ry="22.9735"/>
		<ellipse fill="#F8F8F8" fill-opacity="1" stroke-width="0.2" stroke-linejoin="round" cx="642.749" cy="873.763" rx="24.3519" ry="22.9736"/>
		<ellipse fill="#F8F8F8" fill-opacity="1" stroke-width="0.2" stroke-linejoin="round" cx="720.859" cy="873.763" rx="24.3519" ry="22.9736"/>
		<path fill="#FFFFFF" fill-opacity="0.976471" stroke-width="0.2" stroke-linejoin="round" d="M 812.051,834.053L 812.007,879.414L 1029.07,879.343C 1029.07,879.343 1120.82,862.975 1122.41,767.533C 1123.26,716.461 1078.3,681.44 1076,677.305C 1073.7,673.17 1082.55,614.769 1031.91,576.061C 971.487,529.885 916.45,556.982 911.855,555.603C 907.261,554.225 871.151,502.202 801.024,504.384C 671.417,508.418 659.45,623.788 657.555,632.748C 656.997,635.387 621.735,649.135 606.354,681.082C 604.712,684.492 652.69,685.362 663.328,682.46C 668.383,681.082 674.275,669.698 701.924,663.162C 703.76,662.728 686.559,591.597 761.338,559.204C 848.905,521.272 895.755,609.193 894.698,623.99C 894.354,628.814 925.549,575.36 988.43,602.624C 1045.62,627.422 1031.15,702.43 1022.89,702.903C 1015.71,703.315 1079.7,717.443 1076.3,771.823C 1072.86,826.96 1021.17,835.23 1014.82,834.544C 1006.49,833.643 812.511,834.053 812.051,834.053 Z "/>
		<g>
			<path fill="#549AFC" fill-opacity="1" stroke-linejoin="round" d="M 200.899,1408.78C 188.516,1408.78 177.646,1406.85 168.29,1403.01C 158.934,1399.16 151.062,1393.79 144.673,1386.88C 138.285,1379.98 133.516,1371.78 130.367,1362.27C 127.218,1352.76 125.644,1342.26 125.644,1330.75C 125.644,1319.21 127.354,1308.65 130.776,1299.05C 134.197,1289.45 139.042,1281.15 145.309,1274.14C 151.577,1267.13 159.267,1261.66 168.381,1257.72C 177.494,1253.78 187.622,1251.82 198.765,1251.82C 205.607,1251.82 212.458,1252.4 219.316,1253.56C 226.174,1254.73 232.736,1256.57 239.004,1259.08L 232.645,1281.43C 228.437,1279.49 223.57,1277.95 218.044,1276.8C 212.518,1275.64 206.637,1275.07 200.4,1275.07C 184.685,1275.07 172.658,1279.81 164.316,1289.28C 155.974,1298.76 151.804,1312.58 151.804,1330.75C 151.804,1338.86 152.765,1346.3 154.688,1353.05C 156.61,1359.8 159.646,1365.6 163.794,1370.44C 167.942,1375.29 173.248,1379.01 179.712,1381.62C 186.177,1384.22 194.072,1385.52 203.397,1385.52C 210.876,1385.52 217.65,1384.84 223.721,1383.48C 229.792,1382.12 234.538,1380.66 237.959,1379.12L 241.91,1401.19C 240.336,1402.16 238.073,1403.08 235.121,1403.96C 232.169,1404.84 228.823,1405.62 225.084,1406.3C 221.344,1406.98 217.363,1407.56 213.139,1408.05C 208.915,1408.53 204.835,1408.78 200.899,1408.78 Z "/>
			<path fill="#549AFC" fill-opacity="1" stroke-linejoin="round" d="M 316.621,1405.87C 300.059,1405.48 288.311,1401.96 281.377,1395.33C 274.444,1388.7 270.977,1378.36 270.977,1364.31L 270.977,1186.6L 297.137,1182.06L 297.137,1359.09C 297.137,1363.45 297.538,1367.05 298.341,1369.88C 299.143,1372.71 300.437,1374.97 302.224,1376.67C 304.01,1378.36 306.394,1379.63 309.377,1380.48C 312.359,1381.33 316.03,1382.04 320.39,1382.62L 316.621,1405.87 Z "/>
			<path fill="#549AFC" fill-opacity="1" stroke-linejoin="round" d="M 483.164,1330.3C 483.164,1342.16 481.415,1352.89 477.918,1362.47C 474.421,1372.06 469.508,1380.3 463.18,1387.2C 456.852,1394.11 449.313,1399.43 440.563,1403.17C 431.813,1406.91 422.275,1408.78 411.95,1408.78C 401.626,1408.78 392.088,1406.91 383.338,1403.17C 374.588,1399.43 367.048,1394.11 360.72,1387.2C 354.392,1380.3 349.48,1372.06 345.983,1362.47C 342.486,1352.89 340.737,1342.16 340.737,1330.3C 340.737,1318.61 342.486,1307.93 345.983,1298.25C 349.48,1288.58 354.392,1280.29 360.72,1273.39C 367.048,1266.49 374.588,1261.16 383.338,1257.42C 392.088,1253.69 401.626,1251.82 411.95,1251.82C 422.275,1251.82 431.813,1253.69 440.563,1257.42C 449.313,1261.16 456.852,1266.49 463.18,1273.39C 469.508,1280.29 474.421,1288.58 477.918,1298.25C 481.415,1307.93 483.164,1318.61 483.164,1330.3 Z M 457.004,1330.3C 457.004,1313.34 452.969,1299.9 444.9,1289.97C 436.831,1280.03 425.848,1275.07 411.95,1275.07C 398.053,1275.07 387.07,1280.03 379.001,1289.97C 370.932,1299.9 366.897,1313.34 366.897,1330.3C 366.897,1347.25 370.932,1360.69 379.001,1370.63C 387.07,1380.56 398.053,1385.52 411.95,1385.52C 425.848,1385.52 436.831,1380.56 444.9,1370.63C 452.969,1360.69 457.004,1347.25 457.004,1330.3 Z "/>
			<path fill="#549AFC" fill-opacity="1" stroke-linejoin="round" d="M 640.124,1401.24C 634.068,1402.78 626.075,1404.42 616.144,1406.16C 606.213,1407.91 594.722,1408.78 581.672,1408.78C 570.318,1408.78 560.766,1407.08 553.015,1403.69C 545.263,1400.3 539.019,1395.51 534.28,1389.34C 529.542,1383.16 526.135,1375.86 524.061,1367.45C 521.987,1359.03 520.95,1349.69 520.95,1339.42L 520.95,1254.72L 547.11,1254.72L 547.11,1333.97C 547.11,1352.41 549.964,1365.61 555.671,1373.58C 561.379,1381.54 571,1385.52 584.534,1385.52C 587.38,1385.52 590.332,1385.42 593.39,1385.23C 596.448,1385.03 599.309,1384.79 601.974,1384.5C 604.638,1384.21 607.068,1383.93 609.263,1383.64C 611.458,1383.35 613.025,1383.01 613.964,1382.62L 613.964,1254.72L 640.124,1254.72L 640.124,1401.24 Z "/>
			<path fill="#549AFC" fill-opacity="1" stroke-linejoin="round" d="M 785.457,1286.7C 782.005,1283.97 777.04,1281.35 770.56,1278.84C 764.081,1276.33 756.996,1275.07 749.305,1275.07C 741.221,1275.07 734.295,1276.48 728.527,1279.29C 722.759,1282.11 718.051,1285.98 714.403,1290.92C 710.754,1295.85 708.12,1301.71 706.5,1308.5C 704.88,1315.28 704.07,1322.54 704.07,1330.3C 704.07,1347.92 708.627,1361.53 717.741,1371.13C 726.854,1380.72 738.996,1385.52 754.165,1385.52C 761.855,1385.52 768.282,1385.18 773.444,1384.5C 778.607,1383.82 782.611,1383.1 785.457,1382.34L 785.457,1286.7 Z M 785.457,1186.64L 811.617,1182.06L 811.617,1400.92C 805.38,1402.67 797.402,1404.42 787.682,1406.16C 777.963,1407.91 766.776,1408.78 754.12,1408.78C 742.432,1408.78 731.918,1406.95 722.578,1403.3C 713.237,1399.65 705.259,1394.46 698.643,1387.73C 692.027,1380.99 686.918,1372.76 683.315,1363.04C 679.712,1353.32 677.91,1342.41 677.91,1330.3C 677.91,1318.76 679.432,1308.19 682.475,1298.57C 685.518,1288.96 689.984,1280.69 695.873,1273.75C 701.762,1266.82 708.983,1261.43 717.536,1257.58C 726.09,1253.74 735.862,1251.82 746.853,1251.82C 755.694,1251.82 763.506,1252.98 770.288,1255.31C 777.07,1257.64 782.126,1259.87 785.457,1261.99L 785.457,1186.64 Z "/>
			<path fill="#549AFC" fill-opacity="1" stroke-linejoin="round" d="M 884.284,1261.99C 887.614,1259.87 892.671,1257.64 899.453,1255.31C 906.235,1252.98 914.047,1251.82 922.888,1251.82C 933.879,1251.82 943.651,1253.74 952.204,1257.58C 960.758,1261.43 967.979,1266.82 973.868,1273.75C 979.757,1280.69 984.223,1288.96 987.266,1298.57C 990.309,1308.19 991.83,1318.76 991.83,1330.3C 991.83,1342.41 990.029,1353.32 986.426,1363.04C 982.823,1372.76 977.713,1380.99 971.098,1387.73C 964.482,1394.46 956.504,1399.65 947.163,1403.3C 937.822,1406.95 927.308,1408.78 915.621,1408.78C 902.965,1408.78 891.777,1407.91 882.058,1406.16C 872.339,1404.42 864.361,1402.67 858.124,1400.92L 858.124,1186.64L 884.284,1182.06L 884.284,1261.99 Z M 884.284,1382.34C 887.13,1383.1 891.134,1383.82 896.296,1384.5C 901.459,1385.18 907.885,1385.52 915.576,1385.52C 930.745,1385.52 942.886,1380.72 952,1371.13C 961.114,1361.53 965.67,1347.92 965.67,1330.3C 965.67,1322.54 964.86,1315.28 963.241,1308.5C 961.621,1301.71 958.987,1295.85 955.338,1290.92C 951.69,1285.98 946.981,1282.11 941.214,1279.29C 935.446,1276.48 928.52,1275.07 920.435,1275.07C 912.745,1275.07 905.66,1276.33 899.18,1278.84C 892.701,1281.35 887.735,1283.97 884.284,1286.7L 884.284,1382.34 Z "/>
			<path fill="#549AFC" fill-opacity="1" stroke-linejoin="round" d="M 1163.32,1330.3C 1163.32,1342.16 1161.57,1352.89 1158.08,1362.47C 1154.58,1372.06 1149.67,1380.3 1143.34,1387.2C 1137.01,1394.11 1129.47,1399.43 1120.72,1403.17C 1111.97,1406.91 1102.43,1408.78 1092.11,1408.78C 1081.79,1408.78 1072.25,1406.91 1063.5,1403.17C 1054.75,1399.43 1047.21,1394.11 1040.88,1387.2C 1034.55,1380.3 1029.64,1372.06 1026.14,1362.47C 1022.65,1352.89 1020.9,1342.16 1020.9,1330.3C 1020.9,1318.61 1022.65,1307.93 1026.14,1298.25C 1029.64,1288.58 1034.55,1280.29 1040.88,1273.39C 1047.21,1266.49 1054.75,1261.16 1063.5,1257.42C 1072.25,1253.69 1081.79,1251.82 1092.11,1251.82C 1102.43,1251.82 1111.97,1253.69 1120.72,1257.42C 1129.47,1261.16 1137.01,1266.49 1143.34,1273.39C 1149.67,1280.29 1154.58,1288.58 1158.08,1298.25C 1161.57,1307.93 1163.32,1318.61 1163.32,1330.3 Z M 1137.16,1330.3C 1137.16,1313.34 1133.13,1299.9 1125.06,1289.97C 1116.99,1280.03 1106.01,1275.07 1092.11,1275.07C 1078.21,1275.07 1067.23,1280.03 1059.16,1289.97C 1051.09,1299.9 1047.06,1313.34 1047.06,1330.3C 1047.06,1347.25 1051.09,1360.69 1059.16,1370.63C 1067.23,1380.56 1078.21,1385.52 1092.11,1385.52C 1106.01,1385.52 1116.99,1380.56 1125.06,1370.63C 1133.13,1360.69 1137.16,1347.25 1137.16,1330.3 Z "/>
			<path fill="#549AFC" fill-opacity="1" stroke-linejoin="round" d="M 1334.82,1330.3C 1334.82,1342.16 1333.07,1352.89 1329.57,1362.47C 1326.07,1372.06 1321.16,1380.3 1314.83,1387.2C 1308.51,1394.11 1300.97,1399.43 1292.22,1403.17C 1283.47,1406.91 1273.93,1408.78 1263.6,1408.78C 1253.28,1408.78 1243.74,1406.91 1234.99,1403.17C 1226.24,1399.43 1218.7,1394.11 1212.37,1387.2C 1206.05,1380.3 1201.13,1372.06 1197.64,1362.47C 1194.14,1352.89 1192.39,1342.16 1192.39,1330.3C 1192.39,1318.61 1194.14,1307.93 1197.64,1298.25C 1201.13,1288.58 1206.05,1280.29 1212.37,1273.39C 1218.7,1266.49 1226.24,1261.16 1234.99,1257.42C 1243.74,1253.69 1253.28,1251.82 1263.6,1251.82C 1273.93,1251.82 1283.47,1253.69 1292.22,1257.42C 1300.97,1261.16 1308.51,1266.49 1314.83,1273.39C 1321.16,1280.29 1326.07,1288.58 1329.57,1298.25C 1333.07,1307.93 1334.82,1318.61 1334.82,1330.3 Z M 1308.66,1330.3C 1308.66,1313.34 1304.62,1299.9 1296.55,1289.97C 1288.48,1280.03 1277.5,1275.07 1263.6,1275.07C 1249.71,1275.07 1238.72,1280.03 1230.65,1289.97C 1222.58,1299.9 1218.55,1313.34 1218.55,1330.3C 1218.55,1347.25 1222.58,1360.69 1230.65,1370.63C 1238.72,1380.56 1249.71,1385.52 1263.6,1385.52C 1277.5,1385.52 1288.48,1380.56 1296.55,1370.63C 1304.62,1360.69 1308.66,1347.25 1308.66,1330.3 Z "/>
			<path fill="#549AFC" fill-opacity="1" stroke-linejoin="round" d="M 1408.98,1385.52C 1420.31,1385.52 1428.7,1384.1 1434.17,1381.25C 1439.63,1378.41 1442.36,1373.85 1442.36,1367.58C 1442.36,1361.16 1439.62,1356.05 1434.14,1352.25C 1428.66,1348.45 1419.84,1344.59 1407.67,1340.65C 1401.79,1338.74 1396.16,1336.81 1390.77,1334.84C 1385.38,1332.87 1380.73,1330.18 1376.8,1326.78C 1372.88,1323.37 1369.75,1319.27 1367.4,1314.49C 1365.06,1309.71 1363.88,1303.8 1363.88,1296.78C 1363.88,1283 1368.81,1272.06 1378.67,1263.96C 1388.52,1255.87 1401.94,1251.82 1418.93,1251.82C 1423.2,1251.82 1427.45,1252.06 1431.69,1252.54C 1435.93,1253.03 1439.89,1253.61 1443.57,1254.29C 1447.25,1254.97 1450.49,1255.7 1453.29,1256.47C 1456.09,1257.24 1458.26,1257.92 1459.8,1258.49L 1454.81,1282.34C 1451.87,1280.79 1447.28,1279.19 1441.02,1277.54C 1434.77,1275.89 1427.25,1275.07 1418.47,1275.07C 1410.84,1275.07 1404.2,1276.53 1398.54,1279.45C 1392.87,1282.37 1390.04,1286.94 1390.04,1293.14C 1390.04,1296.35 1390.7,1299.18 1392.02,1301.62C 1393.34,1304.05 1395.36,1306.26 1398.1,1308.25C 1400.84,1310.23 1404.24,1312.07 1408.3,1313.76C 1412.36,1315.46 1417.14,1317.11 1422.65,1318.71C 1429.92,1320.99 1436.4,1323.2 1442.09,1325.37C 1447.78,1327.53 1452.57,1330.39 1456.44,1333.95C 1460.32,1337.51 1463.3,1341.82 1465.39,1346.87C 1467.48,1351.93 1468.52,1358.12 1468.52,1365.45C 1468.52,1379.68 1463.3,1390.46 1452.85,1397.79C 1442.41,1405.11 1427.51,1408.78 1408.16,1408.78C 1394.69,1408.78 1384.14,1407.66 1376.51,1405.41C 1368.88,1403.17 1363.7,1401.48 1360.98,1400.33L 1366.06,1376.8C 1369.24,1377.95 1374.31,1379.69 1381.26,1382.03C 1388.2,1384.36 1397.45,1385.52 1408.98,1385.52 Z "/>
			<path fill="#549AFC" fill-opacity="1" stroke-linejoin="round" d="M 1529.56,1254.72L 1584.79,1254.72L 1584.79,1277.98L 1529.56,1277.98L 1529.56,1347.55C 1529.56,1355.09 1530.12,1361.32 1531.24,1366.24C 1532.36,1371.16 1534.04,1375.02 1536.29,1377.82C 1538.53,1380.63 1541.33,1382.61 1544.69,1383.77C 1548.05,1384.94 1551.97,1385.52 1556.45,1385.52C 1564.32,1385.52 1570.64,1384.6 1575.39,1382.75C 1580.14,1380.91 1583.46,1379.59 1585.34,1378.8L 1590.6,1400.65C 1587.97,1402.01 1583.37,1403.7 1576.82,1405.73C 1570.26,1407.76 1562.76,1408.78 1554.32,1408.78C 1544.38,1408.78 1536.18,1407.47 1529.7,1404.87C 1523.22,1402.27 1518.01,1398.35 1514.08,1393.13C 1510.14,1387.91 1507.38,1381.48 1505.79,1373.85C 1504.2,1366.22 1503.4,1357.38 1503.4,1347.33L 1503.4,1212.85L 1529.56,1208.22L 1529.56,1254.72 Z "/>
		</g>
		<rect x="0" y="0" fill="#549AFC" fill-opacity="0" stroke-width="0.2" stroke-linejoin="round" width="1785" height="1785"/>
	</g>
</svg>
