<?xml version="1.0" encoding="iso-8859-1"?>
<!-- Generator: Adobe Illustrator 19.0.0, SVG Export Plug-In . SVG Version: 6.00 Build 0)  -->
<svg xmlns="http://www.w3.org/2000/svg" xmlns:xlink="http://www.w3.org/1999/xlink" version="1.1" id="Capa_1" x="0px" y="0px" viewBox="0 0 60 60" style="enable-background:new 0 0 60 60;" xml:space="preserve" width="512px" height="512px">
<g>
	<path d="M10.5,6.125c-2.481,0-4.5,2.019-4.5,4.5s2.019,4.5,4.5,4.5s4.5-2.019,4.5-4.5S12.981,6.125,10.5,6.125z M10.5,13.125   c-1.378,0-2.5-1.121-2.5-2.5s1.122-2.5,2.5-2.5s2.5,1.121,2.5,2.5S11.878,13.125,10.5,13.125z" fill="#FFFFFF"/>
	<circle cx="50" cy="9.125" r="1" fill="#FFFFFF"/>
	<circle cx="46" cy="9.125" r="1" fill="#FFFFFF"/>
	<circle cx="52" cy="12.125" r="1" fill="#FFFFFF"/>
	<circle cx="48" cy="12.125" r="1" fill="#FFFFFF"/>
	<circle cx="42" cy="9.125" r="1" fill="#FFFFFF"/>
	<circle cx="44" cy="12.125" r="1" fill="#FFFFFF"/>
	<circle cx="38" cy="9.125" r="1" fill="#FFFFFF"/>
	<circle cx="40" cy="12.125" r="1" fill="#FFFFFF"/>
	<circle cx="34" cy="9.125" r="1" fill="#FFFFFF"/>
	<circle cx="36" cy="12.125" r="1" fill="#FFFFFF"/>
	<path d="M10.5,25.125c-2.481,0-4.5,2.019-4.5,4.5s2.019,4.5,4.5,4.5s4.5-2.019,4.5-4.5S12.981,25.125,10.5,25.125z M10.5,32.125   c-1.378,0-2.5-1.121-2.5-2.5s1.122-2.5,2.5-2.5s2.5,1.121,2.5,2.5S11.878,32.125,10.5,32.125z" fill="#FFFFFF"/>
	<path d="M10.5,44.125c-2.481,0-4.5,2.019-4.5,4.5s2.019,4.5,4.5,4.5s4.5-2.019,4.5-4.5S12.981,44.125,10.5,44.125z M10.5,51.125   c-1.378,0-2.5-1.121-2.5-2.5s1.122-2.5,2.5-2.5s2.5,1.121,2.5,2.5S11.878,51.125,10.5,51.125z" fill="#FFFFFF"/>
	<path d="M60,16.517V4.733c0-2.541-2.067-4.608-4.608-4.608H4.608C2.067,0.125,0,2.192,0,4.733v11.783   c0,1.469,0.703,2.764,1.777,3.608C0.703,20.969,0,22.265,0,23.733v11.783c0,1.469,0.703,2.764,1.777,3.608   C0.703,39.969,0,41.265,0,42.733v11.783c0,2.541,2.067,4.608,4.608,4.608h27.875c2.682,0.494,5.622,0.75,8.517,0.75   c8.672,0,17.816-2.249,18.895-6.553C59.962,53.188,60,53.036,60,52.875v-9V43.5v-0.375v-8.25V34.5v-0.375V25.5v-0.375   c0-0.15-0.037-0.289-0.096-0.416c-0.347-1.464-1.648-2.697-3.562-3.685C58.428,20.585,60,18.732,60,16.517z M2,35.517V23.733   c0-1.438,1.17-2.608,2.608-2.608h20.86c-1.809,0.971-3.037,2.169-3.372,3.584C22.037,24.837,22,24.975,22,25.125V25.5v8.625V34.5   v0.375v3.25H4.608C3.17,38.125,2,36.955,2,35.517z M24.626,29.38c0.045,0.029,0.093,0.058,0.139,0.087   c0.176,0.11,0.359,0.218,0.55,0.324c0.055,0.03,0.108,0.061,0.163,0.09c0.233,0.125,0.475,0.247,0.727,0.364   c0.04,0.019,0.083,0.037,0.123,0.055c0.221,0.101,0.448,0.198,0.682,0.293c0.069,0.028,0.137,0.056,0.206,0.083   c0.276,0.108,0.557,0.214,0.848,0.314c0.016,0.005,0.032,0.01,0.048,0.016c0.278,0.095,0.564,0.186,0.855,0.274   c0.078,0.024,0.157,0.047,0.236,0.07c0.288,0.084,0.58,0.166,0.879,0.244c0.024,0.006,0.047,0.013,0.071,0.019   c0.322,0.083,0.651,0.16,0.985,0.235c0.084,0.019,0.169,0.037,0.253,0.055c0.286,0.062,0.575,0.121,0.867,0.177   c0.058,0.011,0.116,0.023,0.174,0.034c0.343,0.064,0.69,0.123,1.041,0.179c0.083,0.013,0.168,0.026,0.251,0.039   c0.291,0.045,0.584,0.087,0.88,0.126c0.081,0.011,0.161,0.022,0.243,0.032c0.358,0.045,0.718,0.087,1.081,0.125   c0.073,0.008,0.147,0.014,0.22,0.021c0.305,0.03,0.612,0.057,0.919,0.082c0.093,0.007,0.185,0.015,0.278,0.022   c0.367,0.027,0.736,0.051,1.105,0.07c0.052,0.003,0.105,0.004,0.158,0.007c0.325,0.016,0.651,0.028,0.977,0.037   c0.098,0.003,0.196,0.006,0.295,0.008c0.373,0.008,0.746,0.014,1.118,0.014s0.745-0.006,1.118-0.014   c0.098-0.002,0.196-0.005,0.295-0.008c0.326-0.009,0.651-0.021,0.977-0.037c0.053-0.003,0.105-0.004,0.158-0.007   c0.369-0.019,0.738-0.043,1.105-0.07c0.093-0.007,0.185-0.014,0.278-0.022c0.308-0.024,0.614-0.052,0.919-0.082   c0.073-0.007,0.147-0.014,0.22-0.021c0.363-0.038,0.723-0.079,1.081-0.125c0.081-0.01,0.162-0.021,0.243-0.032   c0.295-0.039,0.589-0.081,0.88-0.126c0.084-0.013,0.168-0.025,0.251-0.039c0.351-0.056,0.698-0.115,1.041-0.179   c0.059-0.011,0.116-0.023,0.174-0.034c0.293-0.056,0.582-0.115,0.867-0.177c0.085-0.019,0.169-0.037,0.253-0.055   c0.333-0.075,0.663-0.152,0.985-0.235c0.024-0.006,0.047-0.013,0.071-0.019c0.299-0.077,0.591-0.159,0.879-0.244   c0.079-0.023,0.158-0.046,0.236-0.07c0.291-0.088,0.577-0.179,0.855-0.274c0.016-0.005,0.032-0.01,0.048-0.016   c0.291-0.101,0.573-0.206,0.848-0.314c0.07-0.027,0.138-0.055,0.206-0.083c0.234-0.095,0.461-0.192,0.682-0.293   c0.041-0.019,0.083-0.036,0.123-0.055c0.252-0.117,0.493-0.239,0.727-0.364c0.056-0.03,0.109-0.06,0.163-0.09   c0.19-0.105,0.373-0.213,0.55-0.324c0.046-0.029,0.094-0.057,0.139-0.087c0.207-0.134,0.403-0.272,0.589-0.414   c0.012-0.009,0.026-0.017,0.038-0.026v4.988c-0.024,0.116-0.04,0.234-0.021,0.353C57.99,34.354,58,34.426,58,34.5   c0,0.11-0.031,0.222-0.058,0.333c-0.021,0.086-0.048,0.173-0.084,0.259c-0.032,0.075-0.072,0.151-0.116,0.226   c-0.043,0.075-0.09,0.151-0.144,0.226c-0.077,0.104-0.164,0.208-0.263,0.312c-0.037,0.04-0.074,0.08-0.114,0.12   c-2.117,2.048-8.364,3.898-16.22,3.898c-7.851,0-14.095-1.848-16.216-3.895c-0.044-0.044-0.084-0.087-0.124-0.131   c-0.094-0.1-0.179-0.2-0.253-0.3c-0.057-0.079-0.107-0.158-0.152-0.238c-0.041-0.071-0.079-0.142-0.11-0.214   c-0.039-0.091-0.066-0.181-0.088-0.271C24.031,34.717,24,34.608,24,34.5c0-0.071,0.009-0.142,0.021-0.212   c0.021-0.13,0.008-0.26-0.021-0.385v-4.964c0.012,0.009,0.026,0.017,0.038,0.026C24.223,29.107,24.419,29.245,24.626,29.38z    M57.857,44.092c-0.032,0.075-0.072,0.151-0.116,0.226c-0.043,0.075-0.09,0.151-0.144,0.226c-0.077,0.104-0.164,0.208-0.263,0.312   c-0.037,0.04-0.074,0.08-0.114,0.12c-2.117,2.048-8.364,3.898-16.22,3.898c-7.851,0-14.095-1.848-16.216-3.895   c-0.044-0.044-0.084-0.087-0.124-0.131c-0.094-0.1-0.179-0.2-0.253-0.3c-0.057-0.079-0.107-0.158-0.152-0.238   c-0.041-0.071-0.079-0.142-0.11-0.214c-0.039-0.091-0.066-0.181-0.088-0.271c-0.023-0.094-0.047-0.189-0.05-0.283l0-0.12   c0.004-0.045,0.006-0.09,0.013-0.135c0.014-0.086-0.005-0.17-0.014-0.255L24,38.125v-0.186c0.04,0.031,0.087,0.06,0.129,0.09   c0.126,0.094,0.258,0.186,0.393,0.277c0.11,0.073,0.224,0.145,0.34,0.217c0.179,0.11,0.359,0.219,0.551,0.324   c0.002,0.001,0.004,0.002,0.005,0.003c2.086,1.137,4.954,1.958,8.125,2.455c0.024,0.004,0.048,0.007,0.072,0.011   c1.023,0.159,2.073,0.283,3.141,0.374c0.227,0.019,0.453,0.039,0.682,0.055c0.223,0.016,0.446,0.03,0.67,0.042   c0.302,0.017,0.604,0.032,0.906,0.044c0.176,0.007,0.352,0.015,0.529,0.02c0.487,0.014,0.973,0.024,1.458,0.024   c0.484,0,0.97-0.009,1.455-0.023c0.178-0.005,0.355-0.013,0.533-0.02c0.3-0.012,0.599-0.026,0.898-0.043   c0.226-0.013,0.451-0.027,0.676-0.043c0.225-0.016,0.447-0.035,0.671-0.054c1.078-0.091,2.138-0.217,3.17-0.377   c0.015-0.002,0.031-0.005,0.046-0.007c3.465-0.542,6.564-1.473,8.681-2.779c0.115-0.071,0.229-0.142,0.338-0.215   c0.135-0.09,0.267-0.182,0.392-0.276c0.045-0.033,0.096-0.064,0.14-0.098v4.988c-0.024,0.116-0.04,0.234-0.021,0.353   C57.99,43.354,58,43.426,58,43.5c0,0.11-0.031,0.222-0.058,0.333C57.92,43.919,57.894,44.006,57.857,44.092z M4.608,57.125   C3.17,57.125,2,55.955,2,54.517V42.733c0-1.438,1.17-2.608,2.608-2.608H22v3V43.5v0.375v9v1h0.296   c0.016,0.037,0.039,0.073,0.057,0.11c0.035,0.075,0.074,0.148,0.114,0.222c0.082,0.148,0.175,0.294,0.278,0.438   c0.102,0.145,0.217,0.285,0.339,0.424c0.062,0.07,0.124,0.139,0.191,0.208c0.383,0.395,0.843,0.765,1.374,1.111   c0.018,0.012,0.037,0.024,0.056,0.036c0.384,0.247,0.799,0.481,1.248,0.702H4.608z M58,52.619c-0.008,0.031-0.015,0.063-0.02,0.094   c-0.409,2.493-7.33,5.162-16.98,5.162c-3.079,0-5.875-0.273-8.276-0.724l0.001-0.008c-4.973-0.941-7.725-2.53-8.495-3.87   c-0.001-0.001-0.002-0.002-0.002-0.004c-0.035-0.062-0.06-0.123-0.087-0.183c-0.052-0.125-0.101-0.249-0.121-0.373l-0.008-5.765   c0.036,0.028,0.079,0.054,0.116,0.082c0.126,0.094,0.258,0.186,0.393,0.277c0.11,0.073,0.224,0.145,0.34,0.217   c0.179,0.11,0.359,0.219,0.551,0.324c0.002,0.001,0.004,0.002,0.005,0.003c2.086,1.137,4.954,1.958,8.125,2.455   c0.024,0.004,0.048,0.007,0.072,0.011c1.023,0.159,2.073,0.283,3.141,0.374c0.227,0.019,0.453,0.039,0.682,0.055   c0.223,0.016,0.446,0.03,0.67,0.042c0.302,0.017,0.604,0.032,0.906,0.044c0.176,0.007,0.352,0.015,0.529,0.02   c0.487,0.014,0.973,0.024,1.458,0.024c0.484,0,0.97-0.009,1.455-0.023c0.178-0.005,0.355-0.013,0.533-0.02   c0.3-0.012,0.599-0.026,0.898-0.043c0.226-0.013,0.451-0.027,0.676-0.043c0.225-0.016,0.447-0.035,0.671-0.054   c1.078-0.091,2.138-0.217,3.17-0.377c0.015-0.002,0.031-0.005,0.046-0.007c3.465-0.542,6.564-1.473,8.681-2.779   c0.115-0.071,0.229-0.142,0.338-0.215c0.135-0.09,0.267-0.182,0.392-0.276c0.045-0.033,0.096-0.064,0.14-0.098V52.619z M58,25.5   c0,2.537-7.271,5.375-17,5.375c-9.73,0-17-2.838-17-5.375c0-0.128,0.031-0.258,0.068-0.388c0.04-0.129,0.094-0.261,0.174-0.397   c0.003-0.006,0.006-0.012,0.009-0.018c0.333-0.556,1.004-1.154,2.037-1.731c0.044-0.024,0.089-0.048,0.134-0.072   c0.177-0.096,0.364-0.191,0.561-0.285c0.229-0.107,0.464-0.214,0.716-0.317c0.049-0.021,0.1-0.041,0.151-0.061   c1.162-0.463,2.562-0.874,4.138-1.21c0.493-0.104,0.995-0.202,1.511-0.288c0.137-0.023,0.271-0.047,0.41-0.069   c4.477-0.69,9.7-0.69,14.177,0c0.141,0.022,0.277,0.047,0.416,0.07c0.513,0.085,1.012,0.182,1.501,0.286   C54.878,22.058,58,23.841,58,25.5z M58,16.517c0,1.438-1.17,2.608-2.608,2.608h-4.63c-0.058-0.013-0.122-0.021-0.18-0.034   c-0.656-0.142-1.331-0.269-2.021-0.379c-0.067-0.01-0.134-0.021-0.201-0.031c-2.361-0.367-4.881-0.556-7.36-0.556   c-2.479,0-4.997,0.189-7.358,0.556c-0.069,0.01-0.137,0.021-0.206,0.031c-0.688,0.11-1.361,0.237-2.015,0.378   c-0.059,0.013-0.125,0.021-0.184,0.034H4.608C3.17,19.125,2,17.955,2,16.517V4.733c0-1.438,1.17-2.608,2.608-2.608h50.783   C56.83,2.125,58,3.295,58,4.733V16.517z" fill="#FFFFFF"/>
</g>
<g>
</g>
<g>
</g>
<g>
</g>
<g>
</g>
<g>
</g>
<g>
</g>
<g>
</g>
<g>
</g>
<g>
</g>
<g>
</g>
<g>
</g>
<g>
</g>
<g>
</g>
<g>
</g>
<g>
</g>
</svg>
