<?xml version="1.0" encoding="iso-8859-1"?>
<!-- Generator: Adobe Illustrator 16.0.0, SVG Export Plug-In . SVG Version: 6.00 Build 0)  -->
<!DOCTYPE svg PUBLIC "-//W3C//DTD SVG 1.1//EN" "http://www.w3.org/Graphics/SVG/1.1/DTD/svg11.dtd">
<svg xmlns="http://www.w3.org/2000/svg" xmlns:xlink="http://www.w3.org/1999/xlink" version="1.1" id="Capa_1" x="0px" y="0px" width="512px" height="512px" viewBox="0 0 284.936 284.936" style="enable-background:new 0 0 284.936 284.936;" xml:space="preserve">
<g>
	<g>
		<path d="M277.515,135.9L144.464,2.857C142.565,0.955,140.375,0,137.9,0c-2.472,0-4.659,0.955-6.562,2.857l-14.277,14.275    c-1.903,1.903-2.853,4.089-2.853,6.567c0,2.478,0.95,4.664,2.853,6.567l112.207,112.204L117.062,254.677    c-1.903,1.903-2.853,4.093-2.853,6.564c0,2.477,0.95,4.667,2.853,6.57l14.277,14.271c1.902,1.905,4.089,2.854,6.562,2.854    c2.478,0,4.665-0.951,6.563-2.854l133.051-133.044c1.902-1.902,2.851-4.093,2.851-6.567S279.417,137.807,277.515,135.9z" fill="#FFFFFF"/>
		<path d="M170.732,142.471c0-2.474-0.947-4.665-2.857-6.571L34.833,2.857C32.931,0.955,30.741,0,28.267,0s-4.665,0.955-6.567,2.857    L7.426,17.133C5.52,19.036,4.57,21.222,4.57,23.7c0,2.478,0.95,4.664,2.856,6.567L119.63,142.471L7.426,254.677    c-1.906,1.903-2.856,4.093-2.856,6.564c0,2.477,0.95,4.667,2.856,6.57l14.273,14.271c1.903,1.905,4.093,2.854,6.567,2.854    s4.664-0.951,6.567-2.854l133.042-133.044C169.785,147.136,170.732,144.945,170.732,142.471z" fill="#FFFFFF"/>
	</g>
</g>
<g>
</g>
<g>
</g>
<g>
</g>
<g>
</g>
<g>
</g>
<g>
</g>
<g>
</g>
<g>
</g>
<g>
</g>
<g>
</g>
<g>
</g>
<g>
</g>
<g>
</g>
<g>
</g>
<g>
</g>
</svg>
