<?xml version="1.0" encoding="UTF-8"?>
<svg width="508px" height="493px" viewBox="0 0 508 493" version="1.1" xmlns="http://www.w3.org/2000/svg" xmlns:xlink="http://www.w3.org/1999/xlink">
    <!-- Generator: Sketch 42 (36781) - http://www.bohemiancoding.com/sketch -->
    <title>hero-icons-right</title>
    <desc>Created with Sketch.</desc>
    <defs>
        <rect id="path-1" x="0" y="0" width="508" height="493"></rect>
        <rect id="path-3" x="0" y="0" width="95.4366197" height="95.4545455" rx="20"></rect>
        <filter x="-50%" y="-50%" width="200%" height="200%" filterUnits="objectBoundingBox" id="filter-4">
            <feOffset dx="0" dy="0" in="SourceAlpha" result="shadowOffsetOuter1"></feOffset>
            <feGaussianBlur stdDeviation="5" in="shadowOffsetOuter1" result="shadowBlurOuter1"></feGaussianBlur>
            <feColorMatrix values="0 0 0 0 0   0 0 0 0 0   0 0 0 0 0  0 0 0 0.1 0" type="matrix" in="shadowBlurOuter1"></feColorMatrix>
        </filter>
        <rect id="path-5" x="0" y="0" width="95.4366197" height="95.4545455" rx="20"></rect>
        <filter x="-50%" y="-50%" width="200%" height="200%" filterUnits="objectBoundingBox" id="filter-6">
            <feOffset dx="0" dy="0" in="SourceAlpha" result="shadowOffsetOuter1"></feOffset>
            <feGaussianBlur stdDeviation="5" in="shadowOffsetOuter1" result="shadowBlurOuter1"></feGaussianBlur>
            <feColorMatrix values="0 0 0 0 0   0 0 0 0 0   0 0 0 0 0  0 0 0 0.1 0" type="matrix" in="shadowBlurOuter1"></feColorMatrix>
        </filter>
        <rect id="path-7" x="0" y="0" width="95.4366197" height="95.4545455" rx="20"></rect>
        <filter x="-50%" y="-50%" width="200%" height="200%" filterUnits="objectBoundingBox" id="filter-8">
            <feOffset dx="0" dy="0" in="SourceAlpha" result="shadowOffsetOuter1"></feOffset>
            <feGaussianBlur stdDeviation="5" in="shadowOffsetOuter1" result="shadowBlurOuter1"></feGaussianBlur>
            <feColorMatrix values="0 0 0 0 0   0 0 0 0 0   0 0 0 0 0  0 0 0 0.1 0" type="matrix" in="shadowBlurOuter1"></feColorMatrix>
        </filter>
        <rect id="path-9" x="0" y="0" width="95.4366197" height="95.4545455" rx="20"></rect>
        <filter x="-50%" y="-50%" width="200%" height="200%" filterUnits="objectBoundingBox" id="filter-10">
            <feOffset dx="0" dy="0" in="SourceAlpha" result="shadowOffsetOuter1"></feOffset>
            <feGaussianBlur stdDeviation="5" in="shadowOffsetOuter1" result="shadowBlurOuter1"></feGaussianBlur>
            <feColorMatrix values="0 0 0 0 0   0 0 0 0 0   0 0 0 0 0  0 0 0 0.1 0" type="matrix" in="shadowBlurOuter1"></feColorMatrix>
        </filter>
        <polygon id="path-11" points="0.217142857 11.5646259 23.1809524 11.5646259 23.1809524 0.129965986 0.217142857 0.129965986 0.217142857 11.5646259"></polygon>
        <polygon id="path-13" points="23.1809524 27.8453401 23.1809524 0.236496599 0.217142857 0.236496599 0.217142857 27.8453401 23.1809524 27.8453401"></polygon>
        <rect id="path-15" x="0" y="0" width="95.4366197" height="95.4545455" rx="20"></rect>
        <filter x="-50%" y="-50%" width="200%" height="200%" filterUnits="objectBoundingBox" id="filter-16">
            <feOffset dx="0" dy="0" in="SourceAlpha" result="shadowOffsetOuter1"></feOffset>
            <feGaussianBlur stdDeviation="5" in="shadowOffsetOuter1" result="shadowBlurOuter1"></feGaussianBlur>
            <feColorMatrix values="0 0 0 0 0   0 0 0 0 0   0 0 0 0 0  0 0 0 0.1 0" type="matrix" in="shadowBlurOuter1"></feColorMatrix>
        </filter>
        <rect id="path-17" x="0" y="0" width="95.4366197" height="95.4545455" rx="20"></rect>
        <filter x="-50%" y="-50%" width="200%" height="200%" filterUnits="objectBoundingBox" id="filter-18">
            <feOffset dx="0" dy="0" in="SourceAlpha" result="shadowOffsetOuter1"></feOffset>
            <feGaussianBlur stdDeviation="5" in="shadowOffsetOuter1" result="shadowBlurOuter1"></feGaussianBlur>
            <feColorMatrix values="0 0 0 0 0   0 0 0 0 0   0 0 0 0 0  0 0 0 0.1 0" type="matrix" in="shadowBlurOuter1"></feColorMatrix>
        </filter>
        <rect id="path-19" x="0" y="0" width="95.4366197" height="95.4545455" rx="20"></rect>
        <filter x="-50%" y="-50%" width="200%" height="200%" filterUnits="objectBoundingBox" id="filter-20">
            <feOffset dx="0" dy="0" in="SourceAlpha" result="shadowOffsetOuter1"></feOffset>
            <feGaussianBlur stdDeviation="5" in="shadowOffsetOuter1" result="shadowBlurOuter1"></feGaussianBlur>
            <feColorMatrix values="0 0 0 0 0   0 0 0 0 0   0 0 0 0 0  0 0 0 0.1 0" type="matrix" in="shadowBlurOuter1"></feColorMatrix>
        </filter>
        <rect id="path-21" x="0" y="0" width="95.4366197" height="95.4545455" rx="20"></rect>
        <filter x="-50%" y="-50%" width="200%" height="200%" filterUnits="objectBoundingBox" id="filter-22">
            <feOffset dx="0" dy="0" in="SourceAlpha" result="shadowOffsetOuter1"></feOffset>
            <feGaussianBlur stdDeviation="5" in="shadowOffsetOuter1" result="shadowBlurOuter1"></feGaussianBlur>
            <feColorMatrix values="0 0 0 0 0   0 0 0 0 0   0 0 0 0 0  0 0 0 0.1 0" type="matrix" in="shadowBlurOuter1"></feColorMatrix>
        </filter>
        <rect id="path-23" x="0" y="0" width="95.4366197" height="95.4545455" rx="20"></rect>
        <filter x="-50%" y="-50%" width="200%" height="200%" filterUnits="objectBoundingBox" id="filter-24">
            <feOffset dx="0" dy="0" in="SourceAlpha" result="shadowOffsetOuter1"></feOffset>
            <feGaussianBlur stdDeviation="5" in="shadowOffsetOuter1" result="shadowBlurOuter1"></feGaussianBlur>
            <feColorMatrix values="0 0 0 0 0   0 0 0 0 0   0 0 0 0 0  0 0 0 0.1 0" type="matrix" in="shadowBlurOuter1"></feColorMatrix>
        </filter>
        <rect id="path-25" x="0" y="2.84217094e-14" width="95.4366197" height="95.4545455" rx="20"></rect>
        <filter x="-50%" y="-50%" width="200%" height="200%" filterUnits="objectBoundingBox" id="filter-26">
            <feOffset dx="0" dy="0" in="SourceAlpha" result="shadowOffsetOuter1"></feOffset>
            <feGaussianBlur stdDeviation="5" in="shadowOffsetOuter1" result="shadowBlurOuter1"></feGaussianBlur>
            <feColorMatrix values="0 0 0 0 0   0 0 0 0 0   0 0 0 0 0  0 0 0 0.1 0" type="matrix" in="shadowBlurOuter1"></feColorMatrix>
        </filter>
        <rect id="path-27" x="0" y="2.84217094e-14" width="95.4366197" height="95.4545455" rx="20"></rect>
        <filter x="-50%" y="-50%" width="200%" height="200%" filterUnits="objectBoundingBox" id="filter-28">
            <feOffset dx="0" dy="0" in="SourceAlpha" result="shadowOffsetOuter1"></feOffset>
            <feGaussianBlur stdDeviation="5" in="shadowOffsetOuter1" result="shadowBlurOuter1"></feGaussianBlur>
            <feColorMatrix values="0 0 0 0 0   0 0 0 0 0   0 0 0 0 0  0 0 0 0.1 0" type="matrix" in="shadowBlurOuter1"></feColorMatrix>
        </filter>
        <rect id="path-29" x="0" y="2.84217094e-14" width="95.4366197" height="95.4545455" rx="20"></rect>
        <filter x="-50%" y="-50%" width="200%" height="200%" filterUnits="objectBoundingBox" id="filter-30">
            <feOffset dx="0" dy="0" in="SourceAlpha" result="shadowOffsetOuter1"></feOffset>
            <feGaussianBlur stdDeviation="5" in="shadowOffsetOuter1" result="shadowBlurOuter1"></feGaussianBlur>
            <feColorMatrix values="0 0 0 0 0   0 0 0 0 0   0 0 0 0 0  0 0 0 0.1 0" type="matrix" in="shadowBlurOuter1"></feColorMatrix>
        </filter>
        <rect id="path-31" x="0" y="1.42108547e-14" width="95.4366197" height="95.4545455" rx="20"></rect>
        <filter x="-50%" y="-50%" width="200%" height="200%" filterUnits="objectBoundingBox" id="filter-32">
            <feOffset dx="0" dy="0" in="SourceAlpha" result="shadowOffsetOuter1"></feOffset>
            <feGaussianBlur stdDeviation="5" in="shadowOffsetOuter1" result="shadowBlurOuter1"></feGaussianBlur>
            <feColorMatrix values="0 0 0 0 0   0 0 0 0 0   0 0 0 0 0  0 0 0 0.1 0" type="matrix" in="shadowBlurOuter1"></feColorMatrix>
        </filter>
        <rect id="path-33" x="0" y="1.42108547e-14" width="95.4366197" height="95.4545455" rx="20"></rect>
        <filter x="-50%" y="-50%" width="200%" height="200%" filterUnits="objectBoundingBox" id="filter-34">
            <feOffset dx="0" dy="0" in="SourceAlpha" result="shadowOffsetOuter1"></feOffset>
            <feGaussianBlur stdDeviation="5" in="shadowOffsetOuter1" result="shadowBlurOuter1"></feGaussianBlur>
            <feColorMatrix values="0 0 0 0 0   0 0 0 0 0   0 0 0 0 0  0 0 0 0.1 0" type="matrix" in="shadowBlurOuter1"></feColorMatrix>
        </filter>
        <rect id="path-35" x="7.10542736e-15" y="0" width="95.4366197" height="95.4545455" rx="20"></rect>
        <filter x="-50%" y="-50%" width="200%" height="200%" filterUnits="objectBoundingBox" id="filter-36">
            <feOffset dx="0" dy="0" in="SourceAlpha" result="shadowOffsetOuter1"></feOffset>
            <feGaussianBlur stdDeviation="5" in="shadowOffsetOuter1" result="shadowBlurOuter1"></feGaussianBlur>
            <feColorMatrix values="0 0 0 0 0   0 0 0 0 0   0 0 0 0 0  0 0 0 0.1 0" type="matrix" in="shadowBlurOuter1"></feColorMatrix>
        </filter>
    </defs>
    <g id="Designs" stroke="none" stroke-width="1" fill="none" fill-rule="evenodd">
        <g id="Dev-Lander-v4" transform="translate(-932.000000, -281.000000)">
            <g id="hero-icons-right" transform="translate(932.000000, 281.000000)">
                <mask id="mask-2" fill="white">
                    <use xlink:href="#path-1"></use>
                </mask>
                <g id="Rectangle-2"></g>
                <g id="app-jira" mask="url(#mask-2)">
                    <g transform="translate(432.000000, 424.000000)">
                        <g id="Rectangle-4">
                            <use fill="black" fill-opacity="1" filter="url(#filter-4)" xlink:href="#path-3"></use>
                            <use fill="#264970" fill-rule="evenodd" xlink:href="#path-3"></use>
                        </g>
                        <g id="Group" stroke-width="1" fill-rule="evenodd" transform="translate(29.000000, 23.000000)">
                            <path d="M8.07513089,3.21492147 C6.28036649,3.21492147 4.82722513,4.66623037 4.82722513,6.46544503 C4.82722513,8.26020942 6.28036649,9.71675393 8.07513089,9.71675393 C9.87094241,9.71675393 11.3227749,8.26020942 11.3227749,6.46544503 C11.3227749,4.66623037 9.87120419,3.21492147 8.07513089,3.21492147 M29.4125654,3.21492147 C27.6170157,3.21492147 26.1657068,4.66623037 26.1657068,6.46544503 C26.1657068,8.26020942 27.6170157,9.71675393 29.4125654,9.71675393 C31.2031414,9.71675393 32.6596859,8.26020942 32.6596859,6.46544503 C32.6596859,4.66623037 31.2031414,3.21727749 29.4125654,3.21492147 M18.7437173,0.24895288 C16.9492147,0.24895288 15.4960733,1.7 15.4960733,3.49973822 C15.4960733,5.29450262 16.9489529,6.75104712 18.7437173,6.75104712 C20.5395288,6.75104712 21.9910995,5.29450262 21.9910995,3.49973822 C21.9910995,1.7 20.539267,0.24895288 18.7434555,0.24895288 M37.0905759,12.2727749 C36.9128432,12.1374565 36.6956344,12.0641646 36.4722513,12.0641361 C36.35,12.0641361 36.226178,12.0863874 36.1094241,12.1314136 C33.9104712,12.9725131 31.6769634,13.6109948 29.6387435,14.0858639 C29.2230366,14.1827225 28.8874346,14.491623 28.7481675,14.8623037 C27.263089,18.9301047 23.4709424,22.8036649 19.4924084,26.860733 C19.3327225,27.0123037 19.1091623,27.2123037 18.7450262,27.2123037 C18.3816754,27.2123037 18.1602094,27.0185864 17.997644,26.860733 C14.0196335,22.8036649 10.2274869,18.9434555 8.74188482,14.8753927 C8.6026178,14.5049738 8.26675393,14.1963351 7.85183246,14.0989529 C5.81230366,13.6240838 3.57356021,12.9657068 1.37696335,12.1251309 C1.26076663,12.0807843 1.13746054,12.057986 1.01308901,12.0578534 C0.792931937,12.0578534 0.579581152,12.1269634 0.39947644,12.2646597 C0.122389966,12.4765165 -0.0266466352,12.8157033 0.00471204188,13.163089 C0.341623037,16.5458115 1.67827225,19.8528796 4.09057592,23.3180628 C6.35811518,26.576178 9.31570681,29.5918848 12.1751309,32.5081152 C17.4437173,37.8824607 22.4209424,42.9578534 22.8575916,48.8434555 C22.8971915,49.3748683 23.3398887,49.78583 23.8727749,49.7858639 L30.0628272,49.7858639 C30.341426,49.7856164 30.6077711,49.6712938 30.7998638,49.4695074 C30.9919565,49.267721 31.0930388,48.9960747 31.0795812,48.717801 C30.8848168,44.7827225 29.4039267,40.8418848 26.552356,36.6717277 C25.954712,35.7973822 25.3146597,34.9465969 24.645288,34.1141361 C24.3732984,33.7751309 24.4871728,33.3539267 24.6950262,33.1413613 C24.9007853,32.9308901 25.1073298,32.7209424 25.315445,32.5081152 C28.1748691,29.5918848 31.132199,26.576178 33.4,23.3180628 C35.8120419,19.852356 37.1481675,16.5649215 37.4853403,13.1827225 C37.5188482,12.8429319 37.3646597,12.482199 37.0905759,12.2727749 M12.1026178,37.0863874 C11.9560209,36.9332461 11.7410995,36.7769634 11.3798429,36.7769634 C10.917801,36.7769634 10.6437173,37.0963351 10.5400524,37.2544503 C7.93638743,41.2164921 6.59162304,44.9560209 6.40575916,48.7138743 C6.39298447,48.9930102 6.49407003,49.2653744 6.68586387,49.4685864 C6.87950939,49.6705159 7.14692767,49.7850427 7.42670157,49.7858639 L13.6060209,49.7858639 C14.1399806,49.7835426 14.5829304,49.3721263 14.6246073,48.8397906 C14.7591623,47.028534 15.3230366,45.213089 16.3497382,43.3052356 C16.7057592,42.645288 16.4290576,42.0251309 16.2243455,41.7602094 C15.2060209,40.4356021 13.958377,39.0227749 12.1026178,37.0863874" id="Shape" fill="#FFFFFF" fill-rule="nonzero"></path>
                            <path d="M18.7507853,15.3052356 C20.6905759,15.3052356 21.8157068,15.1887435 22.2109948,15.1887435 C22.6900524,15.1887435 23.1473822,15.5811518 23.1473822,16.1303665 C23.1473822,16.2905759 23.1094241,16.4052356 23.0719895,16.5065445 C22.8146597,17.1942408 21.6421466,19.6688482 19.4591623,21.791623 C19.2141361,22.0298429 18.9366492,22.0743455 18.7455497,22.0743455 L18.7434555,22.0743455 C18.5526178,22.0743455 18.2753927,22.0298429 18.0306283,21.791623 C15.8473822,19.6688482 14.6746073,17.1942408 14.4180628,16.5062827 C14.3801047,16.4052356 14.3421466,16.2905759 14.3421466,16.1303665 C14.3421466,15.5811518 14.8002618,15.1887435 15.2793194,15.1887435 C15.6746073,15.1887435 16.7989529,15.3052356 18.7382199,15.3052356 L18.7510471,15.3052356" id="Shape" fill="#FFFFFF" fill-rule="nonzero"></path>
                        </g>
                    </g>
                </g>
                <g id="app-basecamp" mask="url(#mask-2)">
                    <g transform="translate(326.000000, 424.000000)">
                        <g id="Rectangle-4">
                            <use fill="black" fill-opacity="1" filter="url(#filter-6)" xlink:href="#path-5"></use>
                            <use fill="#B3DCFF" fill-rule="evenodd" xlink:href="#path-5"></use>
                        </g>
                        <g id="basecamp" stroke-width="1" fill-rule="evenodd" transform="translate(23.000000, 27.000000)">
                            <path d="M25.0585938,0 C11.6523438,0 1.14921875,17.0566406 0.15546875,31.4628906 C4.3625,38.7642578 14.5076172,41.5087891 25.0589844,41.5087891 C35.6095703,41.5087891 45.7552734,38.7642578 49.9601563,31.4626953 C48.9662109,17.0566406 38.4644531,0 25.0587891,0" id="Shape" fill="#FFFFFF" fill-rule="nonzero" opacity="0.900000036"></path>
                            <path d="M46.4570312,28.03125 C46.4570312,28.03125 43.4960937,21.6296875 40.4865234,17.8949219 C37.4748047,14.1585938 33.796875,10.0902344 31.6222656,10.0902344 C29.4488281,10.0902344 23.3730469,20.8476563 20.5857422,20.8476563 C17.7978516,20.8476563 16.3490234,15.9710938 12.9214844,15.9710938 C9.49257812,15.9710938 4.04492188,27.7306641 4.04492188,27.7306641 L3.67578125,29.7242188 C3.67578125,29.7242188 5.56835937,38.1150391 25.3679687,38.1150391 C45.1683594,38.1150391 46.7507812,29.8619141 46.7507812,29.8619141 L46.4572266,28.0310547" id="Shape" fill="#66CC66" fill-rule="nonzero"></path>
                            <path d="M20.8958984,25.4384766 C17.8208984,25.4384766 16.2445313,22.4044922 15.3898437,20.5316406 C14.6212891,18.8445312 14.4882812,16.1808594 12.3076172,16.10625 C12.521875,16.0212891 12.728125,15.9710937 12.9214844,15.9710937 C16.3490234,15.9710937 17.7978516,20.8476562 20.5857422,20.8476562 C23.3730469,20.8476562 29.4488281,10.0900391 31.6222656,10.0900391 C32.0318359,10.0900391 32.4931641,10.2345703 32.99375,10.4916016 C32.6234375,10.4427734 32.1486328,10.4767578 31.7828125,10.84375 C31.0802734,11.5464844 24.7027344,25.4384766 20.8958984,25.4384766" id="Shape" fill="#17AD49" fill-rule="nonzero"></path>
                        </g>
                    </g>
                </g>
                <g id="app-gravity" mask="url(#mask-2)">
                    <g transform="translate(220.000000, 424.000000)">
                        <g id="Rectangle-4">
                            <use fill="black" fill-opacity="1" filter="url(#filter-8)" xlink:href="#path-7"></use>
                            <use fill="#98ABB3" fill-rule="evenodd" xlink:href="#path-7"></use>
                        </g>
                        <g id="Group" stroke-width="1" fill-rule="evenodd" transform="translate(25.022727, 23.000000)">
                            <path d="M41.6168399,9.44897959 L26.863455,0.959183673 C25.777442,0.346938776 24.3430851,0 22.826765,0 C21.3104449,0 19.876088,0.346938776 18.790075,0.979591837 L4.03669004,9.46938776 C1.78270068,10.755102 0,13.8163265 0,16.4285714 L0,33.3877551 C0,36 1.78270068,39.0612245 4.03669004,40.3673469 L18.790075,48.8571429 C19.8965788,49.4897959 21.3309357,49.8367347 22.826765,49.8367347 C24.3430851,49.8367347 25.777442,49.4897959 26.863455,48.8571429 L41.6168399,40.3673469 C43.8913201,39.0612245 45.65353,36 45.65353,33.3877551 L45.65353,16.4285714 C45.6740208,13.8163265 43.8913201,10.755102 41.6168399,9.44897959 Z M43.1741417,33.3877551 C43.1741417,35.1020408 41.8627297,37.3469388 40.3873912,38.2040816 L25.6340063,46.6938776 C24.9168279,47.1020408 23.8922872,47.3469388 22.826765,47.3469388 C21.7612427,47.3469388 20.7367021,47.1020408 20.0400145,46.6938776 L5.28662959,38.2040816 C3.79080029,37.3469388 2.49987911,35.1020408 2.49987911,33.3877551 L2.49987911,16.4285714 C2.49987911,14.7142857 3.8112911,12.4693878 5.28662959,11.6122449 L20.0400145,3.12244898 C20.7571929,2.71428571 21.7817336,2.46938776 22.826765,2.46938776 C23.8922872,2.46938776 24.9168279,2.69387755 25.6340063,3.12244898 L40.3873912,11.6122449 C41.8832205,12.4693878 43.1741417,14.7142857 43.1741417,16.4285714 L43.1741417,33.3877551 Z" id="Shape" fill="#FFFFFF" fill-rule="nonzero"></path>
                            <path d="M9.30282882,32.4693878 L35.05978,32.4693878 L35.05978,25.6326531 L30.5722921,25.6326531 L30.5722921,28 L13.6058994,28 C13.7083535,26.5306122 14.0566973,23.9183673 15.3476185,22.5714286 C15.9213612,21.9591837 16.6590305,21.6734694 17.6425895,21.6734694 L35.162234,21.6734694 L35.162234,17.2040816 L17.6835711,17.2040816 C15.4090909,17.2040816 13.5239362,17.9795918 12.0690885,19.5102041 C8.58565039,23.1836735 9.0979207,30.122449 9.11841151,30.4081633 L9.30282882,32.4693878 Z" id="Shape" fill="#FFFFFF" fill-rule="nonzero"></path>
                        </g>
                    </g>
                </g>
                <g id="app-zendesk" mask="url(#mask-2)">
                    <g transform="translate(114.000000, 424.000000)">
                        <g id="Rectangle-4">
                            <use fill="black" fill-opacity="1" filter="url(#filter-10)" xlink:href="#path-9"></use>
                            <use fill="#00353D" fill-rule="evenodd" xlink:href="#path-9"></use>
                        </g>
                        <g id="Page-1" stroke-width="1" fill-rule="evenodd" transform="translate(22.000000, 29.000000)">
                            <g id="Group-3" transform="translate(0.000000, 0.103741)" fill="#FFFFFF">
                                <path d="M22.9639116,0.236530612 C22.9639116,6.5514966 17.8230952,11.6712245 11.4819388,11.6712245 C5.14078231,11.6712245 -3.40136057e-05,6.5514966 -3.40136057e-05,0.236530612 L22.9639116,0.236530612 Z" id="Fill-1"></path>
                            </g>
                            <g id="Group-6" transform="translate(26.530612, 26.294218)">
                                <mask id="mask-12" fill="white">
                                    <use xlink:href="#path-11"></use>
                                </mask>
                                <g id="Clip-5"></g>
                                <path d="M0.217142857,11.5646599 C0.217142857,5.24969388 5.35795918,0.129965986 11.6991156,0.129965986 C18.0402721,0.129965986 23.1810884,5.24969388 23.1810884,11.5646599 L0.217142857,11.5646599 Z" id="Fill-4" fill="#FFFFFF" mask="url(#mask-12)"></path>
                            </g>
                            <g id="Group-9" transform="translate(0.000000, 9.967687)" fill="#FFFFFF">
                                <polygon id="Fill-7" points="22.9639116 0.282210884 22.9639116 27.8910544 -3.40136057e-05 27.8910544"></polygon>
                            </g>
                            <g id="Group-12" transform="translate(26.530612, 0.103741)">
                                <mask id="mask-14" fill="white">
                                    <use xlink:href="#path-13"></use>
                                </mask>
                                <g id="Clip-11"></g>
                                <polygon id="Fill-10" fill="#FFFFFF" mask="url(#mask-14)" points="0.217142857 27.8453401 0.217142857 0.236496599 23.1810884 0.236496599"></polygon>
                            </g>
                        </g>
                    </g>
                </g>
                <g id="app-eventbrite" mask="url(#mask-2)">
                    <g transform="translate(8.000000, 424.000000)">
                        <g id="Rectangle-4" fill="none">
                            <use fill="black" fill-opacity="1" filter="url(#filter-16)" xlink:href="#path-15"></use>
                            <use fill="#EE8636" fill-rule="evenodd" xlink:href="#path-15"></use>
                        </g>
                        <path d="M25.2562066,66.3377767 L33.2456583,28.3842587 C34.0251877,24.7010548 36.2942267,23 39.7658855,23 L65.064367,23 C67.9680415,23 69.5271003,24.1330706 69.5271003,26.1152197 C69.5271003,27.2511881 68.8924648,29.7984236 67.7535985,30.934392 C66.9740691,31.7863684 66.0554415,32.0703605 63.7139555,32.0703605 L42.9535521,32.0703605 L40.5193339,43.2503767 L56.0374747,43.2503767 C58.729604,43.2503767 60.1466667,44.3834473 60.1466667,46.1540512 C60.1466667,47.2175727 59.6511295,49.5561609 58.587608,50.6892315 C57.8776277,51.3963139 56.9561022,51.8252 54.8319571,51.8252 L38.6733852,51.8252 L36.1725158,63.9296395 L56.8633701,63.9296395 C59.7699425,63.9296395 61.2565543,65.065608 61.2565543,66.978208 C61.2565543,68.1837255 60.6914679,70.6614118 59.5583974,71.8669294 C58.7759701,72.6493567 57.7848956,73 55.5158565,73 L30.5013671,73 C26.177732,73 24.265132,70.7976121 25.2562066,66.3377767" id="Fill-1" fill="#FFFFFF" fill-rule="evenodd"></path>
                    </g>
                </g>
                <g id="app-todoist" mask="url(#mask-2)">
                    <g transform="translate(432.000000, 318.000000)">
                        <g id="Rectangle-4" fill="none">
                            <use fill="black" fill-opacity="1" filter="url(#filter-18)" xlink:href="#path-17"></use>
                            <use fill="#E44332" fill-rule="evenodd" xlink:href="#path-17"></use>
                        </g>
                        <path d="M66.5025975,23 L29.2465905,23 C25.8314565,23 23.037256,25.8082876 23.037256,29.2406391 L23.037256,37.2661009 C23.037256,37.2661009 31.0100415,41.9216176 31.5192069,42.2211683 C32.1649777,42.5956066 32.9597725,42.5831253 33.5931246,42.2211683 C34.1271274,41.9091363 50.1968851,32.6355467 50.4328398,32.4982526 C51.0165172,32.1612581 51.6374507,32.2735896 51.9851734,32.4857713 C52.3204774,32.6854718 53.239459,33.2096855 53.723787,33.4842736 C54.2081152,33.7588617 54.1832779,34.532701 53.7486245,34.7823265 C53.3139709,35.0319521 34.5245248,45.9031452 33.6427993,46.4148777 C32.9225165,46.8267598 32.2146524,46.8392412 31.4695322,46.4148777 C30.2276653,45.7034448 25.0863364,42.7079381 23.0248373,41.4972541 L23.0248373,45.7034448 C23.0248373,45.7034448 30.9976228,50.3589616 31.5067882,50.6585122 C32.152559,51.0329505 32.9473539,51.0204694 33.580706,50.6585122 C34.1147087,50.3464804 50.1844663,41.0728907 50.420421,40.9355966 C51.0040985,40.5986021 51.625032,40.7109336 51.9727547,40.9231153 C52.3080588,41.1228158 53.2270402,41.6470295 53.7113684,41.9216176 C54.1956964,42.1962057 54.1708591,42.970045 53.7362057,43.2196705 C53.3015523,43.4692961 34.5121062,54.3404893 33.6303807,54.8522218 C32.9100979,55.2641039 32.2022337,55.2765851 31.4571136,54.8522218 C30.2152467,54.1407889 25.0739177,51.1452822 23.0124187,49.934598 L23.0124187,54.1407889 C23.0124187,54.1407889 30.9852041,58.7963056 31.4943696,59.0958563 C32.1401404,59.4702946 32.9349352,59.4578134 33.5682873,59.0958563 C34.1022901,58.7838242 50.1720478,49.5102347 50.4080025,49.3729405 C50.9916799,49.0359462 51.6126134,49.1482776 51.9603361,49.3604594 C52.2956401,49.5601598 53.2146217,50.0843734 53.6989497,50.3589616 C54.1832779,50.6335497 54.1584406,51.407389 53.723787,51.6570144 C53.2891336,51.9066401 34.4996875,62.7778334 33.617962,63.2895656 C32.8976792,63.701448 32.1898151,63.7139291 31.4446949,63.2895656 C30.202828,62.5781328 25.0614991,59.582626 23,58.3719421 L23,66.7593611 C23,70.1917125 25.7942005,73 29.2093345,73 L66.4653414,73 C69.8804755,73 72.6746759,70.1917125 72.6746759,66.7593611 L72.6746759,29.3155267 C72.711932,25.8082876 69.9177314,23 66.5025975,23 L66.5025975,23 Z" id="Shape-path" fill="#FFFFFF" fill-rule="evenodd"></path>
                    </g>
                </g>
                <g id="app-podio" mask="url(#mask-2)">
                    <g transform="translate(326.000000, 318.000000)">
                        <g id="Rectangle-4" fill="none">
                            <use fill="black" fill-opacity="1" filter="url(#filter-20)" xlink:href="#path-19"></use>
                            <use fill="#5088AC" fill-rule="evenodd" xlink:href="#path-19"></use>
                        </g>
                        <path d="M63.3405097,29.2265757 C55.0706132,20.9571753 41.6327135,20.9237736 33.3203208,29.1313312 L33.2227614,29.2283946 C24.923597,37.5321888 24.9262427,51.0403644 33.227722,59.3410169 L46.0501706,72.1611505 C46.5870048,72.6993347 47.3162777,73.0012444 48.07643,72.9999961 C48.8094485,72.9999961 49.5446165,72.7212077 50.1040123,72.1611505 C51.221977,71.0416976 51.221977,69.2264311 50.1040123,68.1074743 L37.2795794,55.2861831 C31.2315572,49.239153 31.2122107,39.4078099 37.2233587,33.3353152 L37.2818944,33.277937 C43.3500899,27.2135447 53.221945,27.2153636 59.2863373,33.2799213 C64.2661666,38.2600813 64.9808306,46.7826401 60.9455087,53.1066397 C60.0944269,54.4400619 60.4864834,56.2123361 61.8199057,57.0635833 C63.1564696,57.9174762 64.9264289,57.5236008 65.7768493,56.1906746 C71.3144208,47.5138396 70.2893856,36.1749555 63.3405097,29.2265757 M58.2090499,59.9984681 C59.327676,61.117921 59.3289989,62.9333529 58.2090499,64.0513176 C57.6734594,64.5906281 56.9445177,64.8934807 56.184444,64.8924782 C55.4232225,64.8934003 54.6929444,64.5912695 54.1548775,64.0528058 L41.332925,51.2326722 C37.5024778,47.4010676 37.5024778,41.1653675 41.332925,37.3329361 C43.1890341,35.4786459 45.6564605,34.4564216 48.2811394,34.4564216 L48.2839505,34.4564216 C50.9081333,34.4564216 53.3758904,35.4799687 55.2306768,37.3372354 C57.7865301,39.8910551 58.7338429,43.6419467 57.697111,47.103098 C57.2413928,48.6198988 55.6475366,49.4835476 54.1300743,49.029483 C52.6131081,48.5772372 51.7496246,46.9799085 52.2015397,45.4621156 C52.6355622,44.0195428 52.2417037,42.4551623 51.176339,41.3900849 C50.402974,40.6157277 49.3764505,40.189608 48.2826276,40.189112 L48.2809741,40.189112 C47.1869858,40.189112 46.1604624,40.6147356 45.3866013,41.3872738 C43.7902647,42.9836104 43.7902647,45.5818325 45.3866013,47.1784998 L58.2090499,59.9983028" id="Shape" fill="#FFFFFF" fill-rule="nonzero"></path>
                    </g>
                </g>
                <g id="app-instagram" mask="url(#mask-2)">
                    <g transform="translate(220.000000, 318.000000)">
                        <g id="Rectangle-4">
                            <use fill="black" fill-opacity="1" filter="url(#filter-22)" xlink:href="#path-21"></use>
                            <use fill="#405DE6" fill-rule="evenodd" xlink:href="#path-21"></use>
                        </g>
                        <g id="instagram" stroke-width="1" fill-rule="evenodd" transform="translate(23.000000, 23.000000)">
                            <path d="M24.9921627,0.0157738095 C18.2046627,0.0157738095 17.3535714,0.0445436508 14.6878968,0.166170635 C12.0277778,0.2875 10.2110119,0.710019841 8.62132937,1.32787698 C6.97787698,1.96646825 5.58412698,2.82103175 4.19464286,4.21041667 C2.80525794,5.59990079 1.95069444,6.99365079 1.31210317,8.63710317 C0.694246032,10.2267857 0.27172619,12.0435516 0.150396825,14.7036706 C0.0287698413,17.3693452 0,18.2204365 0,25.0079365 C0,31.7953373 0.0287698413,32.6464286 0.150396825,35.3121032 C0.27172619,37.9722222 0.694246032,39.7889881 1.31210317,41.3786706 C1.95069444,43.022123 2.80525794,44.415873 4.19464286,45.8053571 C5.58412698,47.1947421 6.97787698,48.0493056 8.62132937,48.687996 C10.2110119,49.305754 12.0277778,49.7282738 14.6878968,49.8496032 C17.3535714,49.9712302 18.2046627,50 24.9921627,50 C31.7795635,50 32.6306548,49.9712302 35.2963294,49.8496032 C37.9564484,49.7282738 39.7732143,49.305754 41.3628968,48.687996 C43.0063492,48.0493056 44.4000992,47.1947421 45.7895833,45.8053571 C47.1789683,44.415873 48.0335317,43.022123 48.6722222,41.3786706 C49.2899802,39.7889881 49.7125,37.9722222 49.8338294,35.3121032 C49.9554563,32.6464286 49.9842262,31.7953373 49.9842262,25.0079365 C49.9842262,18.2204365 49.9554563,17.3693452 49.8338294,14.7036706 C49.7125,12.0435516 49.2899802,10.2267857 48.6722222,8.63710317 C48.0335317,6.99365079 47.1789683,5.59990079 45.7895833,4.21041667 C44.4000992,2.82103175 43.0063492,1.96646825 41.3628968,1.32787698 C39.7732143,0.710019841 37.9564484,0.2875 35.2963294,0.166170635 C32.6306548,0.0445436508 31.7795635,0.0157738095 24.9921627,0.0157738095 Z M24.9921627,4.51884921 C31.6652778,4.51884921 32.455754,4.54434524 35.0910714,4.66458333 C37.5277778,4.77569444 38.8510913,5.1828373 39.731746,5.52509921 C40.8983135,5.97847222 41.7308532,6.52003968 42.6053571,7.39464286 C43.4799603,8.26914683 44.0215278,9.10168651 44.4749008,10.268254 C44.8171627,11.1489087 45.2243056,12.4722222 45.3354167,14.9089286 C45.4556548,17.544246 45.4811508,18.3347222 45.4811508,25.0079365 C45.4811508,31.6810516 45.4556548,32.4715278 45.3354167,35.1068452 C45.2243056,37.5435516 44.8171627,38.8668651 44.4749008,39.7475198 C44.0215278,40.9140873 43.4799603,41.746627 42.6053571,42.621131 C41.7308532,43.4957341 40.8983135,44.0373016 39.731746,44.4906746 C38.8510913,44.8329365 37.5277778,45.2400794 35.0910714,45.3511905 C32.4561508,45.4714286 31.6657738,45.4969246 24.9921627,45.4969246 C18.3184524,45.4969246 17.5281746,45.4714286 14.8931548,45.3511905 C12.4564484,45.2400794 11.1331349,44.8329365 10.2524802,44.4906746 C9.0859127,44.0373016 8.25337302,43.4957341 7.37886905,42.621131 C6.50436508,41.746627 5.96269841,40.9140873 5.5093254,39.7475198 C5.16706349,38.8668651 4.75992063,37.5435516 4.64880952,35.1068452 C4.52857143,32.4715278 4.5030754,31.6810516 4.5030754,25.0079365 C4.5030754,18.3347222 4.52857143,17.544246 4.64880952,14.9089286 C4.75992063,12.4722222 5.16706349,11.1489087 5.5093254,10.268254 C5.96269841,9.10168651 6.50426587,8.26914683 7.37886905,7.39464286 C8.25337302,6.52003968 9.0859127,5.97847222 10.2524802,5.52509921 C11.1331349,5.1828373 12.4564484,4.77569444 14.8931548,4.66458333 C17.5284722,4.54434524 18.3189484,4.51884921 24.9921627,4.51884921 L24.9921627,4.51884921 Z" id="Fill-1" fill="#FFFFFF"></path>
                            <path d="M24.9921627,33.3385913 C20.3911706,33.3385913 16.6614087,29.6088294 16.6614087,25.0079365 C16.6614087,20.4069444 20.3911706,16.6771825 24.9921627,16.6771825 C29.5930556,16.6771825 33.3228175,20.4069444 33.3228175,25.0079365 C33.3228175,29.6088294 29.5930556,33.3385913 24.9921627,33.3385913 Z M24.9921627,12.1741071 C17.9041667,12.1741071 12.1583333,17.9199405 12.1583333,25.0079365 C12.1583333,32.0958333 17.9041667,37.8416667 24.9921627,37.8416667 C32.0800595,37.8416667 37.8258929,32.0958333 37.8258929,25.0079365 C37.8258929,17.9199405 32.0800595,12.1741071 24.9921627,12.1741071 L24.9921627,12.1741071 Z" id="Fill-4" fill="#FFFFFF"></path>
                            <path d="M41.3320437,11.6670635 C41.3320437,13.3234127 39.9892857,14.6660714 38.3329365,14.6660714 C36.6766865,14.6660714 35.3339286,13.3234127 35.3339286,11.6670635 C35.3339286,10.0107143 36.6766865,8.66795635 38.3329365,8.66795635 C39.9892857,8.66795635 41.3320437,10.0107143 41.3320437,11.6670635" id="Fill-5" fill="#FFFFFF"></path>
                        </g>
                    </g>
                </g>
                <g id="app-wooforms" mask="url(#mask-2)">
                    <g transform="translate(114.000000, 318.000000)">
                        <g id="Rectangle-4" fill="none">
                            <use fill="black" fill-opacity="1" filter="url(#filter-24)" xlink:href="#path-23"></use>
                            <use fill="#C14A41" fill-rule="evenodd" xlink:href="#path-23"></use>
                        </g>
                        <polyline id="Fill-5" fill="#FFFFFF" fill-rule="evenodd" points="37.6110268 67.5030022 23 38.5281178 32.9528619 35.3723283 40.690546 52.6987127 41.7526564 34.0979294 50.4005778 32.4288273 58.3810921 49.4517993 59.0982335 30.7513806 68 29 65.4512022 62.1053321 56.1355398 63.9561812 48.0946101 47.2975378 46.9719174 65.7768226 37.6110268 67.5030022"></polyline>
                    </g>
                </g>
                <g id="app-infusionsoft" mask="url(#mask-2)">
                    <g transform="translate(432.000000, 212.000000)">
                        <g id="Rectangle-4">
                            <use fill="black" fill-opacity="1" filter="url(#filter-26)" xlink:href="#path-25"></use>
                            <use fill="#2F3241" fill-rule="evenodd" xlink:href="#path-25"></use>
                        </g>
                        <g id="Fill-1-+-Fill-3-+-Fill-5" stroke-width="1" fill-rule="evenodd" transform="translate(33.000000, 23.000000)">
                            <polygon id="Fill-1" fill="#70BF3C" fill-rule="nonzero" points="26.3225806 21.8064516 26.3225806 0.306451613 0 16.5967742 0 38.0967742"></polygon>
                            <polyline id="Fill-3" fill="#9B9694" fill-rule="nonzero" points="28.7419355 48.3870968 0 38.0967742 22.016129 24.483871 28.7419355 26.8870968 28.7419355 48.3870968"></polyline>
                            <polyline id="Fill-5" fill="#678356" fill-rule="nonzero" points="0 38.0967742 0 16.5967742 22.016129 24.483871 0 38.0967742"></polyline>
                        </g>
                    </g>
                </g>
                <g id="app-hubspot" mask="url(#mask-2)">
                    <g transform="translate(326.000000, 212.000000)">
                        <g id="Rectangle-4" fill="none">
                            <use fill="black" fill-opacity="1" filter="url(#filter-28)" xlink:href="#path-27"></use>
                            <use fill="#F8761F" fill-rule="evenodd" xlink:href="#path-27"></use>
                        </g>
                        <path d="M66.6091765,46.6351712 C65.4860537,44.7001505 63.9062312,43.148887 61.931108,41.9810353 C60.4551122,41.120604 58.924616,40.5745012 57.1999189,40.3399637 L57.1999189,34.191558 C58.924616,33.4582398 59.994963,31.8351298 59.994963,29.941559 C59.994963,27.3606103 57.928086,25.2691161 55.3527682,25.2691161 C52.7753809,25.2691161 50.6722852,27.3606103 50.6722852,29.941559 C50.6722852,31.8351298 51.6808881,33.4582398 53.4055852,34.191558 L53.4055852,40.342727 C52.0258275,40.5423775 50.5950188,40.9731113 49.2883882,41.6349285 C46.6195919,39.6052638 37.8684787,32.9466786 32.7492327,29.0576393 C32.8706514,28.6193063 32.9641299,28.1675022 32.9641299,27.690828 C32.9641299,24.8321648 30.6523459,22.5151139 27.7965924,22.5151139 C24.9408389,22.5151139 22.6300897,24.8321648 22.6300897,27.690828 C22.6300897,30.5491458 24.9432535,32.8668875 27.799007,32.8668875 C28.7731159,32.8668875 29.6740977,32.5815738 30.4515912,32.1124988 L31.5319415,32.9332074 L46.3767545,43.6438682 C45.5920173,44.3654423 44.8610907,45.1861509 44.2764184,46.10703 C43.0915515,47.9843663 42.3675236,50.0499542 42.3675236,52.3031031 L42.3675236,52.7732144 C42.3675236,54.3548744 42.6676209,55.848108 43.1788211,57.2508426 C43.6289671,58.4756879 44.2871115,59.5893092 45.1022034,60.596197 L40.1754336,65.541864 C38.7171564,64.9983432 37.0762143,65.3586985 35.9789005,66.463434 C35.2275071,67.2121618 34.806656,68.2309143 34.8102457,69.2923915 C34.8105907,70.3607633 35.2262427,71.3648877 35.9809702,72.1203126 C36.7281767,72.8733014 37.7452691,73.2954779 38.8053342,73.2926547 C39.8656816,73.2953695 40.8830555,72.8732308 41.630733,72.1203126 C42.3816355,71.3716242 42.8026315,70.3534955 42.8000776,69.2923915 C42.8000776,68.8789284 42.7362638,68.4754825 42.6162249,68.0920707 L47.7085657,62.9920027 C48.406723,63.4748944 49.1607606,63.8814491 49.9713683,64.2320463 C51.5701625,64.9242601 53.3348726,65.3460131 55.2661884,65.3460131 L55.6200963,65.3460131 C57.7552713,65.3460131 59.7693726,64.8437782 61.6627451,63.8165108 C63.6578748,62.7308682 65.2194155,61.24627 66.3991084,59.3509722 C67.5850101,57.4504931 68.2379804,55.3507089 68.2379804,53.0405664 L68.2379804,52.9251974 C68.2379804,50.6527052 67.7126377,48.5560298 66.6091765,46.6351712 L66.6091765,46.6351712 Z M60.3871591,57.3337424 C59.0049869,58.8718801 57.4161959,59.8193563 55.6200963,59.8193563 L55.3241383,59.8193563 C54.2982884,59.8193563 53.2948596,59.5354243 52.3124722,59.0190273 C51.2052166,58.4504725 50.3635644,57.6394356 49.6747204,56.6125137 C48.9627654,55.6045897 48.5764332,54.5040942 48.5764332,53.3372788 L48.5764332,52.9828819 C48.5764332,51.8357552 48.7961597,50.7480401 49.3501324,49.7207727 C49.9423934,48.5978252 50.7423079,47.7246134 51.8061011,47.0303271 C52.8505777,46.3408767 53.9661118,46.0027144 55.2085836,46.0027144 L55.3241383,46.0027144 C56.4507104,46.0027144 57.5172631,46.2251623 58.5237964,46.7408685 C59.5493013,47.2907708 60.3871591,48.0420507 61.0366801,49.0302861 C61.6675743,50.0188668 62.0428684,51.0851661 62.1635972,52.2468003 C62.1825688,52.4882461 62.1922272,52.735564 62.1922272,52.9718286 C62.1922272,54.5483074 61.5906528,56.0083811 60.3871591,57.3337424 Z" id="Shape" fill="#FFFFFF" fill-rule="nonzero"></path>
                    </g>
                </g>
                <g id="app-active-campaign" mask="url(#mask-2)">
                    <g transform="translate(220.000000, 212.000000)">
                        <g id="Rectangle-4">
                            <use fill="black" fill-opacity="1" filter="url(#filter-30)" xlink:href="#path-29"></use>
                            <use fill="#2C5797" fill-rule="evenodd" xlink:href="#path-29"></use>
                        </g>
                        <g id="Group" stroke-width="1" fill-rule="evenodd" transform="translate(31.000000, 23.000000)">
                            <path d="M31.8928571,28.3704082 C33.1428571,27.5030612 33.505102,26.3673469 33.505102,25.277551 C33.505102,24.1867347 33.505102,26.3193878 33.505102,24.7959184 C33.505102,23.6622449 32.8795918,22.777551 31.8908163,22.0683673 C31.0561224,21.4683673 0.770408163,0.413265306 0.770408163,0.413265306 L0.770408163,4.89285714 C0.770408163,6.44795918 1.61428571,6.96734694 2.67244898,7.71530612 C4.19693878,8.79081633 27.8459184,25.2112245 27.8459184,25.2112245 C27.8459184,25.2112245 3.88367347,41.7704082 2.45102041,42.7214286 C0.962244898,43.7081633 0.770408163,44.3846939 0.770408163,45.6928571 L0.770408163,49.8857143 C0.770408163,49.8857143 30.5397959,29.3091837 31.8928571,28.3704082" id="Fill-10" fill="#FFFFFF"></path>
                            <path d="M0.770408163,15.2591837 L0.770408163,18.3397959 C0.770408163,18.3397959 10.1193878,24.8714286 11.9316327,26.0704082 C13.4765306,27.094898 14.7795918,27.0142857 16.3561224,25.8510204 C17.3346939,25.1295918 18.255102,24.4938776 18.255102,24.4938776 C18.255102,24.4938776 4.63163265,15.0428571 3.19387755,14.0928571 C2.04387755,13.3306122 0.770408163,13.8714286 0.770408163,15.2591837" id="Fill-11" fill="#FFFFFF"></path>
                        </g>
                    </g>
                </g>
                <g id="app-pipedrive" mask="url(#mask-2)">
                    <g transform="translate(432.000000, 106.000000)">
                        <g id="Rectangle-4" fill="none">
                            <use fill="black" fill-opacity="1" filter="url(#filter-32)" xlink:href="#path-31"></use>
                            <use fill="#1B1A18" fill-rule="evenodd" xlink:href="#path-31"></use>
                        </g>
                        <path d="M49.6356939,51.7205178 C44.3008549,51.7205178 41.8770994,46.6122901 41.8770994,41.8799794 C41.8770994,34.4260595 45.9538289,31.7688716 49.7675681,31.7688716 C54.4453101,31.7688716 57.5913418,35.802401 57.5913418,41.8102528 C57.5913418,48.6608864 53.5919178,51.7205178 49.6356939,51.7205178 M51.6479112,23 C46.0803977,23 42.8600922,25.4987874 41.3071606,27.2245195 C41.1222337,25.737525 40.1415146,23.8079185 36.3133754,23.8079185 L28,23.8079185 L28,32.5093373 L31.4067483,32.5093373 C31.9842661,32.5093373 32.169193,32.6927484 32.169193,33.2687504 L32.169193,73 L42.0787001,73 L42.0787001,58.0876129 C42.0787001,57.6851695 42.0711211,57.3092524 42.0605105,56.972746 C43.6081368,58.3938034 46.5646941,60.3514521 51.1818044,60.3514521 C60.8677318,60.3514521 67.6387862,52.6739526 67.6387862,41.6776208 C67.6387862,30.5069727 61.2095434,23 51.6479112,23" id="Fill-4" fill="#FFFFFF" fill-rule="evenodd"></path>
                    </g>
                </g>
                <g id="app-salesforce" mask="url(#mask-2)">
                    <g transform="translate(326.000000, 106.000000)">
                        <g id="Rectangle-4">
                            <use fill="black" fill-opacity="1" filter="url(#filter-34)" xlink:href="#path-33"></use>
                            <use fill="#FFFFFF" fill-rule="evenodd" xlink:href="#path-33"></use>
                        </g>
                        <g id="salesforce" stroke-width="1" fill-rule="evenodd" transform="translate(12.000000, 26.000000)">
                            <path d="M29.968128,5.48307143 C32.287896,3.08521429 35.517456,1.598 39.089232,1.598 C43.837344,1.598 47.979792,4.22457143 50.185872,8.12378571 C52.102944,7.27407143 54.224928,6.80135714 56.457504,6.80135714 C65.021184,6.80135714 71.964,13.7490714 71.964,22.319 C71.964,30.8899286 65.021184,37.8376429 56.457504,37.8376429 C55.4317775,37.8382364 54.4085609,37.7370906 53.40312,37.5357143 C51.460488,40.9734286 47.758536,43.2961429 43.509456,43.2961429 C41.730696,43.2961429 40.048272,42.8885714 38.550312,42.1637857 C36.580968,46.7592857 31.992768,49.9815 26.645256,49.9815 C21.076488,49.9815 16.330464,46.4858571 14.50872,41.5833571 C13.712616,41.7510714 12.887784,41.8385 12.041424,41.8385 C5.41116,41.8385714 0.036,36.4512143 0.036,29.8044286 C0.036,25.3502143 2.451024,21.4610714 6.039216,19.3803571 C5.300496,17.6940714 4.889592,15.8328571 4.889592,13.8760714 C4.889592,6.23214286 11.14488,0.0357142857 18.860256,0.0357142857 C23.390064,0.0357142857 27.4158,2.17235714 29.968128,5.48307143" id="Shape" fill="#00A1E0" fill-rule="nonzero"></path>
                            <path d="M10.454112,25.9364286 C10.40904,26.0533571 10.470528,26.0777857 10.484856,26.0980714 C10.620072,26.1956429 10.757448,26.2658571 10.89576,26.3440714 C11.629368,26.7302857 12.32208,26.8430714 13.046472,26.8430714 C14.521896,26.8430714 15.43788,26.0645 15.43788,24.8111429 L15.43788,24.7867857 C15.43788,23.6279286 14.404104,23.2071429 13.43376,22.9032143 L13.30776,22.8625714 C12.576168,22.6267143 11.945016,22.4235 11.945016,21.9457143 L11.945016,21.9203571 C11.945016,21.5117143 12.313872,21.2107857 12.885624,21.2107857 C13.52088,21.2107857 14.275008,21.4202143 14.760648,21.6865 C14.760648,21.6865 14.903064,21.778 14.955336,21.6407857 C14.983992,21.5675714 15.229944,20.9109286 15.255576,20.8397857 C15.283224,20.7625 15.234048,20.7055714 15.183864,20.6750714 C14.629536,20.3406429 13.863096,20.1119286 13.070088,20.1119286 L12.92256,20.1129286 C11.572128,20.1129286 10.629504,20.9220714 10.629504,22.0818571 L10.629504,22.1062857 C10.629504,23.3290714 11.669472,23.7255 12.64392,24.002 L12.800664,24.0497857 C13.510728,24.2662857 14.12244,24.4522857 14.12244,24.9483571 L14.12244,24.9727857 C14.12244,25.4261429 13.724928,25.7635714 13.08348,25.7635714 C12.834504,25.7635714 12.040416,25.7585 11.182824,25.2207143 C11.079288,25.1607143 11.01888,25.1170714 10.93896,25.0692857 C10.896984,25.0428571 10.791432,24.9970714 10.745352,25.1353571 L10.454112,25.9364286 L10.454112,25.9364286 Z M32.053968,25.9364286 C32.008896,26.0533571 32.070384,26.0777857 32.084712,26.0980714 C32.219928,26.1956429 32.357304,26.2658571 32.495544,26.3440714 C33.229152,26.7302857 33.921936,26.8430714 34.646256,26.8430714 C36.12168,26.8430714 37.037736,26.0645 37.037736,24.8111429 L37.037736,24.7867857 C37.037736,23.6279286 36.003888,23.2071429 35.033544,22.9032143 L34.907544,22.8625714 C34.175952,22.6267143 33.544728,22.4235 33.544728,21.9457143 L33.544728,21.9203571 C33.544728,21.5117143 33.913584,21.2107857 34.485336,21.2107857 C35.120592,21.2107857 35.87472,21.4202143 36.360432,21.6865 C36.360432,21.6865 36.502848,21.778 36.555048,21.6407857 C36.583704,21.5675714 36.829656,20.9109286 36.855288,20.8397857 C36.883008,20.7625 36.83376,20.7055714 36.783576,20.6750714 C36.229248,20.3406429 35.462808,20.1119286 34.6698,20.1119286 L34.5222,20.1129286 C33.171768,20.1129286 32.229144,20.9220714 32.229144,22.0818571 L32.229144,22.1062857 C32.229144,23.3290714 33.269112,23.7255 34.24356,24.002 L34.400304,24.0497857 C35.110368,24.2662857 35.72316,24.4522857 35.72316,24.9483571 L35.72316,24.9727857 C35.72316,25.4261429 35.324568,25.7635714 34.68312,25.7635714 C34.434216,25.7635714 33.640128,25.7585 32.782536,25.2207143 C32.679,25.1607143 32.617584,25.1190714 32.539752,25.0692857 C32.51304,25.052 32.388048,25.0042143 32.344992,25.1353571 L32.053968,25.9364286 L32.053968,25.9364286 Z M46.79964,23.4814286 C46.79964,24.1899286 46.66644,24.7479286 46.404144,25.1423571 C46.144872,25.5327143 45.752472,25.7227857 45.205416,25.7227857 C44.65728,25.7227857 44.266896,25.5337143 44.011728,25.1423571 C43.753464,24.749 43.622424,24.1899286 43.622424,23.4814286 C43.622424,22.774 43.753464,22.2169286 44.011728,21.8265714 C44.266896,21.4403571 44.65728,21.2522857 45.205416,21.2522857 C45.752544,21.2522857 46.144944,21.4403571 46.405224,21.8265714 C46.666512,22.2168571 46.79964,22.7739286 46.79964,23.4814286 L46.79964,23.4814286 Z M48.031272,22.1681429 C47.910312,21.7625 47.721816,21.4047143 47.470824,21.1069286 C47.21976,20.8080714 46.902168,20.5682143 46.525032,20.3933571 C46.148976,20.2195714 45.704376,20.1311429 45.205416,20.1311429 C44.705376,20.1311429 44.260704,20.2195714 43.884648,20.3933571 C43.507584,20.5682143 43.189992,20.8081429 42.93792,21.1069286 C42.687936,21.4057857 42.499368,21.7635714 42.377472,22.1681429 C42.257592,22.5716429 42.197112,23.0127857 42.197112,23.4814286 C42.197112,23.9500714 42.257592,24.3922143 42.377472,24.7947143 C42.499368,25.1992857 42.686928,25.5571429 42.939,25.8559286 C43.189992,26.1547857 43.508664,26.3936429 43.88472,26.5633571 C44.261712,26.7331429 44.705376,26.8195 45.205488,26.8195 C45.704448,26.8195 46.148112,26.7331429 46.525104,26.5633571 C46.90116,26.3936429 47.21976,26.1547143 47.470896,25.8559286 C47.721888,25.5580714 47.910384,25.2002857 48.031344,24.7947143 C48.152304,24.3912143 48.212712,23.949 48.212712,23.4814286 C48.212712,23.0138571 48.15216,22.5716429 48.031272,22.1681429 L48.031272,22.1681429 Z M58.144896,25.5335714 C58.103928,25.4146429 57.988152,25.4593571 57.988152,25.4593571 C57.808872,25.5275 57.618216,25.5905 57.415392,25.622 C57.2094,25.6534286 56.98296,25.6697857 56.740104,25.6697857 C56.143872,25.6697857 55.670472,25.4939286 55.331352,25.1462857 C54.991152,24.7986429 54.800568,24.2365714 54.802584,23.4762143 C54.804672,22.784 54.972648,22.2635 55.274976,21.8671429 C55.575216,21.4727857 56.0322,21.2704286 56.641824,21.2704286 C57.150072,21.2704286 57.53736,21.3283571 57.943008,21.4554286 C57.943008,21.4554286 58.040352,21.4970714 58.086432,21.3710714 C58.194,21.0742143 58.27392,20.8617857 58.388688,20.5355 C58.42152,20.443 58.3416,20.4033571 58.312872,20.3921429 C58.153032,20.3301429 57.775968,20.2295714 57.491136,20.1868571 C57.224736,20.1462143 56.913264,20.1248571 56.566944,20.1248571 C56.049408,20.1248571 55.588392,20.2122857 55.193976,20.3871429 C54.800496,20.5609286 54.466488,20.8007857 54.202176,21.0997143 C53.937792,21.3985714 53.736984,21.7562857 53.602776,22.1608571 C53.469576,22.5643571 53.401968,23.0075714 53.401968,23.4762143 C53.401968,24.4896429 53.677584,25.3088571 54.221688,25.9086429 C54.766728,26.5104286 55.58544,26.8163571 56.653128,26.8163571 C57.28428,26.8163571 57.931848,26.6893571 58.39704,26.5073571 C58.39704,26.5073571 58.486176,26.4646429 58.447224,26.3620714 L58.144896,25.5335714 L58.144896,25.5335714 Z M60.299784,22.8027143 C60.358176,22.4093571 60.467832,22.082 60.636888,21.8269286 C60.892056,21.4396429 61.28136,21.2272143 61.82856,21.2272143 C62.37576,21.2272143 62.737416,21.4406429 62.996616,21.8269286 C63.168768,22.082 63.243576,22.4236429 63.273312,22.8027143 L60.299784,22.8027143 Z M64.446408,21.9376429 C64.341936,21.5462857 64.082664,21.1508571 63.9126,20.9699286 C63.644112,20.6832857 63.381888,20.4830714 63.121608,20.3712143 C62.781408,20.2268571 62.3736,20.1313571 61.926912,20.1313571 C61.406424,20.1313571 60.934032,20.2177857 60.550848,20.3966429 C60.166656,20.5755714 59.843952,20.8195714 59.5908,21.1235 C59.337648,21.4263571 59.147136,21.7872143 59.026176,22.1968571 C58.90428,22.6045 58.842792,23.0487143 58.842792,23.5172143 C58.842792,23.994 58.906368,24.4382143 59.032368,24.8376429 C59.159448,25.2402143 59.362272,25.5949286 59.63688,25.8886429 C59.910408,26.1845 60.26292,26.4162857 60.685056,26.5777857 C61.104168,26.7384286 61.613424,26.8217857 62.198424,26.8207143 C63.402408,26.8166429 64.036584,26.5503571 64.297872,26.407 C64.344024,26.3816429 64.388088,26.3369286 64.332648,26.2088571 L64.060128,25.4515 C64.019232,25.3387143 63.903384,25.3803571 63.903384,25.3803571 C63.60516,25.4901429 63.18108,25.6873571 62.192232,25.6853571 C61.545744,25.6843571 61.066152,25.4952857 60.765912,25.1994286 C60.457536,24.8965714 60.306912,24.4512857 60.280272,23.8231429 L64.449432,23.8272143 C64.449432,23.8272143 64.559016,23.8252143 64.570392,23.7194286 C64.574496,23.6748571 64.713888,22.8697857 64.446408,21.9376429 L64.446408,21.9376429 Z M26.910864,22.8027143 C26.970264,22.4093571 27.078912,22.082 27.247968,21.8269286 C27.503064,21.4396429 27.89244,21.2272143 28.439568,21.2272143 C28.986696,21.2272143 29.348424,21.4406429 29.608632,21.8269286 C29.779704,22.082 29.854512,22.4236429 29.884248,22.8027143 L26.910864,22.8027143 L26.910864,22.8027143 Z M31.056408,21.9376429 C30.951936,21.5462857 30.693744,21.1508571 30.52368,20.9699286 C30.255192,20.6832857 29.992896,20.4830714 29.732688,20.3712143 C29.392488,20.2268571 28.984752,20.1313571 28.537992,20.1313571 C28.018512,20.1313571 27.545112,20.2177857 27.161928,20.3966429 C26.777736,20.5755714 26.45496,20.8195714 26.20188,21.1235 C25.9488,21.4263571 25.758216,21.7872143 25.637328,22.1968571 C25.51644,22.6045 25.453944,23.0487143 25.453944,23.5172143 C25.453944,23.994 25.517448,24.4382143 25.64352,24.8376429 C25.7706,25.2402143 25.973496,25.5949286 26.248032,25.8886429 C26.521632,26.1845 26.874072,26.4162857 27.296208,26.5777857 C27.71532,26.7384286 28.224504,26.8217857 28.809576,26.8207143 C30.013488,26.8166429 30.647736,26.5503571 30.909024,26.407 C30.955176,26.3816429 30.999168,26.3369286 30.943872,26.2088571 L30.67236,25.4515 C30.630312,25.3387143 30.514608,25.3803571 30.514608,25.3803571 C30.216456,25.4901429 29.79324,25.6873571 28.802448,25.6853571 C28.156968,25.6843571 27.677448,25.4952857 27.377208,25.1994286 C27.06876,24.8965714 26.918208,24.4512857 26.891496,23.8231429 L31.060656,23.8272143 C31.060656,23.8272143 31.17024,23.8252143 31.181544,23.7194286 C31.185504,23.6748571 31.324824,22.8697857 31.056408,21.9376429 L31.056408,21.9376429 Z M17.899272,25.5109286 C17.736336,25.3817857 17.7138,25.3492857 17.658504,25.2659286 C17.576496,25.1388571 17.53452,24.9579286 17.53452,24.7282143 C17.53452,24.3642857 17.655408,24.1030714 17.906472,23.9272143 C17.903448,23.9282857 18.265104,23.6172143 19.115496,23.6283571 C19.712808,23.6365 20.246616,23.7239286 20.246616,23.7239286 L20.246616,25.6044286 L20.247624,25.6044286 C20.247624,25.6044286 19.71792,25.7172143 19.121616,25.7527857 C18.27324,25.8036429 17.896176,25.5099286 17.899272,25.5109286 L17.899272,25.5109286 Z M19.55808,22.6047857 C19.389024,22.5925714 19.169712,22.5854286 18.907416,22.5854286 C18.549864,22.5854286 18.204552,22.6301429 17.880768,22.7165714 C17.554968,22.8029286 17.261928,22.9382143 17.009856,23.117 C16.7581665,23.2952187 16.5513012,23.528625 16.405344,23.7990714 C16.257816,24.0715 16.183008,24.3927143 16.183008,24.7525714 C16.183008,25.1185 16.246512,25.4366429 16.373592,25.6969286 C16.500672,25.9581429 16.684056,26.1756429 16.917624,26.3434286 C17.149176,26.5111429 17.435088,26.6340714 17.767008,26.7082857 C18.093888,26.7825 18.46476,26.8200714 18.870552,26.8200714 C19.2978,26.8200714 19.72404,26.7855714 20.13696,26.7153571 C20.545776,26.6462143 21.047832,26.5455714 21.187152,26.5141429 C21.284848,26.4907885 21.3822019,26.4660478 21.479184,26.4399286 C21.58272,26.4145714 21.574512,26.3047143 21.574512,26.3047143 L21.572424,22.5224286 C21.572424,21.6929286 21.34908,21.0779286 20.90952,20.6967857 C20.471976,20.3166429 19.827504,20.1244286 18.994536,20.1244286 C18.681984,20.1244286 18.17892,20.1672143 17.877672,20.2271429 C17.877672,20.2271429 16.9668,20.402 16.591752,20.6927143 C16.591752,20.6927143 16.509816,20.7435714 16.554888,20.8574286 L16.850016,21.6442143 C16.88688,21.7458571 16.986312,21.7112857 16.986312,21.7112857 C16.986312,21.7112857 17.018064,21.6990714 17.055,21.6777143 C17.857296,21.2447143 18.871632,21.2579286 18.871632,21.2579286 C19.322496,21.2579286 19.668816,21.3473571 19.902384,21.5252143 C20.129832,21.698 20.245608,21.9592143 20.245608,22.5101429 L20.245608,22.685 C19.886976,22.6342143 19.55808,22.6047857 19.55808,22.6047857 L19.55808,22.6047857 Z M53.184168,20.4736429 C53.215848,20.3800714 53.14932,20.3353571 53.1216,20.3252143 C53.050968,20.2977857 52.69644,20.2235714 52.42284,20.2062857 C51.899328,20.1747857 51.608376,20.2622143 51.348024,20.3780714 C51.089832,20.4939286 50.802984,20.6809286 50.643072,20.8934286 L50.643072,20.3902857 C50.643072,20.3201429 50.592888,20.2642143 50.523192,20.2642143 L49.454496,20.2642143 C49.384872,20.2642143 49.334688,20.3200714 49.334688,20.3902857 L49.334688,26.5592857 C49.334688,26.6284286 49.392072,26.6853571 49.461696,26.6853571 L50.557032,26.6853571 C50.6268768,26.6849637 50.6832316,26.6285771 50.683032,26.5592857 L50.683032,23.4773571 C50.683032,23.0636429 50.729184,22.651 50.821416,22.3917857 C50.91156,22.1355714 51.034536,21.9302857 51.186168,21.7828571 C51.338808,21.6365 51.511968,21.5338571 51.701544,21.4759286 C51.895152,21.4169286 52.10928,21.3976429 52.260984,21.3976429 C52.479216,21.3976429 52.718976,21.4535 52.718976,21.4535 C52.798824,21.4626429 52.843968,21.4138571 52.870536,21.3417143 C52.94232,21.1526429 53.145216,20.5864286 53.184168,20.4736429 L53.184168,20.4736429 Z" id="Shape" fill="#FFFFFF" fill-rule="nonzero"></path>
                            <path d="M42.902928,17.6145 C42.769728,17.5738571 42.64884,17.5463571 42.491016,17.5169286 C42.331104,17.4885 42.140592,17.4742143 41.924448,17.4742143 C41.170248,17.4742143 40.57596,17.6856429 40.159008,18.1023571 C39.744,18.5171429 39.462192,19.1483571 39.320784,19.9788571 L39.26952,20.2583571 L38.322864,20.2583571 C38.322864,20.2583571 38.208096,20.2542857 38.183472,20.3783571 L38.028816,21.2392857 C38.017512,21.3206429 38.05344,21.3724286 38.164032,21.3724286 L39.0852,21.3724286 L38.150712,26.5483571 C38.07792,26.9651429 37.993896,27.3077143 37.900656,27.5678571 C37.809432,27.8240714 37.720368,28.0161429 37.609704,28.1564286 C37.503144,28.2906429 37.402704,28.3902143 37.228464,28.4481429 C37.08504,28.4959286 36.91908,28.5182857 36.737712,28.5182857 C36.637272,28.5182857 36.503136,28.5019286 36.403704,28.4816429 C36.305352,28.4622857 36.25308,28.441 36.178272,28.4094286 C36.178272,28.4094286 36.070704,28.3688571 36.027648,28.4755714 C35.993808,28.564 35.747928,29.2337857 35.718192,29.3162143 C35.689536,29.3985 35.730504,29.4625714 35.782704,29.4818571 C35.90568,29.5245714 35.996832,29.553 36.163872,29.5926429 C36.395496,29.6465714 36.59112,29.6495714 36.774504,29.6495714 C37.157688,29.6495714 37.508112,29.5957143 37.798128,29.4920714 C38.089152,29.3873571 38.343168,29.2053571 38.5686,28.9594286 C38.811456,28.6930714 38.964096,28.4145714 39.10968,28.0334286 C39.254112,27.6572857 39.378168,27.1897143 39.476448,26.6449286 L40.416048,21.3724286 L41.789016,21.3724286 C41.789016,21.3724286 41.90472,21.3765 41.928408,21.2515 L42.084072,20.3915714 C42.094368,20.3092857 42.05952,20.2584286 41.947776,20.2584286 L40.614768,20.2584286 C40.621968,20.229 40.682376,19.7633571 40.835088,19.3253571 C40.90068,19.1393571 41.023584,18.9878571 41.12712,18.8841429 C41.229648,18.7825 41.34744,18.7103571 41.476608,18.6686429 C41.608728,18.6259286 41.759424,18.6056429 41.924376,18.6056429 C42.049368,18.6056429 42.17328,18.6198571 42.26652,18.6391429 C42.395616,18.6666429 42.4458,18.6808571 42.479712,18.6910714 C42.616008,18.7317143 42.634368,18.6920714 42.66108,18.6270714 L42.979752,17.759 C43.012512,17.6652857 42.931584,17.6256429 42.902928,17.6145 L42.902928,17.6145 Z M24.277968,26.5595714 C24.277968,26.6287143 24.227784,26.6846429 24.158088,26.6846429 L23.052528,26.6846429 C22.982832,26.6846429 22.933656,26.6287143 22.933656,26.5595714 L22.933656,17.7324286 C22.933656,17.6633571 22.982832,17.6074286 23.052528,17.6074286 L24.158088,17.6074286 C24.227784,17.6074286 24.277968,17.6633571 24.277968,17.7324286 L24.277968,26.5595714 Z" id="Shape" fill="#FFFFFF" fill-rule="nonzero"></path>
                        </g>
                    </g>
                </g>
                <g id="app-dropbox" mask="url(#mask-2)">
                    <g transform="translate(432.000000, 0.000000)">
                        <g id="Rectangle-4">
                            <use fill="black" fill-opacity="1" filter="url(#filter-36)" xlink:href="#path-35"></use>
                            <use fill="#007EE5" fill-rule="evenodd" xlink:href="#path-35"></use>
                        </g>
                        <g id="Group" stroke-width="1" fill-rule="evenodd" transform="translate(48.000000, 47.500000) scale(-1, 1) translate(-48.000000, -47.500000) translate(23.000000, 24.000000)">
                            <path d="M14.697619,0 L0,9.59642857 L10.1623016,17.734127 L24.9809524,8.58412698 L14.697619,0 Z M0,25.872619 L14.697619,35.468254 L24.9813492,26.8849206 L10.1623016,17.734127 L0,25.872619 Z M24.9813492,26.8845238 L35.2654762,35.468254 L49.9626984,25.8730159 L39.8,17.7345238 L24.9813492,26.8849206 L24.9813492,26.8845238 Z M49.9626984,9.59642857 L35.265873,0 L24.9813492,8.58373016 L39.8003968,17.734127 L49.9626984,9.59642857 L49.9626984,9.59642857 Z" id="Shape" fill="#FFFFFF" fill-rule="nonzero"></path>
                            <polygon id="Shape" fill="#FFFFFF" fill-rule="nonzero" points="25.0115079 28.7313492 14.6972222 37.2896825 10.2845238 34.4083333 10.2845238 37.6384921 25.0115079 46.4706349 39.7388889 37.6388889 39.7388889 34.4087302 35.3261905 37.2900794 25.0119048 28.7313492"></polygon>
                        </g>
                    </g>
                </g>
            </g>
        </g>
    </g>
</svg>