<?xml version="1.0" encoding="UTF-8"?>
<svg width="508px" height="493px" viewBox="0 0 508 493" version="1.1" xmlns="http://www.w3.org/2000/svg" xmlns:xlink="http://www.w3.org/1999/xlink">
    <!-- Generator: Sketch 42 (36781) - http://www.bohemiancoding.com/sketch -->
    <title>hero-icons-left</title>
    <desc>Created with Sketch.</desc>
    <defs>
        <rect id="path-1" x="0" y="0" width="508" height="493"></rect>
        <rect id="path-3" x="0" y="0" width="95.4366197" height="95.4545455" rx="20"></rect>
        <filter x="-50%" y="-50%" width="200%" height="200%" filterUnits="objectBoundingBox" id="filter-4">
            <feOffset dx="0" dy="0" in="SourceAlpha" result="shadowOffsetOuter1"></feOffset>
            <feGaussianBlur stdDeviation="5" in="shadowOffsetOuter1" result="shadowBlurOuter1"></feGaussianBlur>
            <feColorMatrix values="0 0 0 0 0   0 0 0 0 0   0 0 0 0 0  0 0 0 0.1 0" type="matrix" in="shadowBlurOuter1"></feColorMatrix>
        </filter>
        <polygon id="path-5" points="0 0 49.8056911 0 49.8056911 49.8060976 0 49.8060976"></polygon>
        <rect id="path-7" x="0" y="0" width="95.4366197" height="95.4545455" rx="20"></rect>
        <filter x="-50%" y="-50%" width="200%" height="200%" filterUnits="objectBoundingBox" id="filter-8">
            <feOffset dx="0" dy="0" in="SourceAlpha" result="shadowOffsetOuter1"></feOffset>
            <feGaussianBlur stdDeviation="5" in="shadowOffsetOuter1" result="shadowBlurOuter1"></feGaussianBlur>
            <feColorMatrix values="0 0 0 0 0   0 0 0 0 0   0 0 0 0 0  0 0 0 0.1 0" type="matrix" in="shadowBlurOuter1"></feColorMatrix>
        </filter>
        <polygon id="path-9" points="0.0547307692 0.158076923 49.7858846 0.158076923 49.7858846 46.1245769 0.0547307692 46.1245769 0.0547307692 0.158076923"></polygon>
        <path d="M24.9207692,0.158076923 C18.9469231,0.158076923 14.105,5.00038462 14.105,10.9734615 C14.105,16.9469231 18.9469231,21.7896154 24.9207692,21.7896154 C30.8938462,21.7896154 35.7357692,16.9469231 35.7357692,10.9734615 L24.9207692,0.158076923 Z M28.1546154,35.3084615 C28.1546154,41.2823077 32.9965385,46.1246154 38.9703846,46.1246154 C44.9438462,46.1246154 49.7861538,41.2823077 49.7861538,35.3084615 C49.7861538,29.335 44.9438462,24.4930769 38.9703846,24.4930769 C32.9965385,24.4930769 28.1546154,29.335 28.1546154,35.3084615 Z M0.055,35.3088462 C0.055,29.335 4.89769231,24.4938462 10.8703846,24.4938462 C16.8438462,24.4938462 21.6865385,29.335 21.6865385,35.3088462 C21.6865385,41.2823077 16.8438462,46.1246154 10.8703846,46.1246154 C4.89769231,46.1246154 0.055,41.2823077 0.055,35.3088462 Z" id="path-11"></path>
        <rect id="path-13" x="0" y="0" width="95.4366197" height="95.4545455" rx="20"></rect>
        <filter x="-50%" y="-50%" width="200%" height="200%" filterUnits="objectBoundingBox" id="filter-14">
            <feOffset dx="0" dy="0" in="SourceAlpha" result="shadowOffsetOuter1"></feOffset>
            <feGaussianBlur stdDeviation="5" in="shadowOffsetOuter1" result="shadowBlurOuter1"></feGaussianBlur>
            <feColorMatrix values="0 0 0 0 0   0 0 0 0 0   0 0 0 0 0  0 0 0 0.1 0" type="matrix" in="shadowBlurOuter1"></feColorMatrix>
        </filter>
        <rect id="path-15" x="0" y="0" width="95.4366197" height="95.4545455" rx="20"></rect>
        <filter x="-50%" y="-50%" width="200%" height="200%" filterUnits="objectBoundingBox" id="filter-16">
            <feOffset dx="0" dy="0" in="SourceAlpha" result="shadowOffsetOuter1"></feOffset>
            <feGaussianBlur stdDeviation="5" in="shadowOffsetOuter1" result="shadowBlurOuter1"></feGaussianBlur>
            <feColorMatrix values="0 0 0 0 0   0 0 0 0 0   0 0 0 0 0  0 0 0 0.1 0" type="matrix" in="shadowBlurOuter1"></feColorMatrix>
        </filter>
        <polygon id="path-17" points="11.21555 48.0723 22.431 48.0723 22.431 0.0003 11.21555 0.0003 0.0001 0.0003 0.0001 48.0723"></polygon>
        <rect id="path-19" x="0" y="0" width="95.4366197" height="95.4545455" rx="20"></rect>
        <filter x="-50%" y="-50%" width="200%" height="200%" filterUnits="objectBoundingBox" id="filter-20">
            <feOffset dx="0" dy="0" in="SourceAlpha" result="shadowOffsetOuter1"></feOffset>
            <feGaussianBlur stdDeviation="5" in="shadowOffsetOuter1" result="shadowBlurOuter1"></feGaussianBlur>
            <feColorMatrix values="0 0 0 0 0   0 0 0 0 0   0 0 0 0 0  0 0 0 0.1 0" type="matrix" in="shadowBlurOuter1"></feColorMatrix>
        </filter>
        <rect id="path-21" x="0" y="0" width="95.4366197" height="95.4545455" rx="20"></rect>
        <filter x="-50%" y="-50%" width="200%" height="200%" filterUnits="objectBoundingBox" id="filter-22">
            <feOffset dx="0" dy="0" in="SourceAlpha" result="shadowOffsetOuter1"></feOffset>
            <feGaussianBlur stdDeviation="5" in="shadowOffsetOuter1" result="shadowBlurOuter1"></feGaussianBlur>
            <feColorMatrix values="0 0 0 0 0   0 0 0 0 0   0 0 0 0 0  0 0 0 0.1 0" type="matrix" in="shadowBlurOuter1"></feColorMatrix>
        </filter>
        <rect id="path-23" x="0" y="0" width="95.4366197" height="95.4545455" rx="20"></rect>
        <filter x="-50%" y="-50%" width="200%" height="200%" filterUnits="objectBoundingBox" id="filter-24">
            <feOffset dx="0" dy="0" in="SourceAlpha" result="shadowOffsetOuter1"></feOffset>
            <feGaussianBlur stdDeviation="5" in="shadowOffsetOuter1" result="shadowBlurOuter1"></feGaussianBlur>
            <feColorMatrix values="0 0 0 0 0   0 0 0 0 0   0 0 0 0 0  0 0 0 0.1 0" type="matrix" in="shadowBlurOuter1"></feColorMatrix>
        </filter>
        <rect id="path-25" x="0" y="0" width="95.4366197" height="95.4545455" rx="20"></rect>
        <filter x="-50%" y="-50%" width="200%" height="200%" filterUnits="objectBoundingBox" id="filter-26">
            <feOffset dx="0" dy="0" in="SourceAlpha" result="shadowOffsetOuter1"></feOffset>
            <feGaussianBlur stdDeviation="5" in="shadowOffsetOuter1" result="shadowBlurOuter1"></feGaussianBlur>
            <feColorMatrix values="0 0 0 0 0   0 0 0 0 0   0 0 0 0 0  0 0 0 0.1 0" type="matrix" in="shadowBlurOuter1"></feColorMatrix>
        </filter>
        <polygon id="path-27" points="2.71593731e-21 0.000340665132 2.71593731e-21 49.8997405 47.6794158 49.8997405 47.6794158 0.000340665132 0 0.000340665132"></polygon>
        <rect id="path-29" x="0" y="0" width="95.4366197" height="95.4545455" rx="20"></rect>
        <filter x="-50%" y="-50%" width="200%" height="200%" filterUnits="objectBoundingBox" id="filter-30">
            <feOffset dx="0" dy="0" in="SourceAlpha" result="shadowOffsetOuter1"></feOffset>
            <feGaussianBlur stdDeviation="5" in="shadowOffsetOuter1" result="shadowBlurOuter1"></feGaussianBlur>
            <feColorMatrix values="0 0 0 0 0   0 0 0 0 0   0 0 0 0 0  0 0 0 0.1 0" type="matrix" in="shadowBlurOuter1"></feColorMatrix>
        </filter>
        <rect id="path-31" x="0" y="2.84217094e-14" width="95.4366197" height="95.4545455" rx="20"></rect>
        <filter x="-50%" y="-50%" width="200%" height="200%" filterUnits="objectBoundingBox" id="filter-32">
            <feOffset dx="0" dy="0" in="SourceAlpha" result="shadowOffsetOuter1"></feOffset>
            <feGaussianBlur stdDeviation="5" in="shadowOffsetOuter1" result="shadowBlurOuter1"></feGaussianBlur>
            <feColorMatrix values="0 0 0 0 0   0 0 0 0 0   0 0 0 0 0  0 0 0 0.1 0" type="matrix" in="shadowBlurOuter1"></feColorMatrix>
        </filter>
        <polygon id="path-33" points="0 0.140047619 0 20.5457619 49.6469713 20.5457619 49.6469713 0.140047619 6.45358436e-21 0.140047619"></polygon>
        <rect id="path-35" x="0" y="2.84217094e-14" width="95.4366197" height="95.4545455" rx="20"></rect>
        <filter x="-50%" y="-50%" width="200%" height="200%" filterUnits="objectBoundingBox" id="filter-36">
            <feOffset dx="0" dy="0" in="SourceAlpha" result="shadowOffsetOuter1"></feOffset>
            <feGaussianBlur stdDeviation="5" in="shadowOffsetOuter1" result="shadowBlurOuter1"></feGaussianBlur>
            <feColorMatrix values="0 0 0 0 0   0 0 0 0 0   0 0 0 0 0  0 0 0 0.1 0" type="matrix" in="shadowBlurOuter1"></feColorMatrix>
        </filter>
        <rect id="path-37" x="0" y="2.84217094e-14" width="95.4366197" height="95.4545455" rx="20"></rect>
        <filter x="-50%" y="-50%" width="200%" height="200%" filterUnits="objectBoundingBox" id="filter-38">
            <feOffset dx="0" dy="0" in="SourceAlpha" result="shadowOffsetOuter1"></feOffset>
            <feGaussianBlur stdDeviation="5" in="shadowOffsetOuter1" result="shadowBlurOuter1"></feGaussianBlur>
            <feColorMatrix values="0 0 0 0 0   0 0 0 0 0   0 0 0 0 0  0 0 0 0.1 0" type="matrix" in="shadowBlurOuter1"></feColorMatrix>
        </filter>
        <linearGradient x1="0.00388991071%" y1="49.997619%" x2="100.032232%" y2="49.997619%" id="linearGradient-39">
            <stop stop-color="#000000" stop-opacity="0.1" offset="0%"></stop>
            <stop stop-color="#000000" stop-opacity="0.2" offset="100%"></stop>
        </linearGradient>
        <rect id="path-40" x="0" y="1.42108547e-14" width="95.4366197" height="95.4545455" rx="20"></rect>
        <filter x="-50%" y="-50%" width="200%" height="200%" filterUnits="objectBoundingBox" id="filter-41">
            <feOffset dx="0" dy="0" in="SourceAlpha" result="shadowOffsetOuter1"></feOffset>
            <feGaussianBlur stdDeviation="5" in="shadowOffsetOuter1" result="shadowBlurOuter1"></feGaussianBlur>
            <feColorMatrix values="0 0 0 0 0   0 0 0 0 0   0 0 0 0 0  0 0 0 0.1 0" type="matrix" in="shadowBlurOuter1"></feColorMatrix>
        </filter>
        <rect id="path-42" x="0" y="0" width="95.4366197" height="95.4545455" rx="20"></rect>
        <filter x="-50%" y="-50%" width="200%" height="200%" filterUnits="objectBoundingBox" id="filter-43">
            <feOffset dx="0" dy="0" in="SourceAlpha" result="shadowOffsetOuter1"></feOffset>
            <feGaussianBlur stdDeviation="5" in="shadowOffsetOuter1" result="shadowBlurOuter1"></feGaussianBlur>
            <feColorMatrix values="0 0 0 0 0   0 0 0 0 0   0 0 0 0 0  0 0 0 0.1 0" type="matrix" in="shadowBlurOuter1"></feColorMatrix>
        </filter>
        <rect id="path-44" x="0" y="0" width="95.4366197" height="95.4545455" rx="20"></rect>
        <filter x="-50%" y="-50%" width="200%" height="200%" filterUnits="objectBoundingBox" id="filter-45">
            <feOffset dx="0" dy="0" in="SourceAlpha" result="shadowOffsetOuter1"></feOffset>
            <feGaussianBlur stdDeviation="5" in="shadowOffsetOuter1" result="shadowBlurOuter1"></feGaussianBlur>
            <feColorMatrix values="0 0 0 0 0   0 0 0 0 0   0 0 0 0 0  0 0 0 0.1 0" type="matrix" in="shadowBlurOuter1"></feColorMatrix>
        </filter>
    </defs>
    <g id="Designs" stroke="none" stroke-width="1" fill="none" fill-rule="evenodd">
        <g id="Dev-Lander-v4" transform="translate(0.000000, -281.000000)">
            <g id="hero-icons-left" transform="translate(0.000000, 281.000000)">
                <mask id="mask-2" fill="white">
                    <use xlink:href="#path-1"></use>
                </mask>
                <g id="Rectangle-2"></g>
                <g id="app-wordpress" mask="url(#mask-2)">
                    <g transform="translate(404.000000, 424.000000)">
                        <g id="Rectangle-4">
                            <use fill="black" fill-opacity="1" filter="url(#filter-4)" xlink:href="#path-3"></use>
                            <use fill="#00749A" fill-rule="evenodd" xlink:href="#path-3"></use>
                        </g>
                        <g id="wordpress" stroke-width="1" fill-rule="evenodd" transform="translate(23.000000, 23.000000)">
                            <mask id="mask-6" fill="white">
                                <use xlink:href="#path-5"></use>
                            </mask>
                            <g id="a"></g>
                            <g id="Group" mask="url(#mask-6)" fill-rule="nonzero">
                                <path d="M127.313008,19.6044715 L118.671951,19.6044715 L118.671951,20.5211382 C121.374797,20.5211382 121.80935,21.1004065 121.80935,24.5276423 L121.80935,30.7073171 C121.80935,34.1345528 121.37561,34.7626016 118.671951,34.7626016 C116.597154,34.4727642 115.196341,33.3626016 113.265447,31.2382114 L111.045122,28.8247967 C114.037398,28.2930894 115.630488,26.4109756 115.630488,24.2865854 C115.630488,21.6321138 113.362195,19.6044715 109.113821,19.6044715 L100.617886,19.6044715 L100.617886,20.5211382 C103.320732,20.5211382 103.755285,21.1004065 103.755285,24.5276423 L103.755285,30.7073171 C103.755285,34.1345528 103.321138,34.7626016 100.617886,34.7626016 L100.617886,35.6796748 L110.223984,35.6796748 L110.223984,34.7626016 C107.521545,34.7626016 107.086585,34.1345528 107.086585,30.7073171 L107.086585,28.9703252 L107.907317,28.9703252 L113.265854,35.6796748 L127.313415,35.6796748 C134.21626,35.6796748 137.209756,32.0113821 137.209756,27.6178862 C137.208943,23.2247967 134.21626,19.6044715 127.313008,19.6044715 L127.313008,19.6044715 Z M107.086992,27.4723577 L107.086992,21.0528455 L109.065854,21.0528455 C111.237805,21.0528455 112.203659,22.549187 112.203659,24.2869919 C112.203659,25.9768293 111.237805,27.4727642 109.065854,27.4727642 L107.086992,27.4723577 Z M127.45813,34.1829268 L127.119919,34.1829268 C125.38252,34.1829268 125.141057,33.749187 125.141057,31.5284553 L125.141057,21.0528455 L127.45813,21.0528455 C132.478455,21.0528455 133.394715,24.7211382 133.394715,27.5695122 C133.395122,30.5138211 132.478049,34.1829268 127.45813,34.1829268 L127.45813,34.1829268 Z M73.7308943,29.2593496 L77.0613821,19.4105691 C78.0272358,16.5626016 77.5930894,15.7426829 74.503252,15.7426829 L74.503252,14.7768293 L83.5784553,14.7768293 L83.5784553,15.7426829 C80.5378049,15.7426829 79.8134146,16.4662602 78.6069106,19.9902439 L73.103252,36.5 L72.4760163,36.5 L67.551626,21.3902439 L62.5317073,36.5 L61.9036585,36.5 L56.5455285,19.9906504 C55.3869919,16.4666667 54.6146341,15.7430894 51.8146341,15.7430894 L51.8146341,14.7772358 L62.5313008,14.7772358 L62.5313008,15.7430894 C59.6825203,15.7430894 58.9101626,16.4186992 59.9243902,19.4109756 L63.1585366,29.2597561 L68.0337398,14.7772358 L68.951626,14.7772358 L73.7308943,29.2593496 L73.7308943,29.2593496 Z M90.1430894,36.3065041 C84.8333333,36.3065041 80.4886179,32.396748 80.4886179,27.6170732 C80.4886179,22.8861789 84.8333333,18.9760163 90.1430894,18.9760163 C95.4528455,18.9760163 99.797561,22.8861789 99.797561,27.6170732 C99.797561,32.396748 95.453252,36.3065041 90.1430894,36.3065041 Z M90.1430894,20.4735772 C85.702439,20.4735772 84.1569106,24.4792683 84.1569106,27.6174797 C84.1569106,30.804065 85.702439,34.7621951 90.1430894,34.7621951 C94.6329268,34.7621951 96.1776423,30.804065 96.1776423,27.6174797 C96.1776423,24.4792683 94.6329268,20.4735772 90.1430894,20.4735772 Z" id="Shape" fill="#00749A"></path>
                                <g id="Shape" fill="#FFFFFF">
                                    <path d="M3.5398374,24.902439 C3.5398374,33.3589431 8.45406504,40.6662602 15.5800813,44.1296748 L5.38943089,16.2081301 C4.16780254,18.9437387 3.53752597,21.9064542 3.5398374,24.902439 L3.5398374,24.902439 Z M39.3252033,23.8243902 C39.3252033,21.1841463 38.3768293,19.3556911 37.5634146,17.9325203 C36.4804878,16.1727642 35.4658537,14.6825203 35.4658537,12.9227642 C35.4658537,10.9589431 36.954878,9.13089431 39.0528455,9.13089431 C39.147561,9.13089431 39.2373984,9.14268293 39.3300813,9.14796748 C35.5288618,5.66585366 30.4650407,3.5398374 24.903252,3.5398374 C17.4398374,3.5398374 10.8735772,7.36910569 7.05365854,13.1691057 C7.55487805,13.1841463 8.02764228,13.1943089 8.42845528,13.1943089 C10.6630081,13.1943089 14.1219512,12.9231707 14.1219512,12.9231707 C15.2735772,12.8552846 15.4093496,14.546748 14.2593496,14.6829268 C14.2593496,14.6829268 13.101626,14.8191057 11.8138211,14.8865854 L19.5934959,38.0268293 L24.2691057,24.0052846 L20.9402439,14.8861789 C19.7898374,14.8186992 18.7,14.6825203 18.7,14.6825203 C17.5487805,14.6150407 17.6837398,12.854878 18.8349593,12.9227642 C18.8349593,12.9227642 22.3630081,13.1939024 24.4621951,13.1939024 C26.6963415,13.1939024 30.1556911,12.9227642 30.1556911,12.9227642 C31.3081301,12.854878 31.4434959,14.5463415 30.2926829,14.6825203 C30.2926829,14.6825203 29.1329268,14.8186992 27.847561,14.8861789 L35.5678862,37.8512195 L37.698374,30.7304878 C38.6223577,27.7756098 39.3252033,25.653252 39.3252033,23.8243902 L39.3252033,23.8243902 Z"></path>
                                    <path d="M25.2780488,26.7711382 L18.8682927,45.3963415 C20.8279194,45.9738564 22.8602982,46.2670906 24.903252,46.2670732 C27.3910569,46.2670732 29.7768293,45.8365854 31.997561,45.0560976 C31.9379908,44.9628498 31.8871001,44.864334 31.8455285,44.7617886 L25.2780488,26.7711382 Z M43.6487805,14.6528455 C43.7406504,15.3333333 43.7926829,16.0642276 43.7926829,16.8495935 C43.7926829,19.0174797 43.3878049,21.4544715 42.1682927,24.501626 L35.6426829,43.3686992 C41.9939024,39.6650407 46.2658537,32.7841463 46.2658537,24.902439 C46.271551,21.3199094 45.3712919,17.7941041 43.6487805,14.6528455 L43.6487805,14.6528455 Z"></path>
                                    <path d="M24.903252,0 C11.1719512,0 0,11.1711382 0,24.902439 C0,38.6353659 11.1715447,49.8065041 24.903252,49.8065041 C38.6341463,49.8065041 49.8077236,38.6357724 49.8077236,24.902439 C49.8073171,11.1711382 38.6341463,0 24.903252,0 Z M24.903252,48.6646341 C11.801626,48.6646341 1.14186992,38.004878 1.14186992,24.902439 C1.14186992,11.8012195 11.8012195,1.14227642 24.903252,1.14227642 C38.0044715,1.14227642 48.6634146,11.8012195 48.6634146,24.902439 C48.6634146,38.004878 38.004065,48.6646341 24.903252,48.6646341 Z"></path>
                                </g>
                            </g>
                        </g>
                    </g>
                </g>
                <g id="app-asana" mask="url(#mask-2)">
                    <g transform="translate(298.000000, 424.000000)">
                        <g id="Rectangle-4">
                            <use fill="black" fill-opacity="1" filter="url(#filter-8)" xlink:href="#path-7"></use>
                            <use fill="#FC636B" fill-rule="evenodd" xlink:href="#path-7"></use>
                        </g>
                        <g id="Page-1" stroke-width="1" fill-rule="evenodd" transform="translate(23.000000, 25.000000)">
                            <g id="Group-3" transform="translate(0.000000, 0.226538)">
                                <mask id="mask-10" fill="white">
                                    <use xlink:href="#path-9"></use>
                                </mask>
                                <g id="Clip-2"></g>
                                <path d="M38.9705,24.4930385 C32.9966538,24.4930385 28.1547308,29.3353462 28.1547308,35.3084231 C28.1547308,41.2822692 32.9966538,46.1245769 38.9705,46.1245769 C44.9435769,46.1245769 49.7858846,41.2822692 49.7858846,35.3084231 C49.7858846,29.3353462 44.9435769,24.4930385 38.9705,24.4930385 M10.8705,24.4938077 C4.89742308,24.4938077 0.0547307692,29.3353462 0.0547307692,35.3091923 C0.0547307692,41.2822692 4.89742308,46.1245769 10.8705,46.1245769 C16.8439615,46.1245769 21.6866538,41.2822692 21.6866538,35.3091923 C21.6866538,29.3353462 16.8439615,24.4938077 10.8705,24.4938077 M35.7358846,10.9734231 C35.7358846,16.9468846 30.8935769,21.7895769 24.9205,21.7895769 C18.9470385,21.7895769 14.1047308,16.9468846 14.1047308,10.9734231 C14.1047308,5.00034615 18.9470385,0.158038462 24.9205,0.158038462 C30.8935769,0.158038462 35.7358846,5.00034615 35.7358846,10.9734231" id="Fill-1" fill="#FFFFFF" mask="url(#mask-10)"></path>
                            </g>
                            <g id="Group-6" transform="translate(0.000000, 0.226538)">
                                <mask id="mask-12" fill="white">
                                    <use xlink:href="#path-11"></use>
                                </mask>
                                <g id="Clip-5"></g>
                                <path d="M24.9208846,0.157961538 C39.9589615,0.157961538 52.1485769,12.3498846 52.1485769,27.3883462 C52.1485769,42.4252692 39.9589615,54.6152692 24.9208846,54.6152692 C9.88319231,54.6152692 -2.30757692,42.4252692 -2.30757692,27.3883462 C-2.30757692,12.3498846 9.88319231,0.157961538 24.9208846,0.157961538" id="Fill-4" fill="#FFFFFF" mask="url(#mask-12)"></path>
                            </g>
                        </g>
                    </g>
                </g>
                <g id="app-google-drive" mask="url(#mask-2)">
                    <g transform="translate(192.000000, 424.000000)">
                        <g id="Rectangle-4">
                            <use fill="black" fill-opacity="1" filter="url(#filter-14)" xlink:href="#path-13"></use>
                            <use fill="#FFFFFF" fill-rule="evenodd" xlink:href="#path-13"></use>
                        </g>
                        <g id="google-drive" stroke-width="1" fill-rule="evenodd" transform="translate(23.000000, 26.000000)">
                            <polygon id="Shape" fill="#3777E3" fill-rule="nonzero" points="8.32842798 43.2823061 16.6557133 28.8548823 49.9674861 28.8548823 41.6394391 43.2823061"></polygon>
                            <polygon id="Shape" fill="#FFCF63" fill-rule="nonzero" points="33.3121537 28.8548823 49.9674861 28.8548823 33.3121537 0 16.6557133 0"></polygon>
                            <polygon id="Shape" fill="#11A861" fill-rule="nonzero" points="0 28.8548823 8.32842798 43.2823061 24.9837604 14.4274584 16.6557133 0"></polygon>
                        </g>
                    </g>
                </g>
                <g id="app-facebook" mask="url(#mask-2)">
                    <g transform="translate(86.000000, 424.000000)">
                        <g id="Rectangle-4">
                            <use fill="black" fill-opacity="1" filter="url(#filter-16)" xlink:href="#path-15"></use>
                            <use fill="#00549E" fill-rule="evenodd" xlink:href="#path-15"></use>
                        </g>
                        <g id="Page-1" stroke-width="1" fill-rule="evenodd" transform="translate(36.000000, 23.000000)">
                            <mask id="mask-18" fill="white">
                                <use xlink:href="#path-17"></use>
                            </mask>
                            <g id="Clip-2"></g>
                            <path d="M14.9141,48.0723 L4.9711,48.0723 L4.9711,24.0353 L0.0001,24.0353 L0.0001,15.7503 L4.9711,15.7503 L4.9711,10.7773 C4.9711,4.0193 7.7761,0.0003 15.7461,0.0003 L22.3831,0.0003 L22.3831,8.2853 L18.2361,8.2853 C15.1331,8.2853 14.9271,9.4433 14.9271,11.6033 L14.9141,15.7503 L22.4311,15.7503 L21.5511,24.0353 L14.9141,24.0353 L14.9141,48.0723 Z" id="Fill-1" fill="#FFFFFF" mask="url(#mask-18)"></path>
                        </g>
                    </g>
                </g>
                <g id="app-evernote" mask="url(#mask-2)">
                    <g transform="translate(-20.000000, 424.000000)">
                        <g id="Rectangle-4" fill="none">
                            <use fill="black" fill-opacity="1" filter="url(#filter-20)" xlink:href="#path-19"></use>
                            <use fill="#7AC143" fill-rule="evenodd" xlink:href="#path-19"></use>
                        </g>
                        <path d="M57.1578704,46.650463 C56.4819444,46.6273148 55.8319444,46.6699074 55.225463,46.7671296 C55.3967593,45.3902778 55.9652778,43.6986111 57.9791667,43.7699074 C60.2087963,43.8467593 60.5217593,45.9541667 60.5291667,47.3810185 C59.5893519,46.9625 58.425463,46.6949074 57.1578704,46.650463 M66.6921296,31.699537 C66.3199074,29.7041667 65.1328704,28.7208333 64.0587963,28.3337963 C62.9032407,27.9162037 60.5560185,27.4828704 57.6078704,27.1356481 C55.2375,26.8560185 52.4486111,26.8782407 50.7652778,26.9300926 C50.5625,25.5458333 49.5912037,24.2810185 48.5041667,23.8430556 C45.6106481,22.6782407 41.1375,22.9606481 39.9893519,23.2819444 C39.0773148,23.5375 38.0671296,24.0597222 37.5050926,24.8643519 C37.1282407,25.4032407 36.8837963,26.0921296 36.8828704,27.0550926 C36.8828704,27.599537 36.8976852,28.8837963 36.9115741,30.024537 C36.924537,31.1680556 36.9412037,32.1921296 36.9412037,32.1986111 C36.9402778,33.2171296 36.1134259,34.0458333 35.0912037,34.0476852 L30.3976852,34.0476852 C29.3967593,34.0476852 28.6319444,34.2152778 28.0476852,34.4810185 C27.4625,34.7467593 27.0476852,35.1050926 26.7328704,35.5282407 C26.1060185,36.3699074 25.9976852,37.4087963 26.000463,38.4689815 C26.000463,38.4689815 26.0087963,39.3347222 26.2171296,41.0106481 C26.3912037,42.3078704 27.7976852,51.3671296 29.1337963,54.1226852 C29.6513889,55.1939815 29.9967593,55.6412037 31.0143519,56.1134259 C33.2810185,57.0847222 38.4597222,58.1643519 40.8875,58.4736111 C43.3097222,58.7837963 44.8310185,59.4347222 45.7375,57.5347222 C45.7393519,57.5300926 45.9189815,57.0634259 46.1634259,56.374537 C46.9513889,53.9912037 47.0606481,51.8763889 47.0606481,50.3458333 C47.0606481,50.1902778 47.2884259,50.1828704 47.2884259,50.3458333 C47.2884259,51.4263889 47.0828704,55.2513889 49.9708333,56.2763889 C51.1125,56.6810185 53.4773148,57.0412037 55.8819444,57.3236111 C58.0550926,57.5736111 59.6328704,58.4282407 59.6328704,64.0060185 C59.6328704,67.3986111 58.9199074,67.8634259 55.1949074,67.8634259 C52.175463,67.8634259 51.0236111,67.9412037 51.0236111,65.5430556 C51.0236111,63.6032407 52.9421296,63.8069444 54.3625,63.8069444 C54.9976852,63.8069444 54.5375,63.3347222 54.5375,62.1384259 C54.5375,60.9476852 55.2819444,60.2597222 54.5773148,60.2421296 C49.6615741,60.1069444 46.7708333,60.2365741 46.7708333,66.3837963 C46.7708333,71.9634259 48.9060185,73.000463 55.8819444,73.000463 C61.3513889,73.000463 63.2773148,72.8208333 65.5365741,65.8143519 C65.9837963,64.4310185 67.0643519,60.2097222 67.7189815,53.1217593 C68.1328704,48.6402778 67.3282407,35.1134259 66.6921296,31.699537 M30.1782407,32.6847222 L30.1810185,32.6847222 L34.8736111,32.6847222 C35.1421296,32.6837963 35.3597222,32.4652778 35.3597222,32.1986111 C35.3597222,32.1967593 35.3023148,28.174537 35.3023148,27.0569444 L35.3023148,27.0430556 C35.3023148,26.125463 35.4949074,25.324537 35.8310185,24.6532407 L35.9912037,24.3513889 C35.9736111,24.3541667 35.9560185,24.3634259 35.9375,24.3810185 L26.8199074,33.4226852 C26.8023148,33.4365741 26.7912037,33.4560185 26.7856481,33.475463 C26.974537,33.3828704 27.2328704,33.2550926 27.2689815,33.2393519 C28.0625,32.8800926 29.025463,32.6847222 30.1782407,32.6847222" id="Fill-1" fill="#FFFFFF" fill-rule="evenodd"></path>
                    </g>
                </g>
                <g id="app-twitter" mask="url(#mask-2)">
                    <g transform="translate(298.000000, 318.000000)">
                        <g id="Rectangle-4" fill="none">
                            <use fill="black" fill-opacity="1" filter="url(#filter-22)" xlink:href="#path-21"></use>
                            <use fill="#1DA1F2" fill-rule="evenodd" xlink:href="#path-21"></use>
                        </g>
                        <path d="M38.724,68.6279381 C57.592,68.6279381 67.912,52.9959381 67.912,39.4399381 C67.912,38.9959381 67.912,38.5539381 67.882,38.1139381 C69.8896627,36.6617598 71.6227109,34.8636969 73,32.8039381 C71.1277581,33.6335416 69.1416586,34.1775954 67.108,34.4179381 C69.249488,33.1359022 70.852247,31.119482 71.618,28.7439381 C69.604315,29.9388487 67.4012922,30.7809621 65.104,31.2339381 C61.9241655,27.8527266 56.8714387,27.0251632 52.7790985,29.2152979 C48.6867584,31.4054326 46.57255,36.0685895 47.622,40.5899381 C39.3737915,40.1764371 31.6889516,36.2805846 26.48,29.8719381 C23.7572455,34.5592275 25.1479758,40.555657 29.656,43.5659381 C28.0234824,43.5175532 26.4265587,43.0771644 25,42.2819381 L25,42.4119381 C25.0013363,47.295124 28.443503,51.5010084 33.23,52.4679381 C31.7197392,52.8798182 30.1351612,52.9400267 28.598,52.6439381 C29.9418959,56.8227837 33.7931491,59.6855058 38.182,59.7679381 C34.5494701,62.6228019 30.062119,64.1725935 25.442,64.1679381 C24.6258071,64.1663712 23.8104081,64.116953 23,64.0199381 C27.6912719,67.0304912 33.1498268,68.6273719 38.724,68.6199381" id="Shape" fill="#FFFFFF" fill-rule="nonzero"></path>
                    </g>
                </g>
                <g id="app-typeform" mask="url(#mask-2)">
                    <g transform="translate(192.000000, 318.000000)">
                        <g id="Rectangle-4">
                            <use fill="black" fill-opacity="1" filter="url(#filter-24)" xlink:href="#path-23"></use>
                            <use fill="#37404A" fill-rule="evenodd" xlink:href="#path-23"></use>
                        </g>
                        <g id="Page-1" stroke-width="1" fill-rule="evenodd" transform="translate(32.000000, 23.000000)">
                            <polygon id="Fill-1" fill="#8BCBCA" points="26.4628788 49.7817424 31.3409091 49.7817424 31.3409091 0.054469697 26.4628788 0.054469697"></polygon>
                            <path d="M0,11.3806061 L6.11212121,11.3806061 L6.11212121,0.000303030303 L14.2143939,0.000303030303 L14.2143939,11.3806061 L21.5348485,11.3806061 L21.5348485,17.6215152 L14.2143939,17.6215152 L14.2143939,37.8866667 C14.2143939,38.7669697 14.25,39.5268182 14.3204545,40.1624242 C14.3916667,40.7995455 14.5575758,41.3374242 14.8181818,41.7783333 C15.0780303,42.2184848 15.4689394,42.5487879 15.9909091,42.7692424 C16.5121212,42.989697 17.2219697,43.0995455 18.1234848,43.0995455 C18.6916667,43.0995455 19.2606061,43.0881818 19.8287879,43.0624242 C20.3977273,43.0389394 20.9659091,42.9525758 21.5348485,42.8056061 L21.5348485,49.2677273 C20.6333333,49.364697 19.7575758,49.4624242 18.905303,49.5609091 C18.0522727,49.6578788 17.175,49.7078788 16.275,49.7078788 C14.1431818,49.7078788 12.425,49.4987879 11.1227273,49.0843939 C9.81893939,48.6684848 8.80075758,48.0556061 8.06666667,47.2480303 C7.33181818,46.4404545 6.83409091,45.4245455 6.57424242,44.200303 C6.31287879,42.9783333 6.15909091,41.5828788 6.11212121,40.0162121 L6.11212121,17.6215152 L0,17.6215152 L0,11.3806061 Z" id="Fill-2" fill="#FFFFFF"></path>
                        </g>
                    </g>
                </g>
                <g id="app-mailchimp" mask="url(#mask-2)">
                    <g transform="translate(86.000000, 318.000000)">
                        <g id="Rectangle-4">
                            <use fill="black" fill-opacity="1" filter="url(#filter-26)" xlink:href="#path-25"></use>
                            <use fill="#6DC5DC" fill-rule="evenodd" xlink:href="#path-25"></use>
                        </g>
                        <g id="Page-1" stroke-width="1" fill-rule="evenodd" transform="translate(24.000000, 23.000000)">
                            <g id="Group-3" transform="translate(0.000000, 0.099900)">
                                <mask id="mask-28" fill="white">
                                    <use xlink:href="#path-27"></use>
                                </mask>
                                <g id="Clip-2"></g>
                                <path d="M41.741523,46.1343086 L41.741523,46.9117635 L41.9480361,46.9117635 L41.9480361,46.3504409 L42.1165731,46.9117635 L42.2926253,46.9117635 L42.4612625,46.3490381 L42.4612625,46.9117635 L42.6676754,46.9117635 L42.6676754,46.1343086 L42.3448297,46.1343086 L42.2055511,46.5818036 L42.0640681,46.1343086 L41.741523,46.1343086 Z M41.2144689,46.3207816 L41.2144689,46.9117635 L41.4407214,46.9117635 L41.4407214,46.3207816 L41.6722846,46.3207816 L41.6722846,46.1343086 L40.986012,46.1343086 L40.986012,46.3207816 L41.2144689,46.3207816 Z M46.9358116,35.6579559 C46.8969339,35.7851102 43.2236874,49.9040481 28.7911222,49.8997395 C16.3151703,49.8960321 10.4017435,39.0518437 10.4017435,39.0518437 C9.49252505,39.1025451 8.61507014,38.9581563 7.8059519,38.6608617 C4.14563126,37.3160721 2.38941884,33.1285972 3.65234469,29.6153707 L1.64052104,28.077996 C-6.15216433,22.1416232 15.9232866,-5.02340681 23.7296994,1.12348697 C23.7691784,1.1545491 25.5931263,2.62268537 25.5931263,2.62268537 C28.3960321,0.920581162 31.1718838,0.000340681363 33.4282966,0.000340681363 C35.0307014,0.000240480962 36.3708818,0.464068136 37.2733868,1.44132265 C39.2995391,3.63511022 38.5712826,7.82438878 35.8046493,12.0657715 C36.3996393,12.6307014 36.8929259,13.3985371 37.2449299,14.1607615 C38.124489,14.8394188 38.6946293,15.8711824 38.9778958,17.2961323 C39.2932265,18.8806012 39.3587575,21.137515 39.5566533,22.1073547 C40.3028457,22.4441283 39.9849098,22.2883166 40.7804008,22.6856112 C41.6098597,23.1001403 42.6198798,23.6049499 43.736012,24.678998 C45.7201804,25.1760922 46.4777956,27.2856112 45.3168737,28.7251904 C45.2856112,28.7638677 45.1455311,28.9298998 45.0003407,29.0951303 C45.03501,29.1864128 45.4155711,29.8031463 45.6901202,31.0582565 C46.5123647,31.2524449 47.1672745,31.7586573 47.5109619,32.4926253 C48.1053507,33.9293988 46.9358116,35.6579559 46.9358116,35.6579559 L46.9358116,35.6579559 Z" id="Fill-1" fill="#684C46" mask="url(#mask-28)"></path>
                            </g>
                            <path d="M40.8199599,41.9645391 C44.733988,38.8891884 45.4178557,35.1853808 45.482986,35.0577255 C46.446012,33.9027154 46.1842886,32.7647395 44.9120441,32.7646393 C44.5071343,32.7646393 44.2013226,32.8713527 44.2013226,32.8713527 C44.2013226,32.8713527 44.2060321,31.1858818 43.4263727,29.8730561 C42.8253707,30.549008 41.1569339,31.8880862 38.9678557,32.9274649 C36.9149499,33.902014 34.1757715,34.7556212 30.7811824,34.8686473 L30.7810822,34.8686473 C29.8305812,34.9099299 29.2426052,34.7551202 28.9115431,35.8632365 C28.8059319,36.2548196 28.8516232,36.8362826 28.9310822,37.0044188 C29.1988176,37.9222545 29.8984168,38.3267635 30.8192585,38.540992 C31.5175551,38.7037174 32.2591383,38.7188477 32.2591383,38.7188477 C39.1437074,38.9120341 44.6717635,33.5425952 44.737996,33.498006 C44.8018236,33.4456012 44.8548297,33.3835772 44.8548297,33.3835772 C44.8548297,33.3835772 44.794008,33.5259619 44.7867936,33.5420942 C43.7924048,35.7783667 38.0350902,39.8333768 32.3044289,39.7173447 L32.2855912,39.7239579 C30.9565331,39.7189479 29.3418036,39.3768637 28.5023246,38.3358818 C27.1740681,36.6888878 27.8633467,33.9503106 29.9802806,33.8860822 C29.982986,33.885982 30.4696593,33.8748597 30.6862926,33.8692485 C35.9277756,33.7082265 40.6305812,31.7824749 43.998016,27.7612325 C44.4610421,27.1860822 43.9438076,26.3959018 42.9403006,26.3719539 C42.931483,26.3717535 42.9229659,26.3678457 42.9170541,26.3614329 C41.7271743,25.0875852 40.6813828,24.637485 39.7507214,24.1645391 C37.80002,23.1708517 37.9835872,24.0291683 37.5298798,19.2090281 C37.4071343,17.9095291 37.1610421,16.1373848 36.0194589,15.4578257 C35.7201603,15.2797695 35.3931062,15.2033166 35.0535271,15.2033166 C34.7180561,15.2033166 34.5545291,15.2718537 34.488497,15.286483 C33.8632465,15.4249599 33.5075351,15.7794689 33.0622445,16.1901904 C30.9574349,18.1311723 29.2750701,17.6042184 26.7640481,17.5819739 C24.4058317,17.5614329 22.3235671,19.206523 21.9252705,21.7327756 L21.9245691,21.7341784 C21.730982,23.0566232 21.8563327,24.4003106 22.0635471,25.0043186 C22.0635471,25.0043186 21.4234669,24.5785671 21.1184569,24.2016132 C21.4875952,26.5095291 23.5932064,28.0179459 23.5932064,28.0179459 C23.2615431,28.093998 22.7843888,28.0624349 22.7843888,28.0624349 C22.786493,28.0641383 23.9862926,29.0130361 25.0277756,29.3441984 C24.7565331,29.5129359 23.3837876,30.8674449 22.6758717,32.7320741 C22.0135471,34.4770641 22.2832866,36.5720541 22.2832866,36.5720541 L22.8586373,35.7143387 C22.8586373,35.7143387 22.482986,37.6256613 23.2101403,39.4766633 C23.4514228,38.9260621 23.9785772,37.9430962 23.9785772,37.9430962 C23.9785772,37.9430962 23.89501,39.9957014 24.8831864,41.6763627 C24.9085371,41.288487 25.0568337,40.3009118 25.0568337,40.3009118 C25.0568337,40.3009118 25.6239679,42.0532164 26.9337876,43.2784669 C29.3858918,45.454519 35.8785772,45.847505 40.8199599,41.9645391 M13.3459118,30.445 L13.3459118,30.445 C13.6602405,29.6461022 13.8186573,28.990491 13.8186573,28.990491 C14.178477,30.0903908 14.3625451,31.2473046 14.2903006,32.4168437 C14.5885972,32.0198497 14.9088377,31.2724549 14.9088377,31.2724549 C15.4637475,34.5391884 13.0798798,37.5293687 9.9390982,37.5293687 C7.15062124,37.5293687 4.8902004,35.1497094 4.8902004,32.2141383 C4.8902004,29.2787675 7.15062124,26.899008 9.9390982,26.899008 C10.6618437,26.899008 11.3492184,27.0589279 11.9709619,27.347004 C11.9709619,27.3469038 13.0441082,27.8880862 13.3459118,30.445" id="Fill-4" fill="#F6DCBA"></path>
                            <path d="M4.40821643,28.2197695 C4.38837675,28.2144589 2.50831663,26.8347996 2.24098196,26.3805912 C0.659118236,23.7112525 3.41112224,18.2285872 5.36933868,15.1121543 C10.2089178,7.4101503 18.2641283,1.33179359 21.9227455,2.19992986 L25.6799599,4.13920842 C24.2211423,4.99742485 22.8101202,6.05143287 21.9649299,6.75233467 L21.1655311,7.42277555 C21.1655311,7.42277555 18.8307615,8.99461924 17.6696393,9.985501 C13.0149299,13.9573447 8.43186373,20.1060421 6.73226453,26.0413126 C6.73226453,26.041012 5.33587174,26.7342986 4.40821643,28.2197695" id="Fill-6" fill="#0688BF"></path>
                            <path d="M21.9228858,2.19975952 L21.9228858,2.19975952 C18.2641683,1.33172345 10.2090581,7.41008016 5.36947896,15.1120842 C5.36807615,15.1142886 5.36667335,15.1165932 5.36527054,15.1187976 L5.38480962,15.1209018 L9.24102204,18.1567735 C13.4750902,11.4358317 18.7966333,7.9703006 18.9467335,7.86839679 L18.3353106,3.75486974 L19.4807014,3.20647295 L21.7793988,3.95086172 L21.6035471,3.18292585 L21.9228858,2.19975952 Z" id="Fill-8" fill="#46B8E3"></path>
                            <path d="M25.6799098,4.13913828 L21.9648798,6.75226453 L21.7050601,6.95547094 L18.4107715,4.26408818 L18.3351202,3.75507014 L19.480511,3.20657315 C19.5393287,3.22561122 21.6885271,3.92160321 21.7792084,3.95096192 L21.8175852,2.52380762 L21.9227956,2.19985972 L22.9289078,1.81428858 C22.9304108,1.81529058 25.6761022,4.13583166 25.6799098,4.13913828" id="Fill-10" fill="#FFD14F"></path>
                            <path d="M33.0108818,1.57644289 C30.5540681,1.57644289 27.7958517,2.86862725 25.6799198,4.13906814 C25.3831263,4.31361723 25.0886373,4.49648297 24.8001603,4.68275551 L23.6929459,3.7546994 L24.0951503,5.15219439 C23.9431463,5.25660321 23.7946493,5.36071142 23.6494589,5.46411824 L21.3618838,4.76572144 L22.875511,6.03275551 C22.5299198,6.29457916 22.2212024,6.53986974 21.9650902,6.75219439 L18.3352305,3.755 L18.5274148,5.09818637 L21.1655912,7.42273547 C21.1655912,7.42273547 18.8309218,8.99447896 17.6697996,9.98536072 C13.0150902,13.9572044 8.43202405,20.106002 6.73232465,26.0410721 L6.82891784,25.9867635 C6.84204409,25.9795491 6.85527054,25.9734369 6.86839679,25.9663226 C6.91569138,25.9407715 6.96288577,25.916523 7.01018036,25.8927756 C7.04044088,25.8774449 7.0707014,25.862014 7.10096192,25.8475852 C7.14965932,25.8241383 7.19835671,25.8023948 7.24695391,25.7810521 C7.27571142,25.7683267 7.30456914,25.755 7.33322645,25.7430762 C7.38603206,25.7209319 7.43863727,25.7008918 7.49134269,25.6808517 C7.51569138,25.6717335 7.54004008,25.6616132 7.56428858,25.6528958 C7.64114228,25.6254409 7.71759519,25.59999 7.7938477,25.5772445 C8.94935872,25.2326553 10.5214028,25.0109118 12.3615832,25.7924749 C13.2858317,23.461513 14.3899399,21.0899699 16.1299198,18.8111122 C17.5406413,16.9634168 18.8968537,15.314018 20.5246092,14.4068036 C23.6065731,11.5116132 31.9132866,8.44147295 34.5744088,11.1026954 C35.2037675,10.0732365 35.7497595,9.09888778 36.1996593,7.87724449 C37.3100802,4.93976954 37.3304208,1.57644289 33.0108818,1.57644289" id="Fill-12" fill="#121F30"></path>
                            <polygon id="Fill-14" fill="#121F30" points="22.4660621 4.17318637 21.9228758 2.19973948 21.6034369 3.18290581 21.7946192 3.9557515"></polygon>
                            <path d="M28.0646593,2.86431864 C29.4066433,2.24568136 30.8448196,1.75680361 32.2242786,1.61592184 C30.8542385,1.92423848 29.1847996,2.63455912 27.2068437,3.84487976 C27.1586473,3.87273547 22.5265832,6.99898798 19.6966232,9.8061022 C18.1544389,11.3357615 11.9614529,18.7622144 11.9663627,18.7559018 C13.0982265,16.6139178 13.8438176,15.562515 15.6356012,13.3091082 C16.6489279,12.0347595 17.7302906,10.7952806 18.8372044,9.65089178 C19.2092485,9.26622244 19.5843988,8.89237475 19.9605511,8.53135271 C20.1040381,8.39377756 23.3402104,5.0799499 28.0646593,2.86431864 M44.2014329,32.8695291 C44.2014329,32.8695291 44.2061423,31.1838577 43.426483,29.8712325 C42.8253808,30.5471844 41.1570441,31.8862625 38.9678657,32.9254409 C36.9150601,33.9000902 34.1758818,34.7535972 30.7812926,34.8666232 L30.7811924,34.8666232 C29.8306914,34.9079058 29.2427154,34.7531964 28.9116533,35.8613126 C28.8858016,35.9568036 28.8690681,36.0638176 28.8595491,36.1731363 L28.8591483,36.1844589 C28.8590481,36.1844589 28.8588477,36.1843587 28.8587475,36.1843587 C28.8558417,36.2196293 28.8536373,36.2552004 28.8521343,36.2905711 C28.8488277,36.3918737 28.8499299,36.4811523 28.8539379,36.559008 L28.8542385,36.5646192 C28.8545391,36.5703307 28.8548397,36.5760421 28.8552405,36.5816533 C28.8581463,36.6302505 28.8623547,36.6770441 28.8674649,36.7208317 C28.8676653,36.7230361 28.8680661,36.7253407 28.8682665,36.7275451 C28.8684669,36.7298497 28.8686673,36.7320541 28.8690681,36.7344589 C28.8914128,36.9104108 28.9263828,36.9921743 28.9306914,37.0015932 C28.9307916,37.0018938 28.930992,37.0023948 28.930992,37.0026954 L28.9354008,37.0173246 C29.2064429,37.9247395 29.9034369,38.3262425 30.8192685,38.5392685 C31.5175651,38.7018938 32.2592485,38.7171242 32.2592485,38.7171242 C37.8763828,38.8746393 42.5907114,35.3292485 44.1718737,33.9941784 C44.1989279,33.6201303 44.2149599,33.3532966 44.2014329,32.8695291" id="Fill-16" fill="#FFFFFF"></path>
                            <path d="M11.6980461,34.4766132 C11.6994489,34.4756112 11.7008517,34.4746092 11.7022545,34.4737074 C12.0003507,34.1532665 12.1254008,33.7055711 12.0545591,33.2773146 C11.9445391,32.6611824 11.2463427,32.5367335 10.7847194,32.0581764 C10.7774048,32.0505611 10.7700902,32.0429459 10.762976,32.0351303 C10.7551603,32.0267134 10.7476453,32.0181964 10.7402305,32.0097796 C10.7397295,32.0091784 10.7393287,32.0085772 10.7387275,32.007976 C10.5313126,31.7690982 10.4590681,31.4975551 10.476002,31.2551703 C10.5124749,30.6249098 11.0721944,30.4476553 11.363477,30.5636874 C11.363477,30.5636874 11.7089679,30.6454509 11.976503,31.0186974 C11.976503,31.0186974 11.9764028,31.017996 11.9763026,31.0171944 C11.9356212,30.8940481 11.9440381,30.6951503 11.734519,30.3985571 C11.3914329,29.9123848 10.6031563,29.4178958 9.48572144,29.6546693 L9.48602204,29.6546693 C9.27940882,29.6983567 9.39514028,29.673507 9.19143287,29.731022 C9.15966934,29.7399399 9.13051102,29.7487575 9.10546092,29.7592786 C9.04143287,29.7892385 8.98221443,29.8098798 8.9254008,29.8400401 C8.89594188,29.8564729 8.72810621,29.9325251 8.526002,30.0847295 C7.26998998,31.7060721 9.39734469,34.6462525 11.6980461,34.4766132 M39.0888277,34.9337275 C39.074499,34.9340281 39.0594689,34.9372345 39.0357214,34.9425451 C38.46498,35.0748096 32.5794088,37.3547695 28.8587675,36.1861323 C28.8421343,36.3897395 28.8473447,36.8173948 28.9307114,37.0033667 C28.9308116,37.0037675 28.931012,37.0041683 28.9311122,37.0044689 C29.4940381,37.1172946 30.2063627,37.1894389 31.0331162,37.1894389 C35.9291082,37.1894389 39.4574649,34.9633868 39.0888277,34.9337275 M38.4054609,23.5067735 C37.8515531,23.1093788 37.8317134,22.415992 37.5298096,19.2090782 C37.4332164,18.1862325 37.2599699,16.8706012 36.6339178,16.0254108 C36.5044589,15.9122846 36.322495,15.7823246 36.0603707,15.7823246 C35.6648798,15.7648898 35.217986,16.1746092 34.9645792,16.4545691 C34.2452405,17.4926453 33.5580661,18.1611824 32.3427355,18.7405411 C31.1126754,19.2972545 29.9436373,19.4991583 28.73001,19.4608818 C27.8416333,19.4328257 27.0636774,19.2864329 26.3010521,19.2767134 C24.8880261,19.2546693 23.6632766,19.7126854 22.7706914,20.8397395 C22.1585671,21.6126854 21.9128758,22.4299198 21.834519,23.4024649 C21.8375251,23.5195992 21.8427355,23.6302204 21.8494489,23.7343287 C21.8600701,23.8888377 21.8740982,24.0363327 21.8912325,24.1747094 C21.9535571,24.6676954 22.0424349,24.9234068 22.0424349,24.9234068 C22.0424349,24.9272144 22.0417335,24.931022 22.0407315,24.9345291 C22.0480461,24.9586774 22.0555611,24.9819238 22.0632766,25.0040681 C22.0632766,25.0040681 21.4231964,24.5783166 21.1180862,24.2013627 C21.4259018,26.1253106 22.9403307,27.4937475 23.4356212,27.8956513 C23.4648798,27.9180962 23.4937375,27.9404409 23.521994,27.9626854 C23.5243988,27.9645892 23.5266032,27.9667936 23.5284068,27.9691984 C23.5698898,28.0011623 23.5928357,28.0176954 23.5928357,28.0176954 C23.2611723,28.0939479 22.7841182,28.0622846 22.7841182,28.0622846 C22.7861222,28.0640882 23.986022,29.012986 25.0273046,29.3439479 C26.4088677,28.1764128 27.9753006,27.7282164 29.2611723,27.5892385 C30.0406313,27.1055711 30.8786072,26.630521 31.7783066,26.1724048 C31.5058617,24.4757114 33.0104709,22.7672946 34.9038577,22.6031663 C36.332515,22.4991583 37.027505,23.1395391 37.528006,23.8243086 C37.7996493,23.7377355 38.1059619,23.6429459 38.4482465,23.5421443 C38.4338176,23.5325251 38.419489,23.5207014 38.4054609,23.5067735 M27.9258016,35.6000601 C28.1779058,34.6621844 28.8895291,33.9192986 29.9803106,33.8860321 C29.9829158,33.8859319 30.4696894,33.8748096 30.6863226,33.8691984 C35.9277054,33.7081764 40.6306112,31.7824248 43.9980461,27.7611824 C44.4610721,27.1860321 43.9437375,26.3958517 42.9403307,26.3719038 C42.9363226,26.3718036 42.9259018,26.3719038 42.9259018,26.3719038 C42.7562625,26.5512625 42.7258016,26.8791182 42.4450401,27.3688978 C41.4208918,29.1483567 40.0042585,29.961984 38.1151804,30.9061723 C32.3233968,33.7896393 29.31999,32.4479559 28.1146794,34.2133868 C27.7643788,34.7330261 27.7576653,35.3132866 27.9258016,35.6000601 C27.9258016,35.6001603 27.9258016,35.6000601 27.9258016,35.6000601 M36.318988,24.1106814 C35.518988,23.5418437 34.1941383,23.9946493 33.9020541,24.9361323 C34.36498,24.959479 34.8560621,25.3096794 34.8258016,25.7576754 C35.1526553,25.4413427 35.6173848,25.2627856 36.069489,25.2712024 C35.8514529,24.921503 35.9615731,24.3186974 36.318988,24.1106814 M40.81999,41.964489 C40.1481463,42.4924449 39.4475451,42.9411423 38.732515,43.3171944 C37.0786072,42.6887375 36.0637776,41.3495591 36.0637776,41.3495591 C36.0637776,41.3495591 37.4816132,41.0142886 39.3769038,40.0504609 C41.682014,38.8792184 43.8363226,37.1869339 45.4831162,35.0576754 C45.4177856,35.1852305 44.7339178,38.8891383 40.81999,41.964489" id="Fill-18" fill="#EBBE8D"></path>
                            <path d="M21.8496393,13.6007315 C27.2848096,10.077986 32.7137675,9.67287575 34.5738878,11.1030361 C34.573988,11.1028357 34.5740882,11.1027355 34.5742886,11.1024349 C34.5708818,11.0931162 34.5409218,11.0105511 34.5291984,10.988006 C34.0570541,9.984499 32.9551503,9.2843988 31.973487,9.00353707 C32.1455311,9.18239479 32.3947295,9.5098497 32.4955311,9.70443888 C31.7546493,9.19572144 30.7701804,8.74742485 29.7428257,8.534499 C29.7428257,8.534499 29.8652705,8.62247495 29.8862124,8.64201403 C30.091022,8.83279559 30.3633667,9.1341984 30.47499,9.39301603 C29.4930261,8.99872745 28.2516433,8.77778557 27.1891182,8.98239479 C27.1741884,8.9853006 27.0562525,9.01315631 27.0562525,9.01315631 C27.0562525,9.01315631 27.1945291,9.04752505 27.2253908,9.05674349 C27.5777956,9.1611523 28.0806012,9.37598196 28.3021443,9.67017034 C26.5382164,9.3599499 24.5978357,9.70333667 23.5513427,10.288507 C23.6859118,10.2828958 23.6846092,10.2822946 23.7984369,10.2853006 C24.183507,10.2956212 24.9589579,10.3479259 25.2846092,10.5550401 C24.171984,10.7812926 22.5617635,11.2790882 21.6950301,12.024479 C21.8480361,12.0066433 22.7165731,11.8959218 23.071984,11.9530361 C18.3009419,14.6831964 16.1295992,18.8108517 16.1295992,18.8108517 C17.5362124,16.9778858 19.3610621,15.2136573 21.8496393,13.6007315 M33.4124649,25.2541383 C33.2545491,25.5422144 33.4468337,25.9513327 33.8419238,26.1677655 C34.2369138,26.3842986 34.6852104,26.3262826 34.8430261,26.0381062 C35.0009419,25.7500301 34.8087575,25.3409118 34.4135671,25.124479 C34.018477,24.9080461 33.5702806,24.9660621 33.4124649,25.2541383 M36.5683768,24.1051403 C36.2811022,24.0603507 35.9985371,24.3433166 35.937014,24.7373046 C35.875491,25.1310922 36.0585571,25.4868036 36.3457315,25.5315932 C36.6331062,25.5763828 36.9156713,25.293517 36.9770942,24.8995291 C37.038517,24.5056413 36.8555511,24.1500301 36.5683768,24.1051403 M11.2368136,31.6035371 C11.1295992,31.5186673 11.0797996,31.446022 11.0501403,31.3343988 C11.0063527,31.130992 11.0291984,31.0128557 11.2030461,30.8907114 C11.3369138,30.7990281 11.4446293,30.7548397 11.4450301,30.6972244 C11.4510421,30.5883066 11.0031463,30.475982 10.6901202,30.7841984 C10.4302004,31.0611523 10.3480361,31.638507 10.7628657,32.088507 C11.2245892,32.5867034 11.9425251,32.7042385 12.0544489,33.3306914 C12.0691784,33.4194689 12.0801002,33.5183667 12.0723848,33.6158617 C12.073988,33.727986 12.036513,33.8891082 12.0347094,33.8993287 C11.8958317,34.5043387 11.3215832,35.0816934 10.3745892,34.9345992 C10.2002405,34.9091483 10.0872144,34.8877054 10.0534469,34.9359018 C9.980501,35.0376052 10.3863126,35.5019339 11.1291984,35.485 C11.8560521,35.4695691 12.5770942,34.9253808 12.8082565,34.1075451 C12.8108617,34.0968236 12.8790982,33.8649599 12.8847094,33.6572445 C12.8977355,33.5032365 12.8866132,33.3449198 12.8579559,33.1792886 C12.6685772,32.1290882 11.62499,31.9131563 11.2368136,31.6035371 M11.4026453,30.1036373 L11.4028457,30.1039379 L11.4031463,30.1041383 C11.5448297,30.2167635 11.6534469,30.3369038 11.7344088,30.4517335 C11.9999399,30.827485 11.9154709,31.0468236 12.0242886,31.1533367 C12.0635671,31.1919138 12.1197796,31.2040381 12.1757916,31.1812926 C12.3262926,31.1190681 12.4002405,30.8797896 12.4143687,30.7126553 L12.4144689,30.7116533 C12.4522445,30.3099499 12.2399198,29.8585471 11.9585571,29.5387074 L11.9578557,29.5378056 C11.7857114,29.3378056 11.5590581,29.1515331 11.2894188,29.0013327 C11.019479,28.8509319 10.7061523,28.7369038 10.3616633,28.6835972 C9.76637275,28.5909118 9.1808016,28.7095491 9.01727455,28.7582465 L9.01817635,28.7580461 C8.93380762,28.782495 8.8296994,28.8045391 8.74012024,28.8396092 C7.76927856,29.2181663 7.1304008,29.9132565 6.84613226,30.8336974 L6.84603206,30.8340982 L6.84593186,30.834499 C6.74072144,31.1848998 6.69893788,31.5232766 6.69893788,31.8358016 C6.69893788,32.1051403 6.73,32.3555411 6.77839679,32.5786874 L6.77839679,32.578988 L6.77859719,32.5792886 L6.77839679,32.578988 C6.86066132,32.9543387 7.02859719,33.3770842 7.29082164,33.6545391 L7.29162325,33.6554409 C7.61937876,34.0096493 7.97869739,33.9419138 7.82529058,33.6123547 C7.78871743,33.5210721 7.59072144,33.1480261 7.56396794,32.4724749 C7.54673347,32.030491 7.60735471,31.5704709 7.76957916,31.1507315 C7.85935872,30.9235772 7.98240481,30.7026353 8.14252505,30.5040381 C8.47248497,30.1004309 8.87789579,29.9196693 8.92529058,29.8933166 C8.98210421,29.8630561 9.04132265,29.8424148 9.1053507,29.8124549 C9.1304008,29.8020341 9.15935872,29.7932164 9.19122244,29.7841984 C9.39503006,29.7267836 9.2793988,29.7516333 9.48591182,29.7079459 L9.48561122,29.7079459 C10.2624649,29.5432164 10.931002,29.7232766 11.4026453,30.1036373 M29.9883166,25.6771844 C29.6722846,25.4358016 29.09002,25.2738778 28.4856112,25.376483 C28.3588577,25.3958216 28.2416232,25.4351002 28.1263928,25.4660621 C28.0841082,25.476483 28.0437275,25.4914128 28.0042485,25.5079459 C27.7544489,25.6132565 27.5381162,25.7266834 27.3280962,25.9278858 C27.0873146,26.1606513 27.0188778,26.3767836 27.088517,26.42999 C27.1568537,26.4846994 27.3235872,26.4037375 27.5813026,26.2995291 C28.4443287,25.9407114 29.0551503,25.9311924 29.637014,25.9716733 C29.9175752,25.9907114 30.1054509,26.0075451 30.1490381,25.9310922 C30.1796994,25.8792886 30.123988,25.7805912 29.9883166,25.6771844 M30.2168737,24.4976253 C30.3228858,24.6526353 30.3512425,24.7696693 30.3084569,24.8183667 C30.2230862,24.9181663 29.917976,24.7833968 29.4673747,24.6079459 C28.3142685,24.1776854 27.4646693,24.1121543 25.9607615,24.6813928 C25.580501,24.826483 25.3107615,24.938507 25.1814028,24.9192685 C24.9705812,24.8879058 25.1747896,24.5018337 25.6358116,24.1272846 C26.5631663,23.3874048 27.8369138,23.1578457 28.9253908,23.5628557 C29.4019439,23.7382064 29.9369138,24.0882064 30.2168737,24.4976253" id="Fill-20" fill="#9C7356"></path>
                            <path d="M34.6727956,21.2971343 C34.665481,20.9225852 34.7247996,20.3036473 35.0774048,20.1886172 C35.0778056,20.188517 35.0776052,20.188517 35.0781062,20.1884168 C35.6809118,19.9792986 36.4787074,21.5227856 36.5155812,22.8932265 C36.0393287,22.6547495 35.4796092,22.5536473 34.9040581,22.6034469 C34.7592685,22.1622645 34.6900301,21.7466333 34.6727956,21.2971343" id="Fill-22" fill="#684C46"></path>
                        </g>
                    </g>
                </g>
                <g id="app-slack" mask="url(#mask-2)">
                    <g transform="translate(-20.000000, 318.000000)">
                        <g id="Rectangle-4">
                            <use fill="black" fill-opacity="1" filter="url(#filter-30)" xlink:href="#path-29"></use>
                            <use fill="#FFFFFF" fill-rule="evenodd" xlink:href="#path-29"></use>
                        </g>
                        <g id="Group" stroke-width="1" fill-rule="evenodd" transform="translate(23.000000, 23.000000)">
                            <path d="M4.39087838,26.277027 C2.5347973,26.2912162 0.9625,25.1851351 0.38277027,23.4587838 C0.361263744,23.3935858 0.341213715,23.3279163 0.322635135,23.2618243 C-0.309121622,21.0510135 0.915878378,18.7381757 3.11148649,17.9976351 L38.3277027,6.19932432 C38.7458478,6.07835678 39.1785755,6.01515831 39.6138514,6.01148649 C41.5192568,5.99662162 43.1347973,7.12702703 43.7287162,8.88986486 L43.7814189,9.06013514 C44.4402027,11.3628378 42.8033784,13.4182432 40.8422297,14.077027 C40.8408784,14.0780405 40.4841216,14.1986486 5.82128378,26.0334459 C5.36054977,26.1905078 4.87762875,26.2727436 4.39087838,26.277027 L4.39087838,26.277027 Z" id="Shape" fill="#70CADB" fill-rule="nonzero"></path>
                            <path d="M10.2608108,43.5962838 C8.3902027,43.6097973 6.8125,42.5192568 6.23952703,40.8175676 C6.21777738,40.752834 6.19750187,40.6876145 6.17871622,40.6219595 C5.53817568,38.3847973 6.76182432,36.0476351 8.96486486,35.3060811 L44.1824324,23.3996622 C44.6375,23.2476351 45.1074324,23.1699324 45.5800676,23.1655405 C47.4557432,23.1513514 49.1037162,24.2972973 49.6851351,26.0182432 L49.7391892,26.1972973 C50.0793919,27.3868243 49.8783784,28.7236486 49.202027,29.7787162 C48.697973,30.5631757 47.1081081,31.2537162 47.1081081,31.2537162 L11.7567568,43.3412162 C11.2746181,43.5044371 10.7697903,43.5907412 10.2608108,43.5969595 L10.2608108,43.5962838 L10.2608108,43.5962838 Z" id="Shape" fill="#E01765" fill-rule="nonzero"></path>
                            <path d="M39.577027,43.6716216 C37.7043778,43.6896048 36.0330341,42.4999572 35.4368243,40.7246622 L23.6834459,5.8125 L23.6246622,5.61655405 C22.9878378,3.3902027 24.2125,1.06790541 26.4074324,0.328040541 C26.8466216,0.180405405 27.3006757,0.103378378 27.7577703,0.0993243243 C28.4368243,0.0942567568 29.0939189,0.247297297 29.7128378,0.553040541 C30.7425496,1.06226517 31.5266972,1.96107415 31.8915541,3.05033784 L43.6439189,37.9594595 L43.6780405,38.0716216 C44.3381757,40.3831081 43.1162162,42.7067568 40.9212838,43.4466216 C40.4877242,43.5914678 40.0341227,43.667391 39.577027,43.6716216 L39.577027,43.6716216 Z" id="Shape" fill="#E8A723" fill-rule="nonzero"></path>
                            <path d="M22.1064189,49.552027 C20.2326896,49.5698756 18.5605559,48.3791964 17.964527,46.6027027 L6.21418919,11.6918919 C5.84647725,10.604137 5.92658278,9.41478556 6.43683753,8.3861637 C6.94709227,7.35754185 7.84557763,6.57415321 8.93412162,6.20878378 C9.36832414,6.06363476 9.82260532,5.98748424 10.2804054,5.98310811 C12.1533695,5.96461743 13.8251767,7.15440071 14.4212838,8.93006757 L26.1719595,43.8422297 C26.5398476,44.9305103 26.459479,46.1204617 25.9485958,47.1493906 C25.4377126,48.1783195 24.5383268,48.961613 23.4489865,49.3263514 C23.0156277,49.4715773 22.5620948,49.5476221 22.1050676,49.5516892 L22.1064189,49.5516892 L22.1064189,49.552027 Z" id="Shape" fill="#3EB890" fill-rule="nonzero"></path>
                            <polygon id="Shape" fill="#CC2027" fill-rule="nonzero" points="33.7827703 35.8094595 41.9780405 33.0074324 39.2989865 25.0513514 31.0942568 27.8239865 33.7827703 35.8094595"></polygon>
                            <polygon id="Shape" fill="#361238" fill-rule="nonzero" points="16.3391892 41.7736486 24.5337838 38.9719595 21.8344595 30.9550676 13.6317568 33.7287162 16.3391892 41.7736486"></polygon>
                            <polygon id="Shape" fill="#65863A" fill-rule="nonzero" points="27.9483108 18.4797297 36.1442568 15.6814189 33.4966216 7.81824324 25.285473 10.5692568"></polygon>
                            <polygon id="Shape" fill="#1A937D" fill-rule="nonzero" points="10.5027027 24.4358108 18.6986486 21.6375 16.0185811 13.6739865 7.80743243 16.4246622 10.5027027 24.4358108"></polygon>
                        </g>
                    </g>
                </g>
                <g id="app-google-cal" mask="url(#mask-2)">
                    <g transform="translate(192.000000, 212.000000)">
                        <g id="Rectangle-4">
                            <use fill="black" fill-opacity="1" filter="url(#filter-32)" xlink:href="#path-31"></use>
                            <use fill="#FFFFFF" fill-rule="evenodd" xlink:href="#path-31"></use>
                        </g>
                        <g id="Page-1" stroke-width="1" fill-rule="evenodd" transform="translate(23.000000, 24.000000)">
                            <path d="M43.712619,44.4442857 L5.93452381,44.4442857 C4.09357143,44.4442857 2.60119048,42.9519048 2.60119048,41.1109524 L2.60119048,3.33333333 C2.60119048,1.49238095 4.09357143,0 5.93452381,0 L43.712619,0 C45.5530952,0 47.0459524,1.49238095 47.0459524,3.33333333 L47.0459524,41.1109524 C47.0459524,42.9519048 45.5530952,44.4442857 43.712619,44.4442857" id="Fill-1" fill="#C5C5C5"></path>
                            <g id="Group-5" transform="translate(0.000000, 7.349048)">
                                <mask id="mask-34" fill="white">
                                    <use xlink:href="#path-33"></use>
                                </mask>
                                <g id="Clip-4"></g>
                                <path d="M47.0459524,20.5457619 L2.60119048,20.5457619 L0.0483333333,4.55004762 C-0.320714286,2.2357619 1.46690476,0.140047619 3.8102381,0.140047619 L45.8369048,0.140047619 C48.1802381,0.140047619 49.9683333,2.2357619 49.5983333,4.55004762 L47.0459524,20.5457619 Z" id="Fill-3" fill="#3362CF" mask="url(#mask-34)"></path>
                            </g>
                            <path d="M2.60142857,27.8948095 L47.0461905,27.8948095 L48.2333333,43.8905238 C48.5819048,46.2043333 46.8928571,48.3005238 44.6785714,48.3005238 L4.96857143,48.3005238 C2.75428571,48.3005238 1.0647619,46.2043333 1.41380952,43.8905238 L2.60142857,27.8948095 Z" id="Fill-6" fill="#4284F2"></path>
                            <path d="M14.798,26.2439524 L16.9313333,26.2439524 C18.008,26.2344286 18.8608571,25.9558571 19.490381,25.4077619 C20.1199048,24.8601429 20.4346667,24.0672857 20.4346667,23.0291905 C20.4346667,22.0296667 20.1727619,21.2539524 19.6489524,20.7010952 C19.1251429,20.1487143 18.3251429,19.8720476 17.2484762,19.8720476 C16.3065714,19.8720476 15.5332381,20.1434762 14.9275238,20.6868095 C14.3222857,21.2296667 14.0194286,21.9382381 14.0194286,22.813 L10.5165714,22.813 C10.5165714,21.7368095 10.8022857,20.7563333 11.3741905,19.8720476 C11.9460952,18.9882381 12.7437143,18.2982381 13.7670476,17.8034762 C14.7908571,17.3087143 15.9370476,17.0610952 17.205619,17.0610952 C19.300381,17.0610952 20.9465714,17.5872857 22.1427619,18.6396667 C23.3394286,19.6920476 23.9375238,21.1549048 23.9375238,23.0291905 C23.9375238,23.9710952 23.6370476,24.8577619 23.0365714,25.6891905 C22.4360952,26.5201429 21.6599048,27.1472857 20.7084762,27.5701429 C21.8618095,27.9644286 22.7384762,28.5844286 23.3394286,29.4296667 C23.9399048,30.2758571 24.240381,31.2849048 24.240381,32.4572857 C24.240381,34.3410952 23.5941905,35.8401429 22.3013333,36.9549048 C21.0084762,38.0701429 19.310381,38.6272857 17.205619,38.6272857 C15.1870476,38.6272857 13.5341905,38.0891905 12.2465714,37.0125238 C10.9584762,35.9363333 10.3146667,34.5044286 10.3146667,32.7168095 L13.8175238,32.7168095 C13.8175238,33.6391905 14.1275238,34.3887143 14.7475238,34.965381 C15.3675238,35.5420476 16.2008571,35.830619 17.2484762,35.830619 C18.3346667,35.830619 19.1899048,35.5420476 19.8146667,34.965381 C20.4394286,34.3887143 20.7518095,33.553 20.7518095,32.4572857 C20.7518095,31.3525238 20.4246667,30.5015714 19.7713333,29.905381 C19.118,29.3096667 18.1470476,29.0115714 16.8594286,29.0115714 L14.798,29.0115714 L14.798,26.2439524 Z" id="Fill-8" fill="#FFFFFF"></path>
                            <polygon id="Fill-10" fill="#FFFFFF" points="37.0129524 38.3389048 33.524381 38.3389048 33.524381 21.4765238 28.3777143 23.2308095 28.3777143 20.2903333 36.5662857 17.2774762 37.0129524 17.2774762"></polygon>
                            <path d="M22.8474286,48.3012381 L4.96647619,48.3012381 C2.75219048,48.3012381 1.06647619,46.2064762 1.41409524,43.8917143 L2.59028571,28.0393333 L22.8474286,48.3012381 Z" id="Fill-12" fill="#4688F4"></path>
                            <path d="M12.7600476,5.39666667 C11.7081429,5.39666667 10.8552857,4.54380952 10.8552857,3.49190476 C10.8552857,2.44 11.7081429,1.58714286 12.7600476,1.58714286 C13.8119524,1.58714286 14.6648095,2.44 14.6648095,3.49190476 C14.6648095,4.54380952 13.8119524,5.39666667 12.7600476,5.39666667" id="Fill-14" fill="#EFEFEF"></path>
                            <path d="M37.0129524,5.39666667 C35.9610476,5.39666667 35.1081905,4.54380952 35.1081905,3.49190476 C35.1081905,2.44 35.9610476,1.58714286 37.0129524,1.58714286 C38.0648571,1.58714286 38.9177143,2.44 38.9177143,3.49190476 C38.9177143,4.54380952 38.0648571,5.39666667 37.0129524,5.39666667" id="Fill-16" fill="#EFEFEF"></path>
                        </g>
                    </g>
                </g>
                <g id="app-trello" mask="url(#mask-2)">
                    <g transform="translate(86.000000, 212.000000)">
                        <g id="Rectangle-4">
                            <use fill="black" fill-opacity="1" filter="url(#filter-36)" xlink:href="#path-35"></use>
                            <use fill="#0079BF" fill-rule="evenodd" xlink:href="#path-35"></use>
                        </g>
                        <g id="Group" stroke-width="1" fill-rule="evenodd" transform="translate(23.000000, 23.000000)">
                            <rect id="Rectangle-path" fill="#FFFFFF" fill-rule="nonzero" x="0" y="0" width="50" height="50" rx="4.8828125"></rect>
                            <rect id="Rectangle-path" fill="#0079BF" fill-rule="nonzero" x="28" y="7" width="15" height="22" rx="2.34375"></rect>
                            <rect id="Rectangle-path" fill="#0079BF" fill-rule="nonzero" x="6" y="7" width="15" height="34" rx="2.34375"></rect>
                        </g>
                    </g>
                </g>
                <g id="app-gmail" mask="url(#mask-2)">
                    <g transform="translate(-20.000000, 212.000000)">
                        <g id="Rectangle-4">
                            <use fill="black" fill-opacity="1" filter="url(#filter-38)" xlink:href="#path-37"></use>
                            <use fill="#D54B3D" fill-rule="evenodd" xlink:href="#path-37"></use>
                        </g>
                        <g id="gmail" stroke-width="1" fill-rule="evenodd" transform="translate(23.000000, 29.000000)">
                            <path d="M46.6472506,37.8115248 L3.155121,37.8115248 C1.46869149,37.8115248 0.048540323,36.4357533 0.048540323,34.7049441 L0.048540323,3.28409957 C0.048540323,1.59767006 1.42431177,0.177518896 3.155121,0.177518896 L46.6472506,0.177518896 C48.3336801,0.177518896 49.7538312,1.55329034 49.7538312,3.28409957 L49.7538312,34.7049441 C49.7538312,36.4357533 48.3780598,37.8115248 46.6472506,37.8115248 L46.6472506,37.8115248 Z" id="Shape" fill="#E3E3E3" fill-rule="nonzero"></path>
                            <polygon id="Shape" fill="#231F20" fill-rule="nonzero" opacity="0.1" points="6.26170168 37.8115248 24.8568061 22.8555578 24.9899453 22.0567229 5.81790445 8.25462867 5.77352473 37.1458289"></polygon>
                            <path d="M3.155121,37.8115248 C1.42431177,37.8115248 0.048540323,36.4357533 0.048540323,34.7049441 L0.048540323,3.23971984 C0.048540323,1.50891062 1.42431177,1.19825255 3.155121,1.19825255 C4.88593023,1.19825255 6.26170168,1.55329034 6.26170168,3.23971984 L6.26170168,37.8115248 L3.155121,37.8115248 L3.155121,37.8115248 Z" id="Shape" fill="#D54B3D" fill-rule="nonzero"></path>
                            <path d="M3.155121,1.64204979 C5.37410721,1.64204979 5.81790445,2.30774564 5.81790445,3.23971984 L5.81790445,37.3677275 L3.155121,37.3677275 C1.69059011,37.3677275 0.492337563,36.169475 0.492337563,34.7049441 L0.492337563,3.23971984 C0.492337563,2.26336592 0.936134803,1.64204979 3.155121,1.64204979 L3.155121,1.64204979 Z M3.155121,1.19825255 C1.42431177,1.19825255 0.048540323,1.55329034 0.048540323,3.23971984 L0.048540323,34.7049441 C0.048540323,36.4357533 1.42431177,37.8115248 3.155121,37.8115248 L6.26170168,37.8115248 L6.26170168,3.23971984 C6.26170168,1.50891062 4.88593023,1.19825255 3.155121,1.19825255 L3.155121,1.19825255 L3.155121,1.19825255 Z" id="Shape" fill="#D72B27" fill-rule="nonzero"></path>
                            <path d="M46.6472506,37.8115248 L43.5406699,37.8115248 L43.5406699,3.15096041 C43.5406699,1.42015117 44.9164412,1.19825255 46.6472506,1.19825255 C48.3780598,1.19825255 49.7538312,1.42015117 49.7538312,3.15096041 L49.7538312,34.7493238 C49.7538312,36.4357533 48.3780598,37.8115248 46.6472506,37.8115248 L46.6472506,37.8115248 Z" id="Shape" fill="#D54B3D" fill-rule="nonzero"></path>
                            <path d="M46.6472506,1.64204979 C48.6443381,1.64204979 49.310034,2.0414673 49.310034,3.15096041 L49.310034,34.7493238 C49.310034,36.2138549 48.1117814,37.4121074 46.6472506,37.4121074 L43.9844672,37.4121074 L43.9844672,3.15096041 C43.9844672,1.99708758 44.6501629,1.64204979 46.6472506,1.64204979 L46.6472506,1.64204979 Z M46.6472506,1.19825255 C44.9164412,1.19825255 43.5406699,1.42015117 43.5406699,3.15096041 L43.5406699,37.8559045 L46.6472506,37.8559045 C48.3780598,37.8559045 49.7538312,36.4801332 49.7538312,34.7493238 L49.7538312,3.15096041 C49.7538312,1.42015117 48.3780598,1.19825255 46.6472506,1.19825255 L46.6472506,1.19825255 L46.6472506,1.19825255 Z" id="Shape" fill="#D72B27" fill-rule="nonzero"></path>
                            <path d="M33.3333334,37.8115248 L0.308554504,4.53022547 L2.04562791,5.23680744 L25.034325,21.7904445 L49.753832,3.66415295 L49.7538313,34.7493238 C49.7538313,36.4357533 48.3780598,37.8115248 46.6472506,37.8115248 L33.3333334,37.8115248 Z" id="Shape" fill="url(#linearGradient-39)" fill-rule="nonzero"></path>
                            <path d="M24.8568061,22.8555578 L1.37993204,5.81374385 C0.00416059912,4.7930102 -0.395256918,2.84030234 0.625476734,1.46453089 C1.64621039,0.088759448 3.64329797,-0.221898619 5.06344914,0.798835033 L24.9011857,15.2222453 L44.8720615,0.621316137 C46.247833,-0.399417516 48.2005408,-0.088759448 49.2212746,1.33139172 C50.2420082,2.70716316 49.9313502,4.65987102 48.511199,5.68060467 L24.8568061,22.8555578 L24.8568061,22.8555578 Z" id="Shape" fill="#D54B3D" fill-rule="nonzero"></path>
                            <path d="M46.6472506,0.44379724 L46.6472506,0.44379724 C47.4904652,0.44379724 48.2893004,0.843214756 48.821857,1.55329034 C49.6650717,2.75154289 49.3987934,4.39359268 48.2449205,5.28118715 L24.8568061,22.3230012 L1.64621039,5.45870605 C0.44795784,4.57111158 0.137299771,2.88468207 0.980514527,1.73080924 C1.46869149,1.06511338 2.31190625,0.621316137 3.19950072,0.621316137 C3.77643715,0.621316137 4.35337355,0.798835033 4.7971708,1.15387282 L24.5905277,15.5329034 L24.8568061,15.7104223 L25.1230844,15.5329034 L45.0495805,0.931974205 C45.5377574,0.621316137 46.0703141,0.44379724 46.6472506,0.44379724 L46.6472506,0.44379724 Z M46.6472506,0 C46.0259344,0 45.3602385,0.177518896 44.8276818,0.576936412 L24.8568061,15.1778656 L5.01906941,0.754455309 C4.48651271,0.355037793 3.82081686,0.177518896 3.155121,0.177518896 C2.17876707,0.177518896 1.20241315,0.621316137 0.581097012,1.46453089 C-0.395256918,2.84030234 0.00416059912,4.7930102 1.37993204,5.81374385 L24.8568061,22.8999375 L48.4668191,5.68060467 C49.8425906,4.65987102 50.1532488,2.75154289 49.1768947,1.33139172 C48.5555787,0.44379724 47.6236045,0 46.6472506,0 L46.6472506,0 L46.6472506,0 Z" id="Shape" fill="#D72B27" fill-rule="nonzero"></path>
                        </g>
                    </g>
                </g>
                <g id="app-google-sheets" mask="url(#mask-2)">
                    <g transform="translate(86.000000, 106.000000)">
                        <g id="Rectangle-4" fill="none">
                            <use fill="black" fill-opacity="1" filter="url(#filter-41)" xlink:href="#path-40"></use>
                            <use fill="#2DA468" fill-rule="evenodd" xlink:href="#path-40"></use>
                        </g>
                        <path d="M27,68 L69,68 L69,28 L27,28 L27,68 Z M50,40.709 L63,40.709 L63,34 L50,34 L50,40.709 Z M33,40.709 L46,40.709 L46,34 L33,34 L33,40.709 Z M50,51.355 L63,51.355 L63,44.709 L50,44.709 L50,51.355 Z M33,51.355 L46,51.355 L46,44.709 L33,44.709 L33,51.355 Z M50,62 L63,62 L63,55.354 L50,55.354 L50,62 Z M33,62 L46,62 L46,55.354 L33,55.354 L33,62 Z" id="Page-1" fill="#FFFFFF" fill-rule="evenodd"></path>
                    </g>
                </g>
                <g id="app-full-contacts" mask="url(#mask-2)">
                    <g transform="translate(-20.000000, 106.000000)">
                        <g id="Rectangle-4">
                            <use fill="black" fill-opacity="1" filter="url(#filter-43)" xlink:href="#path-42"></use>
                            <use fill="#C4161C" fill-rule="evenodd" xlink:href="#path-42"></use>
                        </g>
                        <g id="Group-11" stroke-width="1" fill-rule="evenodd" transform="translate(23.000000, 30.000000)">
                            <path d="M48.5673188,6.90456522 C49.2296377,6.97485507 49.7100725,7.57992754 49.6405072,8.25456522 L47.5564493,28.5878986 L47.728913,30.8755797 C47.7484783,31.1407971 47.6825362,31.3915217 47.5564493,31.6023913 L47.5564493,32.4893478 C47.5564493,32.9045652 47.3535507,33.2697826 47.0434058,33.4907971 L46.8745652,35.1313768 C46.805,35.8067391 46.2122464,36.2958696 45.5492029,36.2248551 L36.1013768,35.2154348 L36.331087,32.9799275 L36.8506522,33.035 L36.8506522,31.4683333 L37.7919565,31.4683333 C38.6948551,31.4683333 39.4274638,30.7226812 39.4274638,29.8031159 C39.4274638,28.8828261 38.6948551,28.1371739 37.7919565,28.1371739 L33.2760145,28.1371739 C32.3731159,28.1371739 31.6412319,28.8828261 31.6412319,29.8031159 C31.6412319,30.7226812 32.3731159,31.4683333 33.2760145,31.4683333 L34.2173188,31.4683333 L34.2173188,33.7154348 L33.6078986,33.7154348 L33.4825362,34.9371739 L24.1854348,33.9436957 L16.0593478,34.5777536 L15.9941304,33.7154348 L15.7021014,33.7154348 L15.7021014,31.4676087 L16.6441304,31.4676087 C17.547029,31.4676087 18.278913,30.7219565 18.278913,29.8031159 C18.278913,28.8821014 17.547029,28.1364493 16.6441304,28.1364493 L12.1274638,28.1364493 C11.2238406,28.1364493 10.4926812,28.8821014 10.4926812,29.8031159 C10.4926812,30.7219565 11.2238406,31.4676087 12.1274638,31.4676087 L13.0687681,31.4676087 L13.0687681,32.5552899 L13.2644203,32.5400725 L13.4339855,34.7835507 L3.32528986,35.5719565 C2.66152174,35.6241304 2.08181159,35.1176087 2.03036232,34.4407971 L1.93543478,33.1806522 C1.80355072,32.9828261 1.72528986,32.7451449 1.72528986,32.4886232 L1.72528986,31.3400725 C1.42456522,31.0871739 1.2492029,30.6900725 1.29268116,30.2647101 L1.5376087,27.8842754 L0.00355072464,7.49442029 C-0.047173913,6.81905797 0.449202899,6.2292029 1.11442029,6.17702899 L1.72528986,6.1292029 L1.72528986,5.46398551 C1.72528986,5.16615942 1.83326087,4.89731884 2.00572464,4.685 L1.9665942,4.15963768 C1.94413043,3.87268116 2.155,3.62413043 2.43543478,3.60166667 L3.93253623,3.485 L3.93253623,2.28934783 C3.93253623,2.00166667 4.1607971,1.77123188 4.44195652,1.77123188 L6.44485507,1.77123188 L6.57891304,0.464710145 C6.60862319,0.179927536 6.85862319,-0.0265942029 7.13978261,0.00311594203 L18.2897826,1.19297101 C18.5694928,1.22268116 18.7723913,1.4792029 18.7434058,1.76326087 L18.5434058,3.69949275 L23.5673188,4.23572464 L25.989058,4.23572464 L44.4071739,2.79804348 C45.070942,2.7465942 45.6506522,3.2523913 45.7006522,3.92992754 L45.7238406,4.23572464 L46.3506522,4.23572464 C47.0173188,4.23572464 47.5564493,4.785 47.5564493,5.46398551 L47.5564493,6.7965942 L48.5673188,6.90456522 Z M27.1534058,25.1103623 L27.1534058,22.9965942 C27.1534058,20.719058 25.8128261,18.7632609 23.8939855,17.8922464 C25.0207971,17.1487681 25.7678986,15.8574638 25.7678986,14.3878986 C25.7678986,12.0821014 23.9316667,10.211087 21.6664493,10.211087 C19.4012319,10.211087 17.565,12.0821014 17.565,14.3878986 C17.565,15.8574638 18.3113768,17.1487681 19.4396377,17.8922464 C17.5200725,18.7632609 16.1794928,20.719058 16.1794928,22.9965942 L16.1794928,25.1103623 L27.1534058,25.1103623 Z M35.0678261,22.9987681 L35.0678261,20.8857246 C35.0678261,18.6074638 33.7272464,16.650942 31.8069565,15.7813768 C32.9344928,15.0357246 33.6823188,13.7465942 33.6823188,12.2755797 C33.6823188,9.96905797 31.846087,8.09876812 29.5808696,8.09876812 C28.2721739,8.09876812 27.1091304,8.72485507 26.3576812,9.69731884 C27.946087,10.2726812 29.0852174,11.8139855 29.0852174,13.6292029 C29.0852174,15.0987681 28.3366667,16.3878986 27.2105797,17.1335507 C29.1294203,18.0038406 30.4707246,19.9596377 30.4707246,22.2371739 L30.4707246,22.9987681 L35.0678261,22.9987681 Z" id="Combined-Shape" fill="#FFFFFF"></path>
                        </g>
                    </g>
                </g>
                <g id="app-quick-books" mask="url(#mask-2)">
                    <g transform="translate(-20.000000, 0.000000)">
                        <g id="Rectangle-4">
                            <use fill="black" fill-opacity="1" filter="url(#filter-45)" xlink:href="#path-44"></use>
                            <use fill="#28A038" fill-rule="evenodd" xlink:href="#path-44"></use>
                        </g>
                        <g id="Group" stroke-width="1" fill-rule="evenodd" transform="translate(22.000000, 27.000000)">
                            <path d="M14.5526316,6.71052632 C6.92105263,6.71052632 0.736842105,12.8947368 0.736842105,20.5263158 C0.736842105,28.1578947 6.92105263,34.3421053 14.5526316,34.3421053 L15.8684211,34.3421053 L15.8684211,29.4736842 L14.5526316,29.4736842 C9.55263158,29.4736842 5.60526316,25.3947368 5.60526316,20.5263158 C5.60526316,15.5263158 9.68421053,11.5789474 14.5526316,11.5789474 L18.8947368,11.5789474 L18.8947368,41.1842105 L23.8947368,41.1842105 L23.8947368,6.71052632 C23.8947368,6.71052632 14.8157895,6.71052632 14.5526316,6.71052632 L14.5526316,6.71052632 Z" id="Shape" fill="#FFFFFF"></path>
                            <path d="M36.1315789,34.4736842 C43.7631579,34.4736842 49.9473684,28.2894737 49.9473684,20.6578947 C49.9473684,13.0263158 43.7631579,6.84210526 36.1315789,6.84210526 L34.8157895,6.84210526 L34.8157895,11.7105263 L36.1315789,11.7105263 C41.1315789,11.7105263 45.0789474,15.7894737 45.0789474,20.6578947 C45.0789474,25.6578947 41,29.6052632 36.1315789,29.6052632 L31.7894737,29.6052632 L31.7894737,0 L26.7894737,0 L26.7894737,34.4736842 L36.1315789,34.4736842 L36.1315789,34.4736842 Z" id="Shape" fill="#FFFFFF"></path>
                        </g>
                    </g>
                </g>
            </g>
        </g>
    </g>
</svg>