<?xml version="1.0" encoding="iso-8859-1"?>
<!-- Generator: Adobe Illustrator 19.0.0, SVG Export Plug-In . SVG Version: 6.00 Build 0)  -->
<svg xmlns="http://www.w3.org/2000/svg" xmlns:xlink="http://www.w3.org/1999/xlink" version="1.1" id="Capa_1" x="0px" y="0px" viewBox="0 0 60 60" style="enable-background:new 0 0 60 60;" xml:space="preserve" width="512px" height="512px">
<path d="M44.5,14.5C35.953,14.5,29,21.453,29,30c0,7.444-6.056,13.5-13.5,13.5S2,37.444,2,30s6.056-13.5,13.5-13.5  c2.687,0,5.282,0.787,7.505,2.277c0.74,0.495,1.432,1.065,2.058,1.694c0.39,0.39,1.023,0.393,1.414,0.003  c0.392-0.39,0.393-1.023,0.003-1.415c-0.718-0.721-1.513-1.375-2.361-1.944C21.565,15.404,18.584,14.5,15.5,14.5  C6.953,14.5,0,21.453,0,30s6.953,15.5,15.5,15.5S31,38.547,31,30c0-7.444,6.056-13.5,13.5-13.5S58,22.556,58,30  s-6.056,13.5-13.5,13.5c-3.605,0-6.995-1.403-9.544-3.952c-0.391-0.391-1.023-0.391-1.414,0s-0.391,1.023,0,1.414  C36.469,43.889,40.36,45.5,44.5,45.5C53.047,45.5,60,38.547,60,30S53.047,14.5,44.5,14.5z" fill="#FFFFFF"/>
<g>
</g>
<g>
</g>
<g>
</g>
<g>
</g>
<g>
</g>
<g>
</g>
<g>
</g>
<g>
</g>
<g>
</g>
<g>
</g>
<g>
</g>
<g>
</g>
<g>
</g>
<g>
</g>
<g>
</g>
</svg>
