<?xml version="1.0" encoding="iso-8859-1"?>
<!-- Generator: Adobe Illustrator 18.1.1, SVG Export Plug-In . SVG Version: 6.00 Build 0)  -->
<svg xmlns="http://www.w3.org/2000/svg" xmlns:xlink="http://www.w3.org/1999/xlink" version="1.1" id="Capa_1" x="0px" y="0px" viewBox="0 0 17.502 17.502" style="enable-background:new 0 0 17.502 17.502;" xml:space="preserve" width="512px" height="512px">
<g>
	<path d="M13.182,4.431c-1.153,0-2.237,0.449-3.036,1.246L8.75,7.017l-1.375-1.32   C6.56,4.88,5.474,4.431,4.32,4.431S2.081,4.882,1.267,5.697C0.45,6.513,0,7.597,0,8.752c0,1.152,0.449,2.238,1.266,3.053   c0.814,0.816,1.899,1.266,3.054,1.266c1.153,0,2.239-0.449,3.036-1.248l1.395-1.338l1.376,1.32   c0.815,0.816,1.901,1.266,3.055,1.266s2.238-0.449,3.053-1.266c0.817-0.814,1.267-1.9,1.267-3.055s-0.449-2.238-1.266-3.055   C15.419,4.88,14.335,4.431,13.182,4.431z M5.606,10.036c-0.687,0.688-1.884,0.688-2.572,0C2.69,9.692,2.501,9.235,2.501,8.751   c0-0.486,0.189-0.941,0.535-1.287C3.378,7.12,3.835,6.931,4.32,6.931S5.262,7.12,5.625,7.482l1.321,1.27L5.606,10.036z    M14.467,10.036c-0.687,0.689-1.866,0.705-2.59-0.018l-1.321-1.27l1.339-1.285c0.688-0.688,1.886-0.688,2.573-0.002   c0.344,0.346,0.533,0.801,0.533,1.287S14.811,9.692,14.467,10.036z" fill="#FFFFFF"/>
</g>
<g>
</g>
<g>
</g>
<g>
</g>
<g>
</g>
<g>
</g>
<g>
</g>
<g>
</g>
<g>
</g>
<g>
</g>
<g>
</g>
<g>
</g>
<g>
</g>
<g>
</g>
<g>
</g>
<g>
</g>
</svg>
