<?xml version="1.0" encoding="iso-8859-1"?>
<!-- Generator: Adobe Illustrator 16.0.0, SVG Export Plug-In . SVG Version: 6.00 Build 0)  -->
<!DOCTYPE svg PUBLIC "-//W3C//DTD SVG 1.1//EN" "http://www.w3.org/Graphics/SVG/1.1/DTD/svg11.dtd">
<svg xmlns="http://www.w3.org/2000/svg" xmlns:xlink="http://www.w3.org/1999/xlink" version="1.1" id="Capa_1" x="0px" y="0px" width="512px" height="512px" viewBox="0 0 488.022 488.022" style="enable-background:new 0 0 488.022 488.022;" xml:space="preserve">
<g>
	<g id="Layer_2_21_">
		<g>
			<path d="M408.871,206.974l21.833-53.701c2.447-6.023-0.619-9.328-6.807-7.355l-21.717,6.921     c-24.075-50.386-66.184-88.565-118.759-107.589c-53.09-19.216-110.488-16.603-161.617,7.35     C70.68,76.555,31.939,118.988,12.723,172.079c-13.64,37.707-16.278,77.577-8.08,115.838c3.346,15.615,8.495,30.958,15.438,45.774     c23.958,51.127,66.384,89.868,119.474,109.081c53.093,19.217,110.491,16.604,161.617-7.354     c7.252-3.396,14.491-6.814,20.985-11.325c8.619-5.987,17.692-11.305,8.786-24.34c-9.014-13.19-26.874-3.275-44.197,4.883     c-42.862,20.184-91.064,22.295-135.622,6.171c-44.549-16.122-80.154-48.633-100.26-91.538     c-5.825-12.438-10.147-25.31-12.956-38.414c-6.873-32.104-4.664-65.573,6.788-97.208c16.124-44.554,48.63-80.164,91.532-100.263     c42.906-20.104,91.072-22.292,135.628-6.176c42.629,15.441,77.037,45.892,97.536,86.083l-22.52,7.184     c-6.19,1.974-6.774,6.445-1.296,9.942l48.878,31.154C399.939,215.061,406.425,212.991,408.871,206.974z" fill="#FFFFFF"/>
			<path d="M200.435,120.945v122.212l-82.918,67.61c-5.891,4.802-6.772,13.474-1.968,19.362c2.718,3.336,6.68,5.063,10.676,5.063     c3.058,0,6.135-1.013,8.688-3.099l93.048-75.863V120.945c0-7.603-6.164-13.765-13.762-13.765     C206.589,107.18,200.435,113.342,200.435,120.945z" fill="#FFFFFF"/>
			<path d="M432.902,253.705c-14.729,0-28.564,5.734-38.756,15.903l-17.808,17.097l-17.546-16.837     c-10.403-10.428-24.26-16.163-38.988-16.163c-14.726,0-28.569,5.761-38.957,16.163c-10.428,10.407-16.167,24.239-16.167,38.981     c0,14.704,5.732,28.56,16.155,38.957c10.383,10.417,24.23,16.162,38.969,16.162c14.717,0,28.577-5.731,38.744-15.926     l17.799-17.075l17.562,16.839c10.404,10.417,24.265,16.162,38.994,16.162c14.716,0,28.549-5.731,38.952-16.162     c10.42-10.381,16.167-24.241,16.167-38.982s-5.724-28.562-16.167-38.979C461.439,259.439,447.606,253.705,432.902,253.705z      M336.217,325.236c-8.77,8.773-24.04,8.773-32.817,0c-4.393-4.387-6.807-10.221-6.807-16.4c0-6.205,2.414-12.013,6.832-16.424     c4.362-4.387,10.191-6.804,16.38-6.804c6.191,0,12.025,2.417,16.656,7.026l16.853,16.215L336.217,325.236z M449.302,325.236     c-8.773,8.784-23.827,8.997-33.062-0.226l-16.86-16.213l17.097-16.398c8.772-8.786,24.052-8.786,32.825-0.025     c4.388,4.411,6.8,10.221,6.8,16.425C456.102,314.992,453.689,320.85,449.302,325.236z" fill="#FFFFFF"/>
		</g>
	</g>
</g>
<g>
</g>
<g>
</g>
<g>
</g>
<g>
</g>
<g>
</g>
<g>
</g>
<g>
</g>
<g>
</g>
<g>
</g>
<g>
</g>
<g>
</g>
<g>
</g>
<g>
</g>
<g>
</g>
<g>
</g>
</svg>
