<?xml version="1.0" encoding="iso-8859-1"?>
<!-- Generator: Adobe Illustrator 19.0.0, SVG Export Plug-In . SVG Version: 6.00 Build 0)  -->
<svg xmlns="http://www.w3.org/2000/svg" xmlns:xlink="http://www.w3.org/1999/xlink" version="1.1" id="Capa_1" x="0px" y="0px" viewBox="0 0 54 54" style="enable-background:new 0 0 54 54;" xml:space="preserve" width="512px" height="512px">
<g>
	<path d="M43,20.113V14.5C43,6.505,35.822,0,27,0S11,6.505,11,14.5v5.613c-3.401,0.586-6,3.55-6,7.117v19.542   C5,50.757,8.243,54,12.229,54h29.542C45.757,54,49,50.757,49,46.771V27.229C49,23.663,46.401,20.699,43,20.113z M13,14.5   C13,7.607,19.28,2,27,2s14,5.607,14,12.5V20H13V14.5z M47,46.771C47,49.654,44.654,52,41.771,52H12.229C9.346,52,7,49.654,7,46.771   V27.229C7,24.346,9.346,22,12.229,22h29.542C44.654,22,47,24.346,47,27.229V46.771z" fill="#FFFFFF"/>
	<path d="M27,28c-2.206,0-4,1.794-4,4v6c0,2.206,1.794,4,4,4s4-1.794,4-4v-6C31,29.794,29.206,28,27,28z M29,38c0,1.103-0.897,2-2,2   s-2-0.897-2-2v-6c0-1.103,0.897-2,2-2s2,0.897,2,2V38z" fill="#FFFFFF"/>
</g>
<g>
</g>
<g>
</g>
<g>
</g>
<g>
</g>
<g>
</g>
<g>
</g>
<g>
</g>
<g>
</g>
<g>
</g>
<g>
</g>
<g>
</g>
<g>
</g>
<g>
</g>
<g>
</g>
<g>
</g>
</svg>
