<?xml version="1.0" encoding="iso-8859-1"?>
<!-- Generator: Adobe Illustrator 19.0.0, SVG Export Plug-In . SVG Version: 6.00 Build 0)  -->
<svg xmlns="http://www.w3.org/2000/svg" xmlns:xlink="http://www.w3.org/1999/xlink" version="1.1" id="Layer_1" x="0px" y="0px" viewBox="0 0 512 512" style="enable-background:new 0 0 512 512;" xml:space="preserve" width="512px" height="512px">
<g>
	<g>
		<path d="M113.566,249.738h-0.137c-5.77,0-10.448,4.678-10.448,10.448s4.677,10.448,10.448,10.448h0.137    c5.77,0,10.448-4.678,10.448-10.448S119.336,249.738,113.566,249.738z" fill="#FFFFFF"/>
	</g>
</g>
<g>
	<g>
		<path d="M79.628,249.738H49.816c-5.77,0-10.448,4.678-10.448,10.448s4.678,10.448,10.448,10.448h29.812    c5.77,0,10.448-4.678,10.448-10.448S85.398,249.738,79.628,249.738z" fill="#FFFFFF"/>
	</g>
</g>
<g>
	<g>
		<path d="M134.215,310.684H49.816c-5.77,0-10.448,4.678-10.448,10.448c0,5.77,4.678,10.448,10.448,10.448h84.399    c5.77,0,10.448-4.677,10.448-10.448C144.663,315.362,139.986,310.684,134.215,310.684z" fill="#FFFFFF"/>
	</g>
</g>
<g>
	<g>
		<path d="M113.566,280.21h-0.137c-5.77,0-10.448,4.678-10.448,10.448c0,5.77,4.677,10.448,10.448,10.448h0.137    c5.77,0,10.448-4.677,10.448-10.448C124.014,284.888,119.336,280.21,113.566,280.21z" fill="#FFFFFF"/>
	</g>
</g>
<g>
	<g>
		<path d="M79.628,280.212H49.816c-5.77,0-10.448,4.677-10.448,10.448c0,5.77,4.678,10.448,10.448,10.448h29.812    c5.77,0,10.448-4.677,10.448-10.448C90.076,284.889,85.398,280.212,79.628,280.212z" fill="#FFFFFF"/>
	</g>
</g>
<g>
	<g>
		<path d="M144.823,280.212h-0.976c-5.77,0-10.448,4.677-10.448,10.448c0,5.77,4.678,10.448,10.448,10.448h0.976    c5.77,0,10.448-4.677,10.448-10.448C155.271,284.889,150.593,280.212,144.823,280.212z" fill="#FFFFFF"/>
	</g>
</g>
<g>
	<g>
		<path d="M10.585,491.085h-0.137C4.678,491.085,0,495.763,0,501.533s4.678,10.448,10.448,10.448h0.137    c5.77,0,10.448-4.678,10.448-10.448S16.355,491.085,10.585,491.085z" fill="#FFFFFF"/>
	</g>
</g>
<g>
	<g>
		<path d="M501.501,491.085h-0.137c-5.77,0-10.448,4.678-10.448,10.448s4.677,10.448,10.448,10.448h0.137    c5.77,0,10.448-4.678,10.448-10.448S507.271,491.085,501.501,491.085z" fill="#FFFFFF"/>
	</g>
</g>
<g>
	<g>
		<path d="M294.077,212.125c-6.44,0-11.679,5.239-11.679,11.679c0,6.439,5.239,11.678,11.679,11.678s11.679-5.239,11.679-11.678    C305.756,217.364,300.517,212.125,294.077,212.125z" fill="#FFFFFF"/>
	</g>
</g>
<g>
	<g>
		<path d="M217.872,212.125c-6.44,0-11.679,5.239-11.679,11.679c0,6.439,5.239,11.678,11.679,11.678    c6.439,0,11.678-5.239,11.679-11.678C229.551,217.364,224.312,212.125,217.872,212.125z" fill="#FFFFFF"/>
	</g>
</g>
<g>
	<g>
		<path d="M266.228,261.351h-20.419c-5.77,0-10.448,4.678-10.448,10.448c0,11.39,9.267,20.658,20.658,20.658    s20.657-9.266,20.658-20.658C276.676,266.028,271.998,261.351,266.228,261.351z" fill="#FFFFFF"/>
	</g>
</g>
<g>
	<g>
		<path d="M214.231,445.205l16.078-16.077c4.08-4.081,4.081-10.697,0-14.776c-4.081-4.08-10.697-4.08-14.777,0l-23.465,23.465    c-4.08,4.081-4.08,10.697,0,14.777l23.465,23.465c2.039,2.04,4.714,3.06,7.388,3.06c2.674,0,5.348-1.02,7.389-3.059    c4.08-4.081,4.08-10.697,0-14.776L214.231,445.205z" fill="#FFFFFF"/>
	</g>
</g>
<g>
	<g>
		<path d="M319.584,437.815l-23.465-23.465c-4.081-4.08-10.697-4.08-14.777,0c-4.08,4.081-4.08,10.697,0,14.777l16.078,16.077    l-16.078,16.077c-4.08,4.081-4.08,10.697,0,14.776c2.039,2.04,4.714,3.06,7.388,3.06c2.674,0,5.348-1.02,7.389-3.061    l23.465-23.465C323.663,448.511,323.663,441.895,319.584,437.815z" fill="#FFFFFF"/>
	</g>
</g>
<g>
	<g>
		<path d="M262.391,411.226c-5.68-1.044-11.122,2.71-12.167,8.384l-8.681,47.169c-1.044,5.675,2.709,11.122,8.384,12.167    c0.639,0.117,1.275,0.174,1.903,0.174c4.943,0,9.336-3.524,10.264-8.559l8.681-47.169    C271.819,417.717,268.066,412.27,262.391,411.226z" fill="#FFFFFF"/>
	</g>
</g>
<g>
	<g>
		<path d="M81.704,64.431c-17.379,0-31.518,14.139-31.518,31.518v20.547c0,17.379,14.139,31.518,31.518,31.518    c17.379,0,31.518-14.138,31.518-31.517V95.95C113.222,78.571,99.083,64.431,81.704,64.431z M92.326,116.498    c0,5.857-4.765,10.622-10.622,10.622s-10.622-4.765-10.622-10.622V95.95c0-5.857,4.765-10.622,10.622-10.622    s10.622,4.765,10.622,10.622V116.498z" fill="#FFFFFF"/>
	</g>
</g>
<g>
	<g>
		<path d="M35.726,65.227c-3.904-1.617-8.399-0.723-11.386,2.264L3.11,88.721c-4.08,4.081-4.08,10.697,0,14.777    c4.081,4.079,10.697,4.079,14.776,0l3.393-3.393v37.463c0,5.77,4.678,10.448,10.448,10.448s10.448-4.678,10.447-10.447V74.88    C42.175,70.654,39.63,66.845,35.726,65.227z" fill="#FFFFFF"/>
	</g>
</g>
<g>
	<g>
		<path d="M430.854,0.019c-17.379,0-31.518,14.139-31.518,31.518v20.547c0,17.379,14.139,31.518,31.518,31.518    s31.518-14.139,31.518-31.517V31.537C462.372,14.158,448.233,0.019,430.854,0.019z M441.476,52.085    c0,5.857-4.765,10.622-10.622,10.622s-10.622-4.765-10.622-10.622V31.537c0-5.857,4.765-10.622,10.622-10.622    s10.622,4.765,10.622,10.622V52.085z" fill="#FFFFFF"/>
	</g>
</g>
<g>
	<g>
		<path d="M505.549,0.815c-3.905-1.618-8.398-0.723-11.386,2.264l-21.229,21.229c-4.08,4.081-4.08,10.697,0,14.776    c4.081,4.079,10.697,4.079,14.777,0l3.393-3.395v37.464c0,5.77,4.678,10.448,10.448,10.448S512,78.925,511.999,73.155V10.468    C511.999,6.242,509.454,2.432,505.549,0.815z" fill="#FFFFFF"/>
	</g>
</g>
<g>
	<g>
		<path d="M488.354,219.838h-63.457c-13.038,0-23.646,10.609-23.646,23.648V363.72c0,13.039,10.608,23.648,23.646,23.648h63.457    c13.038,0,23.646-10.609,23.646-23.648V243.486C512,230.447,501.392,219.838,488.354,219.838z M422.148,243.486    c0-1.518,1.234-2.752,2.75-2.752h63.457c1.516,0,2.75,1.235,2.75,2.752v2.073h-68.956V243.486z M422.148,266.455h68.956v70.743    h-68.956V266.455z M491.104,363.72L491.104,363.72c0,1.518-1.234,2.752-2.75,2.752h-63.457c-1.516,0-2.75-1.235-2.75-2.752v-5.626    h68.956V363.72z" fill="#FFFFFF"/>
	</g>
</g>
<g>
	<g>
		<path d="M467.563,491.085h-57.964v-70.644c0-20.365-12.291-39.709-29.888-47.042l-67.241-28.016    c-2.081-0.867-3.52-2.737-3.857-4.916c-0.004-0.05-0.01-0.1-0.016-0.151c-0.037-0.276-0.063-0.554-0.063-0.838v-16.27    l27.31-15.659c0.19-0.109,0.377-0.225,0.561-0.346c13.674-9.03,22.654-25.091,24.02-42.961c0.021-0.264,0.03-0.531,0.03-0.796    v-8.674c13.568-4.413,23.402-17.181,23.402-32.202s-9.836-27.786-23.403-32.201v-5.185c5.962-12.971,30.71-74.005-6.696-121.661    c-17.285-22.027-38.017-31.388-56.688-26.029c-15.794-11.703-34.499-17.405-56.975-17.405    c-66.872,0-106.833,51.212-106.833,100.722c0,33.246,9.204,58.21,15.085,70.772c-8.354,3.684-14.94,10.651-18.131,19.258H23.986    c-13.198,0-23.935,11.026-23.935,24.578v160.273c0,5.77,4.678,10.448,10.448,10.448H69.4v21.209h-7.706    c-5.77,0-10.448,4.678-10.448,10.448s4.678,10.448,10.448,10.448h40.657v42.837H44.386c-5.77,0-10.448,4.678-10.448,10.448    s4.678,10.448,10.448,10.448h423.177c5.77,0,10.448-4.678,10.448-10.448S473.333,491.085,467.563,491.085z M240.095,40.987    c26.2,0,40.129,9.315,48.327,16.322c3.161,2.702,7.622,3.27,11.361,1.452c10.726-5.221,24.76,1.382,37.537,17.664    c21.947,27.961,16.227,63.633,9.906,84.443c-4.608-5.502-10.702-11.98-18.564-18.927c-5.032-4.448-11.885-7.786-19.141-11.319    c-8.555-4.167-19.2-9.352-21.217-14.605c-1.316-3.43-4.338-5.917-7.957-6.549c-3.621-0.633-7.305,0.683-9.706,3.466    c-14.117,16.354-31.666,23.971-55.224,23.971c-28.871,0-44.797,15.611-53.073,28.709c-0.367,0.58-0.72,1.159-1.064,1.737    c-3.725-11.666-7.124-27.524-7.124-46.536C154.157,81.575,186.301,40.987,240.095,40.987z M298.214,181.69    c-20.591,0-37.863,14.437-42.255,33.718c-4.391-19.281-21.663-33.718-42.255-33.718c-13.198,0-25.028,5.935-32.985,15.27    l-7.698-3.893c2.416-9.563,11.754-35.265,42.396-35.265c25.023,0,45.467-7.259,62.134-22.129    c6.466,5.771,14.972,9.914,22.819,13.736c5.68,2.766,11.551,5.626,14.453,8.19c14.735,13.022,22.154,23.859,24.734,28.054v7.146    l-8.274,4.26C323.327,187.667,311.458,181.69,298.214,181.69z M320.664,225.034c0,12.379-10.071,22.45-22.449,22.45    s-22.449-10.071-22.449-22.45s10.071-22.448,22.449-22.448S320.664,212.656,320.664,225.034z M236.155,225.034    c0,12.379-10.071,22.45-22.449,22.45s-22.449-10.071-22.449-22.45s10.071-22.448,22.449-22.448S236.155,212.656,236.155,225.034z     M159.825,209.808l11.569,5.851c-0.669,3.022-1.033,6.156-1.033,9.376c0,23.901,19.445,43.345,43.345,43.345    c20.591,0,37.863-14.437,42.255-33.719c4.391,19.281,21.663,33.719,42.255,33.719c23.901,0,43.345-19.445,43.345-43.345    c0-3.174-0.352-6.267-1.003-9.248l11.603-5.973c6.117,1.03,10.799,6.352,10.799,12.76c0,7.143-5.812,12.954-12.954,12.954    c-5.77,0-10.448,4.677-10.448,10.448v17.05c-0.949,11.049-6.442,21.174-14.419,26.574l-56.094,32.165    c-0.191,0.11-0.377,0.225-0.561,0.346c-7.831,5.173-17.184,5.174-25.018,0c-0.187-0.124-0.377-0.241-0.573-0.352l-56.258-32.161    c-7.984-5.406-13.284-15.292-14.245-26.569v-17.052c0-5.77-4.678-10.448-10.448-10.448c-7.143,0-12.954-5.812-12.954-12.954    C148.989,216.154,153.688,210.825,159.825,209.808z M287.638,335.192v19.091c0,17.538-14.14,31.806-31.678,31.806    s-31.648-14.268-31.648-31.806v-19.078l7.938,4.539c7.333,4.763,15.529,7.144,23.725,7.144c8.198,0,16.396-2.383,23.73-7.148    L287.638,335.192z M102.35,420.442v6.911H90.296v-21.209h14.079C103.062,410.751,102.35,415.566,102.35,420.442z M115.836,385.248    H20.947V235.422c0-1.996,1.392-3.682,3.039-3.682H129.38c3.066,10.874,11.419,19.555,22.115,23.035v8.674    c0,0.265,0.01,0.532,0.03,0.796c1.372,17.943,10.288,34.003,23.852,42.961c0.187,0.123,0.378,0.24,0.573,0.352l27.467,15.702    v16.219c0,2.59-1.545,4.907-3.936,5.904l-67.242,28.017C125.998,376,120.43,380.117,115.836,385.248z M123.246,491.085v-70.644    c0-11.776,7.321-23.707,17.029-27.753l64.288-26.786c5.308,23.486,26.329,41.083,51.396,41.083    c25.071,0,46.094-17.603,51.398-41.094l64.315,26.798c9.708,4.045,17.029,15.976,17.029,27.753v70.643H123.246z" fill="#FFFFFF"/>
	</g>
</g>
<g>
</g>
<g>
</g>
<g>
</g>
<g>
</g>
<g>
</g>
<g>
</g>
<g>
</g>
<g>
</g>
<g>
</g>
<g>
</g>
<g>
</g>
<g>
</g>
<g>
</g>
<g>
</g>
<g>
</g>
</svg>
