<svg xmlns="http://www.w3.org/2000/svg" xmlns:xlink="http://www.w3.org/1999/xlink" version="1.1" id="Layer_1" x="0px" y="0px" width="100px" height="100px" viewBox="0 0 100 100" style="enable-background:new 0 0 100 100;" xml:space="preserve">
<style type="text/css">
	.st0{fill:none;stroke:#111111;stroke-width:3;stroke-linecap:round;stroke-linejoin:round;stroke-miterlimit:10;}
</style>
<g>
	<path class="st0" d="M67.4,62.9l-0.4,19.1h-1.6L55,68.4h-9.8L34.7,82h-1.8l-0.4-19.1l7.5-7.5c-0.1-19,0-19.2,0-19.2   C40,27,49.7,15,50,15c0.3,0,10.1,12.8,10,21.3l-0.1,19.3L67.4,62.9L67.4,62.9z"/>
	<circle class="st0" cx="50" cy="40.4" r="4.1"/>
	<path class="st0" d="M40.4,55.6c0,0,4.6,2.7,10.5,2.2c5.9-0.4,9.1-2.3,9.1-2.3"/>
	<line class="st0" x1="50" y1="77.9" x2="50" y2="73"/>
	<line class="st0" x1="45.9" y1="82.7" x2="45.9" y2="77.9"/>
	<line class="st0" x1="53.2" y1="85" x2="53.2" y2="80.2"/>
</g>
</svg>