<?xml version="1.0" encoding="iso-8859-1"?>
<!-- Generator: Adobe Illustrator 16.0.0, SVG Export Plug-In . SVG Version: 6.00 Build 0)  -->
<!DOCTYPE svg PUBLIC "-//W3C//DTD SVG 1.1//EN" "http://www.w3.org/Graphics/SVG/1.1/DTD/svg11.dtd">
<svg xmlns="http://www.w3.org/2000/svg" xmlns:xlink="http://www.w3.org/1999/xlink" version="1.1" id="Capa_1" x="0px" y="0px" width="512px" height="512px" viewBox="0 0 438.536 438.536" style="enable-background:new 0 0 438.536 438.536;" xml:space="preserve">
<g>
	<path d="M415.7,262.093c3.039-14.657,4.564-28.935,4.564-42.826c0-27.218-5.276-53.247-15.844-78.087   c-10.562-24.838-24.838-46.249-42.825-64.237C343.608,58.955,322.2,44.68,297.361,34.114   c-24.845-10.559-50.866-15.843-78.088-15.843c-13.894,0-28.171,1.524-42.827,4.57C156.651,7.614,134.381,0,109.637,0   C79.375,0,53.538,10.705,32.124,32.115c-21.416,21.416-32.12,47.253-32.12,77.516c0,24.744,7.614,47.014,22.839,66.809   c-3.044,14.655-4.568,28.933-4.568,42.827c0,27.215,5.28,53.243,15.843,78.085c10.562,24.838,24.838,46.25,42.827,64.241   c17.987,17.986,39.401,32.257,64.239,42.824c24.84,10.564,50.869,15.845,78.087,15.845c13.893,0,28.17-1.526,42.834-4.572   c19.79,15.229,42.058,22.847,66.804,22.847c30.259,0,56.103-10.711,77.505-32.12c21.416-21.416,32.12-47.253,32.12-77.519   C438.529,304.158,430.918,281.891,415.7,262.093z M325.472,304.49c-6.276,11.136-14.702,20.033-25.263,26.696   c-10.567,6.663-22.224,11.748-34.975,15.273c-12.751,3.518-26.073,5.283-39.971,5.283c-32.163,0-59.855-6.235-83.078-18.705   c-23.223-12.471-34.833-27.453-34.833-44.968c0-8.562,2.428-15.693,7.282-21.408c4.853-5.712,12.038-8.562,21.555-8.562   c5.52,0,10.657,1.522,15.415,4.564c4.758,3.046,9.135,6.715,13.134,10.999c3.999,4.285,8.326,8.562,12.99,12.847   c4.661,4.285,10.847,7.946,18.555,10.992c7.71,3.046,16.418,4.572,26.128,4.572c12.371,0,22.36-2.423,29.981-7.275   c7.61-4.859,11.416-10.999,11.416-18.418c0-7.618-3.042-13.326-9.13-17.132c-4.182-2.673-14.846-6.098-31.977-10.283   l-41.688-10.284c-11.419-2.662-21.222-5.752-29.408-9.271c-8.186-3.524-15.8-8.134-22.841-13.849   c-7.039-5.708-12.369-12.891-15.986-21.555c-3.616-8.658-5.424-18.796-5.424-30.406c0-13.896,3.189-26.121,9.563-36.688   c6.374-10.565,14.849-18.846,25.409-24.841c10.562-5.996,21.935-10.468,34.119-13.418c12.179-2.951,24.742-4.426,37.685-4.426   c18.276,0,35.589,2.19,51.961,6.567c16.368,4.377,29.882,10.801,40.538,19.271c10.657,8.473,15.985,17.942,15.985,28.409   c0,8.562-2.707,15.893-8.138,21.982c-5.414,6.088-12.601,9.134-21.55,9.134c-4.948,0-9.514-1.143-13.702-3.427   c-4.186-2.283-7.99-5.042-11.423-8.278c-3.426-3.234-7.047-6.423-10.852-9.563c-3.806-3.14-8.946-5.852-15.41-8.136   c-6.479-2.284-13.802-3.427-21.986-3.427c-27.406,0-41.112,7.323-41.112,21.982c0,3.234,0.715,6.09,2.141,8.564   c1.427,2.474,3,4.473,4.71,5.996c1.709,1.525,4.565,3.046,8.564,4.57c3.999,1.525,7.33,2.622,9.994,3.284   c2.663,0.666,6.854,1.665,12.562,2.996l29.694,6.851c9.325,2.096,17.648,4.286,24.981,6.567c7.331,2.288,15.181,5.521,23.555,9.71   c8.374,4.187,15.321,8.848,20.838,13.988c5.523,5.144,10.137,11.656,13.853,19.555c3.714,7.901,5.564,16.61,5.564,26.124   C334.896,280.84,331.761,293.357,325.472,304.49z" fill="#FFFFFF"/>
</g>
<g>
</g>
<g>
</g>
<g>
</g>
<g>
</g>
<g>
</g>
<g>
</g>
<g>
</g>
<g>
</g>
<g>
</g>
<g>
</g>
<g>
</g>
<g>
</g>
<g>
</g>
<g>
</g>
<g>
</g>
</svg>
