<?xml version="1.0" encoding="iso-8859-1"?>
<!-- Generator: Adobe Illustrator 16.0.0, SVG Export Plug-In . SVG Version: 6.00 Build 0)  -->
<!DOCTYPE svg PUBLIC "-//W3C//DTD SVG 1.1//EN" "http://www.w3.org/Graphics/SVG/1.1/DTD/svg11.dtd">
<svg xmlns="http://www.w3.org/2000/svg" xmlns:xlink="http://www.w3.org/1999/xlink" version="1.1" id="Capa_1" x="0px" y="0px" width="512px" height="512px" viewBox="0 0 626.25 626.25" style="enable-background:new 0 0 626.25 626.25;" xml:space="preserve">
<g>
	<g>
		<g id="group-19svg">
			<path id="path-2_5_" d="M433.156,626.25c-33.637,0-66.376-9.051-95.161-26.257c-9.071,0.815-18.163,1.224-27.234,1.224     c-159.111,0-288.561-130.795-288.561-291.68c0-12.395,0.815-24.973,2.364-37.449c-12.354-25.645-18.856-54.164-18.856-82.785     C5.708,84.928,89.738,0,193.073,0c28.928,0,57.732,6.891,83.582,19.916c11.273-1.344,22.709-1.996,34.105-1.996     c159.172,0,288.58,130.834,288.58,291.658c0,11.945-0.734,23.973-2.201,35.838c15.33,27.969,23.402,59.486,23.402,91.49     C620.501,541.323,536.472,626.25,433.156,626.25z M345.049,569.211l4.444,2.812c25.033,15.982,53.981,24.382,83.663,24.382     c86.925,0,157.541-71.513,157.541-159.499c0-28.498-7.583-56.508-21.854-80.971l-2.568-4.404l0.692-5.096     c1.713-12.191,2.609-24.545,2.609-36.816c0-144.373-116.117-261.855-258.816-261.855c-11.641,0-23.383,0.836-34.86,2.385     l-4.79,0.57l-4.261-2.281c-22.628-12.15-48.151-18.633-73.776-18.633c-86.884,0-157.521,71.512-157.521,159.498     c0,25.502,6.096,50.883,17.694,73.469l2.182,4.221l-0.713,4.668c-1.795,12.619-2.712,25.359-2.712,37.918     c0,144.371,116.097,261.875,258.757,261.875c9.642,0,19.427-0.57,29.069-1.631L345.049,569.211z" fill="#FFFFFF"/>
			<path id="path-3_2_" d="M304.339,514.943c-49.231,0-89.718-11.416-120.276-34.003c-29.11-20.956-44.562-47.866-44.562-77.751     c0-16.676,5.932-31.312,17.164-42.443c11.987-11.824,28.521-17.777,45.848-16.594C148.612,316.08,139.5,269.111,139.5,240.613     c0-43.381,18.755-78.588,54.165-101.787c28.336-18.285,63.501-27.561,104.701-27.561c35.776,0,69.271,8.643,99.482,25.727     c37.02,20.916,55.775,47.703,55.775,79.605c0,17.574-7.299,33.066-20.468,43.627c-9.581,7.686-20.63,12.23-33.024,13.658     c57.08,28.295,66.742,78.057,66.742,108.514c0,39.955-14.719,72.369-43.91,96.302     C394.505,502.713,354.549,514.943,304.339,514.943z M198.496,373.834c-8.562,0-15.392,2.65-20.916,8.113     c-5.545,5.504-8.256,12.477-8.256,21.201c0,20.467,10.56,38,32.312,53.736c25.421,18.756,59.954,28.255,102.703,28.255     c42.993,0,76.549-9.866,99.625-29.355c22.343-18.388,33.106-42.362,33.106-73.388c0-49.191-28.377-80.707-84.315-93.611     l-62.747-14.271c-35.553-8.031-52.84-20.467-52.84-38.039c0-12.312,5.035-22.424,14.983-30.027     c9.765-7.502,23.627-11.314,41.158-11.314c20.468,0,37.408,4.525,50.312,13.373c1.346,0.916,5.627,3.832,24.096,23.83     c7.502,8.236,15.371,12.232,23.934,12.232c9.01,0,16.471-2.508,22.75-7.604c6.197-4.955,9.337-11.805,9.337-20.367     c0-20.365-13.577-38.406-40.567-53.654c-25.728-14.475-54.247-21.834-84.846-21.834c-35.329,0-65.092,7.645-88.475,22.752     c-27.296,17.877-40.567,43.014-40.567,76.752c0,45.541,26.542,75.467,78.853,89.004l84.601,21.67     c22.384,5.871,33.677,18.184,33.677,36.654c0,12.271-5.504,22.912-16.431,31.68c-11.538,9.58-26.604,14.27-45.889,14.27     c-21.976,0-40.037-5.586-53.777-16.555c-1.427-1.141-5.219-4.158-24.973-28.621C217.292,378.686,208.525,373.834,198.496,373.834     z M235.618,357.076c4.587,3.588,8.93,7.869,12.986,12.885c16.328,20.141,20.324,23.973,20.752,24.381     c8.053,6.441,19.489,9.703,34.778,9.703c12.109,0,20.957-2.486,27.134-7.584c5.382-4.32,5.382-6.848,5.382-8.52     c0-2.162,0-4.812-11.355-7.789l-84.499-21.648C239.043,358.055,237.29,357.566,235.618,357.076z M267.135,234.395     c2.793,2.283,11.232,6.932,29.478,11.01l54.512,12.436c-1.794-1.672-3.588-3.426-5.301-5.301     c-15.064-16.309-19.101-19.449-19.284-19.57c-7.584-5.26-18.857-7.971-33.229-7.971c-10.519,0-18.693,1.834-23.035,5.178     C268.215,231.705,267.42,232.846,267.135,234.395z" fill="#FFFFFF"/>
		</g>
	</g>
</g>
<g>
</g>
<g>
</g>
<g>
</g>
<g>
</g>
<g>
</g>
<g>
</g>
<g>
</g>
<g>
</g>
<g>
</g>
<g>
</g>
<g>
</g>
<g>
</g>
<g>
</g>
<g>
</g>
<g>
</g>
</svg>
