<?xml version="1.0" encoding="iso-8859-1"?>
<!-- Generator: Adobe Illustrator 19.0.0, SVG Export Plug-In . SVG Version: 6.00 Build 0)  -->
<svg xmlns="http://www.w3.org/2000/svg" xmlns:xlink="http://www.w3.org/1999/xlink" version="1.1" id="Layer_1" x="0px" y="0px" viewBox="0 0 504 504" style="enable-background:new 0 0 504 504;" xml:space="preserve" width="512px" height="512px">
<g>
	<g>
		<path d="M334,265.6c-3.2-7.6-8.8-13.2-16-18c-7.2-4.4-15.6-8.4-25.6-11.6s-21.2-6-33.2-8.4c-9.6-2-16.8-4-20.8-5.2    c-4-1.2-8-2.8-12-4.8c-3.6-2-6.8-4-8.8-6.8c-2-2.4-3.2-5.2-3.2-8.4c0-5.6,3.2-10,9.2-14c6.4-4,15.2-6.4,26-6.4    c11.6,0,20,2,25.2,5.6c5.2,4,9.6,9.6,13.6,16.4c3.2,5.6,6,9.2,8.8,11.6c3.2,2.8,7.2,4,12.8,4c6,0,11.2-2,15.6-6.4    c4-4,6-8.8,6-14.4c0-5.6-1.6-11.2-4.8-16.8c-3.2-5.6-8-11.2-14.4-16c-6.4-5.2-14.8-9.2-24.8-12c-10-3.2-21.6-4.4-35.2-4.4    c-16.8,0-31.6,2.4-44,6.8c-12.8,4.4-22.4,11.2-29.2,20s-10,18.8-10,30c0,11.6,3.2,21.6,9.6,29.6c6.4,8,15.2,14,25.6,18.8    c10.4,4.4,23.6,8.4,39.2,11.6c11.6,2.4,20.8,4.8,27.6,6.8c6.4,2,12,4.8,16,8.8c4,3.6,5.6,8,5.6,14c0,7.2-3.6,13.6-11.2,18.4    c-7.6,5.2-18,7.6-30.4,7.6c-8.8,0-16.4-1.2-21.6-4c-5.2-2.4-9.6-5.6-12.4-9.6c-3.2-4-6-9.2-8.8-15.2c-2.4-5.6-5.2-9.6-8.8-12.8    c-3.6-2.8-8-4.4-13.2-4.4c-6.4,0-11.6,2-15.6,5.6c-4,4-6.4,8.4-6.4,14c0,8.8,3.2,17.6,9.6,26.8c6.4,8.8,14.8,16.4,24.8,21.6    c14,7.2,32,11.2,53.6,11.2c18,0,33.6-2.8,46.8-8c13.2-5.6,23.6-13.2,30.4-22.8s10.4-20.8,10.4-32.8C340,281.6,338,272.8,334,265.6    z" fill="#FFFFFF"/>
	</g>
</g>
<g>
	<g>
		<path d="M377.6,0H126C56.8,0,0,56.8,0,126.4V378c0,69.2,56.8,126,126,126h251.6c69.6,0,126.4-56.8,126.4-126.4V126.4    C504,56.8,447.2,0,377.6,0z M322.4,409.2c-14.8,0-28.8-3.6-41.2-10c-8.8,1.6-18,2.4-27.6,2.4c-82.8,0-150-66.4-150-148    c0-10,1.2-20,3.2-29.6c-7.6-12.8-12-27.6-12-43.2c0-47.2,38.8-85.6,86.8-85.6c16.8,0,32.8,4.8,46.4,13.2c8.4-1.2,16.8-2,25.6-2    c82.8,0,150,66.4,150,148c0,10.8-1.2,21.6-3.6,31.6c5.6,11.6,9.2,24.4,9.2,38C409.2,370.8,370.4,409.2,322.4,409.2z" fill="#FFFFFF"/>
	</g>
</g>
<g>
</g>
<g>
</g>
<g>
</g>
<g>
</g>
<g>
</g>
<g>
</g>
<g>
</g>
<g>
</g>
<g>
</g>
<g>
</g>
<g>
</g>
<g>
</g>
<g>
</g>
<g>
</g>
<g>
</g>
</svg>
