<?xml version="1.0" encoding="iso-8859-1"?>
<!-- Generator: Adobe Illustrator 19.0.0, SVG Export Plug-In . SVG Version: 6.00 Build 0)  -->
<svg version="1.1" id="Layer_1" xmlns="http://www.w3.org/2000/svg" xmlns:xlink="http://www.w3.org/1999/xlink" x="0px" y="0px"
	 viewBox="0 0 512.001 512.001" style="enable-background:new 0 0 512.001 512.001;" xml:space="preserve">
<pattern  x="-50" y="652" width="38.163" height="38.163" patternUnits="userSpaceOnUse" id="New_Pattern_Swatch_101" viewBox="0 -38.163 38.163 38.163" style="overflow:visible;">
	<g>
		<polygon style="fill:none;" points="0,0 38.163,0 38.163,-38.163 0,-38.163 		"/>
		<polygon style="fill:none;" points="0,-38.163 38.163,-38.163 38.163,0 0,0 		"/>
		<polygon style="fill:#E8F1F8;" points="38.163,-38.163 0,-38.163 0,0 38.163,0 		"/>
	</g>
</pattern>
<rect x="32.907" y="155.815" style="fill:#FCFCFC;" width="446.375" height="298.863"/>
<path style="fill:#5AAAE7;" d="M495.639,24.605H16.361C7.325,24.605,0,31.93,0,40.966v430.07c0,9.036,7.325,16.361,16.361,16.361
	h479.28c9.036,0,16.361-7.325,16.361-16.361V40.966C512,31.93,504.675,24.605,495.639,24.605z M479.28,454.675H32.72v-298.86h446.56
	V454.675z"/>
<path style="fill:#D8D7DA;" d="M479.28,155.815H256v22.276h21.267c7.086,0,12.83,5.744,12.83,12.83v14.696
	c4.961,1.634,9.758,3.626,14.359,5.953l10.395-10.395c5.01-5.01,13.134-5.01,18.144,0l28.129,28.13c5.01,5.01,5.01,13.134,0,18.144
	l-10.394,10.394c2.325,4.601,4.319,9.399,5.953,14.359h14.696c7.086,0,12.83,5.744,12.83,12.83v39.781
	c0,7.086-5.744,12.83-12.83,12.83h-14.696c-1.634,4.961-3.626,9.758-5.953,14.359l10.394,10.394c5.01,5.01,5.01,13.134,0,18.144
	l-28.129,28.13c-5.01,5.01-13.134,5.011-18.144,0l-10.395-10.395c-4.601,2.325-9.399,4.319-14.359,5.953v14.696
	c0,7.086-5.744,12.83-12.83,12.83H256v22.924h223.28V155.815z"/>
<g>
	<circle style="fill:#00E7F0;" cx="369.197" cy="96.679" r="18.541"/>
	<circle style="fill:#00E7F0;" cx="433.542" cy="96.679" r="18.541"/>
</g>
<g>
	<path style="fill:#FCFCFC;" d="M193.016,308.874c0,34.785,28.199,62.984,62.984,62.984V245.89
		C221.215,245.89,193.016,274.089,193.016,308.874z"/>
	<path style="fill:#FCFCFC;" d="M237.486,431.751c-7.086,0-12.83-5.744-12.83-12.83v-14.696c-4.961-1.634-9.758-3.627-14.359-5.953
		l-10.395,10.395c-5.01,5.01-13.134,5.01-18.144,0l-28.13-28.13c-5.01-5.01-5.01-13.134,0-18.144l10.395-10.395
		c-2.325-4.601-4.319-9.399-5.951-14.359h-14.696c-7.086,0-12.83-5.744-12.83-12.83v-39.781c0-7.086,5.744-12.83,12.83-12.83h14.696
		c1.634-4.961,3.626-9.758,5.951-14.359l-10.395-10.395c-5.01-5.01-5.01-13.134,0-18.144l28.13-28.13
		c5.01-5.01,13.134-5.01,18.144,0l10.395,10.395c4.601-2.325,9.399-4.319,14.359-5.951V190.92c0-7.086,5.744-12.83,12.83-12.83H256
		v-22.275H32.72v298.86H256v-22.924H237.486z"/>
</g>
<path style="fill:#78B9EB;" d="M16.361,24.605C7.325,24.605,0,31.93,0,40.966v430.07c0,9.036,7.325,16.361,16.361,16.361H256
	v-16.359v-16.361H32.72V155.815H256l0,0V24.605H16.361z"/>
<pattern  id="SVGID_1_" xlink:href="#New_Pattern_Swatch_101" patternTransform="matrix(1.1131 0 0 -1.1131 1490.683 -21377.7949)">
</pattern>
<path style="fill:url(#SVGID_1_);" d="M224.657,190.92v14.696c-4.961,1.634-9.758,3.626-14.359,5.951l-10.395-10.395
	c-5.01-5.01-13.134-5.01-18.144,0l-28.13,28.13c-5.01,5.01-5.01,13.134,0,18.144l10.395,10.395
	c-2.325,4.601-4.319,9.399-5.951,14.359h-14.696c-7.086,0-12.83,5.744-12.83,12.83v39.781c0,7.086,5.744,12.83,12.83,12.83h14.696
	c1.634,4.961,3.626,9.758,5.951,14.359l-10.395,10.395c-5.01,5.01-5.01,13.134,0,18.144l28.13,28.13c5.01,5.01,13.134,5.01,18.144,0
	l10.395-10.395c4.601,2.325,9.399,4.319,14.359,5.953v14.696c0,7.086,5.744,12.83,12.83,12.83H256v-59.894
	c-34.785,0-62.984-28.199-62.984-62.984s28.199-62.984,62.984-62.984v-67.8h-18.514C230.4,178.091,224.657,183.835,224.657,190.92z"
	/>
<path style="fill:#898890;" d="M224.657,190.92v14.696c-4.961,1.634-9.758,3.626-14.359,5.951l-10.395-10.395
	c-5.01-5.01-13.134-5.01-18.144,0l-28.13,28.13c-5.01,5.01-5.01,13.134,0,18.144l10.395,10.395
	c-2.325,4.601-4.319,9.399-5.951,14.359h-14.696c-7.086,0-12.83,5.744-12.83,12.83v39.781c0,7.086,5.744,12.83,12.83,12.83h14.696
	c1.634,4.961,3.626,9.758,5.951,14.359l-10.395,10.395c-5.01,5.01-5.01,13.134,0,18.144l28.13,28.13c5.01,5.01,13.134,5.01,18.144,0
	l10.395-10.395c4.601,2.325,9.399,4.319,14.359,5.953v14.696c0,7.086,5.744,12.83,12.83,12.83H256v-59.894
	c-34.785,0-62.984-28.199-62.984-62.984s28.199-62.984,62.984-62.984v-67.8h-18.514C230.4,178.091,224.657,183.835,224.657,190.92z"
	/>
<path style="fill:#D8D7DA;" d="M318.984,308.874c0-34.785-28.199-62.984-62.984-62.984v125.966
	C290.785,371.858,318.984,343.659,318.984,308.874z"/>
<pattern  id="SVGID_2_" xlink:href="#New_Pattern_Swatch_101" patternTransform="matrix(1.1131 0 0 -1.1131 1490.683 -21377.7949)">
</pattern>
<path style="fill:url(#SVGID_2_);" d="M318.984,308.874c0,34.785-28.199,62.984-62.984,62.984v59.894h21.267
	c7.086,0,12.83-5.744,12.83-12.83v-14.695c4.961-1.634,9.758-3.627,14.359-5.953l10.395,10.395c5.01,5.01,13.134,5.01,18.144,0
	l28.129-28.13c5.01-5.01,5.01-13.134,0-18.144l-10.394-10.394c2.325-4.601,4.319-9.399,5.953-14.359h14.696
	c7.086,0,12.83-5.744,12.83-12.83V285.03c0-7.086-5.744-12.83-12.83-12.83h-14.696c-1.634-4.961-3.626-9.758-5.953-14.359
	l10.394-10.394c5.01-5.01,5.01-13.133,0-18.144l-28.129-28.13c-5.01-5.01-13.134-5.011-18.144,0l-10.395,10.395
	c-4.601-2.325-9.399-4.319-14.359-5.953V190.92c0-7.086-5.744-12.83-12.83-12.83H256v67.8
	C290.785,245.89,318.984,274.089,318.984,308.874z"/>
<path style="fill:#57565C;" d="M318.984,308.874c0,34.785-28.199,62.984-62.984,62.984v59.894h21.267
	c7.086,0,12.83-5.744,12.83-12.83v-14.695c4.961-1.634,9.758-3.627,14.359-5.953l10.395,10.395c5.01,5.01,13.134,5.01,18.144,0
	l28.129-28.13c5.01-5.01,5.01-13.134,0-18.144l-10.394-10.394c2.325-4.601,4.319-9.399,5.953-14.359h14.696
	c7.086,0,12.83-5.744,12.83-12.83V285.03c0-7.086-5.744-12.83-12.83-12.83h-14.696c-1.634-4.961-3.626-9.758-5.953-14.359
	l10.394-10.394c5.01-5.01,5.01-13.133,0-18.144l-28.129-28.13c-5.01-5.01-13.134-5.011-18.144,0l-10.395,10.395
	c-4.601-2.325-9.399-4.319-14.359-5.953V190.92c0-7.086-5.744-12.83-12.83-12.83H256v67.8
	C290.785,245.89,318.984,274.089,318.984,308.874z"/>
<rect x="32.907" y="155.815" style="fill:#D8D7DA;" width="223.855" height="13.351"/>
<g>
</g>
<g>
</g>
<g>
</g>
<g>
</g>
<g>
</g>
<g>
</g>
<g>
</g>
<g>
</g>
<g>
</g>
<g>
</g>
<g>
</g>
<g>
</g>
<g>
</g>
<g>
</g>
<g>
</g>
</svg>
