<?xml version="1.0" encoding="iso-8859-1"?>
<!-- Generator: Adobe Illustrator 19.0.0, SVG Export Plug-In . SVG Version: 6.00 Build 0)  -->
<svg version="1.1" id="Layer_1" xmlns="http://www.w3.org/2000/svg" xmlns:xlink="http://www.w3.org/1999/xlink" x="0px" y="0px"
	 viewBox="0 0 512 512" style="enable-background:new 0 0 512 512;" xml:space="preserve">
<path style="fill:#FBCB99;" d="M152.565,293.037v-38.473c0-9.292-7.558-16.85-16.849-16.85h-0.858c-4.89,0-9.298,2.092-12.38,5.428
	c-2.352-6.474-8.565-11.112-15.843-11.112h-0.858c-4.622,0-8.912,1.848-12.024,5.023c-2.539-6.094-8.557-10.387-15.561-10.387
	h-0.858c-4.215,0-8.186,1.566-11.221,4.283c-1.918-7.196-8.493-12.515-16.285-12.515h-0.858c-9.291,0-16.849,7.56-16.849,16.851
	v27.864l-3.787-0.592c-8.51-1.331-14.99-0.105-19.45,3.634c-8.723,7.298-8.54,21.618-7.265,42.629
	c1.537,25.368,26.936,46.8,32.652,51.315v27.694h100.753v-35.744C151.85,336.806,153.886,306.983,152.565,293.037z"/>
<g>
	<path style="fill:#E9B585;" d="M43.109,387.83v-31.114c-9.899-8.063-30.337-26.587-31.628-47.894
		c-1.274-21.013-2.553-35.331,6.17-42.629c2.003-1.679,8.82-2.823,11.639-3.485l-0.956-0.15c-8.51-1.331-14.99-0.105-19.45,3.634
		c-8.723,7.298-8.54,21.618-7.265,42.629c1.537,25.368,26.936,46.8,32.652,51.315v27.694H43.109z"/>
	<path style="fill:#E9B585;" d="M49.167,218.443l-0.828,0.031c-4.445,0.16-8.708,2.099-11.743,5.353
		c-3.034,3.257-4.634,7.489-4.512,12.015l0.049,39.214l0,0l0.013,2.422l0.233,5.686c0,0-0.702,5.023,4.136,5.398
		c4.837,0.375,4.628-4.871,4.628-4.871l-0.268-10.493l0,0l-0.047-38.624c-0.122-4.526,1.479-8.758,4.512-12.014
		c1.651-1.771,3.673-3.135,5.882-4.052C50.543,218.452,49.86,218.419,49.167,218.443z"/>
	<path style="fill:#E9B585;" d="M69.754,289.898c4.838,0.375,4.629-4.871,4.629-4.871l-0.27-10.493l-0.047-38.624
		c-0.089-3.3,0.748-6.437,2.378-9.159c-3.786,0.252-7.41,1.814-10.162,4.296c-0.678,1.933-1.018,3.995-0.96,6.132l0.049,39.214
		l0.014,2.422l0.233,5.686C65.619,284.5,64.916,289.523,69.754,289.898z"/>
	<path style="fill:#E9B585;" d="M104.648,232.061c-4.129,0.287-8.045,2.139-10.881,5.045c-0.872,2.143-1.312,4.47-1.247,6.886
		l0.815,37.867l0.013,2.422l0.235,5.686c0,0-0.704,5.023,4.135,5.398c4.838,0.375,4.628-4.871,4.628-4.871l-0.268-10.493
		l-0.813-37.277C101.158,238.799,102.352,235.098,104.648,232.061z"/>
	<path style="fill:#E9B585;" d="M131.366,291.675l-0.268-10.493l-0.047-38.624c-0.041-1.534,0.13-3.029,0.474-4.47
		c-0.371,0.076-0.746,0.136-1.111,0.237c-3.226,0.887-5.998,2.664-8.097,5.011c0,0.163-0.014,0.325-0.01,0.489l0.049,39.214
		l0.013,2.423l0.235,5.686c0,0-0.702,5.023,4.135,5.398C131.576,296.919,131.366,291.675,131.366,291.675z"/>
</g>
<path style="fill:#FBCB99;" d="M174.277,3.53L119.489,0c-3.088,0.046-6.712,1.009-1.314,6.281c0.002,0.002,0.004,0.004,0.007,0.007
	l37.7,36.824l2.55,1.077l18.75-39.472L174.277,3.53z"/>
<path style="fill:#E9B585;" d="M115.566,1.323c-0.482,0.924,0.045,2.455,2.609,4.959c0.002,0.002,0.004,0.004,0.007,0.007
	l37.7,36.824l2.55,1.077l9.744-20.512L115.566,1.323z"/>
<g>
	<polygon style="fill:#F37521;" points="155.155,42.805 233.584,75.929 245.076,33.229 173.909,3.319 	"/>
	<path style="fill:#F37521;" d="M347.346,76.214l-9.082,32.839l-0.098,0.637c-0.042,0.27-0.103,0.641-0.184,1.098l-1.509,8.596
		l30.096,12.713l18.59-39.989L347.346,76.214z"/>
</g>
<g>
	<polygon style="fill:#F7971D;" points="347.346,76.214 341.508,97.326 375.761,111.695 384.253,93.953 385.16,92.105 	"/>
	<polygon style="fill:#F7971D;" points="164.9,22.285 239.492,53.979 245.076,33.229 173.909,3.319 	"/>
</g>
<path style="fill:#FBCB99;" d="M510.695,248.173V209.7c0-9.292-7.558-16.85-16.849-16.85h-0.858c-4.89,0-9.298,2.092-12.38,5.428
	c-2.352-6.474-8.565-11.112-15.843-11.112h-0.858c-4.622,0-8.912,1.848-12.024,5.023c-2.539-6.094-8.559-10.387-15.561-10.387
	h-0.858c-4.215,0-8.186,1.566-11.221,4.283c-1.918-7.196-8.493-12.515-16.285-12.515h-0.858c-9.291,0-16.849,7.559-16.849,16.851
	v27.864l-3.787-0.592c-8.51-1.331-14.99-0.105-19.45,3.634c-8.723,7.298-8.54,21.618-7.265,42.629
	c1.537,25.368,26.936,46.8,32.652,51.315v27.694h100.753v-35.744C509.98,291.941,512.015,262.119,510.695,248.173z"/>
<path style="fill:#E9B585;" d="M401.239,342.967v-31.115c-9.899-8.062-30.337-26.587-31.628-47.894
	c-1.274-21.013-2.553-35.331,6.17-42.629c2.003-1.679,8.82-2.823,11.639-3.485l-0.956-0.15c-8.51-1.331-14.99-0.105-19.45,3.634
	c-8.723,7.298-8.54,21.618-7.265,42.629c1.537,25.368,26.936,46.8,32.652,51.315v27.694h8.839V342.967z"/>
<path style="fill:#FBCB99;" d="M343.313,51.343l-0.834-0.198c-1.279-0.305-2.592-0.459-3.902-0.459
	c-3.457,0-6.701,1.037-9.402,2.851c-0.803-6.829-5.775-12.762-12.851-14.444l-0.81-0.192c-4.401-1.056-9.122-0.228-12.87,2.131
	c-0.344-2.166-1.116-4.261-2.297-6.176c-2.362-3.83-6.073-6.511-10.45-7.553l-0.827-0.196c-4.037-0.967-8.357-0.359-11.912,1.566
	c-0.075-2.935-0.924-5.811-2.506-8.379c-2.36-3.83-6.071-6.511-10.472-7.559l-0.807-0.19c-4.327-1.025-8.952-0.286-12.741,2.048
	c-3.788,2.335-6.454,5.992-7.536,10.387l-13.17,48.929L201.71,61.997l-3.637,11.452c-2.204,6.933-3.661,15.296-4.948,22.672
	c-4.436,25.445,16.148,52.749,20.153,57.767l0.037,49.364h99.846l0.122-34.414c23.713-13.319,29.626-48.264,30.345-53.155
	L355.737,71.9l0.148-0.601C357.813,62.402,352.174,53.447,343.313,51.343z"/>
<path style="fill:#E9B585;" d="M205.312,96.124c1.287-7.376,2.744-15.738,4.948-22.672l2.196-6.914l-10.746-4.538l-3.637,11.452
	c-2.204,6.933-3.661,15.296-4.948,22.672c-4.436,25.445,16.148,52.749,20.153,57.767l0.037,49.364h12.187l-0.037-49.364
	C221.462,148.872,200.876,121.569,205.312,96.124z"/>
<path style="fill:#EF4C35;" d="M410.209,107.792c-1.625-4.002-4.712-7.132-8.708-8.819l-18.806-7.905l-18.345,40.089l19.997,8.446
	c2.01,0.85,4.131,1.283,6.304,1.283c2.096,0,4.148-0.403,6.081-1.19c4.005-1.624,7.138-4.713,8.818-8.694l4.572-10.826
	C411.806,116.195,411.836,111.798,410.209,107.792z"/>
<g>
	<path style="fill:#3B7EAD;" d="M198.302,503.471c0,7.2,5.29,8.391,8.001,8.529h1.2c0.23-0.013,0.364-0.028,0.364-0.028l0.009,0.028
		h107.525l0.009-0.028c0,0,0.134,0.016,0.364,0.028h1.2c2.481-0.126,7.12-1.135,7.89-6.823V240.902H198.247v261.615
		C198.28,502.809,198.302,503.12,198.302,503.471z"/>
	<path style="fill:#3B7EAD;" d="M387.843,512h1.2c0.23-0.013,0.364-0.028,0.364-0.028l0.008,0.028h107.527l0.008-0.028
		c0,0,0.134,0.016,0.364,0.028h1.2c2.596-0.133,7.559-1.231,7.972-7.648V379.766H379.87v124.586
		C380.284,510.769,385.247,511.867,387.843,512z"/>
</g>
<g>
	<path style="fill:#6598CB;" d="M315.408,511.97c0,0,0.134,0.016,0.364,0.028h1.2c2.481-0.126,7.12-1.135,7.89-6.823V240.902H225.63
		V512h89.769L315.408,511.97z"/>
	<path style="fill:#6598CB;" d="M496.949,511.97c0,0,0.134,0.016,0.364,0.028h1.2c2.596-0.133,7.559-1.231,7.972-7.648V379.765
		H405.061V512h91.88L496.949,511.97z"/>
</g>
<path style="fill:#3B7EAD;" d="M148.355,503.733v-78.641H21.738v78.47c0,6.407,4.188,8.056,7.021,8.438h112.579
	C144.146,511.62,148.278,509.994,148.355,503.733z"/>
<path style="fill:#6598CB;" d="M148.355,503.733v-78.641H49.121V512h92.217C144.146,511.62,148.278,509.994,148.355,503.733z"/>
<path style="fill:#E1E5EC;" d="M324.837,207.124c0-6.75-4.352-8.231-7.043-8.5H205.29c-2.691,0.27-7.043,1.75-7.043,8.5v39.257
	h126.615v-38.175C324.847,207.88,324.837,207.529,324.837,207.124z"/>
<path style="fill:#EFF2F9;" d="M324.837,207.124c0-6.75-4.352-8.231-7.043-8.5h-92.162v47.758h99.232v-38.175
	C324.847,207.88,324.837,207.529,324.837,207.124z"/>
<g>
	<path style="fill:#E9B585;" d="M264.18,12.737l-0.807-0.19c-4.327-1.025-8.952-0.286-12.741,2.048
		c-3.788,2.335-6.454,5.992-7.536,10.387l-10.348,37.824l0,0l-0.629,2.34l-1.282,5.545c0,0-2.009,4.657,2.557,6.301
		c4.565,1.644,5.753-3.469,5.753-3.469l2.523-10.189l0,0l10.195-37.254c1.082-4.397,3.748-8.053,7.536-10.387
		c2.061-1.27,4.372-2.049,6.746-2.348C265.505,13.11,264.854,12.897,264.18,12.737z"/>
	<path style="fill:#E9B585;" d="M265.353,86.124c4.565,1.644,5.753-3.469,5.753-3.469l2.523-10.189l10.195-37.254
		c0.789-3.205,2.427-6.008,4.721-8.201c-3.717-0.761-7.625-0.215-10.935,1.448c-1.166,1.683-2.04,3.584-2.551,5.658L264.71,71.94
		l-0.629,2.34l-1.282,5.545C262.797,79.823,260.788,84.481,265.353,86.124z"/>
	<path style="fill:#E9B585;" d="M314.935,38.793c-4.057-0.817-8.324-0.069-11.827,1.98c-1.409,1.837-2.45,3.963-3.029,6.31
		l-9.252,36.728l-0.629,2.34l-1.282,5.545c0,0-2.009,4.657,2.557,6.301s5.753-3.469,5.753-3.469l2.523-10.189l9.099-36.158
		C309.783,44.366,311.916,41.115,314.935,38.793z"/>
	<path style="fill:#E9B585;" d="M325.351,102.38l2.523-10.189l10.195-37.254c0.367-1.49,0.929-2.886,1.642-4.184
		c-0.378-0.025-0.755-0.067-1.133-0.067c-3.347,0-6.488,0.979-9.136,2.685c-0.043,0.159-0.1,0.31-0.139,0.47l-10.348,37.824
		l-0.629,2.34l-1.282,5.545c0,0-2.009,4.657,2.557,6.301C324.163,107.493,325.351,102.38,325.351,102.38z"/>
	<path style="fill:#E9B585;" d="M407.298,173.578l-0.828,0.031c-4.445,0.16-8.708,2.099-11.743,5.353
		c-3.033,3.257-4.634,7.489-4.512,12.015l0.049,39.214l0,0l0.013,2.422l0.233,5.686c0,0-0.702,5.023,4.136,5.398
		c4.837,0.375,4.628-4.871,4.628-4.871l-0.268-10.493l0,0l-0.047-38.624c-0.122-4.526,1.479-8.758,4.512-12.014
		c1.651-1.771,3.674-3.135,5.883-4.052C408.674,173.587,407.99,173.555,407.298,173.578z"/>
	<path style="fill:#E9B585;" d="M427.884,245.034c4.838,0.375,4.629-4.871,4.629-4.871l-0.27-10.493l-0.047-38.624
		c-0.089-3.3,0.748-6.437,2.378-9.159c-3.786,0.252-7.41,1.814-10.161,4.296c-0.678,1.933-1.018,3.995-0.96,6.132l0.049,39.214
		l0.014,2.422l0.233,5.686C423.749,239.636,423.047,244.66,427.884,245.034z"/>
	<path style="fill:#E9B585;" d="M462.779,187.196c-4.128,0.287-8.045,2.139-10.881,5.045c-0.872,2.143-1.312,4.47-1.247,6.886
		l0.815,37.867l0.013,2.422l0.234,5.686c0,0-0.704,5.023,4.135,5.398c4.838,0.375,4.628-4.871,4.628-4.871l-0.268-10.493
		l-0.813-37.277C459.289,193.935,460.482,190.235,462.779,187.196z"/>
	<path style="fill:#E9B585;" d="M489.496,246.811l-0.268-10.493l-0.047-38.624c-0.041-1.534,0.13-3.029,0.475-4.47
		c-0.371,0.076-0.746,0.136-1.111,0.237c-3.226,0.888-5.998,2.664-8.097,5.011c0,0.163-0.014,0.325-0.01,0.489l0.049,39.214
		l0.013,2.423l0.234,5.685c0,0-0.702,5.023,4.135,5.398C489.707,252.056,489.496,246.811,489.496,246.811z"/>
</g>
<path style="fill:#E1E5EC;" d="M506.459,345.987c0-6.75-4.352-8.231-7.043-8.5H386.913c-2.691,0.27-7.043,1.75-7.043,8.5v39.257
	h126.615v-38.175C506.47,346.743,506.459,346.392,506.459,345.987z"/>
<path style="fill:#EFF2F9;" d="M506.459,345.987c0-6.75-4.352-8.231-7.043-8.5h-94.355v47.758h101.423v-38.175
	C506.47,346.743,506.459,346.392,506.459,345.987z"/>
<path style="fill:#E1E5EC;" d="M148.326,391.042c0-6.75-4.352-8.231-7.043-8.5H28.781c-2.691,0.27-7.043,1.75-7.043,8.5V430.3
	h126.615v-38.175C148.337,391.798,148.326,391.448,148.326,391.042z"/>
<path style="fill:#EFF2F9;" d="M148.326,391.042c0-6.75-4.352-8.231-7.043-8.5H49.121V430.3h99.232v-38.175
	C148.337,391.798,148.326,391.448,148.326,391.042z"/>
<g>
</g>
<g>
</g>
<g>
</g>
<g>
</g>
<g>
</g>
<g>
</g>
<g>
</g>
<g>
</g>
<g>
</g>
<g>
</g>
<g>
</g>
<g>
</g>
<g>
</g>
<g>
</g>
<g>
</g>
</svg>
