<?xml version="1.0" encoding="utf-8"?>
<!-- Generator: Adobe Illustrator 18.1.1, SVG Export Plug-In . SVG Version: 6.00 Build 0)  -->
<!DOCTYPE svg PUBLIC "-//W3C//DTD SVG 1.1//EN" "http://www.w3.org/Graphics/SVG/1.1/DTD/svg11.dtd">
<svg version="1.1" id="Layer_1" xmlns="http://www.w3.org/2000/svg" xmlns:xlink="http://www.w3.org/1999/xlink" x="0px" y="0px"
	 width="744px" height="538px" viewBox="108 6 744 538" enable-background="new 108 6 744 538" xml:space="preserve">
<g id="Layer_1_1_" display="none">
	<g display="inline">
		<path fill="none" stroke="#5F6060" stroke-width="5" stroke-linecap="round" stroke-linejoin="round" stroke-miterlimit="10" d="
			M800.6,494.8c0,8.7-6.5,15.2-16.7,15.2H179.7c-9.4,0-16.7-6.5-16.7-15.2v-439c0-8.7,6.5-15.2,16.7-15.2h604.9
			c9.4,0,16.7,6.5,16.7,15.2v439H800.6z"/>
		
			<polygon fill="none" stroke="#5F6060" stroke-width="5" stroke-linecap="round" stroke-linejoin="round" stroke-miterlimit="10" points="
			428.9,190.5 559.3,277.5 428.9,364.4 		"/>
	</g>
</g>
<g id="Layer_2" display="none">
	<g display="inline">
		<path fill="#A8A9A9" d="M820.9,23.9H142.8c-11.6,0-19.6,6.5-19.6,16.7v381.8c0,9.4,8,16.7,19.6,16.7h110.1l5.1-6.5H142.8
			c-8,0-13-3.6-13-10.1V40.6c0-5.8,5.1-10.1,13-10.1h678.1c8,0,13,3.6,13,10.1v381.8c0,5.8-5.1,10.1-13,10.1H705.7l5.1,6.5h110.1
			c11.6,0,19.6-6.5,19.6-16.7V40.6C840.4,30.4,832.4,23.9,820.9,23.9z"/>
		<path fill="#A8A9A9" d="M774.5,386.9H670.9l5.1,6.5h98.5c11.6,0,19.6-6.5,19.6-16.7V87.7c0-9.4-8-16.7-19.6-16.7H189.1
			c-11.6,0-19.6,6.5-19.6,16.7v289.1c0,9.4,8,16.7,19.6,16.7h98.5l5.1-6.5H189.1c-8,0-13-3.6-13-10.1V87.7c0-5.8,5.1-10.1,13-10.1
			h585.4c8,0,13,3.6,13,10.1v289.1C787.5,383.2,782.5,386.9,774.5,386.9z"/>
		<polygon fill="#FFFFFF" points="481.8,216.6 255.1,520.2 708.6,520.2 		"/>
		<path fill="#A8A9A9" d="M484.7,208.6c-1.4-1.4-4.3-1.4-5.1,0l-234,313c-0.7,0.7-0.7,2.2,0,3.6c0.7,1.4,1.4,2.2,2.9,2.2h466.5l0,0
			c2.2,0,3.6-1.4,3.6-3.6c0-0.7-0.7-2.2-1.4-2.9L484.7,208.6z M255.1,520.2l226.8-303.5l226.8,303.5H255.1z"/>
	</g>
</g>
<g id="Layer_3">
	<g>
		<g>
			<path fill="#A8A9A9" d="M488.2,506.8c-29.4,0-57.7-5.3-84-15.7c-0.8-0.3-1.5-1-1.9-1.9c-0.2-0.5-0.5-1.4-0.2-2.3
				c0.5-1.3,1.9-2.3,3.3-2.3c0.3,0,0.6,0.1,0.9,0.2c25.8,9.9,52.9,14.9,80.6,14.9c0,0,0,0,0,0c59.8,0,118.1-24,159.9-65.8
				c42.3-43.1,65.6-99.7,65.6-159.3c0-60.4-23.3-117-65.6-159.3l-15.5-15.5V179c0,1.3-1,3.2-3.2,3.2c-1.3,0-3.2-1-3.2-3.2V90.6
				c0-1.3,1-3.2,3.2-3.2h88.4c1.3,0,3.2,1,3.2,3.2c0,1.3-1,3.2-3.2,3.2h-80.9l16.5,17.7c43.6,43.6,67.7,101.8,67.7,163.8
				s-24,120.2-67.7,163.8c-21.8,21.8-47.3,38.7-75.8,50.4C548.2,501,518.6,506.8,488.2,506.8z"/>
		</g>
		<g>
			<path fill="#A8A9A9" d="M260.7,461.9c-1.4,0-3.2-1.8-3.2-3.2c0-1.3,1-3.2,3.2-3.2h79.2l-17-17c-43.6-43.6-67.7-101.8-67.7-163.8
				s24-120.2,67.7-163.8c22-21.7,47.6-38.6,76.2-50.3c28.3-11.5,58-17.4,88.5-17.4c27.4,0,54.4,4.8,80.2,14.2
				c1.6,0.7,2.7,2.7,2.1,4.2c-0.5,1.3-1.9,2.3-3.3,2.3c-0.3,0-0.6-0.1-0.9-0.2c-25.3-9.5-51.7-14.3-78.6-14.3
				c-29.4,0-58.2,5.7-85.5,16.9c-27.7,11.4-52.4,27.8-73.5,49c-42.3,43.1-65.6,99.7-65.6,159.3c0,60.4,23.3,117,65.6,159.3l17,17
				v-80.7c0-1.3,1-3.2,3.2-3.2c2.1,0,3.2,1.1,3.2,3.2v88.4c0,0.9-0.2,1.4-1,2.2c-0.9,0.9-1.3,1-2.2,1H260.7z"/>
		</g>
	</g>
</g>
<g display="none">
	
		<path display="inline" fill="none" stroke="#5F6060" stroke-width="5" stroke-linecap="round" stroke-linejoin="round" stroke-miterlimit="10" d="
		M771.3,390.5c0,8.4-6.8,15.2-15.2,15.2H208.3c-8.4,0-15.2-6.8-15.2-15.2V55.8c0-8.4,6.8-15.2,15.2-15.2h547.8
		c8.4,0,15.2,6.8,15.2,15.2V390.5z"/>
	
		<rect x="238.7" y="86.2" display="inline" fill="none" stroke="#5F6060" stroke-width="5" stroke-linecap="round" stroke-linejoin="round" stroke-miterlimit="10" width="486.9" height="273.9"/>
	
		<path display="inline" fill="none" stroke="#5F6060" stroke-width="5" stroke-linecap="round" stroke-linejoin="round" stroke-miterlimit="10" d="
		M375.7,489.4c0-13.2,9.7-22.8,22.8-22.8h167.4c13.1,0,22.8,10.7,22.8,24v21.7h-213V489.4z"/>
	
		<line display="inline" fill="none" stroke="#5F6060" stroke-width="5" stroke-linecap="round" stroke-linejoin="round" stroke-miterlimit="10" x1="482.2" y1="413.4" x2="482.2" y2="436.2"/>
</g>
<g display="none">
	
		<path display="inline" fill="none" stroke="#5F6060" stroke-width="5" stroke-linecap="round" stroke-linejoin="round" stroke-miterlimit="10" d="
		M421.5,389.6l181.2-181.2c31,13.2,70.5,5.4,95.5-19.7c25.2-25.4,31.4-62.1,17.8-93.5l-52.7,53c-6.3,6.3-16.4,6.3-22.8-0.1
		l-22.6-22.6c-6.4-6.4-6.3-16.3,0-22.6l52.8-52.8C639,35,602.3,40.5,576.5,66.4c-24.9,25.1-32.3,65.5-19.2,96.7L376.2,344.3
		c-31-13.2-70.5-5.4-95.5,19.7c-25.2,25.4-31.4,62.1-17.8,93.5l52.7-53c6.3-6.3,16.4-7.4,22.8-0.9l22.6,23.7
		c6.4,6.4,6,16.3-0.3,22.6l-52.5,52.8c31.6,14.9,68.3,9.4,94.1-16.5C427.3,461.2,434.6,420.8,421.5,389.6z"/>
	
		<path display="inline" fill="none" stroke="#5F6060" stroke-width="5" stroke-linecap="round" stroke-linejoin="round" stroke-miterlimit="10" d="
		M564.9,306.6l151,151c6.4,6.4,6.4,16.2,0,22.6l-21.7,22.6c-6.4,6.4-16.8,6.4-23.2,0l-151.4-151"/>
	
		<line display="inline" fill="none" stroke="#5F6060" stroke-width="5" stroke-linecap="round" stroke-linejoin="round" stroke-miterlimit="10" x1="436.6" y1="223.5" x2="315.8" y2="102.7"/>
	
		<rect x="261.1" y="58.7" transform="matrix(0.7071 0.7071 -0.7071 0.7071 142.491 -183.8455)" display="inline" fill="none" stroke="#5F6060" stroke-width="5" stroke-linecap="round" stroke-linejoin="round" stroke-miterlimit="10" width="64.1" height="42.7"/>
</g>
</svg>
