<?xml version="1.0" encoding="iso-8859-1"?>
<!-- Generator: Adobe Illustrator 16.0.0, SVG Export Plug-In . SVG Version: 6.00 Build 0)  -->
<!DOCTYPE svg PUBLIC "-//W3C//DTD SVG 1.1//EN" "http://www.w3.org/Graphics/SVG/1.1/DTD/svg11.dtd">
<svg xmlns="http://www.w3.org/2000/svg" xmlns:xlink="http://www.w3.org/1999/xlink" version="1.1" id="Capa_1" x="0px" y="0px" width="512px" height="512px" viewBox="0 0 510 510" style="enable-background:new 0 0 510 510;" xml:space="preserve">
<g>
	<g id="check-circle-outline">
		<path d="M150.45,206.55l-35.7,35.7L229.5,357l255-255l-35.7-35.7L229.5,285.6L150.45,206.55z M459,255c0,112.2-91.8,204-204,204    S51,367.2,51,255S142.8,51,255,51c20.4,0,38.25,2.55,56.1,7.65l40.801-40.8C321.3,7.65,288.15,0,255,0C114.75,0,0,114.75,0,255    s114.75,255,255,255s255-114.75,255-255H459z" fill="#FFFFFF"/>
	</g>
</g>
<g>
</g>
<g>
</g>
<g>
</g>
<g>
</g>
<g>
</g>
<g>
</g>
<g>
</g>
<g>
</g>
<g>
</g>
<g>
</g>
<g>
</g>
<g>
</g>
<g>
</g>
<g>
</g>
<g>
</g>
</svg>
