<?xml version="1.0" encoding="iso-8859-1"?>
<!-- Generator: Adobe Illustrator 19.0.0, SVG Export Plug-In . SVG Version: 6.00 Build 0)  -->
<svg xmlns="http://www.w3.org/2000/svg" xmlns:xlink="http://www.w3.org/1999/xlink" version="1.1" id="Layer_1" x="0px" y="0px" viewBox="0 0 512 512" style="enable-background:new 0 0 512 512;" xml:space="preserve" width="512px" height="512px">
<g>
	<g>
		<path d="M445.953,371.991l-73.27-73.268c5.822-13.303,8.873-27.817,8.873-42.416c0-14.602-3.051-29.115-8.873-42.417    l73.267-73.274c14.986-14.992,14.986-39.382-0.001-54.369c-7.262-7.261-16.916-11.26-27.184-11.26    c-10.268,0-19.922,3.999-27.184,11.261l-73.267,73.272c-13.299-5.823-27.814-8.874-42.417-8.874    c-14.601,0-29.117,3.051-42.418,8.874l-73.27-73.268c-7.263-7.261-16.917-11.26-27.185-11.26    c-10.268,0-19.922,3.999-27.185,11.261c-14.99,14.99-14.989,39.381,0,54.37l73.271,73.268    c-5.823,13.304-8.874,27.818-8.874,42.416c0,14.601,3.052,29.117,8.874,42.417l-73.269,73.269    c-14.984,14.991-14.984,39.38,0.002,54.367c7.262,7.262,16.917,11.262,27.185,11.262s19.923-4,27.185-11.262l73.267-73.267    c13.303,5.823,27.816,8.874,42.412,8.874c14.601,0,29.115-3.051,42.417-8.874l73.271,73.266    c7.262,7.262,16.916,11.262,27.184,11.262c10.268,0,19.923-3.999,27.183-11.258c7.264-7.261,11.266-16.915,11.266-27.185    C457.215,388.909,453.216,379.254,445.953,371.991z M431.174,411.583c-3.315,3.315-7.722,5.141-12.408,5.141    c-4.686,0-9.093-1.825-12.407-5.141l-78.517-78.512c-2.009-2.008-4.683-3.06-7.392-3.06c-1.669,0-3.35,0.399-4.895,1.218    c-12.128,6.437-25.842,9.839-39.662,9.839c-13.816,0-27.529-3.403-39.66-9.84c-4.054-2.151-9.039-1.405-12.286,1.841    l-78.51,78.512c-3.315,3.315-7.722,5.141-12.408,5.141c-4.685,0-9.093-1.827-12.407-5.141c-6.84-6.84-6.839-17.972,0-24.814    l78.513-78.513c3.247-3.248,3.994-8.233,1.84-12.288c-6.436-12.125-9.838-25.84-9.838-39.661c0-13.816,3.402-27.531,9.839-39.662    c2.151-4.054,1.404-9.039-1.842-12.286l-78.516-78.512c-6.842-6.842-6.842-17.974-0.001-24.816    c3.314-3.314,7.722-5.14,12.408-5.14c4.686,0,9.094,1.825,12.408,5.14l78.516,78.514c3.247,3.246,8.233,3.994,12.288,1.84    c12.125-6.438,25.84-9.84,39.661-9.84c13.822,0,27.536,3.403,39.661,9.84c4.056,2.154,9.043,1.406,12.288-1.841l78.513-78.517    c3.314-3.314,7.721-5.14,12.407-5.14c4.686,0,9.093,1.825,12.407,5.14c6.841,6.841,6.84,17.973,0,24.816l-78.51,78.517    c-3.247,3.246-3.994,8.232-1.841,12.287c6.436,12.127,9.838,25.841,9.838,39.662c0,13.818-3.401,27.533-9.838,39.663    c-2.151,4.055-1.404,9.039,1.842,12.286l78.514,78.513c3.314,3.314,5.14,7.722,5.14,12.408S434.492,408.269,431.174,411.583z" fill="#FFFFFF"/>
	</g>
</g>
<g>
	<g>
		<path d="M275.894,236.443c-10.947,0-19.853,8.906-19.853,19.853s8.906,19.853,19.853,19.853s19.853-8.906,19.853-19.853    S286.841,236.443,275.894,236.443z" fill="#FFFFFF"/>
	</g>
</g>
<g>
	<g>
		<path d="M275.894,200.916c-30.536,0-55.38,24.843-55.38,55.38c0,30.536,24.844,55.38,55.38,55.38    c30.536,0,55.38-24.844,55.38-55.38C331.273,225.76,306.43,200.916,275.894,200.916z M275.894,290.777    c-19.013,0-34.482-15.469-34.482-34.482s15.469-34.482,34.482-34.482s34.482,15.469,34.482,34.482    C310.375,275.309,294.907,290.777,275.894,290.777z" fill="#FFFFFF"/>
	</g>
</g>
<g>
	<g>
		<path d="M480.653,19.174H69.694c-17.285,0-31.347,14.062-31.347,31.347v62.326H21.131C9.479,112.847,0,122.326,0,133.977v92.03    c0,11.651,9.479,21.13,21.131,21.13h17.216v18.545H21.131C9.479,265.682,0,275.161,0,286.813v92.03    c0,11.651,9.479,21.129,21.131,21.129h17.216v61.507c0,17.285,14.062,31.347,31.347,31.347h410.959    c17.285,0,31.347-14.062,31.347-31.347V50.521C512,33.236,497.938,19.174,480.653,19.174z M491.102,461.48    c0,5.762-4.687,10.449-10.449,10.449H69.694c-5.762,0-10.449-4.687-10.449-10.449v-71.956c0-5.771-4.678-10.449-10.449-10.449    H21.131c-0.131,0-0.233-0.102-0.233-0.232v-92.03c0-0.131,0.102-0.233,0.233-0.233h27.665c5.771,0,10.449-4.678,10.449-10.449    v-39.443c0-5.771-4.678-10.449-10.449-10.449H21.131c-0.131,0-0.233-0.102-0.233-0.232v-92.03c0-0.131,0.102-0.232,0.233-0.232    h27.665c5.771,0,10.449-4.678,10.449-10.449V50.521c0-5.762,4.687-10.449,10.449-10.449h410.959    c5.762,0,10.449,4.687,10.449,10.449V461.48z" fill="#FFFFFF"/>
	</g>
</g>
<g>
	<g>
		<path d="M456.169,175.564c-5.771,0-10.449,4.678-10.449,10.449v4.678c0,5.771,4.678,10.449,10.449,10.449    s10.449-4.678,10.449-10.449v-4.678C466.618,180.242,461.94,175.564,456.169,175.564z" fill="#FFFFFF"/>
	</g>
</g>
<g>
	<g>
		<path d="M456.169,214.045c-5.771,0-10.449,4.678-10.449,10.449v101.492c0,5.771,4.678,10.449,10.449,10.449    s10.449-4.678,10.449-10.449V224.494C466.618,218.723,461.94,214.045,456.169,214.045z" fill="#FFFFFF"/>
	</g>
</g>
<g>
</g>
<g>
</g>
<g>
</g>
<g>
</g>
<g>
</g>
<g>
</g>
<g>
</g>
<g>
</g>
<g>
</g>
<g>
</g>
<g>
</g>
<g>
</g>
<g>
</g>
<g>
</g>
<g>
</g>
</svg>
