<?xml version="1.0" encoding="iso-8859-1"?>
<!-- Generator: Adobe Illustrator 19.0.0, SVG Export Plug-In . SVG Version: 6.00 Build 0)  -->
<svg xmlns="http://www.w3.org/2000/svg" xmlns:xlink="http://www.w3.org/1999/xlink" version="1.1" id="Layer_1" x="0px" y="0px" viewBox="0 0 512.001 512.001" style="enable-background:new 0 0 512.001 512.001;" xml:space="preserve" width="512px" height="512px">
<g>
	<g>
		<g>
			<path d="M191.023,256h95.511c26.333,0,47.756-21.423,47.756-47.756c0-26.333-21.423-47.756-47.756-47.756h-95.511     c-26.333,0-47.756,21.423-47.756,47.756C143.267,234.577,164.69,256,191.023,256z M191.023,181.714h95.511     c14.629,0,26.531,11.902,26.531,26.531c0,14.629-11.902,26.531-26.531,26.531h-95.511c-14.629,0-26.531-11.902-26.531-26.531     C164.492,193.615,176.394,181.714,191.023,181.714z" fill="#FFFFFF"/>
			<path d="M510.984,171.427c-2.035-7.599-6.91-13.949-13.722-17.882l-19.705-11.378V63.386c0-5.861-4.751-10.612-10.612-10.612     H10.612C4.751,52.773,0,57.524,0,63.386v385.23c0,5.861,4.751,10.612,10.612,10.612h456.333c5.861,0,10.612-4.751,10.612-10.612     V246.574l30.485-52.801C511.976,186.962,513.021,179.026,510.984,171.427z M21.225,73.998h435.108v21.225H21.225V73.998z      M456.333,438.003H21.225V116.448h435.108v17.519c-10.484-0.306-20.81,5.003-26.411,14.705l-78.509,135.983H111.43     c-5.861,0-10.612,4.751-10.612,10.612v42.45c0,5.861,4.751,10.612,10.612,10.612h210.377l0.592,58.51     c0.038,3.754,2.056,7.207,5.306,9.083c1.641,0.948,3.473,1.422,5.306,1.422c1.797,0,3.594-0.456,5.213-1.369l59.049-33.301     c1.285-0.723,2.423-1.731,3.337-2.978c0.222-0.301,0.437-0.608,0.625-0.931c0.006-0.011,0.015-0.02,0.021-0.031l55.076-95.398     V438.003z M346.821,335.053l57.838-100.178l41.359,23.878L388.18,358.931L346.821,335.053z M370.653,373.32l-27.211,15.346     l-0.316-31.239l13.763,7.947L370.653,373.32z M339.158,305.879l-12.254,21.225H122.042v-21.225H339.158z M456.631,240.373     l-41.359-23.878l10.612-18.382l41.359,23.878L456.631,240.373z M489.661,183.161l-11.806,20.449l-41.359-23.878l11.806-20.449     c2.268-3.927,7.309-5.278,11.235-3.011l27.113,15.653C490.579,174.194,491.929,179.234,489.661,183.161z" fill="#FFFFFF"/>
			<path d="M203.227,372.737h-89.675c-5.861,0-10.612,4.751-10.612,10.612c0,5.861,4.751,10.612,10.612,10.612h89.675     c5.861,0,10.612-4.751,10.612-10.612C213.84,377.488,209.088,372.737,203.227,372.737z" fill="#FFFFFF"/>
			<path d="M245.677,372.737h-1.061c-5.861,0-10.612,4.751-10.612,10.612c0,5.861,4.751,10.612,10.612,10.612h1.061     c5.861,0,10.612-4.751,10.612-10.612C256.289,377.488,251.538,372.737,245.677,372.737z" fill="#FFFFFF"/>
		</g>
	</g>
</g>
<g>
</g>
<g>
</g>
<g>
</g>
<g>
</g>
<g>
</g>
<g>
</g>
<g>
</g>
<g>
</g>
<g>
</g>
<g>
</g>
<g>
</g>
<g>
</g>
<g>
</g>
<g>
</g>
<g>
</g>
</svg>
