<svg xmlns="http://www.w3.org/2000/svg" width="356" height="254" viewBox="-534.954 102.815 356 254" enable-background="new -534.954 102.815 356 254"><g fill="#454545"><path d="M-183.902 204.255c-1.623-2.705-3.246-4.327-5.95-5.95-3.786-2.164-6.491-2.705-9.736-3.246h-1.623l-100.61-17.85c-3.245-.541-5.409-.541-8.655-.541-3.786 0-5.95 0-10.277.541-3.71.495-6.399.991-8.745 1.641-.073 1.765-.149 3.509-.226 5.176 2.318-.766 4.838-1.358 8.972-1.949 3.786-.541 5.409-.541 9.196-.541 3.245 0 4.868 0 8.114.541l99.528 17.309h1.623c3.245.541 5.409 1.082 8.114 2.705 2.705 1.623 3.786 2.705 5.409 4.868 1.623 2.705 2.705 4.327 2.705 7.573v16.227c-4.327 1.082-9.196 3.786-9.196 10.818 0 6.491 5.409 9.736 9.196 10.818v15.686c0 3.786-1.623 7.032-3.787 10.277-2.705 2.705-5.409 3.786-7.573 4.327l-100.069 18.391c-4.868 1.082-8.114 1.623-13.523 1.623-5.95 0-9.736-.541-15.686-2.164-6.491-1.623-9.736-3.245-15.146-6.491-5.95-3.245-14.064-9.196-14.064-9.196l-1.623-1.082-1.623 1.082s-8.655 6.491-14.064 9.196c-5.95 3.246-9.196 4.868-15.146 6.491-5.95 1.623-9.736 2.164-15.686 2.164-4.868 0-8.114-.541-13.523-1.623l-101.151-18.391c-2.164-.541-4.868-1.623-7.573-4.327-2.705-2.705-3.786-5.95-3.786-9.736v-15.686c3.786-1.082 9.196-4.327 9.196-10.818 0-7.032-5.409-10.277-9.196-10.818v-16.227c0-3.246 1.082-4.868 2.705-7.573s2.705-3.786 4.868-5.409c2.705-1.623 4.868-2.164 8.114-2.705h1.623l99.528-17.309c3.246-.541 4.868-.541 8.114-.541 3.786 0 5.95 0 9.196.541 3.992.57 6.478 1.142 8.732 1.871-.046-1.162-.077-2.342-.077-3.494v-2.216c-2.12-.61-4.632-1.135-8.114-1.57-3.786-.541-5.95-.541-10.277-.541-3.246 0-5.409 0-8.655.541l-99.528 17.85h-1.623c-3.246.541-6.491 1.082-9.736 3.246-2.705 2.164-4.327 3.786-6.491 6.491-1.623 2.705-3.245 5.409-3.245 10.277v21.095999999999997h2.705c.541 0 7.032.541 7.032 6.491 0 5.409-6.491 5.95-7.032 6.491l-2.705-.541v19.473000000000003c0 4.868 1.623 9.736 5.409 13.523 2.705 3.246 6.491 5.409 10.277 5.95l100.069 18.391c5.95 1.082 8.655 1.623 14.605 1.623 6.491 0 10.818-.541 17.309-2.164 7.032-1.623 10.818-3.786 16.227-7.032 4.868-2.705 10.818-6.491 13.523-8.655 2.705 2.164 8.655 5.95 12.982 8.655 5.95 3.245 9.736 4.868 16.227 7.032 6.491 1.623 10.818 2.164 17.309 2.164 5.95 0 9.196-.541 14.605-1.623l100.069-18.391c3.786-.541 7.573-2.705 10.277-5.95 3.245-3.786 5.409-8.114 5.409-13.523v-19.473000000000003h-2.705c-.541 0-7.032-1.082-7.032-6.491 0-5.95 5.95-5.95 7.032-6.491h2.705v-20.554c-.001-4.328-1.624-7.032-3.247-10.278zM-299.657 247.528v.541l-.541-.541-2.705-25.964h-8.114s5.409 38.405 5.95 40.028h10.277l5.95-40.028h-8.114l-2.703 25.964zM-260.711 232.383c0 5.409-2.164 5.95-3.786 5.95h-2.164v-16.768h-8.114v40.028h8.114v-17.309h2.164c2.164 0 3.786 1.082 3.786 5.95v11.9h8.114v-11.9c0-8.114-4.327-9.196-4.327-9.196s4.327-.541 4.327-8.114v-11.359h-8.114v10.818zM-488.976 221.564h-12.441v40.028h8.114v-12.441h4.327c1.623 0 9.736.541 9.736-9.196v-9.196c0-9.195-8.114-9.195-9.736-9.195zm1.622 15.687c0 4.868-2.164 5.409-3.786 5.409h-2.164v-14.605h2.164c2.164 0 3.786.541 3.786 4.868v4.328zM-453.817 221.023c-6.491 0-11.359 3.786-11.359 9.196v22.718c0 5.409 4.868 9.196 11.359 9.196s11.359-3.786 11.359-9.196v-22.718c0-5.409-4.868-9.196-11.359-9.196zm3.245 31.914c0 1.623-1.623 2.705-3.245 2.705-1.623 0-3.246-1.082-3.246-2.705v-22.177c0-1.623 1.623-2.705 3.246-2.705s3.245 1.082 3.245 2.705v22.177zM-413.249 221.564h-12.441v40.028h12.441s9.736.541 9.736-9.196v-21.636c.001-9.737-9.736-9.196-9.736-9.196zm2.164 11.901v17.309c0 4.327-2.164 4.868-3.786 4.868h-2.164v-27.046h2.164c2.163 0 4.327.541 3.786 4.869zM-336.439 221.023c-6.491 0-11.359 3.786-11.359 9.196v31.373h8.114v-11.359h5.95v11.359h8.655v-31.373c-.001-5.409-4.869-9.196-11.36-9.196zm2.705 22.719h-6.491v-13.523c0-1.623 1.623-2.705 3.245-2.705 1.623 0 3.246 1.082 3.246 2.705v13.523zM-226.093 221.023c-6.491 0-11.359 3.786-11.359 9.196v31.373h8.655v-11.359h5.95v11.359h8.114v-31.373c-.001-5.409-4.869-9.196-11.36-9.196zm3.246 22.719h-6.491v-13.523c0-1.623 1.623-2.705 3.245-2.705 1.623 0 3.246 1.082 3.246 2.705v13.523zM-364.025 232.924c0-11.359-5.409-11.359-8.114-11.359l-14.605-.541v40.028h8.114v-17.309h1.082c3.245 0 4.868 1.082 4.868 5.95v11.9h8.114v-11.9c0-8.114-4.327-9.196-4.327-9.196s4.868-.542 4.868-7.573zm-11.901 5.409h-2.164v-10.277h2.164c1.623 0 3.786.541 3.245 4.868.542 4.868-1.622 5.409-3.245 5.409zM-186.065 230.76v-16.227c0-3.245-1.082-4.868-2.705-7.573-1.623-2.164-2.705-3.245-5.409-4.868-2.705-1.623-4.868-2.164-8.114-2.705h-1.623l-99.528-17.309c-3.246-.541-4.868-.541-8.114-.541-3.786 0-5.409 0-9.196.541-4.134.59-6.654 1.182-8.972 1.949.077-1.667.153-3.411.226-5.176.349-8.42.632-17.266.632-20.032v-3.246h-2.705s-26.505.541-25.964.541l-27.046-1.082h-3.246v3.246c0 .541.541 11.9.541 16.227v5.95c0 1.151.031 2.332.077 3.494-2.253-.729-4.74-1.301-8.732-1.871-3.246-.541-5.409-.541-9.196-.541-3.245 0-4.868 0-8.114.541l-99.528 17.309h-1.623c-3.245.541-5.409 1.082-8.114 2.705-2.164 1.623-3.245 2.705-4.868 5.409s-2.705 4.327-2.705 7.573v16.227c3.786.541 9.196 3.786 9.196 10.818 0 6.491-5.409 9.736-9.196 10.818v15.686c0 3.786 1.082 7.032 3.786 9.736 2.705 2.705 5.409 3.786 7.573 4.327l101.151 18.391c5.409 1.082 8.655 1.623 13.523 1.623 5.95 0 9.736-.541 15.686-2.164 5.95-1.623 9.195-3.245 15.146-6.491 5.409-2.705 14.064-9.196 14.064-9.196l1.623-1.082 1.623 1.082s8.114 5.95 14.064 9.196c5.409 3.246 8.654 4.868 15.146 6.491 5.95 1.623 9.736 2.164 15.686 2.164 5.409 0 8.655-.541 13.523-1.623l100.069-18.391c2.164-.541 4.868-1.623 7.573-4.327 2.164-3.245 3.786-6.491 3.787-10.277v-15.686c-3.786-1.082-9.196-4.327-9.196-10.818.004-7.032 4.872-9.736 9.199-10.818zm-171.469-30.832v-29.21l1.623-1.623c1.623-1.623 4.327-2.705 7.032-2.705 3.246-.541 7.032 1.623 9.196 4.327 2.164 2.164 3.245 4.868 3.245 7.032.167 1.28.214 2.517.165 3.717-.08 1.987-.436 3.863-1.01 5.625-2.443 7.506-8.798 12.938-14.301 16.082l-5.95 2.705v-5.95zm-.542-39.487v9.736s-1.623-1.082-2.164-1.623c-1.082-1.082-2.164-1.623-3.245-2.164-2.164-.541-3.246-.541-4.868-.541-4.327 0-9.196 3.786-10.818 8.114-.473 1.891-.945 4.609-.696 7.069.036.355.087.704.155 1.044.291 1.941.835 3.792 1.57 5.55 3.362 8.038 10.899 14.062 18.444 17.169 1.623.541 2.164 1.082 2.164 1.082v6.492000000000001c-3.246 0-5.95-.541-8.655-1.082-3.245-.541-12.441-4.868-15.146-12.982-.484-1.451-.966-2.044-1.063-4.859-.011-.333-.019-.691-.019-1.092-.118-1.534-.262-3.942-.414-6.771-.099-1.832-.201-3.841-.303-5.902-.461-9.349-.905-19.783-.905-19.783l25.963.543zm166.601 95.201v12.982s-.541 3.786-1.623 4.868c-1.623 2.164-4.868 3.245-4.868 3.245l-103.855 17.309c-3.246.541-4.868.541-7.573.541-4.327 0-7.032 0-11.359-1.082-5.409-1.082-8.114-2.164-12.982-4.868-3.786-2.164-5.95-3.245-9.736-5.95-3.786-2.705-9.736-7.032-9.736-7.032h-7.032s-5.95 4.327-9.736 7.032c-3.786 2.705-5.409 3.786-9.736 5.95-4.868 2.164-7.573 3.786-12.982 4.868-4.327 1.082-7.032 1.082-11.359 1.082-3.245 0-4.868 0-7.573-.541l-104.937-17.309s-3.246-1.082-4.868-3.245c-1.082-1.082-1.623-4.868-1.623-4.868v-12.441s9.736-2.164 9.736-14.064l-9.196-14.064v-14.064s0-2.705 2.164-4.868c1.623-2.164 4.327-2.705 4.327-2.705l102.232-16.227c3.246-.541 5.95-1.082 8.655-1.623 2.705 0 5.409-.541 10.277.541 2.988.747 5.204 1.237 8.069 2.359.028.561.045 1.047.045 1.427 1.082 9.736 5.95 16.768 15.146 21.096 3.245 1.623 4.868 1.623 7.573 2.164 1.082 0 3.786.541 5.95.541s4.327-.541 5.95-.541c12.441-2.705 20.014-9.736 21.636-20.014.098-.589.214-2.024.339-3.999 3.322-1.346 6.038-2.193 9.398-3.033 4.868-1.082 7.573-1.082 10.277-.541 2.705 0 5.95.541 9.736 1.082l102.232 16.227s2.705.541 4.327 2.705c1.623 2.164 2.164 4.868 2.164 4.868v14.064s-9.196 1.623-9.196 14.064c.001 11.901 9.737 14.064 9.737 14.064z"/></g></svg>