<svg xmlns="http://www.w3.org/2000/svg" width="356" height="254" viewBox="-170 -238 356 254" enable-background="new -170 -238 356 254"><g fill="#454545"><path d="M-169-174.852v125.56h354v-125.56h-354zm60.808 98.279h-22.68l7.56-52.919-20.379.329 3.287-18.407h61.794l-3.287 18.407h-18.735l-7.56 52.59zm26.295 0l10.518-70.997h22.68l-10.189 70.997h-23.009zm64.095 2.3c-32.54-.329-30.897-24.981-30.897-24.981h22.022s-.657 8.546 10.518 8.546c4.93 0 7.56-1.972 7.56-5.259 0-3.287-3.944-4.93-19.064-12.162-10.189-4.93-14.791-10.847-14.791-21.036 0-9.861 9.532-20.708 29.253-20.708 28.596 0 29.253 23.666 29.253 23.666h-21.364s-.329-7.231-8.217-7.231c-5.588 0-7.231 2.958-7.231 4.273s-.657 3.616 14.462 9.861c15.12 6.245 20.05 13.148 20.05 22.351 0 8.875-5.259 22.68-31.554 22.68zm80.2-2.3l-.986-8.217h-22.351l-3.287 8.217h-23.337l34.184-70.997h22.68l14.791 70.997h-21.694zm96.307 0h-24.981l-12.49-26.295-7.56 7.231-2.63 19.064h-22.35l10.189-70.997h22.351l-3.287 23.337 22.351-23.337h26.624l-29.582 29.253 21.365 41.744zM44.978-99.253h14.133l-3.944-25.967z"/></g></svg>