<?xml version="1.0" standalone="no"?><!-- Generator: Adobe Fireworks CS6, Export SVG Extension by Aaron Beall (http://fireworks.abeall.com) . Version: 0.6.1  --><!DOCTYPE svg PUBLIC "-//W3C//DTD SVG 1.1//EN" "http://www.w3.org/Graphics/SVG/1.1/DTD/svg11.dtd"><svg id="Untitled-Page%201" viewBox="0 0 24 6" style="background-color:#ffffff00" version="1.1"	xmlns="http://www.w3.org/2000/svg" xmlns:xlink="http://www.w3.org/1999/xlink" xml:space="preserve"	x="0px" y="0px" width="24px" height="6px">	<path id="Ellipse" d="M 0 3 C 0 1.3431 1.3431 0 3 0 C 4.6569 0 6 1.3431 6 3 C 6 4.6569 4.6569 6 3 6 C 1.3431 6 0 4.6569 0 3 Z" stroke="#dddddd" stroke-width="1" fill="#ffffff"/>	<path id="Ellipse2" d="M 9 3 C 9 1.3431 10.3431 0 12 0 C 13.6569 0 15 1.3431 15 3 C 15 4.6569 13.6569 6 12 6 C 10.3431 6 9 4.6569 9 3 Z" stroke="#dddddd" stroke-width="1" fill="#ffffff"/>	<path id="Ellipse3" d="M 18 3 C 18 1.3431 19.3431 0 21 0 C 22.6569 0 24 1.3431 24 3 C 24 4.6569 22.6569 6 21 6 C 19.3431 6 18 4.6569 18 3 Z" stroke="#dddddd" stroke-width="1" fill="#ffffff"/></svg>