<svg id="logo-svg" viewBox="0 0 146 43" version="1.1"	xmlns="http://www.w3.org/2000/svg" xmlns:xlink="http://www.w3.org/1999/xlink" xml:space="preserve"	x="0px" y="0px" width="146px" height="43px">	<path d="M 29.875 40.7969 C 29.9063 40.75 29.9375 40.6875 29.9375 40.6094 C 29.9375 40.4375 29.8281 40.2031 29.625 39.9375 C 29.4219 39.6563 29.2031 39.3438 28.9688 39 C 28.7188 38.6563 28.5 38.3125 28.2969 37.9688 C 28.0938 37.625 28 37.3125 28 37.0313 L 28 36.6094 C 28.0313 36.2031 28.0781 35.7813 28.1563 35.3125 C 28.2344 34.8438 28.3281 34.375 28.4375 33.9063 C 29.0313 33.9375 29.625 33.9531 30.1875 33.9688 C 30.75 34 31.2813 34 31.7969 34 C 31.8594 34 31.9531 33.9688 32.0938 33.9063 C 32.2188 33.8438 32.3594 33.6875 32.5 33.4688 C 32.625 33.25 32.75 32.9531 32.8438 32.5625 C 32.9375 32.1719 33 31.6563 33 31 L 32.5313 31 L 31.1875 31 L 29.4375 31 C 29.6094 30.4688 29.7813 29.9531 29.9688 29.4531 C 30.1563 28.9531 30.3125 28.4844 30.4688 28.0469 C 30.6094 27.6094 30.7188 27.2188 30.8125 26.875 C 30.8906 26.5313 30.9375 26.2656 30.9375 26.0625 C 30.9375 25.7344 30.8281 25.4688 30.6094 25.2813 C 30.3906 25.0938 29.9844 25 29.375 25 C 29.125 25 28.8594 25.0313 28.5781 25.0938 C 28.2813 25.1563 28 25.2656 27.7188 25.4063 C 27.4375 25.5469 27.2031 25.7188 26.9844 25.9375 C 26.7656 26.1563 26.625 26.4063 26.5625 26.7188 L 25.9063 28.7656 C 25.6719 29.4844 25.4375 30.2344 25.2188 31 L 24.9844 31 L 24.0156 31 C 23.6406 31 23.2031 30.9844 22.6719 30.9531 C 23.1875 29.9688 23.6875 29 24.1563 28.0625 C 24.625 27.125 25.0625 26.0156 25.4688 24.7188 C 25.875 23.4219 26.0938 22.7656 26.0938 22.7344 L 27.1719 17.9531 C 27.1719 17.8594 27.0938 17.7813 26.9688 17.6875 C 26.8438 17.5938 26.6719 17.5313 26.4531 17.4688 C 26.2344 17.4063 25.9688 17.3594 25.6875 17.3281 C 25.3906 17.2969 25.0781 17.2656 24.75 17.2656 C 24.3125 17.2656 23.8906 17.2969 23.4531 17.3438 C 23.0156 17.3906 22.625 17.4688 22.25 17.5781 C 21.875 17.6875 21.5625 17.8125 21.2969 17.9688 C 21.0313 18.125 20.8594 18.3125 20.7813 18.5469 L 20.1563 21.2813 C 19.9688 22.0938 19.7813 22.9688 19.5781 23.8906 C 19.375 24.8281 19.1875 25.5938 19.0156 26.2031 C 18.8281 26.8281 18.6563 27.4531 18.4688 28.0938 C 18.2813 28.7344 18.0781 29.375 17.8281 30.0313 C 17.5781 30.6875 17.3125 31.1563 17.0313 31.4531 C 16.6563 32.0625 16.3594 32.6406 16.1406 33.1875 C 15.9219 33.7344 15.8125 34.2031 15.8125 34.6094 C 15.8125 34.8906 15.8594 35.1406 15.9688 35.3281 C 16.0781 35.5313 16.2656 35.625 16.5156 35.625 C 17.0781 35.625 17.6406 35.5313 18.2344 35.3438 C 18.8281 35.1563 19.4375 34.9531 20.0938 34.7188 C 20.75 34.5 21.4375 34.2813 22.1875 34.0938 C 22.9219 33.9063 23.7344 33.8125 24.6094 33.8125 C 24.4219 34.6875 24.2813 35.5156 24.1719 36.2969 C 24.0469 37.0781 24 37.7813 24 38.375 C 24 38.9219 24.0469 39.3594 24.1406 39.7031 C 24.2344 40.0313 24.3906 40.2969 24.5938 40.5 C 24.7969 40.6875 25.0469 40.8281 25.3281 40.9063 C 25.6094 40.9531 25.9375 41 26.3125 41 C 26.7813 41 27.3125 40.9688 27.875 40.9219 C 28.4375 40.8594 29.0156 40.8438 29.625 40.8438 C 29.75 40.8438 29.8438 40.8125 29.875 40.7969 ZM 2.75 26.1406 C 3.25 27.1406 4.0313 28 5.1094 28.7031 C 4.4688 29.1406 3.8438 29.6094 3.2344 30.1094 C 2.6094 30.6094 2.0625 31.1719 1.5938 31.7969 C 1.125 32.4375 0.7344 33.1563 0.4375 33.9531 C 0.1406 34.7656 0 35.6875 0 36.7188 C 0 38 0.2031 39.0625 0.6406 39.875 C 1.0625 40.6719 1.6094 41.3125 2.2656 41.7969 C 2.9219 42.25 3.6563 42.5625 4.4531 42.75 C 5.25 42.9063 6.0156 43 6.7656 43 C 7.9531 43 9.0469 42.8281 10.0469 42.5156 C 11.0469 42.1719 11.9219 41.7031 12.6563 41.125 C 13.3906 40.5156 13.9688 39.8125 14.375 38.9844 C 14.7813 38.1719 15 37.25 15 36.2344 C 15 35.5 14.875 34.8125 14.625 34.1875 C 14.375 33.5625 14.0313 32.9688 13.6094 32.4219 C 13.1875 31.875 12.7031 31.3594 12.1719 30.875 C 11.6406 30.3906 11.0781 29.9219 10.5 29.4531 C 11.2031 29.0625 11.8906 28.625 12.5625 28.1406 C 13.2344 27.6563 13.8281 27.0781 14.3281 26.4219 C 14.8281 25.7656 15.2188 24.9063 15.5313 23.8281 C 15.8438 22.75 16 21.6094 16 20.4219 C 16 19.6875 15.8438 19.0469 15.5469 18.4844 C 15.25 17.9375 14.8594 17.4844 14.375 17.1094 C 13.875 16.7344 13.3125 16.4688 12.6563 16.2813 C 12 16.0938 11.3281 16 10.625 16 C 9.6094 16 8.5938 16.1406 7.5625 16.4063 C 6.5313 16.6719 5.5938 17.0625 4.7813 17.5938 C 3.9688 18.125 3.2969 18.7969 2.7813 19.6094 C 2.25 20.4219 2 21.5625 2 23.0625 C 2 24.1094 2.25 25.1406 2.75 26.1406 ZM 10.6094 19.125 C 10.875 19.2188 11.1094 19.3438 11.3125 19.5 C 11.5156 19.6563 11.6875 19.875 11.8125 20.125 C 11.9375 20.375 12 20.6719 12 21.0156 C 12 21.4219 11.8906 21.9531 11.6719 22.6406 C 11.4531 23.3281 11.1719 23.9219 10.8281 24.4219 C 10.4844 24.9219 10.0781 25.3906 9.6406 25.8281 C 9.1875 26.2656 8.7188 26.6406 8.25 26.9219 C 7.875 26.625 7.5469 26.2813 7.2813 25.9063 C 7 25.5313 6.7656 25.1563 6.5781 24.75 C 6.3906 24.3594 6.2344 23.9688 6.1406 23.5625 C 6.0469 23.1563 6 22.7813 6 22.4219 C 6 21.5938 6.0938 21 6.2969 20.6563 C 6.5 20.3125 6.7813 20.0156 7.125 19.7656 C 7.4688 19.5156 7.875 19.3281 8.3438 19.2031 C 8.8125 19.0781 9.2969 19 9.8125 19 C 10.0781 19 10.3438 19.0469 10.6094 19.125 ZM 9.6406 36.8594 C 9.3906 37.3281 9.0781 37.7344 8.6719 38.0469 C 8.2656 38.375 7.8125 38.6094 7.3125 38.7656 C 6.7969 38.9219 6.2813 39 5.7813 39 C 5.5781 39 5.375 38.9531 5.1719 38.8281 C 4.9531 38.7188 4.7656 38.5469 4.5938 38.3125 C 4.4063 38.0938 4.2656 37.8125 4.1563 37.4844 C 4.0469 37.1563 4 36.7656 4 36.3281 C 4 35.7656 4.0938 35.2656 4.2813 34.8281 C 4.4688 34.3906 4.7188 33.9844 5.0625 33.625 C 5.4063 33.2813 5.7969 32.9531 6.2656 32.6719 C 6.7344 32.3906 7.2344 32.1094 7.7813 31.8594 C 8.3906 32.3438 8.9063 32.8438 9.3438 33.3594 C 9.7813 33.8906 10 34.5 10 35.1875 C 10 35.8281 9.875 36.3906 9.6406 36.8594 Z" fill="#313131"/>	<path d="M 124.6563 28.6875 L 124.8906 29.5313 C 124.9844 29.8594 125 30.3125 124.9375 30.9063 C 124.875 31.5 124.8594 32 124.9219 32.4063 C 124.9688 32.8125 125 33.2188 125 33.5938 C 125 34.0469 124.9531 34.4844 124.875 34.8906 C 124.7813 35.2969 124.6406 35.6563 124.4219 35.9688 C 124.2031 36.2813 123.9219 36.5313 123.5781 36.7188 C 123.2188 36.9063 122.7656 37 122.2188 37 C 121.7656 37 121.3594 36.8906 121.0156 36.6719 C 120.6719 36.4531 120.3594 36.2188 120.0938 35.9688 C 119.8281 35.7188 119.5938 35.4688 119.3906 35.25 C 119.1875 35.0313 119 34.9219 118.8438 34.9219 L 124.6563 28.6875 ZM 84.385 35.28 L 83 31.405 C 83.0106 30.2795 83.1368 29.2539 83.3906 28.3281 C 83.6563 27.375 84.0313 26.5 84.5 25.7031 C 84.9688 24.9219 85.5 24.2656 86.125 23.7656 C 86.7344 23.2656 87.3906 23 88.0781 23 C 88.5781 23 89.0156 23.125 89.3906 23.375 C 89.7656 23.625 90.0625 23.9531 90.2969 24.375 C 90.5313 24.7969 90.7031 25.2969 90.8281 25.8594 C 90.9375 26.4375 91 27.0625 91 27.7188 C 91 28.5625 90.875 29.5313 90.6406 30.6094 C 90.3906 31.6875 90.0781 32.6094 89.6719 33.3594 C 89.2656 34.125 88.7969 34.75 88.2656 35.25 C 87.7344 35.75 87.1875 36 86.625 36 C 85.9688 36 85.4219 35.8906 84.9531 35.6406 C 84.7448 35.5365 84.5563 35.4164 84.385 35.28 ZM 75 18.4531 L 75.5469 15.6875 L 76.5 12.5156 C 77.125 10.4219 77.6719 8.9219 78.125 8 C 78.5781 7.0781 79.0313 6.3438 79.5 5.8125 C 79.9531 5.2813 80.375 5 80.7813 5 C 80.875 5 80.9375 5.1563 80.9688 5.4375 C 80.9844 5.7188 81 6.0781 81 6.4844 C 80.8594 7.7656 80.5313 9.1563 80.0156 10.6406 C 79.5 12.125 78.8906 13.6094 78.1875 15.0938 C 77.4844 16.5938 76.7344 18.0469 75.9531 19.4531 C 75.1719 20.8594 74.4219 22.125 73.7344 23.25 C 74.2031 21.8906 74.625 20.2969 75 18.4531 ZM 55.9531 35.6406 C 55.4844 35.4063 55.1094 35.0938 54.8281 34.6875 C 54.5469 34.2969 54.3281 33.8281 54.2031 33.2969 C 54.0625 32.7656 54 32.1875 54 31.5625 C 54 30.375 54.125 29.2969 54.3906 28.3281 C 54.6563 27.375 55.0313 26.5 55.5 25.7031 C 55.9688 24.9219 56.5 24.2656 57.125 23.7656 C 57.7344 23.2656 58.3906 23 59.0781 23 C 59.5781 23 60.0156 23.125 60.3906 23.375 C 60.7656 23.625 61.0625 23.9531 61.2969 24.375 C 61.5313 24.7969 61.7031 25.2969 61.8281 25.8594 C 61.9375 26.4375 62 27.0625 62 27.7188 C 62 28.5625 61.875 29.5313 61.6406 30.6094 C 61.3906 31.6875 61.0781 32.6094 60.6719 33.3594 C 60.2656 34.125 59.7969 34.75 59.2656 35.25 C 58.7344 35.75 58.1875 36 57.625 36 C 56.9688 36 56.4219 35.8906 55.9531 35.6406 ZM 43.8594 39.6563 C 44.5781 39.4375 45.2813 39.125 45.9531 38.75 C 46.6094 38.375 47.25 37.9531 47.8594 37.4844 C 48.4531 37.0156 49.0156 36.5156 49.5469 36 C 49.9079 35.6529 50.2597 35.2919 50.605 34.915 C 50.8432 35.6837 51.1578 36.3904 51.5469 37.0313 C 52.0781 37.9219 52.7656 38.6406 53.6094 39.1875 C 54.4531 39.7344 55.4688 40 56.6563 40 C 57.5938 40 58.4688 39.8594 59.2969 39.5469 C 60.125 39.25 60.8906 38.8438 61.5938 38.3281 C 62.2813 37.8281 62.9063 37.2188 63.4531 36.5156 C 64 35.8281 64.4688 35.0781 64.8438 34.2656 C 65.2188 33.4688 65.5 32.6406 65.7031 31.7813 C 65.8906 30.9375 66 30.0781 66 29.2344 C 66 28.0625 65.8906 27.0156 65.7031 26.0781 C 65.5 25.1406 65.2031 24.25 64.7969 23.4063 L 64.9531 23.1719 C 65.4531 23.5156 66.0469 23.9531 66.75 24.4688 C 67.4531 24.9844 68.1719 25.6094 68.8906 26.3438 L 69.06 26.52 C 69.0212 27.0137 69 27.4587 69 27.8594 C 69 29.4844 69.1094 31.0156 69.3594 32.4844 C 69.5938 33.9531 69.9219 35.25 70.3594 36.3594 C 70.7813 37.4688 71.2813 38.3594 71.8594 39.0156 C 72.4375 39.6719 73.0625 40 73.7344 40 C 74.2188 40 74.75 39.9375 75.3125 39.8125 C 75.875 39.6875 76.4688 39.5 77.0625 39.2813 C 77.6563 39.0625 78.25 38.8125 78.8438 38.5313 C 79.4375 38.25 80 37.9688 80.5625 37.6875 L 80.865 37.52 C 81.3434 38.1884 81.926 38.7446 82.6094 39.1875 C 83.4531 39.7344 84.4688 40 85.6563 40 C 86.5938 40 87.4688 39.8594 88.2969 39.5469 C 89.125 39.25 89.8906 38.8438 90.5938 38.3281 C 91.2813 37.8281 91.9063 37.2188 92.4531 36.5156 C 93 35.8281 93.4688 35.0781 93.8438 34.2656 C 94.2188 33.4688 94.5 32.6406 94.7031 31.7813 C 94.8906 30.9375 95 30.0781 95 29.2344 C 95 28.0625 94.8906 27.0156 94.7031 26.0781 C 94.5 25.1406 94.2031 24.25 93.7969 23.4063 L 93.9531 23.1719 C 94.4531 23.5156 95.0469 23.9531 95.75 24.4688 C 96.4531 24.9844 97.1719 25.6094 97.8906 26.3438 C 98.4485 26.9259 98.979 27.4597 99.495 27.955 L 99.4844 28.0156 C 99.3281 28.9844 99.1875 29.9219 99.0625 30.8438 C 98.9375 31.7656 98.8438 32.6406 98.7813 33.4688 C 98.7188 34.2969 98.6875 35.0156 98.6875 35.6406 C 98.6875 36.2031 98.7188 36.7344 98.7813 37.2656 C 98.8438 37.7969 98.9688 38.25 99.1563 38.6563 C 99.3438 39.0625 99.6094 39.3906 99.9688 39.6406 C 100.3125 39.8906 100.7813 40 101.3594 40 C 101.6094 40 101.8281 39.9531 102.0469 39.8594 C 102.25 39.7656 102.4375 39.6094 102.625 39.375 C 102.8125 39.1563 102.9844 38.8594 103.1719 38.5 C 103.3438 38.1406 103.5313 37.6719 103.7344 37.1094 L 107.4844 26.4531 L 107.8281 26.4531 C 107.9219 27.375 108.0625 28.2813 108.25 29.1719 C 108.4375 30.0781 108.7188 30.875 109.0938 31.5938 C 109.4688 32.3125 109.9844 32.9063 110.625 33.3438 C 111.2656 33.7813 112.1094 34 113.1719 34 C 113.4228 34 113.6696 33.9835 113.915 33.95 L 113.9063 33.9688 C 113.75 34.2656 113.6563 34.5781 113.6563 34.9219 C 113.6563 35.3125 113.7031 35.6094 113.7813 35.8125 C 113.875 36.0313 113.9844 36.1719 114.1094 36.2656 C 114.25 36.3594 114.4219 36.4219 114.625 36.4375 C 114.8125 36.4531 115.0313 36.4531 115.25 36.4531 C 115.4375 36.4531 115.625 36.4531 115.8125 36.4375 C 116 36.4219 116.1875 36.3906 116.3906 36.3438 C 116.4531 37 116.6406 37.5625 116.9844 38.0313 C 117.3281 38.5 117.7656 38.8906 118.2969 39.1719 C 118.8281 39.4531 119.4531 39.6719 120.1719 39.7969 C 120.8906 39.9375 121.6563 40 122.5 40 C 123.6406 40 124.8594 39.8906 126.1406 39.6563 C 127.4219 39.4219 128.6563 39.1094 129.875 38.7031 C 131.0781 38.2969 132.25 37.8438 133.3906 37.3125 C 134.5313 36.7813 135.5469 36.2188 136.4219 35.6094 L 136.3906 30.7656 C 135.7188 31.2969 135.0469 31.7344 134.3906 32.0938 C 133.7188 32.4688 133.0625 32.7969 132.4375 33.1094 C 131.8125 33.4219 131.2031 33.7031 130.625 33.9844 C 130.0469 34.2656 129.5 34.5781 129 34.9219 C 129 34 129.0313 33.0781 129.1094 32.1719 C 129.1875 31.2656 129.1719 30.5625 129.0781 30.0313 C 128.9688 29.5156 128.875 29.0625 128.7813 28.6563 L 128.5 27.5313 C 128.4063 27.1875 128.3281 26.8281 128.2813 26.4531 C 128.2188 26.0938 128.2031 25.6875 128.2031 25.2344 C 128.2344 25.0781 128.3906 24.8281 128.6719 24.5 C 128.9531 24.1875 129.2656 23.8281 129.5938 23.4375 C 129.9063 23.0469 130.2031 22.6406 130.4688 22.2188 C 130.7344 21.8125 130.875 21.4219 130.875 21.0781 C 130.875 20.9063 130.8594 20.7031 130.8281 20.4688 C 130.7969 20.2344 130.7031 20 130.5469 19.7813 C 130.375 19.5625 130.1094 19.3906 129.75 19.2344 C 129.375 19.0781 128.8594 19 128.2031 19 C 127.7969 19 127.4219 19.0625 127.0938 19.1875 C 126.7656 19.3125 126.4688 19.4844 126.2031 19.6719 C 125.9219 19.8594 125.6719 20.0781 125.4531 20.3281 C 125.2344 20.5781 125.0313 20.8281 124.8438 21.0781 C 123.9375 22.2344 123.2188 23.2031 122.6563 23.9688 C 122.0938 24.75 121.625 25.3906 121.2344 25.9219 C 120.8281 26.4531 120.4844 26.9219 120.2031 27.3125 C 120.0051 27.5876 119.7511 27.9165 119.45 28.3 L 119.5781 26.2656 C 118.9531 26.7813 118.2969 27.2344 117.6406 27.6406 C 117.0781 28 116.4688 28.3125 115.7969 28.5938 C 115.125 28.875 114.4688 29 113.8438 29 C 113.625 29 113.4063 28.9688 113.2031 28.875 C 113 28.7969 112.8125 28.6563 112.6563 28.4531 C 112.5 28.25 112.3594 27.9844 112.2656 27.6406 C 112.1719 27.3125 112.125 26.8906 112.125 26.3906 C 112.125 26.1094 112.1563 25.7344 112.2188 25.2969 C 112.2813 24.8594 112.4063 24.3125 112.5625 23.625 C 112.7188 22.9375 112.8281 22.3906 112.8906 21.9531 C 112.9531 21.5313 113 21.2031 113 20.9688 C 113 20.6563 112.9375 20.3906 112.8281 20.1406 C 112.7188 19.8906 112.5781 19.6875 112.3906 19.5156 C 112.2031 19.3594 111.9688 19.2344 111.7188 19.1406 C 111.4688 19.0469 111.2031 19 110.9531 19 C 110.1719 19 109.5 19.2188 108.9063 19.625 C 108.3125 20.0313 107.7969 20.5469 107.3281 21.1406 C 106.8594 21.7344 106.4219 22.4844 106.0156 23.3906 C 105.5938 24.2969 105.25 25.0313 104.9688 25.5781 L 104.7344 25.5781 C 104.7031 24.875 104.7188 24.0469 104.7969 23.0938 C 104.8594 22.1563 104.9063 21.4219 104.9063 20.9063 C 104.9063 20.4688 104.8906 20.125 104.875 19.875 C 104.8438 19.625 104.7813 19.4375 104.6875 19.3125 C 104.5938 19.1875 104.4375 19.0938 104.2344 19.0625 C 104.0313 19.0313 103.75 19 103.3906 19 C 103.0625 19 102.7969 19.0313 102.5781 19.0625 C 102.3594 19.0938 102.1719 19.1719 102.0313 19.2656 C 101.875 19.375 101.75 19.5156 101.6406 19.7031 C 101.5313 19.8906 101.4219 20.1406 101.3125 20.4531 C 101.125 20.9219 100.9531 21.5156 100.7656 22.2344 C 100.5853 22.9258 100.3782 23.7916 100.14 24.83 L 99.4219 23.9531 C 98.5469 22.8906 97.5938 22.0156 96.5781 21.3125 C 95.5625 20.6094 94.4531 20.0469 93.25 19.625 C 92.0469 19.2188 90.75 19 89.3438 19 C 87.7344 19 86.2969 19.2969 85.0156 19.875 C 83.7344 20.4531 82.6406 21.25 81.75 22.25 C 80.8594 23.25 80.1719 24.4375 79.7031 25.7969 C 79.2344 27.1719 79 28.7969 79 30.6719 C 79 31.5831 79.0805 32.4837 79.24 33.375 L 78.625 33.7344 C 78.1875 33.9844 77.7813 34.1875 77.375 34.375 C 76.9688 34.5625 76.5781 34.7188 76.2188 34.8281 C 75.8438 34.9531 75.5313 35 75.25 35 C 75.125 35 74.9844 34.9219 74.8438 34.7656 C 74.7031 34.6094 74.5781 34.3906 74.4531 34.1094 C 74.3281 33.8281 74.2188 33.5156 74.125 33.1719 C 74.0313 32.8281 74 32.4844 74 32.1094 L 74 31.8125 C 74.0469 31.5313 74.1094 31.25 74.1875 30.9531 L 74.4219 30.1094 C 74.5 29.8594 74.5781 29.6094 74.6719 29.375 C 74.75 29.1563 74.8281 28.9688 74.9219 28.8281 L 77.125 24.9375 C 77.875 23.6094 78.6094 22.2656 79.3594 20.8906 C 80.0938 19.5156 80.7969 18.1406 81.4844 16.75 C 82.1719 15.3594 82.7656 13.9688 83.2969 12.5781 C 83.8125 11.2031 84.2188 9.8281 84.5313 8.4531 C 84.8438 7.0781 85 5.7344 85 4.4063 C 85 3.875 84.9531 3.3438 84.875 2.8125 C 84.7813 2.2813 84.6406 1.8125 84.4375 1.3906 C 84.2344 0.9844 83.9531 0.6406 83.5938 0.3906 C 83.2344 0.1406 82.7813 0 82.2344 0 C 81.3594 0 80.4844 0.2656 79.6406 0.7813 C 78.7813 1.3125 77.9688 2.0156 77.1875 2.9219 C 76.4063 3.8281 75.6563 4.8906 74.9531 6.1094 C 74.2344 7.3281 73.5781 8.6406 72.9688 10.0469 C 72.3594 11.4531 71.7344 13.3594 71.1094 15.7656 C 70.4688 18.1719 70.1563 19.3281 70.1875 19.2344 L 69.6094 22.5 L 69.53 22.96 C 68.9108 22.3306 68.258 21.7832 67.5781 21.3125 C 66.5625 20.6094 65.4531 20.0469 64.25 19.625 C 63.0469 19.2188 61.75 19 60.3438 19 C 58.7344 19 57.2969 19.2969 56.0156 19.875 C 54.7344 20.4531 53.6406 21.25 52.75 22.25 C 51.8594 23.25 51.1719 24.4375 50.7031 25.7969 C 50.2344 27.1719 50 28.7969 50 30.6719 L 50.01 31.245 L 49.5938 31.6875 C 48.8438 32.4531 48.0625 33.1563 47.25 33.7969 C 46.4219 34.4375 45.6094 34.9688 44.7969 35.375 C 43.9844 35.7969 43.25 36 42.5781 36 C 41.8594 36 41.2656 35.8594 40.8125 35.5469 C 40.3594 35.25 39.9844 34.875 39.7031 34.4063 C 39.4219 33.9375 39.2344 33.4375 39.1406 32.875 C 39.0469 32.3281 39 31.7969 39 31.2813 C 39 30.9531 39.0156 30.5313 39.0469 30.0313 C 39.0781 29.5313 39.1406 29 39.2656 28.4375 C 39.3906 27.8906 39.5938 27.2031 39.8906 26.3906 C 40.1875 25.5781 40.4844 24.9531 40.7813 24.5 C 41.0781 24.0625 41.4375 23.7031 41.875 23.4219 C 42.2969 23.1406 42.8125 23 43.4063 23 C 43.6563 23 43.8125 23.125 43.8906 23.3438 C 43.9531 23.5625 44 23.8438 44 24.1875 C 44.0156 24.5938 44.0156 24.8438 43.9844 24.9531 C 43.7656 25.7813 43.625 26.2969 43.5938 26.5156 C 43.4531 26.9531 43.5313 27.4375 43.8438 27.9844 C 44.0313 28.3438 44.4375 28.5156 45.0938 28.5156 C 45.4844 28.5156 45.8438 28.4063 46.1563 28.1875 C 46.4688 27.9688 46.7969 27.5313 47.1406 26.9063 C 47.4844 26.2813 47.7031 25.7188 47.8281 25.25 C 47.9375 24.7813 48 24.3125 48 23.8281 C 48 23.1406 47.8594 22.5156 47.6094 21.9219 C 47.3438 21.3281 46.9844 20.8281 46.5313 20.3906 C 46.0781 19.9531 45.5313 19.625 44.8906 19.375 C 44.2344 19.125 43.5469 19 42.7969 19 C 41.8594 19 41.0156 19.1719 40.25 19.5156 C 39.4688 19.8594 38.7813 20.3281 38.1563 20.9063 C 37.5313 21.5 36.9688 22.1719 36.5 22.9531 C 36.0313 23.7344 35.625 24.5469 35.3125 25.3906 C 34.9844 26.25 34.6875 27.25 34.4063 28.3906 C 34.125 29.5313 34 30.5 34 31.3125 C 34 32.4531 34.1563 33.5469 34.4844 34.5938 C 34.8125 35.6563 35.2969 36.5781 35.9375 37.375 C 36.5781 38.1719 37.375 38.8125 38.3281 39.2813 C 39.2656 39.7656 40.375 40 41.625 40 C 42.3906 40 43.1406 39.8906 43.8594 39.6563 Z" fill="#313131"/>	<path d="M 144.1406 33.8438 C 143.5781 33.2813 142.7344 33 141.6406 33 C 141 33 140.4531 33.1094 139.9844 33.3281 C 139.5156 33.5469 139.1406 33.8281 138.8594 34.1719 C 138.5625 34.5313 138.3438 34.9375 138.2031 35.3906 C 138.0625 35.8594 138 36.3125 138 36.7813 C 138 37.3594 138.0781 37.8438 138.2344 38.25 C 138.3906 38.6563 138.625 38.9844 138.9063 39.2344 C 139.1875 39.5 139.5156 39.6875 139.9219 39.8125 C 140.3125 39.9375 140.7656 40 141.2656 40 C 141.8594 40 142.375 39.9219 142.7969 39.75 C 143.2188 39.5781 143.5781 39.3594 143.8594 39.0938 C 144.1406 38.8281 144.3438 38.5469 144.5 38.2344 C 144.6563 37.9219 144.7656 37.625 144.8594 37.3438 C 144.9531 37.0625 145 36.8281 145 36.6094 L 145 36.2188 C 145 35.1875 144.7031 34.4063 144.1406 33.8438 L 144.1406 33.8438 Z" fill="#313131"/></svg>