<?xml version="1.0" standalone="no"?><!-- Generator: Adobe Fireworks CS6, Export SVG Extension by Aaron Beall (http://fireworks.abeall.com) . Version: 0.6.1  --><!DOCTYPE svg PUBLIC "-//W3C//DTD SVG 1.1//EN" "http://www.w3.org/Graphics/SVG/1.1/DTD/svg11.dtd"><svg id="Untitled-Page%201" viewBox="0 0 20 26" style="background-color:#ffffff00" version="1.1"	xmlns="http://www.w3.org/2000/svg" xmlns:xlink="http://www.w3.org/1999/xlink" xml:space="preserve"	x="0px" y="0px" width="20px" height="26px">	<path d="M 20 10.0315 C 20 4.4016 15.3535 0 10 0 C 4.5959 0 0 4.4016 0 10.0315 C 0 14.8937 5.8586 21.8031 10.202 26 C 14.2424 21.9055 20 14.7401 20 10.0315 ZM 17.3232 9.9803 C 17.3232 13.5118 12.7273 19.1929 10.1515 22.1614 C 7.0707 18.937 4.1919 15.3031 3.0303 12.0276 C 2.8788 11.5157 2.6768 10.5945 2.6768 10.4921 L 2.6768 9.5197 C 3.1313 5.1182 6.6161 2.6614 10 2.6614 C 13.9394 2.6614 17.3232 5.937 17.3232 9.9803 ZM 6.8687 10.3386 C 6.8687 12.0912 8.2706 13.5118 10 13.5118 C 11.7294 13.5118 13.1313 12.0912 13.1313 10.3386 C 13.1313 8.5861 11.7294 7.1654 10 7.1654 C 8.2706 7.1654 6.8687 8.5861 6.8687 10.3386 Z" fill="#ffffff"/></svg>