<svg xmlns="http://www.w3.org/2000/svg" viewBox="0 0 437.59 437.59" width="512" height="512"><g fill="#FFF"><path d="M109.025 34.262h39.542a5.5 5.5 0 1 0 0-11h-39.542a5.5 5.5 0 1 0 0 11zm19.771 349.509c-9.885 0-17.927 8.042-17.927 17.928s8.042 17.927 17.927 17.927 17.927-8.042 17.927-17.927-8.042-17.928-17.927-17.928zm0 24.855c-3.82 0-6.927-3.107-6.927-6.927s3.107-6.928 6.927-6.928 6.927 3.108 6.927 6.928-3.108 6.927-6.927 6.927zM59.88 129.163h69.481a5.5 5.5 0 1 0 0-11H59.88a5.5 5.5 0 1 0 0 11zm0 99.42h69.481a5.5 5.5 0 1 0 0-11H59.88a5.5 5.5 0 1 0 0 11zm98.855 9.335H59.88a5.5 5.5 0 1 0 0 11h98.855a5.5 5.5 0 1 0 0-11z"/><path d="M425.405 218.522a5.5 5.5 0 0 0 5.5-5.5V72.09a5.5 5.5 0 0 0-5.5-5.5h-174.5V22.91c0-12.633-10.277-22.91-22.91-22.91h-198.4C16.962 0 6.685 10.277 6.685 22.91v391.77c0 12.632 10.277 22.91 22.91 22.91h198.4c12.633 0 22.91-10.277 22.91-22.91v-81.829h174.5a5.5 5.5 0 0 0 5.5-5.5V244.3a5.5 5.5 0 0 0-5.5-5.5h-174.5v-20.278h174.5zm-5.5-11H179.349V77.59h240.556v129.932zm-246.056 31.279a5.5 5.5 0 0 0-5.5 5.5v29.909H43.345V183.3h125.004v13.947H59.88a5.5 5.5 0 1 0 0 11h108.469v4.776a5.5 5.5 0 0 0 5.5 5.5h40.396v20.278h-40.396zm0 94.051h40.396v9.269h-170.9v-37.17h125.004v22.401a5.5 5.5 0 0 0 5.5 5.5zm-5.5-235.025H59.88a5.5 5.5 0 1 0 0 11h108.469V153.1H43.345V84.88h125.004v12.947zM29.595 11h198.4c6.567 0 11.91 5.343 11.91 11.91v29.062H17.685V22.91c0-6.567 5.343-11.91 11.91-11.91zm198.4 415.59h-198.4c-6.567 0-11.91-5.343-11.91-11.91v-38.098h222.22v38.098c0 6.567-5.343 11.91-11.91 11.91zm11.91-61.007H17.685V62.972h222.22v3.618h-66.056a5.5 5.5 0 0 0-5.5 5.5v1.79H37.845a5.5 5.5 0 0 0-5.5 5.5v79.22a5.5 5.5 0 0 0 5.5 5.5h130.504v8.2H37.845a5.5 5.5 0 0 0-5.5 5.5v101.91a5.5 5.5 0 0 0 5.5 5.5h130.504v8.74H37.845a5.5 5.5 0 0 0-5.5 5.5v48.17a5.5 5.5 0 0 0 5.5 5.5h181.9a5.5 5.5 0 0 0 5.5-5.5v-14.769h14.66v32.732zm180-43.731H179.349v-72.051h240.556v72.051zm-180-83.051h-14.66v-20.278h14.66v20.278z"/><path d="M204.317 112.086h190.62a5.5 5.5 0 1 0 0-11h-190.62a5.5 5.5 0 1 0 0 11zm0 28.124h96.091a5.5 5.5 0 1 0 0-11h-96.091a5.5 5.5 0 1 0 0 11zm0 135.256h190.62a5.5 5.5 0 1 0 0-11h-190.62a5.5 5.5 0 1 0 0 11zm0 28.124h96.091a5.5 5.5 0 1 0 0-11h-96.091a5.5 5.5 0 1 0 0 11zm0-135.256h136.715a5.5 5.5 0 1 0 0-11H204.317a5.5 5.5 0 1 0 0 11zm-87.384 149.798H59.88a5.5 5.5 0 1 0 0 11h57.053a5.5 5.5 0 1 0 0-11z"/></g></svg>