<svg xmlns="http://www.w3.org/2000/svg" width="512" height="512" viewBox="0 0 511.627 511.627"><g fill="#6cb9e6"><path d="M451.385 5.424C447.768 1.809 443.486 0 438.538 0H73.089c-4.952 0-9.233 1.809-12.85 5.424-3.615 3.617-5.424 7.898-5.424 12.847v475.082c0 4.952 1.809 9.233 5.424 12.851 3.621 3.617 7.902 5.424 12.85 5.424h365.449c4.948 0 9.233-1.807 12.847-5.424 3.61-3.617 5.428-7.898 5.428-12.851V18.271c-.004-4.948-1.811-9.229-5.428-12.847zm-31.121 469.661H310.632v-63.953c0-2.478-.907-4.62-2.707-6.427-1.817-1.807-3.949-2.711-6.427-2.711h-91.367c-2.474 0-4.615.904-6.423 2.711-1.807 1.807-2.712 3.949-2.712 6.427v63.953H91.36V36.542h328.904v438.543z"/><path d="M137.042 401.994h18.271c2.474 0 4.616-.899 6.423-2.71 1.809-1.813 2.714-3.949 2.714-6.427v-18.274c0-2.471-.905-4.609-2.714-6.42-1.807-1.807-3.949-2.71-6.423-2.71h-18.271c-2.474 0-4.615.903-6.423 2.71-1.809 1.811-2.712 3.949-2.712 6.42v18.274c0 2.478.903 4.613 2.712 6.427 1.809 1.807 3.949 2.71 6.423 2.71zm0-73.09h18.271c2.474 0 4.616-.904 6.423-2.711 1.809-1.813 2.714-3.949 2.714-6.427v-18.274c0-2.471-.905-4.616-2.714-6.42-1.807-1.807-3.949-2.71-6.423-2.71h-18.271c-2.474 0-4.615.903-6.423 2.71-1.809 1.804-2.712 3.949-2.712 6.42v18.274c0 2.478.903 4.613 2.712 6.427 1.809 1.807 3.949 2.711 6.423 2.711zm73.093 0h18.272c2.473 0 4.615-.904 6.423-2.711 1.807-1.813 2.712-3.949 2.712-6.427v-18.274c0-2.471-.909-4.613-2.712-6.42-1.809-1.807-3.951-2.71-6.423-2.71h-18.272c-2.474 0-4.615.903-6.423 2.71-1.807 1.807-2.712 3.949-2.712 6.42v18.274c0 2.478.905 4.613 2.712 6.427 1.808 1.807 3.949 2.711 6.423 2.711zm-73.093-73.091h18.271c2.474 0 4.616-.903 6.423-2.712 1.809-1.809 2.714-3.949 2.714-6.424v-18.271c0-2.475-.905-4.617-2.714-6.424-1.807-1.809-3.949-2.712-6.423-2.712h-18.271c-2.474 0-4.615.903-6.423 2.712-1.809 1.807-2.712 3.949-2.712 6.424v18.271c0 2.475.903 4.615 2.712 6.424s3.949 2.712 6.423 2.712zm219.269 146.181h18.274c2.478 0 4.616-.899 6.427-2.71 1.811-1.813 2.707-3.949 2.707-6.427v-18.274c0-2.471-.903-4.609-2.707-6.42-1.811-1.807-3.949-2.71-6.427-2.71h-18.274c-2.471 0-4.613.903-6.42 2.71-1.811 1.811-2.711 3.949-2.711 6.42v18.274c0 2.478.9 4.613 2.711 6.427 1.803 1.807 3.949 2.71 6.42 2.71zm-73.087-73.09h18.274c2.478 0 4.613-.904 6.427-2.711 1.8-1.813 2.703-3.949 2.703-6.427v-18.274c0-2.471-.903-4.613-2.703-6.42-1.813-1.807-3.949-2.71-6.427-2.71h-18.274c-2.471 0-4.62.903-6.427 2.71-1.801 1.807-2.711 3.949-2.711 6.42v18.274c0 2.478.907 4.613 2.711 6.427 1.813 1.807 3.956 2.711 6.427 2.711zm-73.089-73.091h18.272c2.473 0 4.615-.903 6.423-2.712 1.807-1.809 2.712-3.949 2.712-6.424v-18.271c0-2.475-.909-4.613-2.712-6.424-1.809-1.809-3.951-2.712-6.423-2.712h-18.272c-2.474 0-4.615.903-6.423 2.712-1.807 1.807-2.712 3.949-2.712 6.424v18.271c0 2.475.905 4.615 2.712 6.424 1.808 1.809 3.949 2.712 6.423 2.712zm-73.093-73.088h18.271c2.474 0 4.616-.905 6.423-2.712 1.809-1.809 2.714-3.946 2.714-6.423v-18.271c0-2.474-.905-4.62-2.714-6.423-1.807-1.809-3.949-2.714-6.423-2.714h-18.271c-2.474 0-4.615.905-6.423 2.714-1.809 1.807-2.712 3.949-2.712 6.423v18.271c0 2.474.903 4.615 2.712 6.423 1.809 1.806 3.949 2.712 6.423 2.712zm219.269 146.179h18.274c2.478 0 4.616-.904 6.427-2.711 1.811-1.813 2.707-3.949 2.707-6.427v-18.274c0-2.471-.903-4.613-2.707-6.42-1.811-1.807-3.949-2.71-6.427-2.71h-18.274c-2.471 0-4.613.903-6.42 2.71-1.811 1.804-2.711 3.949-2.711 6.42v18.274c0 2.478.9 4.613 2.711 6.427 1.803 1.807 3.949 2.711 6.42 2.711zm-73.087-73.091h18.274c2.478 0 4.613-.903 6.427-2.712 1.8-1.809 2.703-3.949 2.703-6.424v-18.271c0-2.475-.903-4.613-2.703-6.424-1.813-1.809-3.949-2.712-6.427-2.712h-18.274c-2.471 0-4.62.903-6.427 2.712-1.801 1.807-2.711 3.949-2.711 6.424v18.271c0 2.475.907 4.615 2.711 6.424 1.813 1.809 3.956 2.712 6.427 2.712zm-73.089-73.088h18.272c2.473 0 4.615-.905 6.423-2.712 1.807-1.809 2.712-3.946 2.712-6.423v-18.271c0-2.474-.909-4.62-2.712-6.423-1.809-1.809-3.951-2.714-6.423-2.714h-18.272c-2.474 0-4.615.905-6.423 2.714-1.807 1.807-2.712 3.949-2.712 6.423v18.271c0 2.474.905 4.615 2.712 6.423 1.808 1.806 3.949 2.712 6.423 2.712zm-73.093-73.093h18.271c2.474 0 4.616-.905 6.423-2.713 1.809-1.807 2.714-3.949 2.714-6.424v-18.27c0-2.475-.905-4.615-2.714-6.424-1.807-1.807-3.949-2.712-6.423-2.712h-18.271c-2.474 0-4.615.905-6.423 2.712-1.809 1.809-2.712 3.949-2.712 6.424v18.271c0 2.475.903 4.617 2.712 6.424 1.809 1.808 3.949 2.712 6.423 2.712zm219.269 146.181h18.274c2.478 0 4.616-.903 6.427-2.712s2.707-3.949 2.707-6.424v-18.271c0-2.475-.903-4.613-2.707-6.424-1.811-1.809-3.949-2.712-6.427-2.712h-18.274c-2.471 0-4.613.903-6.42 2.712-1.811 1.807-2.711 3.949-2.711 6.424v18.271c0 2.475.9 4.615 2.711 6.424 1.803 1.809 3.949 2.712 6.42 2.712zm-73.087-73.088h18.274c2.478 0 4.613-.905 6.427-2.712 1.8-1.809 2.703-3.946 2.703-6.423v-18.271c0-2.474-.903-4.62-2.703-6.423-1.813-1.809-3.949-2.714-6.427-2.714h-18.274c-2.471 0-4.613.905-6.427 2.714-1.801 1.807-2.711 3.949-2.711 6.423v18.271c0 2.474.907 4.615 2.711 6.423 1.813 1.806 3.956 2.712 6.427 2.712zm-73.089-73.093h18.272c2.473 0 4.615-.905 6.423-2.713 1.807-1.807 2.712-3.949 2.712-6.424v-18.27c0-2.475-.909-4.615-2.712-6.424-1.809-1.807-3.951-2.712-6.423-2.712h-18.272c-2.474 0-4.615.905-6.423 2.712C201.905 77.61 201 79.75 201 82.225v18.271c0 2.475.905 4.617 2.712 6.424 1.808 1.808 3.949 2.712 6.423 2.712zm146.176 73.093h18.274c2.478 0 4.616-.905 6.427-2.712 1.811-1.809 2.707-3.946 2.707-6.423v-18.271c0-2.474-.903-4.62-2.707-6.423-1.811-1.809-3.949-2.714-6.427-2.714h-18.274c-2.471 0-4.613.905-6.42 2.714-1.811 1.807-2.711 3.949-2.711 6.423v18.271c0 2.474.9 4.615 2.711 6.423 1.803 1.806 3.949 2.712 6.42 2.712zm-73.087-73.093h18.274c2.478 0 4.613-.905 6.427-2.713 1.8-1.807 2.703-3.949 2.703-6.424v-18.27c0-2.475-.903-4.615-2.703-6.424-1.813-1.807-3.949-2.712-6.427-2.712h-18.274c-2.471 0-4.62.905-6.427 2.712-1.801 1.809-2.711 3.949-2.711 6.424v18.271c0 2.475.907 4.617 2.711 6.424 1.813 1.808 3.956 2.712 6.427 2.712zm73.087 0h18.274c2.478 0 4.616-.905 6.427-2.713 1.811-1.807 2.707-3.949 2.707-6.424v-18.27c0-2.475-.903-4.615-2.707-6.424-1.811-1.807-3.949-2.712-6.427-2.712h-18.274c-2.471 0-4.613.905-6.42 2.712-1.811 1.809-2.711 3.949-2.711 6.424v18.271c0 2.475.9 4.617 2.711 6.424 1.803 1.808 3.949 2.712 6.42 2.712z"/></g></svg>