<svg xmlns="http://www.w3.org/2000/svg" viewBox="0 0 512.001 512.001"><path d="M247.173 35.31h211.862c19.421 0 35.31 15.89 35.31 35.31v123.586c0 19.421-15.89 35.31-35.31 35.31H344.276v33.482c0 3.933-4.755 5.901-7.534 3.121l-36.604-36.602h-52.966c-19.421 0-35.31-15.89-35.31-35.31V70.621c.001-19.421 15.89-35.311 35.311-35.311z" fill="#c7cfe2"/><path d="M449.906 105.931H317.794V88.276h70.321c4.701 0 8.804-3.548 9.109-8.238a8.827 8.827 0 0 0-8.809-9.417h-70.621V35.31h-17.655v123.586c0 19.421-15.89 35.31-35.31 35.31h-52.966c0 6.452 1.88 12.436 4.935 17.655h48.031c29.205 0 52.966-23.761 52.966-52.966h35.037c4.424 0 8.377-3.138 9.007-7.518a8.83 8.83 0 0 0-8.734-10.137h-35.31v-17.655h132.414a8.827 8.827 0 0 0 8.809-9.417c-.306-4.689-4.41-8.237-9.112-8.237z" fill="#afb9d2"/><path d="M450.207 88.276h-26.483a8.826 8.826 0 0 1-8.828-8.828 8.826 8.826 0 0 1 8.828-8.828h26.483a8.826 8.826 0 0 1 8.828 8.828 8.826 8.826 0 0 1-8.828 8.828zm0 70.621h-61.793a8.826 8.826 0 0 1-8.828-8.828 8.826 8.826 0 0 1 8.828-8.828h61.793a8.826 8.826 0 0 1 8.828 8.828 8.826 8.826 0 0 1-8.828 8.828z" fill="#959cb3"/><path d="M450.207 194.207H326.621a8.826 8.826 0 0 1-8.828-8.828 8.826 8.826 0 0 1 8.828-8.828h123.586a8.826 8.826 0 0 1 8.828 8.828 8.826 8.826 0 0 1-8.828 8.828z" fill="#afb9d2"/><path d="M264.828 0H52.966c-19.421 0-35.31 15.89-35.31 35.31v123.586c0 19.421 15.89 35.31 35.31 35.31h114.759v33.482c0 3.933 4.755 5.901 7.534 3.121l36.604-36.602h52.966c19.421 0 35.31-15.89 35.31-35.31V35.31C300.138 15.89 284.249 0 264.828 0z" fill="#e4eaf6"/><path d="M88.276 52.966H61.794c-4.879 0-8.828-3.953-8.828-8.828s3.948-8.828 8.828-8.828h26.483c4.879 0 8.828 3.953 8.828 8.828s-3.949 8.828-8.829 8.828z" fill="#afb9d2"/><path d="M256.001 52.966H123.587c-4.879 0-8.828-3.953-8.828-8.828s3.948-8.828 8.828-8.828h132.414c4.879 0 8.828 3.953 8.828 8.828s-3.949 8.828-8.828 8.828zm0 35.31H61.794a8.826 8.826 0 0 1-8.828-8.828 8.826 8.826 0 0 1 8.828-8.828h194.207a8.826 8.826 0 0 1 8.828 8.828 8.827 8.827 0 0 1-8.828 8.828z" fill="#c7cfe2"/><path d="M256.001 123.586h-26.483a8.826 8.826 0 0 1-8.828-8.828 8.826 8.826 0 0 1 8.828-8.828h26.483a8.826 8.826 0 0 1 8.828 8.828 8.826 8.826 0 0 1-8.828 8.828z" fill="#afb9d2"/><path d="M194.207 123.586H61.794a8.826 8.826 0 0 1-8.828-8.828 8.826 8.826 0 0 1 8.828-8.828h132.414a8.826 8.826 0 0 1 8.828 8.828 8.826 8.826 0 0 1-8.829 8.828zm61.794 35.311H61.794a8.826 8.826 0 0 1-8.828-8.828 8.826 8.826 0 0 1 8.828-8.828h194.207a8.826 8.826 0 0 1 8.828 8.828 8.827 8.827 0 0 1-8.828 8.828z" fill="#c7cfe2"/><path fill="#e6af78" d="M169.083 442.738v-28.52H95.746v28.52l36.668 32.593z"/><path d="M225.78 456.078l-50.415-11.862a8.062 8.062 0 0 1-2.116-.852l-40.834 23.818-39.243-24.972a8.104 8.104 0 0 1-3.709 2.004l-50.415 11.862a16.3 16.3 0 0 0-12.565 15.865v31.91A8.15 8.15 0 0 0 34.632 512h195.565a8.15 8.15 0 0 0 8.149-8.149v-31.91a16.298 16.298 0 0 0-12.566-15.863z" fill="#eff2fa"/><path d="M95.746 414.218v30.091c46.193 16.642 73.337-25.01 73.337-25.01v-5.081H95.746z" fill="#d29b6e"/><path d="M79.449 320.509L83 398.618a24.449 24.449 0 0 0 9.753 18.446l16.846 12.634a24.444 24.444 0 0 0 14.667 4.889h16.297a24.448 24.448 0 0 0 14.667-4.889l16.846-12.634a24.445 24.445 0 0 0 9.753-18.446l3.55-78.11H79.449z" fill="#f0c087"/><path d="M120.191 336.807c16.297 0 40.743-4.074 46.541-16.297H79.449l3.55 78.11a24.449 24.449 0 0 0 9.753 18.446l16.846 12.635a24.444 24.444 0 0 0 14.667 4.889h8.149c-8.149 0-24.446-16.297-24.446-36.669v-48.892c.001-4.075 4.074-12.222 12.223-12.222z" fill="#e6af78"/><path d="M208.435 485.558l26.401-23.716a16.272 16.272 0 0 1 3.51 10.1v31.91a8.15 8.15 0 0 1-8.149 8.149h-28.52v-11.287a20.371 20.371 0 0 1 6.758-15.156zm-152.042 0l-26.401-23.716a16.272 16.272 0 0 0-3.51 10.1v31.91a8.15 8.15 0 0 0 8.149 8.149h28.52v-11.287a20.364 20.364 0 0 0-6.758-15.156z" fill="#e4eaf6"/><path fill="#5b5d6e" d="M142.6 512h-20.372l2.547-36.669h15.279z"/><path d="M142.6 467.182h-20.372v2.354c0 5.451 4.418 9.869 9.869 9.869h.632c5.451 0 9.869-4.418 9.869-9.869v-2.354h.002z" fill="#515262"/><path d="M95.174 433.666l37.24 33.516s-10.43 5.265-23.3 15.876c-2.655 2.189-6.671 1.302-8.095-1.831l-17.496-38.492 5.535-8.302a4.075 4.075 0 0 1 6.116-.767zm74.481 0l-37.24 33.516s10.43 5.265 23.3 15.876c2.655 2.189 6.671 1.302 8.095-1.831l17.496-38.492-5.535-8.302a4.075 4.075 0 0 0-6.116-.767z" fill="#e4eaf6"/><path d="M157.115 293.517l3.82 26.993c17.436 3.487 19.948 30.849 20.31 38.665a8.045 8.045 0 0 0 1.288 3.981l6.653 10.319s-2.278-17.062 8.149-28.52c-.001-.001 3.578-67.735-40.22-51.438z" fill="#785550"/><path d="M193.273 371.731l-4.601 18.404a4.898 4.898 0 0 1-9.614-.58l-2.353-18.824c-.629-5.034 3.296-9.48 8.369-9.48h.017c5.486.001 9.513 5.157 8.182 10.48z" fill="#f0c087"/><path d="M83.353 286.218l6.027 4.116c-27.246 20.117-22.154 54.621-22.154 54.621 8.149 8.149 8.149 28.52 8.149 28.52l8.149-8.149s-3.145-23.539 12.223-32.594c14.26-8.403 26.738-4.074 39.469-4.074 34.122 0 43.671-12.86 42.016-28.52-.856-8.104-13.246-24.982-44.817-24.446-12.742.216-36.669 4.074-49.062 10.526z" fill="#694b4b"/><path d="M80.977 325.092s-4.329-17.062 8.403-34.759c-27.246 20.117-22.154 54.621-22.154 54.621 8.149 8.149 8.149 28.52 8.149 28.52l8.149-8.149s-3.145-23.539 12.223-32.594c14.26-8.403 26.738-4.074 39.469-4.074 5.549 0 10.386-.372 14.692-1.009-26.279.883-41.77-19.022-68.931-2.556z" fill="#5a4146"/><path d="M71.556 371.731l4.601 18.404a4.898 4.898 0 0 0 9.614-.58l2.353-18.824c.629-5.034-3.296-9.48-8.369-9.48h-.017c-5.486.001-9.513 5.157-8.182 10.48z" fill="#e6af78"/><path d="M181.306 503.851h-20.372a8.15 8.15 0 0 0-8.149 8.149h36.669a8.148 8.148 0 0 0-8.148-8.149z" fill="#e4eaf6"/><path d="M361.932 278.328c-82.191 0-73.078 99.95-72.703 172.382.014 2.735 1.447 5.202 3.79 6.614 9.108 5.491 34.121 18.327 68.913 18.327s59.805-12.836 68.913-18.327c2.343-1.412 3.776-3.879 3.79-6.614.375-72.43 9.488-172.382-72.703-172.382z" fill="#694b4b"/><path d="M356.636 278.535c-76.441 4.286-67.774 101.356-67.407 172.175.014 2.735 1.447 5.202 3.79 6.614 9.108 5.491 34.121 18.327 68.913 18.327l20.771-145.396" fill="#5a4146"/><path d="M361.932 278.328c-46.734 0-49.98 56.47-49.98 56.47 26.937-4.544 43.489 6.815 70.751-4.544l-20.771 145.397c34.793 0 59.805-12.836 68.913-18.327 2.343-1.412 3.776-3.879 3.79-6.614.375-72.43 9.488-172.382-72.703-172.382z" fill="#694b4b"/><path d="M434.634 450.71c.322-62.239 7.041-144.738-43.209-166.74-.876 4.553-2.464 17.263 1.662 25.514 10.386 20.771 20.771 20.771 31.156 36.349 10.386 57.12-19.843 117.746-29.884 125.999 17.789-4.231 30.54-10.925 36.484-14.508 2.344-1.412 3.777-3.878 3.791-6.614z" fill="#785550"/><path d="M440.621 466.464l-46.335-19.306a10.385 10.385 0 0 1-6.391-9.587v-12.548h-51.927v12.548c0 4.193-2.521 7.975-6.391 9.587l-46.335 19.306a15.578 15.578 0 0 0-9.587 14.38v20.771c0 5.736 4.65 10.386 10.386 10.386h155.78c5.736 0 10.386-4.65 10.386-10.386v-20.771c0-6.29-3.781-11.961-9.586-14.38z" fill="#e6af78"/><path d="M440.621 466.464l-44.8-18.667-33.889 14.626-33.889-14.626-44.8 18.667a15.578 15.578 0 0 0-9.587 14.38v20.771c0 5.736 4.65 10.386 10.386 10.386h155.78c5.736 0 10.386-4.65 10.386-10.386v-20.771a15.58 15.58 0 0 0-9.587-14.38z" fill="#b4e1fa"/><path d="M387.895 425.022h-51.927v12.548c0 4.193-2.521 7.975-6.391 9.587l-7.236 3.016c55.379 14.121 65.554-25.151 65.554-25.151z" fill="#d29b6e"/><g fill="#a0d2f0"><path d="M298.966 486.552l-20.843-16.579c-2.793 2.856-4.467 6.718-4.467 10.871v20.771c0 5.736 4.65 10.386 10.386 10.386h20.771v-13.283a15.583 15.583 0 0 0-5.847-12.166zm151.241 15.062v-20.771c0-4.121-1.646-7.957-4.399-10.806l-20.91 16.514a15.578 15.578 0 0 0-5.846 12.164V512h20.771c5.735 0 10.384-4.65 10.384-10.386zm-87.496 0h-1.558a4.414 4.414 0 0 1-4.414-4.414v-34.765h10.386V497.2a4.415 4.415 0 0 1-4.414 4.414z"/><path d="M361.932 462.423l-29.72-22.29a4.154 4.154 0 0 0-5.949 1.018l-5.873 8.809 18.221 25.51a4.155 4.155 0 0 0 5.975.83l17.346-13.877zm0 0l29.72-22.29a4.154 4.154 0 0 1 5.949 1.018l5.873 8.809-18.221 25.51a4.155 4.155 0 0 1-5.975.83l-17.346-13.877z"/></g><path d="M387.895 325.063c-25.963 25.963-76.917 5.193-76.917 46.734l3.224 30.6a20.771 20.771 0 0 0 10.598 16.277l29.566 16.425a15.576 15.576 0 0 0 15.13 0l29.566-16.425a20.771 20.771 0 0 0 10.598-16.277l3.722-36.342c.265-2.583.321-5.182.234-7.774-1.942-13.218-20.529-22.833-25.721-33.218z" fill="#f0c087"/><path d="M310.978 371.797l3.224 30.6a20.771 20.771 0 0 0 10.598 16.277l29.566 16.425c3.265 1.814 7.009 2.283 10.573 1.58 0 0-14.906-4.518-23.778-28.533-2.718-7.357-6.49-46.302-3.245-51.062 6.415-9.408 42.19-10.386 52.761-27.839a29.216 29.216 0 0 1-1.444-1.947c-.035-.052-.078-.105-.114-.158a20.04 20.04 0 0 1-1.224-2.078c-25.963 25.965-76.917 5.193-76.917 46.735z" fill="#e6af78"/><path d="M399.838 501.614h-13.501a8.829 8.829 0 0 0-8.828 8.828V512h31.156v-1.558a8.827 8.827 0 0 0-8.827-8.828z" fill="#a0d2f0"/></svg>