<svg xmlns="http://www.w3.org/2000/svg" baseProfile="full" width="2135.57" height="589.875" viewBox="0 0 2135.57 589.87"><ellipse fill="#549AFC" cx="305.812" cy="301.121" rx="211.073" ry="211.073"/><ellipse fill="#F8F8F8" cx="237.396" cy="312.805" rx="13.244" ry="12.494"/><ellipse fill="#F8F8F8" cx="196.666" cy="312.555" rx="13.244" ry="12.494"/><ellipse fill="#F8F8F8" cx="216.656" cy="350.036" rx="13.244" ry="12.494"/><ellipse fill="#F8F8F8" cx="260.135" cy="350.536" rx="13.244" ry="12.494"/><ellipse fill="#F8F8F8" cx="173.177" cy="350.036" rx="13.244" ry="12.494"/><path fill="#F8F8F8" d="M195.666 376.024c7.314 0 13.244 5.594 13.244 12.494 0 6.9-5.93 12.494-13.244 12.494s-13.243-5.594-13.243-12.494c0-6.9 5.929-12.494 13.243-12.494zm42.48 0c7.314 0 13.243 5.594 13.243 12.494 0 6.9-5.929 12.494-13.243 12.494-7.315 0-13.244-5.594-13.244-12.494 0-6.9 5.929-12.494 13.244-12.494z"/><path fill="#FFF" fill-opacity=".976" d="M287.74 366.922l-.024 24.669 118.046-.039s49.899-8.902 50.763-60.807c.462-27.775-23.989-46.821-25.238-49.07-1.249-2.249 3.564-34.01-23.98-55.06-32.859-25.113-62.79-10.377-65.289-11.126-2.499-.75-22.137-29.043-60.275-27.856-70.486 2.194-76.994 64.938-78.025 69.81-.303 1.435-19.48 8.912-27.845 26.286-.893 1.855 25.199 2.328 30.985.75 2.749-.75 5.954-6.941 20.99-10.495.999-.236-8.356-38.92 32.312-56.537 47.622-20.629 73.102 27.186 72.527 35.233-.187 2.624 16.778-26.447 50.975-11.619 31.104 13.486 23.233 54.278 18.741 54.536-3.907.224 30.897 7.907 29.049 37.482-1.874 29.985-29.986 34.483-33.436 34.11-4.534-.49-110.026-.267-110.276-.267z"/><path d="M658.557 404.755c-12.384 0-23.253-1.923-32.609-5.768-9.356-3.846-17.228-9.22-23.617-16.123-6.388-6.904-11.157-15.109-14.306-24.616-3.149-9.507-4.723-20.014-4.723-31.519 0-11.536 1.71-22.103 5.132-31.701 3.421-9.598 8.265-17.902 14.533-24.911 6.267-7.009 13.958-12.482 23.072-16.418 9.113-3.936 19.241-5.904 30.383-5.904a122.4 122.4 0 0 1 20.551 1.748c6.858 1.166 13.421 3.005 19.688 5.518l-6.358 22.345c-4.208-1.938-9.076-3.482-14.601-4.632-5.526-1.151-11.407-1.726-17.645-1.726-15.714 0-27.742 4.738-36.083 14.215-8.342 9.477-12.513 23.299-12.513 41.466 0 8.114.962 15.547 2.884 22.299 1.923 6.752 4.958 12.55 9.107 17.395 4.148 4.844 9.454 8.568 15.918 11.172 6.464 2.604 14.359 3.906 23.685 3.906 7.478 0 14.253-.681 20.324-2.044 6.07-1.362 10.817-2.815 14.238-4.36l3.951 22.073c-1.574.969-3.838 1.892-6.79 2.77-2.952.878-6.297 1.658-10.037 2.339a183.167 183.167 0 0 1-11.944 1.749c-4.224.484-8.304.727-12.24.727zm115.722-2.907c-16.562-.394-28.31-3.906-35.244-10.537-6.933-6.631-10.4-16.971-10.4-31.019V182.576l26.16-4.541v177.034c0 4.36.401 7.955 1.203 10.786.803 2.831 2.097 5.094 3.883 6.79 1.787 1.695 4.171 2.967 7.154 3.815 2.982.848 6.653 1.559 11.013 2.135l-3.769 23.253zm166.542-75.573c0 11.868-1.748 22.594-5.245 32.177-3.497 9.583-8.41 17.826-14.738 24.73-6.328 6.903-13.867 12.224-22.617 15.964-8.751 3.739-18.288 5.609-28.613 5.609s-19.862-1.87-28.612-5.609c-8.751-3.74-16.29-9.061-22.618-15.964-6.328-6.904-11.24-15.147-14.738-24.73-3.497-9.583-5.245-20.309-5.245-32.177 0-11.688 1.748-22.368 5.245-32.042 3.498-9.674 8.41-17.962 14.738-24.866 6.328-6.903 13.867-12.224 22.618-15.963 8.75-3.74 18.287-5.609 28.612-5.609s19.862 1.869 28.613 5.609c8.75 3.739 16.289 9.06 22.617 15.963 6.328 6.904 11.241 15.192 14.738 24.866s5.245 20.354 5.245 32.042zm-26.16 0c0-16.956-4.034-30.399-12.103-40.33-8.069-9.932-19.052-14.897-32.95-14.897-13.897 0-24.881 4.965-32.95 14.897-8.069 9.931-12.103 23.374-12.103 40.33 0 16.955 4.034 30.398 12.103 40.33 8.069 9.931 19.053 14.896 32.95 14.896 13.898 0 24.881-4.965 32.95-14.896 8.069-9.932 12.103-23.375 12.103-40.33zm183.119 70.94c-6.05 1.545-14.05 3.187-23.98 4.928s-21.42 2.612-34.47 2.612c-11.35 0-20.91-1.696-28.66-5.087s-13.994-8.175-18.732-14.352c-4.739-6.176-8.145-13.473-10.219-21.891-2.074-8.417-3.111-17.758-3.111-28.022v-84.702h26.162v79.252c0 18.439 2.85 31.641 8.56 39.604 5.71 7.963 15.33 11.944 28.86 11.944 2.85 0 5.8-.098 8.86-.295 3.06-.197 5.92-.439 8.58-.727 2.67-.287 5.1-.575 7.29-.863 2.2-.287 3.76-.628 4.7-1.021V250.701h26.16v146.514zm145.33-114.54c-3.45-2.725-8.41-5.344-14.89-7.858-6.48-2.513-13.57-3.769-21.26-3.769-8.08 0-15.01 1.408-20.77 4.224-5.77 2.815-10.48 6.691-14.13 11.626-3.65 4.936-6.28 10.794-7.9 17.577-1.62 6.782-2.43 14.048-2.43 21.8 0 17.621 4.55 31.231 13.67 40.829 9.11 9.598 21.25 14.397 36.42 14.397 7.69 0 14.12-.34 19.28-1.022 5.16-.681 9.17-1.4 12.01-2.157v-95.647zm0-100.053l26.16-4.587v218.862c-6.23 1.757-14.21 3.505-23.93 5.246-9.72 1.741-20.91 2.612-33.56 2.612-11.69 0-22.2-1.825-31.54-5.473-9.35-3.649-17.32-8.841-23.94-15.578-6.61-6.737-11.72-14.965-15.33-24.684-3.6-9.719-5.4-20.634-5.4-32.745 0-11.536 1.52-22.111 4.56-31.724 3.05-9.613 7.51-17.887 13.4-24.82 5.89-6.934 13.11-12.323 21.66-16.169 8.56-3.845 18.33-5.767 29.32-5.767 8.84 0 16.65 1.165 23.44 3.497 6.78 2.331 11.83 4.556 15.16 6.676v-75.346zm98.83 75.346c3.33-2.12 8.39-4.345 15.17-6.676 6.78-2.332 14.59-3.497 23.44-3.497 10.99 0 20.76 1.922 29.31 5.767 8.56 3.846 15.78 9.235 21.67 16.169 5.88 6.933 10.35 15.207 13.39 24.82 3.05 9.613 4.57 20.188 4.57 31.724 0 12.111-1.8 23.026-5.41 32.745-3.6 9.719-8.71 17.947-15.32 24.684-6.62 6.737-14.6 11.929-23.94 15.578-9.34 3.648-19.85 5.473-31.54 5.473-12.66 0-23.84-.871-33.56-2.612-9.72-1.741-17.7-3.489-23.94-5.246V182.622l26.16-4.587v79.933zm0 120.354c2.85.757 6.85 1.476 12.01 2.157 5.17.682 11.59 1.022 19.28 1.022 15.17 0 27.31-4.799 36.43-14.397 9.11-9.598 13.67-23.208 13.67-40.829 0-7.752-.81-15.018-2.43-21.8-1.62-6.783-4.26-12.641-7.9-17.577-3.65-4.935-8.36-8.811-14.13-11.626-5.77-2.816-12.69-4.224-20.78-4.224-7.69 0-14.77 1.256-21.25 3.769-6.48 2.514-11.45 5.133-14.9 7.858v95.647zm279.04-52.047c0 11.868-1.75 22.594-5.24 32.177-3.5 9.583-8.41 17.826-14.74 24.73-6.33 6.903-13.87 12.224-22.62 15.964-8.75 3.739-18.29 5.609-28.61 5.609-10.33 0-19.86-1.87-28.61-5.609-8.75-3.74-16.29-9.061-22.62-15.964-6.33-6.904-11.24-15.147-14.74-24.73s-5.25-20.309-5.25-32.177c0-11.688 1.75-22.368 5.25-32.042 3.5-9.674 8.41-17.962 14.74-24.866 6.33-6.903 13.87-12.224 22.62-15.963 8.75-3.74 18.28-5.609 28.61-5.609 10.32 0 19.86 1.869 28.61 5.609 8.75 3.739 16.29 9.06 22.62 15.963 6.33 6.904 11.24 15.192 14.74 24.866 3.49 9.674 5.24 20.354 5.24 32.042zm-26.16 0c0-16.956-4.03-30.399-12.1-40.33-8.07-9.932-19.05-14.897-32.95-14.897-13.9 0-24.88 4.965-32.95 14.897-8.07 9.931-12.11 23.374-12.11 40.33 0 16.955 4.04 30.398 12.11 40.33 8.07 9.931 19.05 14.896 32.95 14.896 13.9 0 24.88-4.965 32.95-14.896 8.07-9.932 12.1-23.375 12.1-40.33zm197.65 0c0 11.868-1.74 22.594-5.24 32.177-3.5 9.583-8.41 17.826-14.74 24.73-6.33 6.903-13.87 12.224-22.62 15.964-8.75 3.739-18.28 5.609-28.61 5.609-10.32 0-19.86-1.87-28.61-5.609-8.75-3.74-16.29-9.061-22.62-15.964-6.33-6.904-11.24-15.147-14.74-24.73-3.49-9.583-5.24-20.309-5.24-32.177 0-11.688 1.75-22.368 5.24-32.042 3.5-9.674 8.41-17.962 14.74-24.866 6.33-6.903 13.87-12.224 22.62-15.963 8.75-3.74 18.29-5.609 28.61-5.609 10.33 0 19.86 1.869 28.61 5.609 8.75 3.739 16.29 9.06 22.62 15.963 6.33 6.904 11.24 15.192 14.74 24.866s5.24 20.354 5.24 32.042zm-26.16 0c0-16.956-4.03-30.399-12.1-40.33-8.07-9.932-19.05-14.897-32.95-14.897-13.9 0-24.88 4.965-32.95 14.897-8.07 9.931-12.1 23.374-12.1 40.33 0 16.955 4.03 30.398 12.1 40.33 8.07 9.931 19.05 14.896 32.95 14.896 13.9 0 24.88-4.965 32.95-14.896 8.07-9.932 12.1-23.375 12.1-40.33zm100.33 55.226c11.32 0 19.72-1.423 25.18-4.269 5.47-2.846 8.2-7.403 8.2-13.67 0-6.419-2.74-11.529-8.22-15.329-5.48-3.799-14.31-7.667-26.48-11.603a499.29 499.29 0 0 1-16.89-5.814c-5.39-1.968-10.05-4.655-13.97-8.061-3.92-3.406-7.05-7.502-9.4-12.285-2.35-4.784-3.52-10.689-3.52-17.713 0-13.776 4.93-24.714 14.78-32.813 9.86-8.1 23.28-12.149 40.27-12.149 4.27 0 8.52.242 12.76.726 4.24.485 8.2 1.068 11.87 1.749 3.68.681 6.92 1.408 9.72 2.18 2.8.772 4.98 1.446 6.52 2.021l-4.99 23.844c-2.94-1.545-7.54-3.142-13.79-4.792-6.25-1.65-13.77-2.475-22.55-2.475-7.63 0-14.27 1.461-19.94 4.383-5.66 2.921-8.49 7.486-8.49 13.693 0 3.209.66 6.033 1.98 8.47 1.31 2.437 3.34 4.648 6.08 6.631 2.74 1.983 6.14 3.822 10.2 5.518 4.06 1.695 8.84 3.346 14.35 4.95 7.27 2.271 13.75 4.489 19.44 6.654 5.69 2.165 10.47 5.026 14.35 8.584 3.88 3.557 6.86 7.864 8.95 12.921 2.09 5.056 3.13 11.248 3.13 18.575 0 14.231-5.22 25.009-15.67 32.337-10.44 7.327-25.34 10.991-44.69 10.991-13.47 0-24.02-1.121-31.65-3.361-7.63-2.241-12.81-3.936-15.54-5.087l5.09-23.526c3.18 1.151 8.24 2.892 15.19 5.223 6.95 2.332 16.19 3.497 27.73 3.497zm120.58-130.8h55.23v23.254h-55.23v69.578c0 7.539.56 13.769 1.68 18.689 1.12 4.92 2.8 8.78 5.04 11.581s5.04 4.784 8.4 5.95c3.37 1.165 7.29 1.748 11.77 1.748 7.87 0 14.18-.923 18.94-2.77 4.75-1.847 8.07-3.164 9.94-3.951l5.27 21.845c-2.63 1.362-7.23 3.058-13.78 5.087-6.56 2.028-14.06 3.043-22.51 3.043-9.93 0-18.13-1.302-24.61-3.906s-11.69-6.518-15.63-11.741c-3.93-5.222-6.69-11.649-8.28-19.279-1.59-7.63-2.39-16.471-2.39-26.523V208.827l26.16-4.632v46.506z" fill="#549AFC"/><path fill="none" d="M0 0h2135.57v589.875H0z"/></svg>