<svg xmlns="http://www.w3.org/2000/svg" baseProfile="full" width="590" height="590" viewBox="0 0 590.00 590.00"><path fill="#549AFC" d="M0 0h590v590H0z"/><ellipse fill="#F8F8F8" cx="200.305" cy="320.143" rx="17.667" ry="16.667"/><ellipse fill="#F8F8F8" cx="145.971" cy="319.81" rx="17.667" ry="16.667"/><ellipse fill="#F8F8F8" cx="172.638" cy="369.81" rx="17.667" ry="16.667"/><ellipse fill="#F8F8F8" cx="230.638" cy="370.476" rx="17.667" ry="16.667"/><ellipse fill="#F8F8F8" cx="114.638" cy="369.81" rx="17.667" ry="16.667"/><ellipse fill="#F8F8F8" cx="144.638" cy="421.143" rx="17.667" ry="16.667"/><ellipse fill="#F8F8F8" cx="201.305" cy="421.143" rx="17.667" ry="16.667"/><path fill="#FFF" fill-opacity=".976" d="M267.463 392.334l-.032 32.908 157.47-.051s66.565-11.875 67.717-81.115c.616-37.052-32-62.459-33.667-65.459-1.666-2.999 4.755-45.368-31.988-73.45-43.834-33.5-83.762-13.841-87.095-14.841-3.333-1-29.53-38.742-80.405-37.159-94.027 2.927-102.709 86.625-104.084 93.125-.404 1.915-25.986 11.889-37.144 35.065-1.192 2.475 33.615 3.105 41.333 1 3.667-1 7.942-9.258 28-14 1.332-.315-11.147-51.919 43.103-75.419 63.528-27.519 97.517 36.266 96.75 47-.25 3.5 22.381-35.279 68-15.5 41.491 17.99 30.991 72.407 25 72.75-5.212.299 41.216 10.549 38.75 50-2.5 40-40 46-44.603 45.503-6.048-.654-146.772-.357-147.105-.357z"/></svg>