<svg xmlns="http://www.w3.org/2000/svg" baseProfile="full" width="1785" height="1785" viewBox="0 0 1785.00 1785.00"><ellipse fill="#549AFC" cx="845.282" cy="713.061" rx="388.113" ry="388.113"/><ellipse fill="#F8F8F8" cx="719.48" cy="734.544" rx="24.352" ry="22.974"/><ellipse fill="#F8F8F8" cx="644.587" cy="734.085" rx="24.352" ry="22.974"/><ellipse fill="#F8F8F8" cx="681.344" cy="803.005" rx="24.352" ry="22.974"/><ellipse fill="#F8F8F8" cx="761.292" cy="803.924" rx="24.352" ry="22.974"/><ellipse fill="#F8F8F8" cx="601.397" cy="803.005" rx="24.352" ry="22.974"/><ellipse fill="#F8F8F8" cx="642.749" cy="873.763" rx="24.352" ry="22.974"/><ellipse fill="#F8F8F8" cx="720.859" cy="873.763" rx="24.352" ry="22.974"/><path fill="#FFF" fill-opacity=".976" d="M812.051 834.053l-.044 45.361 217.063-.071s91.75-16.368 93.34-111.81c.85-51.072-44.11-86.093-46.41-90.228-2.3-4.135 6.55-62.536-44.09-101.244-60.423-46.176-115.46-19.079-120.055-20.458-4.594-1.378-40.704-53.401-110.831-51.219-129.607 4.034-141.574 119.404-143.469 128.364-.558 2.639-35.82 16.387-51.201 48.334-1.642 3.41 46.336 4.28 56.974 1.378 5.055-1.378 10.947-12.762 38.596-19.298 1.836-.434-15.365-71.565 59.414-103.958 87.567-37.932 134.417 49.989 133.36 64.786-.344 4.824 30.851-48.63 93.732-21.366 57.19 24.798 42.72 99.806 34.46 100.279-7.18.412 56.81 14.54 53.41 68.92-3.44 55.137-55.13 63.407-61.48 62.721-8.33-.901-202.309-.491-202.769-.491z"/><path d="M200.899 1408.78c-12.383 0-23.253-1.93-32.609-5.77-9.356-3.85-17.228-9.22-23.617-16.13-6.388-6.9-11.157-15.1-14.306-24.61-3.149-9.51-4.723-20.01-4.723-31.52 0-11.54 1.71-22.1 5.132-31.7 3.421-9.6 8.266-17.9 14.533-24.91 6.268-7.01 13.958-12.48 23.072-16.42 9.113-3.94 19.241-5.9 30.384-5.9 6.842 0 13.693.58 20.551 1.74 6.858 1.17 13.42 3.01 19.688 5.52l-6.359 22.35c-4.208-1.94-9.075-3.48-14.601-4.63-5.526-1.16-11.407-1.73-17.644-1.73-15.715 0-27.742 4.74-36.084 14.21-8.342 9.48-12.512 23.3-12.512 41.47 0 8.11.961 15.55 2.884 22.3 1.922 6.75 4.958 12.55 9.106 17.39 4.148 4.85 9.454 8.57 15.918 11.18 6.465 2.6 14.36 3.9 23.685 3.9 7.479 0 14.253-.68 20.324-2.04 6.071-1.36 10.817-2.82 14.238-4.36l3.951 22.07c-1.574.97-3.837 1.89-6.789 2.77-2.952.88-6.298 1.66-10.037 2.34-3.74.68-7.721 1.26-11.945 1.75-4.224.48-8.304.73-12.24.73zm115.722-2.91c-16.562-.39-28.31-3.91-35.244-10.54-6.933-6.63-10.4-16.97-10.4-31.02V1186.6l26.16-4.54v177.03c0 4.36.401 7.96 1.204 10.79.802 2.83 2.096 5.09 3.883 6.79 1.786 1.69 4.17 2.96 7.153 3.81 2.982.85 6.653 1.56 11.013 2.14l-3.769 23.25zm166.543-75.57c0 11.86-1.749 22.59-5.246 32.17-3.497 9.59-8.41 17.83-14.738 24.73-6.328 6.91-13.867 12.23-22.617 15.97s-18.288 5.61-28.613 5.61c-10.324 0-19.862-1.87-28.612-5.61s-16.29-9.06-22.618-15.97c-6.328-6.9-11.24-15.14-14.737-24.73-3.497-9.58-5.246-20.31-5.246-32.17 0-11.69 1.749-22.37 5.246-32.05 3.497-9.67 8.409-17.96 14.737-24.86 6.328-6.9 13.868-12.23 22.618-15.97 8.75-3.73 18.288-5.6 28.612-5.6 10.325 0 19.863 1.87 28.613 5.6 8.75 3.74 16.289 9.07 22.617 15.97 6.328 6.9 11.241 15.19 14.738 24.86 3.497 9.68 5.246 20.36 5.246 32.05zm-26.16 0c0-16.96-4.035-30.4-12.104-40.33-8.069-9.94-19.052-14.9-32.95-14.9-13.897 0-24.88 4.96-32.949 14.9-8.069 9.93-12.104 23.37-12.104 40.33 0 16.95 4.035 30.39 12.104 40.33 8.069 9.93 19.052 14.89 32.949 14.89 13.898 0 24.881-4.96 32.95-14.89 8.069-9.94 12.104-23.38 12.104-40.33zm183.12 70.94c-6.056 1.54-14.049 3.18-23.98 4.92-9.931 1.75-21.422 2.62-34.472 2.62-11.354 0-20.906-1.7-28.657-5.09-7.752-3.39-13.996-8.18-18.735-14.35-4.738-6.18-8.145-13.48-10.219-21.89-2.074-8.42-3.111-17.76-3.111-28.03v-84.7h26.16v79.25c0 18.44 2.854 31.64 8.561 39.61 5.708 7.96 15.329 11.94 28.863 11.94 2.846 0 5.798-.1 8.856-.29 3.058-.2 5.919-.44 8.584-.73 2.664-.29 5.094-.57 7.289-.86 2.195-.29 3.762-.63 4.701-1.02v-127.9h26.16v146.52zm145.333-114.54c-3.452-2.73-8.417-5.35-14.897-7.86-6.479-2.51-13.564-3.77-21.255-3.77-8.084 0-15.01 1.41-20.778 4.22-5.768 2.82-10.476 6.69-14.124 11.63-3.649 4.93-6.283 10.79-7.903 17.58-1.62 6.78-2.43 14.04-2.43 21.8 0 17.62 4.557 31.23 13.671 40.83 9.113 9.59 21.255 14.39 36.424 14.39 7.69 0 14.117-.34 19.279-1.02 5.163-.68 9.167-1.4 12.013-2.16v-95.64zm0-100.06l26.16-4.58v218.86c-6.237 1.75-14.215 3.5-23.935 5.24-9.719 1.75-20.906 2.62-33.562 2.62-11.688 0-22.202-1.83-31.542-5.48-9.341-3.65-17.319-8.84-23.935-15.57-6.616-6.74-11.725-14.97-15.328-24.69-3.603-9.72-5.405-20.63-5.405-32.74 0-11.54 1.522-22.11 4.565-31.73 3.043-9.61 7.509-17.88 13.398-24.82 5.889-6.93 13.11-12.32 21.663-16.17 8.554-3.84 18.326-5.76 29.317-5.76 8.841 0 16.653 1.16 23.435 3.49s11.838 4.56 15.169 6.68v-75.35zm98.827 75.35c3.33-2.12 8.387-4.35 15.169-6.68s14.594-3.49 23.435-3.49c10.991 0 20.763 1.92 29.316 5.76 8.554 3.85 15.775 9.24 21.664 16.17 5.889 6.94 10.355 15.21 13.398 24.82 3.043 9.62 4.564 20.19 4.564 31.73 0 12.11-1.801 23.02-5.404 32.74-3.603 9.72-8.713 17.95-15.328 24.69-6.616 6.73-14.594 11.92-23.935 15.57-9.341 3.65-19.855 5.48-31.542 5.48-12.656 0-23.844-.87-33.563-2.62-9.719-1.74-17.697-3.49-23.934-5.24v-214.28l26.16-4.58v79.93zm0 120.35c2.846.76 6.85 1.48 12.012 2.16 5.163.68 11.589 1.02 19.28 1.02 15.169 0 27.31-4.8 36.424-14.39 9.114-9.6 13.67-23.21 13.67-40.83 0-7.76-.81-15.02-2.429-21.8-1.62-6.79-4.254-12.65-7.903-17.58-3.648-4.94-8.357-8.81-14.124-11.63-5.768-2.81-12.694-4.22-20.779-4.22-7.69 0-14.775 1.26-21.255 3.77-6.479 2.51-11.445 5.13-14.896 7.86v95.64zm279.036-52.04c0 11.86-1.75 22.59-5.24 32.17-3.5 9.59-8.41 17.83-14.74 24.73-6.33 6.91-13.87 12.23-22.62 15.97-8.75 3.74-18.29 5.61-28.61 5.61s-19.86-1.87-28.61-5.61-16.29-9.06-22.62-15.97c-6.33-6.9-11.24-15.14-14.74-24.73-3.49-9.58-5.24-20.31-5.24-32.17 0-11.69 1.75-22.37 5.24-32.05 3.5-9.67 8.41-17.96 14.74-24.86 6.33-6.9 13.87-12.23 22.62-15.97 8.75-3.73 18.29-5.6 28.61-5.6s19.86 1.87 28.61 5.6c8.75 3.74 16.29 9.07 22.62 15.97 6.33 6.9 11.24 15.19 14.74 24.86 3.49 9.68 5.24 20.36 5.24 32.05zm-26.16 0c0-16.96-4.03-30.4-12.1-40.33-8.07-9.94-19.05-14.9-32.95-14.9-13.9 0-24.88 4.96-32.95 14.9-8.07 9.93-12.1 23.37-12.1 40.33 0 16.95 4.03 30.39 12.1 40.33 8.07 9.93 19.05 14.89 32.95 14.89 13.9 0 24.88-4.96 32.95-14.89 8.07-9.94 12.1-23.38 12.1-40.33zm197.66 0c0 11.86-1.75 22.59-5.25 32.17-3.5 9.59-8.41 17.83-14.74 24.73-6.32 6.91-13.86 12.23-22.61 15.97s-18.29 5.61-28.62 5.61c-10.32 0-19.86-1.87-28.61-5.61s-16.29-9.06-22.62-15.97c-6.32-6.9-11.24-15.14-14.73-24.73-3.5-9.58-5.25-20.31-5.25-32.17 0-11.69 1.75-22.37 5.25-32.05 3.49-9.67 8.41-17.96 14.73-24.86 6.33-6.9 13.87-12.23 22.62-15.97 8.75-3.73 18.29-5.6 28.61-5.6 10.33 0 19.87 1.87 28.62 5.6 8.75 3.74 16.29 9.07 22.61 15.97 6.33 6.9 11.24 15.19 14.74 24.86 3.5 9.68 5.25 20.36 5.25 32.05zm-26.16 0c0-16.96-4.04-30.4-12.11-40.33-8.07-9.94-19.05-14.9-32.95-14.9-13.89 0-24.88 4.96-32.95 14.9-8.07 9.93-12.1 23.37-12.1 40.33 0 16.95 4.03 30.39 12.1 40.33 8.07 9.93 19.06 14.89 32.95 14.89 13.9 0 24.88-4.96 32.95-14.89 8.07-9.94 12.11-23.38 12.11-40.33zm100.32 55.22c11.33 0 19.72-1.42 25.19-4.27 5.46-2.84 8.19-7.4 8.19-13.67 0-6.42-2.74-11.53-8.22-15.33-5.48-3.8-14.3-7.66-26.47-11.6-5.88-1.91-11.51-3.84-16.9-5.81-5.39-1.97-10.04-4.66-13.97-8.06-3.92-3.41-7.05-7.51-9.4-12.29-2.34-4.78-3.52-10.69-3.52-17.71 0-13.78 4.93-24.72 14.79-32.82 9.85-8.09 23.27-12.14 40.26-12.14 4.27 0 8.52.24 12.76.72 4.24.49 8.2 1.07 11.88 1.75 3.68.68 6.92 1.41 9.72 2.18 2.8.77 4.97 1.45 6.51 2.02l-4.99 23.85c-2.94-1.55-7.53-3.15-13.79-4.8-6.25-1.65-13.77-2.47-22.55-2.47-7.63 0-14.27 1.46-19.93 4.38-5.67 2.92-8.5 7.49-8.5 13.69 0 3.21.66 6.04 1.98 8.48 1.32 2.43 3.34 4.64 6.08 6.63 2.74 1.98 6.14 3.82 10.2 5.51 4.06 1.7 8.84 3.35 14.35 4.95 7.27 2.28 13.75 4.49 19.44 6.66 5.69 2.16 10.48 5.02 14.35 8.58 3.88 3.56 6.86 7.87 8.95 12.92 2.09 5.06 3.13 11.25 3.13 18.58 0 14.23-5.22 25.01-15.67 32.34-10.44 7.32-25.34 10.99-44.69 10.99-13.47 0-24.02-1.12-31.65-3.37-7.63-2.24-12.81-3.93-15.53-5.08l5.08-23.53c3.18 1.15 8.25 2.89 15.2 5.23 6.94 2.33 16.19 3.49 27.72 3.49zm120.58-130.8h55.23v23.26h-55.23v69.57c0 7.54.56 13.77 1.68 18.69 1.12 4.92 2.8 8.78 5.05 11.58 2.24 2.81 5.04 4.79 8.4 5.95 3.36 1.17 7.28 1.75 11.76 1.75 7.87 0 14.19-.92 18.94-2.77 4.75-1.84 8.07-3.16 9.95-3.95l5.26 21.85c-2.63 1.36-7.23 3.05-13.78 5.08-6.56 2.03-14.06 3.05-22.5 3.05-9.94 0-18.14-1.31-24.62-3.91s-11.69-6.52-15.62-11.74c-3.94-5.22-6.7-11.65-8.29-19.28-1.59-7.63-2.39-16.47-2.39-26.52v-134.48l26.16-4.63v46.5z" fill="#549AFC"/><path fill="none" d="M0 0h1785v1785H0z"/></svg>