<svg xmlns="http://www.w3.org/2000/svg" baseProfile="full" width="2360.38" height="590" viewBox="0 0 2360.38 590.00"><path fill="#549AFC" d="M.384.125h2360V590H.384z"/><ellipse fill="#F8F8F8" cx="312.304" cy="320.211" rx="17.667" ry="16.667"/><ellipse fill="#F8F8F8" cx="257.97" cy="319.877" rx="17.667" ry="16.667"/><ellipse fill="#F8F8F8" cx="284.637" cy="369.877" rx="17.667" ry="16.667"/><ellipse fill="#F8F8F8" cx="342.637" cy="370.544" rx="17.667" ry="16.667"/><ellipse fill="#F8F8F8" cx="226.637" cy="369.877" rx="17.667" ry="16.667"/><ellipse fill="#F8F8F8" cx="256.637" cy="421.211" rx="17.667" ry="16.667"/><ellipse fill="#F8F8F8" cx="313.304" cy="421.211" rx="17.667" ry="16.667"/><path fill="#FFF" fill-opacity=".976" d="M379.462 392.402l-.032 32.908 157.47-.052s66.565-11.874 67.717-81.115c.617-37.051-32-62.458-33.667-65.458-1.666-3 4.755-45.369-31.988-73.45-43.834-33.5-83.762-13.842-87.095-14.842-3.333-1-29.53-38.741-80.405-37.158-94.027 2.926-102.709 86.625-104.084 93.125-.404 1.914-25.986 11.888-37.144 35.065-1.192 2.474 33.615 3.105 41.333 1 3.667-1 7.942-9.259 28-14 1.332-.315-11.147-51.919 43.103-75.419 63.528-27.519 97.517 36.266 96.75 47-.25 3.5 22.382-35.28 68-15.5 41.491 17.99 30.991 72.406 25 72.75-5.212.299 41.216 10.548 38.75 50-2.5 40-40 46-44.603 45.502-6.048-.653-146.772-.356-147.105-.356z"/><path d="M751.788 422.752c-12.384 0-23.254-1.922-32.609-5.768-9.356-3.845-17.228-9.219-23.617-16.123-6.389-6.903-11.157-15.108-14.306-24.615-3.149-9.508-4.724-20.014-4.724-31.52 0-11.535 1.711-22.102 5.132-31.7 3.422-9.599 8.266-17.902 14.534-24.911 6.267-7.01 13.958-12.483 23.071-16.419 9.114-3.936 19.242-5.904 30.384-5.904 6.843 0 13.693.583 20.551 1.749 6.858 1.165 13.421 3.005 19.688 5.518l-6.358 22.345c-4.209-1.938-9.076-3.482-14.601-4.633-5.526-1.15-11.408-1.725-17.645-1.725-15.714 0-27.742 4.738-36.083 14.215-8.342 9.477-12.513 23.299-12.513 41.465 0 8.115.962 15.548 2.884 22.3 1.923 6.752 4.958 12.55 9.106 17.395 4.148 4.844 9.455 8.568 15.919 11.172 6.464 2.604 14.359 3.906 23.685 3.906 7.478 0 14.253-.681 20.324-2.044 6.07-1.362 10.816-2.816 14.238-4.36l3.951 22.073c-1.574.969-3.838 1.892-6.79 2.77-2.952.878-6.298 1.658-10.037 2.339a183.853 183.853 0 0 1-11.944 1.749c-4.224.484-8.304.726-12.24.726zm115.721-2.907c-16.561-.393-28.309-3.905-35.243-10.536-6.933-6.631-10.4-16.971-10.4-31.02V200.574l26.16-4.542v177.034c0 4.36.401 7.956 1.203 10.787.803 2.831 2.097 5.094 3.883 6.79 1.787 1.695 4.171 2.967 7.153 3.815 2.983.847 6.654 1.559 11.014 2.134l-3.77 23.253zm166.541-75.573c0 11.869-1.75 22.595-5.24 32.178-3.5 9.583-8.41 17.826-14.74 24.729-6.33 6.904-13.87 12.225-22.619 15.964-8.75 3.74-18.287 5.609-28.612 5.609s-19.862-1.869-28.612-5.609c-8.751-3.739-16.29-9.06-22.618-15.964-6.328-6.903-11.241-15.146-14.738-24.729-3.497-9.583-5.245-20.309-5.245-32.178 0-11.687 1.748-22.368 5.245-32.041 3.497-9.674 8.41-17.963 14.738-24.866 6.328-6.903 13.867-12.225 22.618-15.964 8.75-3.739 18.287-5.609 28.612-5.609s19.862 1.87 28.612 5.609c8.749 3.739 16.289 9.061 22.619 15.964 6.33 6.903 11.24 15.192 14.74 24.866 3.49 9.673 5.24 20.354 5.24 32.041zm-26.16 0c0-16.955-4.03-30.399-12.101-40.33-8.069-9.931-19.052-14.896-32.95-14.896-13.897 0-24.881 4.965-32.95 14.896-8.069 9.931-12.103 23.375-12.103 40.33 0 16.956 4.034 30.399 12.103 40.33 8.069 9.931 19.053 14.897 32.95 14.897 13.898 0 24.881-4.966 32.95-14.897 8.071-9.931 12.101-23.374 12.101-40.33zm183.12 70.941c-6.05 1.544-14.05 3.187-23.98 4.928s-21.42 2.611-34.47 2.611c-11.35 0-20.91-1.695-28.66-5.087-7.75-3.391-13.99-8.174-18.73-14.351-4.74-6.177-8.15-13.474-10.22-21.891-2.07-8.417-3.11-17.758-3.11-28.022v-84.702H1098v79.252c0 18.439 2.85 31.64 8.56 39.603 5.71 7.963 15.33 11.945 28.86 11.945 2.85 0 5.8-.099 8.86-.295 3.06-.197 5.92-.439 8.58-.727 2.67-.288 5.1-.575 7.29-.863 2.2-.288 3.76-.628 4.7-1.022V268.699h26.16v146.514zm145.34-114.541c-3.46-2.725-8.42-5.344-14.9-7.857s-13.57-3.769-21.26-3.769c-8.08 0-15.01 1.407-20.77 4.223-5.77 2.816-10.48 6.692-14.13 11.627-3.65 4.935-6.28 10.794-7.9 17.576s-2.43 14.049-2.43 21.8c0 17.622 4.56 31.232 13.67 40.83 9.11 9.598 21.25 14.397 36.42 14.397 7.69 0 14.12-.341 19.28-1.022 5.17-.681 9.17-1.4 12.02-2.157v-95.648zm0-100.053l26.16-4.587v218.863c-6.24 1.756-14.22 3.505-23.94 5.246-9.72 1.741-20.91 2.611-33.56 2.611-11.69 0-22.2-1.824-31.54-5.473-9.34-3.648-17.32-8.841-23.94-15.577-6.61-6.737-11.72-14.965-15.33-24.684-3.6-9.72-5.4-20.635-5.4-32.746 0-11.536 1.52-22.11 4.56-31.723 3.05-9.614 7.51-17.887 13.4-24.821 5.89-6.933 13.11-12.323 21.67-16.168 8.55-3.845 18.32-5.768 29.31-5.768 8.84 0 16.65 1.166 23.44 3.497 6.78 2.332 11.84 4.557 15.17 6.677v-75.347zm98.82 75.347c3.33-2.12 8.39-4.345 15.17-6.677 6.78-2.331 14.6-3.497 23.44-3.497 10.99 0 20.76 1.923 29.31 5.768 8.56 3.845 15.78 9.235 21.67 16.168 5.89 6.934 10.35 15.207 13.39 24.821 3.05 9.613 4.57 20.187 4.57 31.723 0 12.111-1.8 23.026-5.41 32.746-3.6 9.719-8.71 17.947-15.32 24.684-6.62 6.736-14.6 11.929-23.94 15.577-9.34 3.649-19.85 5.473-31.54 5.473-12.66 0-23.84-.87-33.56-2.611-9.72-1.741-17.7-3.49-23.94-5.246V200.619l26.16-4.587v79.934zm0 120.354c2.85.757 6.85 1.476 12.01 2.157 5.17.681 11.59 1.022 19.28 1.022 15.17 0 27.31-4.799 36.43-14.397 9.11-9.598 13.67-23.208 13.67-40.83 0-7.751-.81-15.018-2.43-21.8s-4.25-12.641-7.9-17.576c-3.65-4.935-8.36-8.811-14.13-11.627-5.77-2.816-12.69-4.223-20.78-4.223-7.69 0-14.77 1.256-21.25 3.769s-11.45 5.132-14.9 7.857v95.648zm279.04-52.048c0 11.869-1.75 22.595-5.24 32.178-3.5 9.583-8.41 17.826-14.74 24.729-6.33 6.904-13.87 12.225-22.62 15.964-8.75 3.74-18.29 5.609-28.61 5.609-10.33 0-19.86-1.869-28.61-5.609-8.75-3.739-16.29-9.06-22.62-15.964-6.33-6.903-11.24-15.146-14.74-24.729-3.5-9.583-5.24-20.309-5.24-32.178 0-11.687 1.74-22.368 5.24-32.041 3.5-9.674 8.41-17.963 14.74-24.866 6.33-6.903 13.87-12.225 22.62-15.964 8.75-3.739 18.28-5.609 28.61-5.609 10.32 0 19.86 1.87 28.61 5.609s16.29 9.061 22.62 15.964c6.33 6.903 11.24 15.192 14.74 24.866 3.49 9.673 5.24 20.354 5.24 32.041zm-26.16 0c0-16.955-4.03-30.399-12.1-40.33-8.07-9.931-19.05-14.896-32.95-14.896-13.9 0-24.88 4.965-32.95 14.896-8.07 9.931-12.1 23.375-12.1 40.33 0 16.956 4.03 30.399 12.1 40.33 8.07 9.931 19.05 14.897 32.95 14.897 13.9 0 24.88-4.966 32.95-14.897 8.07-9.931 12.1-23.374 12.1-40.33zm197.66 0c0 11.869-1.75 22.595-5.25 32.178-3.5 9.583-8.41 17.826-14.74 24.729-6.33 6.904-13.87 12.225-22.62 15.964-8.75 3.74-18.28 5.609-28.61 5.609-10.32 0-19.86-1.869-28.61-5.609-8.75-3.739-16.29-9.06-22.62-15.964-6.33-6.903-11.24-15.146-14.74-24.729-3.49-9.583-5.24-20.309-5.24-32.178 0-11.687 1.75-22.368 5.24-32.041 3.5-9.674 8.41-17.963 14.74-24.866 6.33-6.903 13.87-12.225 22.62-15.964 8.75-3.739 18.29-5.609 28.61-5.609 10.33 0 19.86 1.87 28.61 5.609s16.29 9.061 22.62 15.964c6.33 6.903 11.24 15.192 14.74 24.866 3.5 9.673 5.25 20.354 5.25 32.041zm-26.16 0c0-16.955-4.04-30.399-12.11-40.33-8.07-9.931-19.05-14.896-32.95-14.896-13.9 0-24.88 4.965-32.95 14.896-8.07 9.931-12.1 23.375-12.1 40.33 0 16.956 4.03 30.399 12.1 40.33 8.07 9.931 19.05 14.897 32.95 14.897 13.9 0 24.88-4.966 32.95-14.897 8.07-9.931 12.11-23.374 12.11-40.33zm100.32 55.227c11.32 0 19.72-1.423 25.18-4.269 5.47-2.846 8.2-7.403 8.2-13.671 0-6.419-2.74-11.528-8.22-15.328-5.48-3.8-14.3-7.668-26.48-11.604a497.12 497.12 0 0 1-16.89-5.813c-5.39-1.968-10.05-4.655-13.97-8.062-3.92-3.406-7.05-7.501-9.4-12.285-2.34-4.784-3.52-10.688-3.52-17.712 0-13.777 4.93-24.715 14.79-32.814 9.85-8.099 23.27-12.149 40.26-12.149 4.27 0 8.52.242 12.76.727 4.24.484 8.2 1.067 11.88 1.748 3.67.682 6.91 1.408 9.71 2.18 2.81.772 4.98 1.446 6.52 2.021l-4.99 23.844c-2.94-1.544-7.54-3.141-13.79-4.791-6.25-1.65-13.77-2.475-22.55-2.475-7.63 0-14.27 1.46-19.94 4.382-5.66 2.922-8.49 7.486-8.49 13.693 0 3.21.66 6.033 1.98 8.471 1.31 2.437 3.34 4.647 6.08 6.63 2.74 1.984 6.14 3.823 10.2 5.519 4.06 1.695 8.84 3.345 14.35 4.95 7.27 2.271 13.75 4.489 19.44 6.653 5.69 2.165 10.48 5.027 14.35 8.584 3.88 3.558 6.86 7.865 8.95 12.921 2.09 5.057 3.13 11.248 3.13 18.576 0 14.23-5.22 25.009-15.67 32.336-10.44 7.328-25.34 10.991-44.69 10.991-13.47 0-24.02-1.12-31.65-3.361-7.63-2.24-12.81-3.936-15.53-5.086l5.08-23.526c3.18 1.15 8.25 2.891 15.19 5.223 6.95 2.331 16.19 3.497 27.73 3.497zm120.58-130.8h55.23v23.253h-55.23v69.578c0 7.54.56 13.769 1.68 18.689 1.12 4.921 2.8 8.781 5.04 11.582 2.24 2.8 5.04 4.784 8.41 5.949 3.36 1.166 7.28 1.749 11.76 1.749 7.87 0 14.18-.924 18.94-2.771 4.75-1.846 8.07-3.164 9.94-3.951l5.27 21.846c-2.63 1.362-7.23 3.058-13.78 5.086-6.56 2.029-14.06 3.043-22.51 3.043-9.93 0-18.13-1.302-24.61-3.906s-11.69-6.517-15.63-11.74c-3.93-5.223-6.69-11.649-8.28-19.279-1.59-7.63-2.39-16.471-2.39-26.524V226.825l26.16-4.633v46.507z" fill="#FFF"/><path fill="none" d="M0 0h2360v589.875H0z"/></svg>