<svg xmlns="http://www.w3.org/2000/svg" viewBox="0 0 512 512"><path fill="#e4eaf6" d="M269.288 312.21v-83.925h-17.716v83.925l-86.352 59.365 10.035 14.603 85.175-58.561 85.175 58.561 10.035-14.603z"/><path fill="#e6af78" d="M297.226 167.639V139.02h-73.593v28.619l36.797 32.708z"/><path d="M354.121 181.026l-50.591-11.903c-.764-.179-1.467-.485-2.125-.855l-40.977 23.903-39.379-25.059a8.136 8.136 0 0 1-3.722 2.011l-50.591 11.903a16.354 16.354 0 0 0-12.609 15.92v32.021a8.177 8.177 0 0 0 8.177 8.177h196.247a8.177 8.177 0 0 0 8.177-8.177v-32.021a16.352 16.352 0 0 0-12.607-15.92z" fill="#707487"/><path d="M223.633 139.02v30.196c46.354 16.7 73.593-25.097 73.593-25.097v-5.099h-73.593z" fill="#d29b6e"/><path d="M207.28 44.985l3.563 78.382a24.533 24.533 0 0 0 9.787 18.511l16.905 12.679a24.528 24.528 0 0 0 14.718 4.906h16.354a24.532 24.532 0 0 0 14.718-4.906l16.905-12.679a24.531 24.531 0 0 0 9.787-18.511l3.563-78.382h-106.3z" fill="#f0c087"/><path d="M248.164 61.339c16.354 0 40.885-4.088 46.704-16.354H207.28l3.562 78.382a24.533 24.533 0 0 0 9.787 18.511l16.905 12.679a24.528 24.528 0 0 0 14.718 4.906h8.177c-8.177 0-24.531-16.354-24.531-36.797V73.604c.001-4.088 4.089-12.265 12.266-12.265z" fill="#e6af78"/><path d="M336.715 210.609l26.493-23.799a16.325 16.325 0 0 1 3.522 10.135v32.021a8.177 8.177 0 0 1-8.177 8.177h-28.619v-11.327a20.446 20.446 0 0 1 6.781-15.207zm-152.571 0l-26.493-23.799a16.325 16.325 0 0 0-3.522 10.135v32.021a8.177 8.177 0 0 0 8.177 8.177h28.619v-11.327a20.439 20.439 0 0 0-6.781-15.207zm86.507 26.534h-20.443l2.556-36.796h15.332z" fill="#5b5d6e"/><path d="M270.651 192.17h-20.443v2.362c0 5.47 4.434 9.904 9.904 9.904h.634c5.47 0 9.904-4.434 9.904-9.904v-2.362h.001z" fill="#515262"/><path d="M223.06 158.536l37.37 33.633s-10.466 5.283-23.382 15.932c-2.664 2.197-6.695 1.307-8.123-1.837l-17.557-38.626 5.554-8.331a4.09 4.09 0 0 1 6.138-.771zm74.74 0l-37.37 33.633s10.466 5.283 23.382 15.932c2.664 2.197 6.695 1.307 8.123-1.837l17.557-38.626-5.554-8.331a4.09 4.09 0 0 0-6.138-.771z" fill="#5b5d6e"/><path d="M285.216 17.899l3.833 27.087c17.496 3.499 20.018 30.957 20.381 38.8a8.066 8.066 0 0 0 1.292 3.995l6.676 10.355s-2.285-17.121 8.177-28.619c0-.001 3.592-67.972-40.359-51.618z" fill="#785550"/><path d="M321.501 96.386l-4.617 18.469a4.916 4.916 0 0 1-9.647-.582l-2.361-18.889c-.631-5.051 3.307-9.513 8.398-9.513h.017c5.504-.001 9.544 5.173 8.21 10.515z" fill="#f0c087"/><path d="M211.197 10.574l6.048 4.131c-27.341 20.187-22.231 54.811-22.231 54.811 8.177 8.177 8.177 28.619 8.177 28.619l8.177-8.177s-3.156-23.621 12.266-32.707c14.31-8.432 26.831-4.088 39.607-4.088 34.241 0 43.823-12.904 42.162-28.619-.859-8.132-13.292-25.069-44.973-24.531-12.786.217-36.797 4.088-49.233 10.561z" fill="#694b4b"/><path d="M208.813 49.585s-4.344-17.121 8.432-34.88c-27.341 20.187-22.231 54.811-22.231 54.811 8.177 8.177 8.177 28.619 8.177 28.619l8.177-8.177s-3.156-23.621 12.266-32.707c14.31-8.432 26.831-4.088 39.607-4.088 5.569 0 10.422-.373 14.744-1.012-26.371.883-41.916-19.091-69.172-2.566z" fill="#5a4146"/><path d="M199.359 96.386l4.617 18.469a4.916 4.916 0 0 0 9.647-.582l2.361-18.889c.631-5.051-3.307-9.513-8.398-9.513h-.017c-5.505-.001-9.545 5.173-8.21 10.515z" fill="#e6af78"/><path d="M309.492 228.967h-20.443a8.177 8.177 0 0 0-8.177 8.177h36.797a8.178 8.178 0 0 0-8.177-8.177z" fill="#5b5d6e"/><path fill="#e6af78" d="M164.351 442.249v-28.62H90.758v28.62l36.796 32.707z"/><path d="M221.246 455.636l-50.591-11.903a8.088 8.088 0 0 1-2.124-.855l-40.977 23.903-39.379-25.059a8.136 8.136 0 0 1-3.722 2.011l-50.591 11.903a16.354 16.354 0 0 0-12.609 15.92v32.021a8.177 8.177 0 0 0 8.177 8.177h196.247a8.177 8.177 0 0 0 8.177-8.177v-32.021a16.352 16.352 0 0 0-12.608-15.92z" fill="#eff2fa"/><path d="M90.758 413.629v30.196c46.354 16.7 73.593-25.097 73.593-25.097v-5.099H90.758z" fill="#d29b6e"/><path d="M74.404 319.595l3.563 78.382a24.533 24.533 0 0 0 9.787 18.511l16.905 12.679a24.528 24.528 0 0 0 14.718 4.906h16.354a24.532 24.532 0 0 0 14.718-4.906l16.905-12.679a24.531 24.531 0 0 0 9.787-18.511l3.563-78.382h-106.3z" fill="#f0c087"/><path d="M115.289 335.948c16.354 0 40.885-4.088 46.703-16.354H74.404l3.562 78.382a24.533 24.533 0 0 0 9.787 18.511l16.905 12.679a24.528 24.528 0 0 0 14.718 4.906h8.177c-8.177 0-24.531-16.354-24.531-36.797v-49.062c.001-4.089 4.09-12.265 12.267-12.265z" fill="#e6af78"/><path d="M203.839 485.218l26.493-23.799a16.325 16.325 0 0 1 3.522 10.135v32.021a8.177 8.177 0 0 1-8.177 8.177h-28.619v-11.327a20.447 20.447 0 0 1 6.781-15.207zm-152.57 0l-26.493-23.799a16.325 16.325 0 0 0-3.522 10.135v32.021a8.177 8.177 0 0 0 8.177 8.177H58.05v-11.327a20.44 20.44 0 0 0-6.781-15.207z" fill="#e4eaf6"/><path fill="#5b5d6e" d="M137.776 511.752h-20.443l2.556-36.796h15.331z"/><path d="M137.776 466.78h-20.443v2.362c0 5.47 4.434 9.904 9.904 9.904h.634c5.47 0 9.904-4.434 9.904-9.904v-2.362h.001z" fill="#515262"/><path d="M90.184 433.145l37.37 33.633s-10.466 5.283-23.382 15.932c-2.664 2.197-6.695 1.307-8.123-1.837l-17.557-38.626 5.554-8.331a4.09 4.09 0 0 1 6.138-.771zm74.741 0l-37.37 33.633s10.466 5.283 23.382 15.932c2.664 2.197 6.695 1.307 8.123-1.837l17.557-38.626-5.554-8.331a4.09 4.09 0 0 0-6.138-.771z" fill="#e4eaf6"/><path d="M152.341 292.508l3.833 27.087c17.496 3.499 20.018 30.957 20.381 38.8a8.066 8.066 0 0 0 1.292 3.995l6.676 10.355s-2.285-17.121 8.177-28.619c0-.002 3.592-67.972-40.359-51.618z" fill="#785550"/><path d="M188.625 370.995l-4.617 18.469a4.916 4.916 0 0 1-9.647-.582L172 369.992c-.631-5.051 3.307-9.513 8.398-9.513h.017c5.505 0 9.546 5.175 8.21 10.516z" fill="#f0c087"/><path d="M78.322 285.183l6.048 4.131c-27.341 20.187-22.231 54.811-22.231 54.811 8.177 8.177 8.177 28.619 8.177 28.619l8.177-8.177s-3.156-23.621 12.266-32.707c14.31-8.432 26.831-4.088 39.607-4.088 34.241 0 43.823-12.904 42.162-28.619-.859-8.132-13.292-25.069-44.973-24.531-12.786.217-36.797 4.088-49.233 10.561z" fill="#694b4b"/><path d="M75.938 324.193s-4.344-17.121 8.432-34.88c-27.341 20.187-22.231 54.811-22.231 54.811 8.177 8.177 8.177 28.619 8.177 28.619l8.177-8.177s-3.156-23.621 12.266-32.707c14.31-8.432 26.831-4.088 39.607-4.088 5.569 0 10.422-.373 14.744-1.012-26.372.884-41.916-19.09-69.172-2.566z" fill="#5a4146"/><path d="M66.484 370.995l4.617 18.469a4.916 4.916 0 0 0 9.647-.582l2.361-18.889c.631-5.051-3.307-9.513-8.398-9.513h-.017c-5.505-.001-9.546 5.174-8.21 10.515z" fill="#e6af78"/><path d="M176.617 503.575h-20.443a8.177 8.177 0 0 0-8.177 8.177h36.797a8.179 8.179 0 0 0-8.177-8.177z" fill="#e4eaf6"/><path d="M402.164 277.513c-82.478 0-73.333 100.299-72.956 172.983.014 2.745 1.452 5.22 3.804 6.637 9.14 5.51 34.24 18.391 69.153 18.391s60.013-12.881 69.153-18.391c2.351-1.417 3.789-3.892 3.804-6.637.375-72.683 9.52-172.983-72.958-172.983z" fill="#694b4b"/><path d="M396.85 277.72c-76.708 4.301-68.01 101.71-67.642 172.776.014 2.745 1.452 5.22 3.804 6.637 9.14 5.51 34.24 18.391 69.153 18.391l20.844-145.903" fill="#5a4146"/><path d="M402.164 277.513c-46.897 0-50.154 56.667-50.154 56.667 27.031-4.56 43.641 6.839 70.998-4.56l-20.844 145.903c34.914 0 60.013-12.881 69.153-18.391 2.351-1.417 3.789-3.892 3.804-6.637.376-72.682 9.521-172.982-72.957-172.982z" fill="#694b4b"/><path d="M475.12 450.496c.323-62.456 7.066-145.243-43.359-167.321-.879 4.569-2.473 17.324 1.668 25.603 10.422 20.844 20.844 20.844 31.264 36.475 10.422 57.319-19.913 118.156-29.988 126.439 17.851-4.245 30.647-10.963 36.612-14.559 2.35-1.418 3.789-3.892 3.803-6.637z" fill="#785550"/><path d="M481.127 466.305l-46.496-19.373a10.421 10.421 0 0 1-6.413-9.62V424.72H376.11v12.592c0 4.208-2.53 8.002-6.413 9.62l-46.496 19.373a15.633 15.633 0 0 0-9.62 14.43v20.844c0 5.756 4.666 10.422 10.422 10.422h156.323c5.756 0 10.422-4.666 10.422-10.422v-20.844a15.633 15.633 0 0 0-9.621-14.43z" fill="#e6af78"/><path d="M481.127 466.305l-44.956-18.732-34.007 14.677-34.007-14.677-44.957 18.732a15.633 15.633 0 0 0-9.62 14.43v20.844c0 5.756 4.666 10.422 10.422 10.422h156.323c5.756 0 10.422-4.666 10.422-10.422v-20.844a15.63 15.63 0 0 0-9.62-14.43z" fill="#eff2fa"/><path d="M428.217 424.718h-52.108v12.592c0 4.208-2.53 8.002-6.413 9.62l-7.263 3.026c55.574 14.17 65.784-25.238 65.784-25.238z" fill="#d29b6e"/><g fill="#e4eaf6"><path d="M338.978 486.462l-20.916-16.637c-2.803 2.866-4.482 6.741-4.482 10.909v20.844c0 5.756 4.666 10.422 10.422 10.422h20.844v-13.33a15.638 15.638 0 0 0-5.868-12.208zm151.769 15.115v-20.844c0-4.136-1.652-7.985-4.415-10.844l-20.983 16.572a15.631 15.631 0 0 0-5.866 12.207v13.33h20.844c5.754.001 10.42-4.665 10.42-10.421zm-87.802 0h-1.563a4.43 4.43 0 0 1-4.429-4.429v-34.886h10.422v34.886a4.43 4.43 0 0 1-4.43 4.429z"/><path d="M402.164 462.25l-29.824-22.367a4.168 4.168 0 0 0-5.969 1.022l-5.893 8.84 18.285 25.598a4.17 4.17 0 0 0 5.996.833l17.405-13.926zm0 0l29.824-22.367a4.168 4.168 0 0 1 5.969 1.022l5.893 8.84-18.285 25.598a4.17 4.17 0 0 1-5.996.833l-17.405-13.926z"/></g><path d="M428.217 324.41c-26.054 26.054-77.185 5.211-77.185 46.897l3.236 30.706a20.847 20.847 0 0 0 10.634 16.334l29.669 16.482a15.631 15.631 0 0 0 15.183 0l29.669-16.482a20.84 20.84 0 0 0 10.634-16.334l3.735-36.469c.266-2.592.322-5.2.235-7.801-1.948-13.264-20.599-22.911-25.81-33.333z" fill="#f0c087"/><path d="M351.032 371.307l3.236 30.706a20.847 20.847 0 0 0 10.634 16.334l29.669 16.482c3.276 1.82 7.034 2.291 10.61 1.586 0 0-14.958-4.533-23.861-28.632-2.727-7.382-6.513-46.463-3.257-51.24 6.437-9.441 42.337-10.422 52.945-27.936a29.06 29.06 0 0 1-1.449-1.953c-.035-.052-.079-.105-.114-.158a19.892 19.892 0 0 1-1.228-2.085c-26.053 26.053-77.185 5.21-77.185 46.896z" fill="#e6af78"/><path d="M440.203 501.577h-13.548a8.858 8.858 0 0 0-8.858 8.858v1.563h31.264v-1.563a8.859 8.859 0 0 0-8.858-8.858z" fill="#e4eaf6"/></svg>