<svg xmlns="http://www.w3.org/2000/svg" viewBox="0 0 60 60" width="512" height="512"><g fill="#FFF"><path d="M10.5 6.125c-2.481 0-4.5 2.019-4.5 4.5s2.019 4.5 4.5 4.5 4.5-2.019 4.5-4.5-2.019-4.5-4.5-4.5zm0 7c-1.378 0-2.5-1.121-2.5-2.5s1.122-2.5 2.5-2.5 2.5 1.121 2.5 2.5-1.122 2.5-2.5 2.5z"/><circle cx="50" cy="9.125" r="1"/><circle cx="46" cy="9.125" r="1"/><circle cx="52" cy="12.125" r="1"/><circle cx="48" cy="12.125" r="1"/><circle cx="42" cy="9.125" r="1"/><circle cx="44" cy="12.125" r="1"/><circle cx="38" cy="9.125" r="1"/><circle cx="40" cy="12.125" r="1"/><circle cx="34" cy="9.125" r="1"/><circle cx="36" cy="12.125" r="1"/><path d="M10.5 25.125c-2.481 0-4.5 2.019-4.5 4.5s2.019 4.5 4.5 4.5 4.5-2.019 4.5-4.5-2.019-4.5-4.5-4.5zm0 7c-1.378 0-2.5-1.121-2.5-2.5s1.122-2.5 2.5-2.5 2.5 1.121 2.5 2.5-1.122 2.5-2.5 2.5zm0 12c-2.481 0-4.5 2.019-4.5 4.5s2.019 4.5 4.5 4.5 4.5-2.019 4.5-4.5-2.019-4.5-4.5-4.5zm0 7c-1.378 0-2.5-1.121-2.5-2.5s1.122-2.5 2.5-2.5 2.5 1.121 2.5 2.5-1.122 2.5-2.5 2.5z"/><path d="M60 16.517V4.733A4.613 4.613 0 0 0 55.392.125H4.608A4.613 4.613 0 0 0 0 4.733v11.783c0 1.469.703 2.764 1.777 3.608C.703 20.969 0 22.265 0 23.733v11.783c0 1.469.703 2.764 1.777 3.608C.703 39.969 0 41.265 0 42.733v11.783a4.613 4.613 0 0 0 4.608 4.608h27.875c2.682.494 5.622.75 8.517.75 8.672 0 17.816-2.249 18.895-6.553a.99.99 0 0 0 .105-.446v-27.75a.981.981 0 0 0-.096-.416c-.347-1.464-1.648-2.697-3.562-3.685A4.614 4.614 0 0 0 60 16.517zm-58 19V23.733a2.611 2.611 0 0 1 2.608-2.608h20.86c-1.809.971-3.037 2.169-3.372 3.584a.985.985 0 0 0-.096.416v13H4.608A2.611 2.611 0 0 1 2 35.517zm22.626-6.137l.139.087c.176.11.359.218.55.324.055.03.108.061.163.09.233.125.475.247.727.364.04.019.083.037.123.055.221.101.448.198.682.293l.206.083a21.444 21.444 0 0 0 1.751.604l.236.07c.288.084.58.166.879.244l.071.019c.322.083.651.16.985.235l.253.055c.286.062.575.121.867.177l.174.034c.343.064.69.123 1.041.179l.251.039c.291.045.584.087.88.126l.243.032c.358.045.718.087 1.081.125.073.008.147.014.22.021.305.03.612.057.919.082l.278.022c.367.027.736.051 1.105.07l.158.007c.325.016.651.028.977.037l.295.008c.373.008.746.014 1.118.014s.745-.006 1.118-.014l.295-.008c.326-.009.651-.021.977-.037l.158-.007a50.386 50.386 0 0 0 2.302-.174l.22-.021c.363-.038.723-.079 1.081-.125l.243-.032c.295-.039.589-.081.88-.126.084-.013.168-.025.251-.039a40.25 40.25 0 0 0 1.041-.179l.174-.034c.293-.056.582-.115.867-.177l.253-.055c.333-.075.663-.152.985-.235l.071-.019c.299-.077.591-.159.879-.244l.236-.07c.291-.088.577-.179.855-.274l.048-.016a22.488 22.488 0 0 0 1.054-.397c.234-.095.461-.192.682-.293.041-.019.083-.036.123-.055.252-.117.493-.239.727-.364l.163-.09c.19-.105.373-.213.55-.324.046-.029.094-.057.139-.087a9.28 9.28 0 0 0 .589-.414l.038-.026v4.988a.975.975 0 0 0-.021.353c.014.073.024.145.024.219 0 .11-.031.222-.058.333a1.734 1.734 0 0 1-.2.485 2.581 2.581 0 0 1-.407.538c-.037.04-.074.08-.114.12-2.117 2.048-8.364 3.898-16.22 3.898-7.851 0-14.095-1.848-16.216-3.895a3.734 3.734 0 0 1-.124-.131 2.497 2.497 0 0 1-.405-.538 1.709 1.709 0 0 1-.198-.485c-.027-.108-.058-.217-.058-.325 0-.071.009-.142.021-.212a.997.997 0 0 0-.021-.385v-4.964l.038.026c.185.142.381.28.588.415zm33.231 14.712a2.581 2.581 0 0 1-.523.764c-.037.04-.074.08-.114.12-2.117 2.048-8.364 3.898-16.22 3.898-7.851 0-14.095-1.848-16.216-3.895a3.734 3.734 0 0 1-.124-.131 2.497 2.497 0 0 1-.405-.538 1.709 1.709 0 0 1-.198-.485c-.023-.094-.047-.189-.05-.283v-.12c.004-.045.006-.09.013-.135.014-.086-.005-.17-.014-.255L24 38.125v-.186c.04.031.087.06.129.09a10.09 10.09 0 0 0 .733.494 12.496 12.496 0 0 0 .556.327c2.086 1.137 4.954 1.958 8.125 2.455l.072.011c1.023.159 2.073.283 3.141.374.227.019.453.039.682.055a54.917 54.917 0 0 0 1.576.086c.176.007.352.015.529.02.487.014.973.024 1.458.024.484 0 .97-.009 1.455-.023.178-.005.355-.013.533-.02a53.434 53.434 0 0 0 1.574-.086c.225-.016.447-.035.671-.054a45.947 45.947 0 0 0 3.17-.377l.046-.007c3.465-.542 6.564-1.473 8.681-2.779a8.488 8.488 0 0 0 .73-.491c.045-.033.096-.064.14-.098v4.988a.975.975 0 0 0-.021.353c.01.073.02.145.02.219 0 .11-.031.222-.058.333a1.74 1.74 0 0 1-.085.259zM4.608 57.125A2.611 2.611 0 0 1 2 54.517V42.733a2.611 2.611 0 0 1 2.608-2.608H22v13.75h.296c.016.037.039.073.057.11a4.234 4.234 0 0 0 .392.66 6.098 6.098 0 0 0 .53.632 7.95 7.95 0 0 0 1.43 1.147c.384.247.799.481 1.248.702H4.608zM58 52.619a1.05 1.05 0 0 0-.02.094c-.409 2.493-7.33 5.162-16.98 5.162-3.079 0-5.875-.273-8.276-.724l.001-.008c-4.973-.941-7.725-2.53-8.495-3.87l-.002-.004c-.035-.062-.06-.123-.087-.183a1.706 1.706 0 0 1-.121-.373l-.008-5.765c.036.028.079.054.116.082a10.09 10.09 0 0 0 .733.494 12.496 12.496 0 0 0 .556.327c2.086 1.137 4.954 1.958 8.125 2.455l.072.011c1.023.159 2.073.283 3.141.374.227.019.453.039.682.055a54.917 54.917 0 0 0 1.576.086c.176.007.352.015.529.02.487.014.973.024 1.458.024.484 0 .97-.009 1.455-.023.178-.005.355-.013.533-.02a53.434 53.434 0 0 0 1.574-.086c.225-.016.447-.035.671-.054a45.947 45.947 0 0 0 3.17-.377l.046-.007c3.465-.542 6.564-1.473 8.681-2.779a8.488 8.488 0 0 0 .73-.491c.045-.033.096-.064.14-.098v5.678zM58 25.5c0 2.537-7.271 5.375-17 5.375-9.73 0-17-2.838-17-5.375 0-.128.031-.258.068-.388.04-.129.094-.261.174-.397l.009-.018c.333-.556 1.004-1.154 2.037-1.731a16.296 16.296 0 0 1 .695-.357 15.757 15.757 0 0 1 .867-.378c1.162-.463 2.562-.874 4.138-1.21a35.87 35.87 0 0 1 1.511-.288c.137-.023.271-.047.41-.069 4.477-.69 9.7-.69 14.177 0 .141.022.277.047.416.07a33.61 33.61 0 0 1 1.501.286C54.878 22.058 58 23.841 58 25.5zm0-8.983a2.611 2.611 0 0 1-2.608 2.608h-4.63c-.058-.013-.122-.021-.18-.034a37.369 37.369 0 0 0-2.021-.379l-.201-.031a48.512 48.512 0 0 0-7.36-.556c-2.479 0-4.997.189-7.358.556l-.206.031a38.14 38.14 0 0 0-2.015.378c-.059.013-.125.021-.184.034H4.608A2.61 2.61 0 0 1 2 16.517V4.733a2.611 2.611 0 0 1 2.608-2.608h50.783A2.611 2.611 0 0 1 58 4.733v11.784z"/></g></svg>