<svg xmlns="http://www.w3.org/2000/svg" viewBox="0 0 54 54"><g fill="#57b0e3"><path d="M27 53C12.641 53 1 41.359 1 27S12.641 1 27 1s26 11.641 26 26-11.641 26-26 26z"/><path d="M27 54C12.112 54 0 41.888 0 27S12.112 0 27 0s27 12.112 27 27-12.112 27-27 27zm0-52C13.215 2 2 13.215 2 27s11.215 25 25 25 25-11.215 25-25S40.785 2 27 2z"/></g><path d="M27 40a.999.999 0 0 1-.707-1.707L37.586 27 26.293 15.707a.999.999 0 1 1 1.414-1.414l11.498 11.498a1.711 1.711 0 0 1 0 2.418L27.707 39.707A.997.997 0 0 1 27 40z" fill="#fff"/><path d="M17 40a.999.999 0 0 1-.707-1.707L27.586 27 16.293 15.707a.999.999 0 1 1 1.414-1.414l11.498 11.498a1.711 1.711 0 0 1 0 2.418L17.707 39.707A.997.997 0 0 1 17 40z" fill="#fff"/></svg>