<svg width="508" height="493" viewBox="0 0 508 493" xmlns="http://www.w3.org/2000/svg" xmlns:xlink="http://www.w3.org/1999/xlink"><title>hero-icons-right</title><defs><path id="a" d="M0 0h508v493H0z"/><rect id="d" width="95.437" height="95.455" rx="20"/><filter x="-50%" y="-50%" width="200%" height="200%" filterUnits="objectBoundingBox" id="c"><feOffset in="SourceAlpha" result="shadowOffsetOuter1"/><feGaussianBlur stdDeviation="5" in="shadowOffsetOuter1" result="shadowBlurOuter1"/><feColorMatrix values="0 0 0 0 0 0 0 0 0 0 0 0 0 0 0 0 0 0 0.1 0" in="shadowBlurOuter1"/></filter><rect id="f" width="95.437" height="95.455" rx="20"/><filter x="-50%" y="-50%" width="200%" height="200%" filterUnits="objectBoundingBox" id="e"><feOffset in="SourceAlpha" result="shadowOffsetOuter1"/><feGaussianBlur stdDeviation="5" in="shadowOffsetOuter1" result="shadowBlurOuter1"/><feColorMatrix values="0 0 0 0 0 0 0 0 0 0 0 0 0 0 0 0 0 0 0.1 0" in="shadowBlurOuter1"/></filter><rect id="h" width="95.437" height="95.455" rx="20"/><filter x="-50%" y="-50%" width="200%" height="200%" filterUnits="objectBoundingBox" id="g"><feOffset in="SourceAlpha" result="shadowOffsetOuter1"/><feGaussianBlur stdDeviation="5" in="shadowOffsetOuter1" result="shadowBlurOuter1"/><feColorMatrix values="0 0 0 0 0 0 0 0 0 0 0 0 0 0 0 0 0 0 0.1 0" in="shadowBlurOuter1"/></filter><rect id="j" width="95.437" height="95.455" rx="20"/><filter x="-50%" y="-50%" width="200%" height="200%" filterUnits="objectBoundingBox" id="i"><feOffset in="SourceAlpha" result="shadowOffsetOuter1"/><feGaussianBlur stdDeviation="5" in="shadowOffsetOuter1" result="shadowBlurOuter1"/><feColorMatrix values="0 0 0 0 0 0 0 0 0 0 0 0 0 0 0 0 0 0 0.1 0" in="shadowBlurOuter1"/></filter><path id="k" d="M.217 11.565h22.964V.13H.217v11.435z"/><path id="m" d="M23.181 27.845V.236H.217v27.61h22.964z"/><rect id="p" width="95.437" height="95.455" rx="20"/><filter x="-50%" y="-50%" width="200%" height="200%" filterUnits="objectBoundingBox" id="o"><feOffset in="SourceAlpha" result="shadowOffsetOuter1"/><feGaussianBlur stdDeviation="5" in="shadowOffsetOuter1" result="shadowBlurOuter1"/><feColorMatrix values="0 0 0 0 0 0 0 0 0 0 0 0 0 0 0 0 0 0 0.1 0" in="shadowBlurOuter1"/></filter><rect id="r" width="95.437" height="95.455" rx="20"/><filter x="-50%" y="-50%" width="200%" height="200%" filterUnits="objectBoundingBox" id="q"><feOffset in="SourceAlpha" result="shadowOffsetOuter1"/><feGaussianBlur stdDeviation="5" in="shadowOffsetOuter1" result="shadowBlurOuter1"/><feColorMatrix values="0 0 0 0 0 0 0 0 0 0 0 0 0 0 0 0 0 0 0.1 0" in="shadowBlurOuter1"/></filter><rect id="t" width="95.437" height="95.455" rx="20"/><filter x="-50%" y="-50%" width="200%" height="200%" filterUnits="objectBoundingBox" id="s"><feOffset in="SourceAlpha" result="shadowOffsetOuter1"/><feGaussianBlur stdDeviation="5" in="shadowOffsetOuter1" result="shadowBlurOuter1"/><feColorMatrix values="0 0 0 0 0 0 0 0 0 0 0 0 0 0 0 0 0 0 0.1 0" in="shadowBlurOuter1"/></filter><rect id="v" width="95.437" height="95.455" rx="20"/><filter x="-50%" y="-50%" width="200%" height="200%" filterUnits="objectBoundingBox" id="u"><feOffset in="SourceAlpha" result="shadowOffsetOuter1"/><feGaussianBlur stdDeviation="5" in="shadowOffsetOuter1" result="shadowBlurOuter1"/><feColorMatrix values="0 0 0 0 0 0 0 0 0 0 0 0 0 0 0 0 0 0 0.1 0" in="shadowBlurOuter1"/></filter><rect id="x" width="95.437" height="95.455" rx="20"/><filter x="-50%" y="-50%" width="200%" height="200%" filterUnits="objectBoundingBox" id="w"><feOffset in="SourceAlpha" result="shadowOffsetOuter1"/><feGaussianBlur stdDeviation="5" in="shadowOffsetOuter1" result="shadowBlurOuter1"/><feColorMatrix values="0 0 0 0 0 0 0 0 0 0 0 0 0 0 0 0 0 0 0.1 0" in="shadowBlurOuter1"/></filter><rect id="z" width="95.437" height="95.455" rx="20"/><filter x="-50%" y="-50%" width="200%" height="200%" filterUnits="objectBoundingBox" id="y"><feOffset in="SourceAlpha" result="shadowOffsetOuter1"/><feGaussianBlur stdDeviation="5" in="shadowOffsetOuter1" result="shadowBlurOuter1"/><feColorMatrix values="0 0 0 0 0 0 0 0 0 0 0 0 0 0 0 0 0 0 0.1 0" in="shadowBlurOuter1"/></filter><rect id="B" width="95.437" height="95.455" rx="20"/><filter x="-50%" y="-50%" width="200%" height="200%" filterUnits="objectBoundingBox" id="A"><feOffset in="SourceAlpha" result="shadowOffsetOuter1"/><feGaussianBlur stdDeviation="5" in="shadowOffsetOuter1" result="shadowBlurOuter1"/><feColorMatrix values="0 0 0 0 0 0 0 0 0 0 0 0 0 0 0 0 0 0 0.1 0" in="shadowBlurOuter1"/></filter><rect id="D" width="95.437" height="95.455" rx="20"/><filter x="-50%" y="-50%" width="200%" height="200%" filterUnits="objectBoundingBox" id="C"><feOffset in="SourceAlpha" result="shadowOffsetOuter1"/><feGaussianBlur stdDeviation="5" in="shadowOffsetOuter1" result="shadowBlurOuter1"/><feColorMatrix values="0 0 0 0 0 0 0 0 0 0 0 0 0 0 0 0 0 0 0.1 0" in="shadowBlurOuter1"/></filter><rect id="F" width="95.437" height="95.455" rx="20"/><filter x="-50%" y="-50%" width="200%" height="200%" filterUnits="objectBoundingBox" id="E"><feOffset in="SourceAlpha" result="shadowOffsetOuter1"/><feGaussianBlur stdDeviation="5" in="shadowOffsetOuter1" result="shadowBlurOuter1"/><feColorMatrix values="0 0 0 0 0 0 0 0 0 0 0 0 0 0 0 0 0 0 0.1 0" in="shadowBlurOuter1"/></filter><rect id="H" width="95.437" height="95.455" rx="20"/><filter x="-50%" y="-50%" width="200%" height="200%" filterUnits="objectBoundingBox" id="G"><feOffset in="SourceAlpha" result="shadowOffsetOuter1"/><feGaussianBlur stdDeviation="5" in="shadowOffsetOuter1" result="shadowBlurOuter1"/><feColorMatrix values="0 0 0 0 0 0 0 0 0 0 0 0 0 0 0 0 0 0 0.1 0" in="shadowBlurOuter1"/></filter><rect id="J" width="95.437" height="95.455" rx="20"/><filter x="-50%" y="-50%" width="200%" height="200%" filterUnits="objectBoundingBox" id="I"><feOffset in="SourceAlpha" result="shadowOffsetOuter1"/><feGaussianBlur stdDeviation="5" in="shadowOffsetOuter1" result="shadowBlurOuter1"/><feColorMatrix values="0 0 0 0 0 0 0 0 0 0 0 0 0 0 0 0 0 0 0.1 0" in="shadowBlurOuter1"/></filter></defs><g fill="none" fill-rule="evenodd"><mask id="b" fill="#fff"><use xlink:href="#a"/></mask><g mask="url(#b)"><g transform="translate(432 424)"><use fill="#000" filter="url(#c)" xlink:href="#d"/><use fill="#264970" xlink:href="#d"/></g><g fill="#FFF" fill-rule="nonzero"><path d="M469.075 450.215a3.246 3.246 0 0 0-3.248 3.25 3.249 3.249 0 0 0 6.496 0 3.245 3.245 0 0 0-3.248-3.25m21.338 0a3.245 3.245 0 0 0-3.247 3.25 3.248 3.248 0 0 0 3.247 3.252 3.252 3.252 0 0 0 0-6.502m-10.67-2.966a3.246 3.246 0 0 0-3.247 3.25 3.248 3.248 0 0 0 6.495 0 3.245 3.245 0 0 0-3.248-3.25m18.348 12.024a1.02 1.02 0 0 0-.982-.142c-2.199.842-4.432 1.48-6.47 1.955a1.272 1.272 0 0 0-.89.776c-1.486 4.068-5.278 7.942-9.257 11.999-.16.151-.383.351-.747.351-.363 0-.585-.193-.747-.351-3.978-4.057-7.77-7.918-9.256-11.986a1.275 1.275 0 0 0-.89-.776 50.255 50.255 0 0 1-6.475-1.974 1.002 1.002 0 0 0-.977.14 1.016 1.016 0 0 0-.395.898c.337 3.383 1.673 6.69 4.086 10.155 2.267 3.258 5.225 6.274 8.084 9.19 5.269 5.374 10.246 10.45 10.683 16.335.04.532.482.943 1.015.943h6.19a1.019 1.019 0 0 0 1.017-1.068c-.195-3.935-1.676-7.876-4.528-12.046a41.12 41.12 0 0 0-1.907-2.558c-.272-.339-.158-.76.05-.973l.62-.633c2.86-2.916 5.817-5.932 8.085-9.19 2.412-3.466 3.748-6.753 4.085-10.135.034-.34-.12-.7-.394-.91m-24.988 24.813a.943.943 0 0 0-.723-.309c-.462 0-.736.32-.84.477-2.604 3.962-3.948 7.702-4.134 11.46-.013.279.088.551.28.755.194.202.46.316.74.317h6.18a1.026 1.026 0 0 0 1.019-.946c.134-1.811.698-3.627 1.725-5.535.356-.66.08-1.28-.126-1.545-1.018-1.324-2.266-2.737-4.121-4.674"/><path d="M479.75 462.305c1.94 0 3.066-.116 3.461-.116a.944.944 0 0 1 .861 1.318c-.257.687-1.43 3.162-3.613 5.285a.996.996 0 0 1-.713.282h-.003a.994.994 0 0 1-.712-.282c-2.184-2.123-3.356-4.598-3.613-5.286a.945.945 0 0 1 .861-1.318c.396 0 1.52.117 3.46.117h.012"/></g></g><g mask="url(#b)"><g transform="translate(326 424)"><use fill="#000" filter="url(#e)" xlink:href="#f"/><use fill="#B3DCFF" xlink:href="#f"/></g><g fill-rule="nonzero"><path d="M374.059 451c-13.407 0-23.91 17.057-24.904 31.463 4.207 7.301 14.353 10.046 24.904 10.046 10.55 0 20.696-2.745 24.901-10.046-.994-14.406-11.496-31.463-24.9-31.463" fill="#FFF" opacity=".9"/><path d="M395.457 479.031s-2.96-6.401-5.97-10.136c-3.012-3.736-6.69-7.805-8.865-7.805-2.173 0-8.249 10.758-11.036 10.758-2.788 0-4.237-4.877-7.665-4.877s-8.876 11.76-8.876 11.76l-.37 1.993s1.893 8.391 21.693 8.391 21.383-8.253 21.383-8.253l-.294-1.83" fill="#6C6"/><path d="M369.896 476.438c-3.075 0-4.651-3.034-5.506-4.906-.769-1.687-.902-4.351-3.082-4.426a1.69 1.69 0 0 1 .613-.135c3.428 0 4.877 4.877 7.665 4.877 2.787 0 8.863-10.758 11.036-10.758.41 0 .871.145 1.372.402-.37-.05-.845-.015-1.211.352-.703.702-7.08 14.594-10.887 14.594" fill="#17AD49"/></g></g><g mask="url(#b)"><g transform="translate(220 424)"><use fill="#000" filter="url(#g)" xlink:href="#h"/><use fill="#98ABB3" xlink:href="#h"/></g><g fill="#FFF" fill-rule="nonzero"><path d="M286.64 456.449l-14.754-8.49c-1.086-.612-2.52-.959-4.037-.959-1.516 0-2.95.347-4.036.98l-14.754 8.49c-2.254 1.285-4.036 4.346-4.036 6.959v16.959c0 2.612 1.782 5.673 4.036 6.98l14.754 8.49c1.106.632 2.54.979 4.036.979 1.517 0 2.951-.347 4.037-.98l14.754-8.49c2.274-1.306 4.036-4.367 4.036-6.98V463.43c.02-2.613-1.762-5.674-4.036-6.98zm1.557 23.939c0 1.714-1.312 3.959-2.787 4.816l-14.753 8.49c-.717.408-1.742.653-2.808.653-1.065 0-2.09-.245-2.786-.653l-14.754-8.49c-1.495-.857-2.786-3.102-2.786-4.816v-16.96c0-1.714 1.311-3.959 2.786-4.816l14.754-8.49c.717-.408 1.741-.653 2.786-.653 1.066 0 2.09.225 2.808.653l14.753 8.49c1.496.857 2.787 3.102 2.787 4.817v16.959z"/><path d="M254.326 479.47h25.757v-6.837h-4.488V475h-16.966c.102-1.47.45-4.082 1.741-5.429.574-.612 1.312-.898 2.295-.898h17.52v-4.469h-17.479c-2.274 0-4.16.776-5.614 2.306-3.484 3.674-2.971 10.612-2.95 10.898l.184 2.061z"/></g></g><g mask="url(#b)"><g transform="translate(114 424)"><use fill="#000" filter="url(#i)" xlink:href="#j"/><use fill="#00353D" xlink:href="#j"/></g><path d="M158.964 453.34c0 6.315-5.14 11.435-11.482 11.435-6.341 0-11.482-5.12-11.482-11.435h22.964z" fill="#FFF"/><g transform="translate(162.53 479.294)"><mask id="l" fill="#fff"><use xlink:href="#k"/></mask><path d="M.217 11.565C.217 5.25 5.358.13 11.7.13c6.341 0 11.482 5.12 11.482 11.435H.217z" fill="#FFF" mask="url(#l)"/></g><path d="M158.964 463.25v27.609H136z" fill="#FFF"/><g transform="translate(162.53 453.104)"><mask id="n" fill="#fff"><use xlink:href="#m"/></mask><path fill="#FFF" mask="url(#n)" d="M.217 27.845V.236h22.964z"/></g></g><g mask="url(#b)"><g transform="translate(8 424)"><use fill="#000" filter="url(#o)" xlink:href="#p"/><use fill="#EE8636" xlink:href="#p"/></g><path d="M33.256 490.338l7.99-37.954c.78-3.683 3.048-5.384 6.52-5.384h25.298c2.904 0 4.463 1.133 4.463 3.115 0 1.136-.635 3.683-1.773 4.82-.78.851-1.699 1.135-4.04 1.135h-20.76l-2.435 11.18h15.518c2.693 0 4.11 1.133 4.11 2.904 0 1.064-.496 3.402-1.56 4.535-.71.707-1.63 1.136-3.755 1.136H46.673l-2.5 12.105h20.69c2.907 0 4.394 1.136 4.394 3.048 0 1.206-.566 3.683-1.699 4.889-.782.782-1.773 1.133-4.042 1.133H38.5c-4.323 0-6.236-2.202-5.245-6.662" fill="#FFF"/></g><g mask="url(#b)"><g transform="translate(432 318)"><use fill="#000" filter="url(#q)" xlink:href="#r"/><use fill="#E44332" xlink:href="#r"/></g><path d="M498.503 341h-37.256c-3.416 0-6.21 2.808-6.21 6.24v8.026s7.973 4.656 8.482 4.955c.646.375 1.44.362 2.074 0 .534-.312 16.604-9.585 16.84-9.723a1.553 1.553 0 0 1 1.552-.012c.335.2 1.254.724 1.739.998.484.275.46 1.049.025 1.298-.435.25-19.224 11.121-20.106 11.633-.72.412-1.428.424-2.173 0-1.242-.712-6.384-3.707-8.445-4.918v4.206s7.973 4.656 8.482 4.956c.646.374 1.44.361 2.074 0 .534-.313 16.603-9.586 16.84-9.723a1.553 1.553 0 0 1 1.552-.013c.335.2 1.254.724 1.738.999.485.274.46 1.048.025 1.298-.434.25-19.224 11.12-20.106 11.632-.72.412-1.428.425-2.173 0-1.242-.711-6.383-3.707-8.445-4.917v4.206s7.973 4.655 8.482 4.955c.646.374 1.44.362 2.074 0 .534-.312 16.604-9.586 16.84-9.723a1.553 1.553 0 0 1 1.552-.013c.336.2 1.255.724 1.739.999.484.275.46 1.048.025 1.298s-19.224 11.12-20.106 11.633c-.72.411-1.428.424-2.173 0-1.242-.712-6.384-3.707-8.445-4.918v8.387c0 3.433 2.794 6.241 6.21 6.241h37.255c3.415 0 6.21-2.808 6.21-6.24v-37.444c.037-3.508-2.757-6.316-6.172-6.316z" fill="#FFF"/></g><g mask="url(#b)"><g transform="translate(326 318)"><use fill="#000" filter="url(#s)" xlink:href="#t"/><use fill="#5088AC" xlink:href="#t"/></g><path d="M389.34 347.227c-8.27-8.27-21.707-8.303-30.02-.096l-.097.097c-8.3 8.304-8.297 21.812.005 30.113l12.822 12.82c.537.538 1.266.84 2.026.839.733 0 1.469-.279 2.028-.839a2.869 2.869 0 0 0 0-4.054l-12.824-12.82c-6.048-6.048-6.068-15.88-.057-21.952l.059-.057c6.068-6.064 15.94-6.063 22.004.002 4.98 4.98 5.695 13.503 1.66 19.827a2.866 2.866 0 0 0 4.83 3.084c5.538-8.677 4.513-20.016-2.435-26.964m-5.132 30.771a2.866 2.866 0 0 1 0 4.053 2.864 2.864 0 0 1-4.054.001l-12.822-12.82c-3.83-3.83-3.83-10.067 0-13.9a9.768 9.768 0 0 1 6.948-2.876h.003a9.755 9.755 0 0 1 6.947 2.881 9.822 9.822 0 0 1 2.466 9.766 2.867 2.867 0 0 1-5.495-1.64 4.091 4.091 0 0 0-1.026-4.073 4.063 4.063 0 0 0-2.893-1.2h-.002c-1.094 0-2.12.425-2.894 1.197a4.1 4.1 0 0 0 0 5.791l12.822 12.82" fill="#FFF" fill-rule="nonzero"/></g><g mask="url(#b)"><g transform="translate(220 318)"><use fill="#000" filter="url(#u)" xlink:href="#v"/><use fill="#405DE6" xlink:href="#v"/></g><g fill="#FFF"><path d="M267.992 341.016c-6.787 0-7.638.029-10.304.15-2.66.122-4.477.544-6.067 1.162-1.643.638-3.037 1.493-4.426 2.882-1.39 1.39-2.244 2.784-2.883 4.427-.618 1.59-1.04 3.407-1.162 6.067-.121 2.665-.15 3.516-.15 10.304 0 6.787.029 7.638.15 10.304.122 2.66.544 4.477 1.162 6.067.639 1.643 1.493 3.037 2.883 4.426 1.39 1.39 2.783 2.244 4.426 2.883 1.59.618 3.407 1.04 6.067 1.162 2.666.121 3.517.15 10.304.15 6.788 0 7.639-.029 10.304-.15 2.66-.122 4.477-.544 6.067-1.162 1.643-.639 3.037-1.493 4.427-2.883 1.389-1.39 2.244-2.783 2.882-4.426.618-1.59 1.04-3.407 1.162-6.067.121-2.666.15-3.517.15-10.304 0-6.788-.029-7.639-.15-10.304-.121-2.66-.544-4.477-1.162-6.067-.638-1.643-1.493-3.037-2.882-4.427-1.39-1.389-2.784-2.244-4.427-2.882-1.59-.618-3.407-1.04-6.067-1.162-2.665-.121-3.516-.15-10.304-.15zm0 4.503c6.673 0 7.464.025 10.1.146 2.436.11 3.76.518 4.64.86 1.166.453 1.999.995 2.873 1.87.875.874 1.417 1.707 1.87 2.873.342.88.75 2.204.86 4.64.12 2.636.146 3.427.146 10.1s-.025 7.464-.146 10.099c-.11 2.437-.518 3.76-.86 4.64-.453 1.167-.995 2-1.87 2.874-.874.875-1.707 1.416-2.873 1.87-.88.342-2.204.75-4.64.86-2.636.12-3.426.146-10.1.146-6.674 0-7.464-.026-10.099-.146-2.437-.11-3.76-.518-4.64-.86-1.167-.454-2-.995-2.874-1.87-.875-.874-1.416-1.707-1.87-2.873-.342-.881-.75-2.204-.86-4.641-.12-2.635-.146-3.426-.146-10.1 0-6.672.026-7.463.146-10.098.11-2.437.518-3.76.86-4.64.454-1.167.995-2 1.87-2.874.874-.875 1.707-1.417 2.873-1.87.881-.342 2.204-.75 4.641-.86 2.635-.12 3.426-.146 10.1-.146z"/><path d="M267.992 374.339a8.33 8.33 0 1 1 0-16.662 8.33 8.33 0 0 1 0 16.662zm0-21.165c-7.088 0-12.834 5.746-12.834 12.834 0 7.088 5.746 12.834 12.834 12.834 7.088 0 12.834-5.746 12.834-12.834 0-7.088-5.746-12.834-12.834-12.834zm16.34-.507a2.999 2.999 0 1 1-5.998 0 2.999 2.999 0 0 1 5.998 0"/></g></g><g mask="url(#b)"><g transform="translate(114 318)"><use fill="#000" filter="url(#w)" xlink:href="#x"/><use fill="#C14A41" xlink:href="#x"/></g><path fill="#FFF" d="M151.611 385.503L137 356.528l9.953-3.156 7.738 17.327 1.062-18.601 8.648-1.67 7.98 17.024.717-18.7L182 347l-2.549 33.105-9.315 1.851-8.041-16.658-1.123 18.479-9.361 1.726"/></g><g mask="url(#b)"><g transform="translate(432 212)"><use fill="#000" filter="url(#y)" xlink:href="#z"/><use fill="#2F3241" xlink:href="#z"/></g><g fill-rule="nonzero"><path fill="#70BF3C" d="M491.323 256.806v-21.5L465 251.596v21.5z"/><path fill="#9B9694" d="M493.742 283.387L465 273.097l22.016-13.613 6.726 2.403v21.5"/><path fill="#678356" d="M465 273.097v-21.5l22.016 7.887L465 273.097"/></g></g><g mask="url(#b)"><g transform="translate(326 212)"><use fill="#000" filter="url(#A)" xlink:href="#B"/><use fill="#F8761F" xlink:href="#B"/></g><path d="M392.61 258.635c-1.124-1.935-2.704-3.486-4.679-4.654a12.55 12.55 0 0 0-4.731-1.641v-6.148c1.725-.734 2.795-2.357 2.795-4.25 0-2.581-2.067-4.673-4.642-4.673a4.681 4.681 0 0 0-4.68 4.673c0 1.893 1.008 3.516 2.733 4.25v6.15c-1.38.2-2.811.631-4.118 1.293-2.668-2.03-11.42-8.688-16.539-12.577.122-.439.215-.89.215-1.367a5.17 5.17 0 0 0-5.167-5.176 5.17 5.17 0 0 0-5.167 5.176 5.172 5.172 0 0 0 5.169 5.176c.974 0 1.875-.285 2.653-.755l1.08.821 14.845 10.71c-.785.722-1.516 1.543-2.1 2.464-1.185 1.877-1.91 3.943-1.91 6.196v.47c0 1.582.3 3.075.812 4.478a11.758 11.758 0 0 0 1.923 3.345l-4.927 4.946a3.963 3.963 0 0 0-4.196.921 3.975 3.975 0 0 0-1.169 2.83c0 1.068.416 2.072 1.171 2.827a3.964 3.964 0 0 0 2.824 1.173 3.967 3.967 0 0 0 2.826-1.173 3.98 3.98 0 0 0 1.17-2.828c0-.413-.065-.817-.185-1.2l5.093-5.1c.698.483 1.452.89 2.262 1.24a13.216 13.216 0 0 0 5.295 1.114h.354c2.135 0 4.15-.502 6.043-1.53a12.514 12.514 0 0 0 4.736-4.465c1.186-1.9 1.839-4 1.839-6.31v-.116c0-2.272-.525-4.369-1.629-6.29zm-6.223 10.699c-1.382 1.538-2.97 2.485-4.767 2.485h-.296c-1.026 0-2.03-.284-3.012-.8-1.107-.569-1.948-1.38-2.637-2.406-.712-1.008-1.099-2.109-1.099-3.276v-.354c0-1.147.22-2.235.774-3.262a7.06 7.06 0 0 1 2.456-2.69 6.005 6.005 0 0 1 3.403-1.028h.115c1.127 0 2.193.222 3.2.738a6.781 6.781 0 0 1 2.513 2.29 7.289 7.289 0 0 1 1.127 3.216c.019.241.028.489.028.725 0 1.576-.601 3.036-1.805 4.362z" fill="#FFF" fill-rule="nonzero"/></g><g mask="url(#b)"><g transform="translate(220 212)"><use fill="#000" filter="url(#C)" xlink:href="#D"/><use fill="#2C5797" xlink:href="#D"/></g><g fill="#FFF"><path d="M282.893 263.37c1.25-.867 1.612-2.003 1.612-3.092v-.482c0-1.134-.625-2.018-1.614-2.728-.835-.6-31.12-21.655-31.12-21.655v4.48c0 1.555.843 2.074 1.901 2.822 1.525 1.076 25.174 17.496 25.174 17.496s-23.962 16.56-25.395 17.51c-1.489.987-1.68 1.664-1.68 2.972v4.193s29.769-20.577 31.122-21.516"/><path d="M251.77 250.26v3.08s9.35 6.531 11.162 7.73c1.545 1.025 2.848.944 4.424-.219a85.697 85.697 0 0 1 1.9-1.357s-13.624-9.451-15.062-10.401c-1.15-.762-2.424-.222-2.424 1.166"/></g></g><g mask="url(#b)"><g transform="translate(432 106)"><use fill="#000" filter="url(#E)" xlink:href="#F"/><use fill="#1B1A18" xlink:href="#F"/></g><path d="M481.636 157.72c-5.335 0-7.759-5.108-7.759-9.84 0-7.454 4.077-10.111 7.89-10.111 4.678 0 7.824 4.033 7.824 10.041 0 6.85-4 9.91-7.955 9.91m2.012-28.72c-5.568 0-8.788 2.499-10.34 4.225-.186-1.487-1.166-3.417-4.995-3.417H460v8.701h3.407c.577 0 .762.184.762.76V179h9.91v-14.912a35.4 35.4 0 0 0-.018-1.115c1.547 1.42 4.504 3.378 9.12 3.378 9.687 0 16.458-7.677 16.458-18.673 0-11.171-6.43-18.678-15.991-18.678" fill="#FFF"/></g><g mask="url(#b)"><g transform="translate(326 106)"><use fill="#000" filter="url(#G)" xlink:href="#H"/><use fill="#FFF" xlink:href="#H"/></g><g fill-rule="nonzero"><path d="M367.968 137.483c2.32-2.398 5.55-3.885 9.121-3.885 4.748 0 8.89 2.627 11.097 6.526a15.439 15.439 0 0 1 6.272-1.323c8.563 0 15.506 6.948 15.506 15.518s-6.943 15.519-15.506 15.519c-1.026 0-2.05-.1-3.055-.302a11.347 11.347 0 0 1-9.894 5.76c-1.778 0-3.46-.407-4.959-1.132a12.937 12.937 0 0 1-11.905 7.818 12.934 12.934 0 0 1-12.136-8.399c-.796.168-1.621.256-2.468.256-6.63 0-12.005-5.388-12.005-12.035 0-4.454 2.415-8.343 6.003-10.424a13.683 13.683 0 0 1-1.15-5.504c0-7.644 6.256-13.84 13.971-13.84a13.99 13.99 0 0 1 11.108 5.447" fill="#00A1E0"/><path d="M348.454 157.936c-.045.117.017.142.03.162.136.098.273.168.412.246.733.386 1.426.5 2.15.5 1.476 0 2.392-.78 2.392-2.033v-.024c0-1.16-1.034-1.58-2.004-1.884l-.126-.04c-.732-.236-1.363-.44-1.363-.917v-.026c0-.408.369-.71.94-.71.636 0 1.39.21 1.876.477 0 0 .142.091.194-.046.029-.073.275-.73.3-.801.028-.077-.021-.134-.071-.165-.554-.334-1.32-.563-2.114-.563h-.147c-1.35 0-2.293.81-2.293 1.97v.024c0 1.223 1.04 1.62 2.014 1.896l.157.048c.71.216 1.321.402 1.321.898v.025c0 .453-.397.79-1.039.79a3.51 3.51 0 0 1-1.9-.542c-.104-.06-.164-.104-.244-.152-.042-.026-.148-.072-.194.066l-.29.801zm21.6 0c-.045.117.016.142.03.162.136.098.273.168.412.246.733.386 1.426.5 2.15.5 1.476 0 2.392-.78 2.392-2.033v-.024c0-1.16-1.034-1.58-2.004-1.884l-.126-.04c-.732-.236-1.363-.44-1.363-.917v-.026c0-.408.369-.71.94-.71.636 0 1.39.21 1.875.477 0 0 .143.091.195-.046.029-.073.275-.73.3-.801.028-.077-.021-.134-.071-.165-.555-.334-1.321-.563-2.114-.563h-.148c-1.35 0-2.293.81-2.293 1.97v.024c0 1.223 1.04 1.62 2.015 1.896l.156.048c.71.216 1.323.402 1.323.898v.025c0 .453-.398.79-1.04.79a3.51 3.51 0 0 1-1.9-.542c-.104-.06-.165-.102-.243-.152-.027-.017-.152-.065-.195.066l-.291.801zm14.746-2.455c0 .709-.134 1.267-.396 1.661-.26.39-.652.58-1.199.58-.548 0-.938-.188-1.193-.58-.259-.393-.39-.952-.39-1.66s.131-1.265.39-1.655c.255-.387.645-.575 1.193-.575s.94.188 1.2.575c.262.39.395.947.395 1.654zm1.231-1.313a2.933 2.933 0 0 0-.56-1.061 2.707 2.707 0 0 0-.946-.714c-.376-.173-.82-.262-1.32-.262-.5 0-.944.089-1.32.262a2.721 2.721 0 0 0-.947.714c-.25.299-.439.657-.56 1.061a4.61 4.61 0 0 0-.18 1.313c0 .47.06.911.18 1.314.121.404.309.762.561 1.06.251.3.57.539.946.708.377.17.82.257 1.32.257.5 0 .943-.087 1.32-.257.376-.17.695-.408.946-.707.25-.298.44-.656.56-1.061a4.58 4.58 0 0 0 .182-1.314c0-.467-.06-.91-.182-1.313zm10.114 3.366c-.041-.12-.157-.075-.157-.075-.18.069-.37.132-.573.163a4.5 4.5 0 0 1-.675.048c-.596 0-1.07-.176-1.409-.524-.34-.347-.53-.91-.528-1.67.002-.692.17-1.212.472-1.609.3-.394.757-.597 1.367-.597.508 0 .895.058 1.301.185 0 0 .097.042.143-.084.108-.297.188-.51.303-.836.033-.092-.047-.132-.076-.143a4.837 4.837 0 0 0-.822-.205 6.215 6.215 0 0 0-.924-.062c-.518 0-.979.087-1.373.262a2.84 2.84 0 0 0-.992.713 3.025 3.025 0 0 0-.6 1.06c-.132.404-.2.848-.2 1.316 0 1.014.276 1.833.82 2.433.545.601 1.363.907 2.431.907.631 0 1.279-.127 1.744-.309 0 0 .09-.042.05-.145l-.302-.828zm2.155-2.731c.058-.394.168-.721.337-.976.255-.387.644-.6 1.192-.6.547 0 .908.214 1.168.6.172.255.247.597.276.976H398.3zm4.146-.865a2.563 2.563 0 0 0-.533-.968c-.269-.287-.531-.487-.791-.599a3.07 3.07 0 0 0-1.195-.24c-.52 0-.993.087-1.376.266a2.737 2.737 0 0 0-.96.727 2.971 2.971 0 0 0-.565 1.073 4.61 4.61 0 0 0-.183 1.32c0 .477.063.921.19 1.32.126.403.33.758.604 1.052a2.75 2.75 0 0 0 1.048.689c.42.16.928.244 1.513.243 1.204-.004 1.839-.27 2.1-.414.046-.025.09-.07.035-.198l-.273-.758c-.04-.112-.157-.07-.157-.07-.298.11-.722.306-1.71.304-.647 0-1.127-.19-1.427-.486-.308-.302-.46-.748-.486-1.376l4.17.004s.109-.002.12-.108c.004-.044.144-.85-.124-1.781zm-37.535.865c.06-.394.168-.721.337-.976.255-.387.644-.6 1.192-.6.547 0 .908.214 1.169.6.17.255.246.597.275.976h-2.973zm4.145-.865a2.562 2.562 0 0 0-.532-.968c-.269-.287-.531-.487-.791-.599a3.07 3.07 0 0 0-1.195-.24c-.52 0-.993.087-1.376.266a2.736 2.736 0 0 0-.96.727 2.971 2.971 0 0 0-.565 1.073c-.12.408-.183.852-.183 1.32 0 .477.063.921.19 1.32.127.403.33.758.604 1.052a2.74 2.74 0 0 0 1.048.689c.42.16.929.244 1.514.243 1.203-.004 1.838-.27 2.099-.414.046-.025.09-.07.035-.198l-.272-.758c-.042-.112-.157-.07-.157-.07-.299.11-.722.306-1.713.304-.645 0-1.125-.19-1.425-.486-.308-.302-.459-.748-.486-1.376l4.17.004s.11-.002.12-.108c.005-.044.144-.85-.125-1.781zM355.9 157.51c-.163-.13-.185-.162-.24-.245-.083-.127-.124-.308-.124-.538 0-.364.12-.625.371-.8-.003 0 .36-.31 1.21-.3a8.616 8.616 0 0 1 1.13.096v1.88h.002s-.53.113-1.126.149c-.849.05-1.226-.243-1.223-.242zm1.66-2.906a9.323 9.323 0 0 0-.652-.02c-.357 0-.702.045-1.026.132a2.689 2.689 0 0 0-.871.4 2 2 0 0 0-.605.682 1.982 1.982 0 0 0-.222.954c0 .366.064.684.19.944.128.261.311.479.545.646.231.168.517.291.849.365.327.074.698.112 1.104.112.427 0 .853-.034 1.266-.105.409-.069.91-.17 1.05-.2.098-.024.195-.049.292-.075.104-.025.096-.135.096-.135l-.003-3.783c0-.83-.223-1.444-.662-1.825-.438-.38-1.082-.573-1.915-.573-.313 0-.816.043-1.117.103 0 0-.911.175-1.286.466 0 0-.082.05-.037.164l.295.787c.037.102.136.067.136.067s.032-.012.069-.033c.802-.433 1.817-.42 1.817-.42.45 0 .797.09 1.03.267.228.173.344.434.344.985v.175c-.359-.05-.688-.08-.688-.08zm33.625-2.131a.111.111 0 0 0-.062-.149 3.643 3.643 0 0 0-.7-.119c-.523-.031-.814.056-1.074.172-.258.116-.545.303-.705.515v-.503c0-.07-.05-.126-.12-.126h-1.069c-.07 0-.12.056-.12.126v6.17c0 .068.058.125.128.125h1.095c.07 0 .126-.056.126-.126v-3.082c0-.413.046-.826.138-1.085a1.56 1.56 0 0 1 .365-.61c.153-.145.326-.248.516-.306a1.977 1.977 0 0 1 1.017-.022c.08.009.125-.04.152-.112.071-.19.274-.756.313-.868z" fill="#FFF"/><path d="M380.903 149.614a3.599 3.599 0 0 0-.412-.097 3.293 3.293 0 0 0-.567-.043c-.754 0-1.348.212-1.765.628-.415.415-.697 1.046-.838 1.877l-.051.28h-.947s-.115-.005-.14.12l-.154.86c-.011.082.024.133.135.133h.921l-.934 5.176c-.073.417-.157.76-.25 1.02-.092.256-.18.448-.291.588-.107.135-.207.234-.382.292a1.55 1.55 0 0 1-.49.07c-.1 0-.235-.016-.334-.036a.993.993 0 0 1-.226-.073s-.107-.04-.15.067c-.034.088-.28.758-.31.84-.028.082.013.147.065.166.123.043.214.071.38.11.232.055.428.058.612.058.383 0 .733-.054 1.023-.158.291-.105.545-.287.77-.533.243-.266.396-.544.542-.926a7.81 7.81 0 0 0 .366-1.388l.94-5.273h1.373s.116.004.14-.12l.155-.86c.01-.083-.024-.134-.136-.134h-1.333c.007-.029.067-.495.22-.933a1.22 1.22 0 0 1 .292-.44.877.877 0 0 1 .35-.216 1.46 1.46 0 0 1 .447-.063c.125 0 .25.014.343.033.129.028.179.042.213.052.136.04.154.001.181-.064l.319-.868c.033-.094-.048-.133-.077-.144zm-18.625 8.946c0 .069-.05.125-.12.125h-1.105c-.07 0-.12-.056-.12-.125v-8.828c0-.069.05-.125.12-.125h1.105c.07 0 .12.056.12.125v8.828z" fill="#FFF"/></g></g><g mask="url(#b)"><g transform="translate(432)"><use fill="#000" filter="url(#I)" xlink:href="#J"/><use fill="#007EE5" xlink:href="#J"/></g><g fill="#FFF" fill-rule="nonzero"><path d="M490.302 24L505 33.596l-10.162 8.138-14.819-9.15L490.302 24zM505 49.873l-14.698 9.595-10.283-8.583 14.819-9.15L505 49.872zm-24.981 1.012l-10.284 8.583-14.698-9.595 10.163-8.138 14.819 9.15zm-24.982-17.289L469.734 24l10.285 8.584-14.82 9.15-10.162-8.138z"/><path d="M479.988 52.731l10.315 8.559 4.412-2.882v3.23l-14.727 8.833-14.727-8.832v-3.23l4.413 2.881 10.314-8.559z"/></g></g></g></svg>