<svg width="508" height="493" viewBox="0 0 508 493" xmlns="http://www.w3.org/2000/svg" xmlns:xlink="http://www.w3.org/1999/xlink"><title>hero-icons-left</title><defs><path id="a" d="M0 0h508v493H0z"/><rect id="d" width="95.437" height="95.455" rx="20"/><filter x="-50%" y="-50%" width="200%" height="200%" filterUnits="objectBoundingBox" id="c"><feOffset in="SourceAlpha" result="shadowOffsetOuter1"/><feGaussianBlur stdDeviation="5" in="shadowOffsetOuter1" result="shadowBlurOuter1"/><feColorMatrix values="0 0 0 0 0 0 0 0 0 0 0 0 0 0 0 0 0 0 0.1 0" in="shadowBlurOuter1"/></filter><path id="e" d="M0 0h49.806v49.806H0z"/><rect id="h" width="95.437" height="95.455" rx="20"/><filter x="-50%" y="-50%" width="200%" height="200%" filterUnits="objectBoundingBox" id="g"><feOffset in="SourceAlpha" result="shadowOffsetOuter1"/><feGaussianBlur stdDeviation="5" in="shadowOffsetOuter1" result="shadowBlurOuter1"/><feColorMatrix values="0 0 0 0 0 0 0 0 0 0 0 0 0 0 0 0 0 0 0.1 0" in="shadowBlurOuter1"/></filter><path id="i" d="M.055.158h49.73v45.967H.056V.158z"/><path d="M24.92.158C18.948.158 14.106 5 14.106 10.973c0 5.974 4.842 10.817 10.816 10.817 5.973 0 10.815-4.843 10.815-10.817L24.92.158zm3.235 35.15c0 5.974 4.842 10.817 10.815 10.817 5.974 0 10.816-4.843 10.816-10.817 0-5.973-4.842-10.815-10.816-10.815-5.973 0-10.815 4.842-10.815 10.815zm-28.1 0c0-5.973 4.843-10.814 10.815-10.814 5.974 0 10.817 4.841 10.817 10.815 0 5.973-4.843 10.816-10.817 10.816-5.972 0-10.815-4.843-10.815-10.816z" id="k"/><rect id="n" width="95.437" height="95.455" rx="20"/><filter x="-50%" y="-50%" width="200%" height="200%" filterUnits="objectBoundingBox" id="m"><feOffset in="SourceAlpha" result="shadowOffsetOuter1"/><feGaussianBlur stdDeviation="5" in="shadowOffsetOuter1" result="shadowBlurOuter1"/><feColorMatrix values="0 0 0 0 0 0 0 0 0 0 0 0 0 0 0 0 0 0 0.1 0" in="shadowBlurOuter1"/></filter><rect id="p" width="95.437" height="95.455" rx="20"/><filter x="-50%" y="-50%" width="200%" height="200%" filterUnits="objectBoundingBox" id="o"><feOffset in="SourceAlpha" result="shadowOffsetOuter1"/><feGaussianBlur stdDeviation="5" in="shadowOffsetOuter1" result="shadowBlurOuter1"/><feColorMatrix values="0 0 0 0 0 0 0 0 0 0 0 0 0 0 0 0 0 0 0.1 0" in="shadowBlurOuter1"/></filter><path id="q" d="M11.216 48.072H22.43V0H0v48.072z"/><rect id="t" width="95.437" height="95.455" rx="20"/><filter x="-50%" y="-50%" width="200%" height="200%" filterUnits="objectBoundingBox" id="s"><feOffset in="SourceAlpha" result="shadowOffsetOuter1"/><feGaussianBlur stdDeviation="5" in="shadowOffsetOuter1" result="shadowBlurOuter1"/><feColorMatrix values="0 0 0 0 0 0 0 0 0 0 0 0 0 0 0 0 0 0 0.1 0" in="shadowBlurOuter1"/></filter><rect id="v" width="95.437" height="95.455" rx="20"/><filter x="-50%" y="-50%" width="200%" height="200%" filterUnits="objectBoundingBox" id="u"><feOffset in="SourceAlpha" result="shadowOffsetOuter1"/><feGaussianBlur stdDeviation="5" in="shadowOffsetOuter1" result="shadowBlurOuter1"/><feColorMatrix values="0 0 0 0 0 0 0 0 0 0 0 0 0 0 0 0 0 0 0.1 0" in="shadowBlurOuter1"/></filter><rect id="x" width="95.437" height="95.455" rx="20"/><filter x="-50%" y="-50%" width="200%" height="200%" filterUnits="objectBoundingBox" id="w"><feOffset in="SourceAlpha" result="shadowOffsetOuter1"/><feGaussianBlur stdDeviation="5" in="shadowOffsetOuter1" result="shadowBlurOuter1"/><feColorMatrix values="0 0 0 0 0 0 0 0 0 0 0 0 0 0 0 0 0 0 0.1 0" in="shadowBlurOuter1"/></filter><rect id="z" width="95.437" height="95.455" rx="20"/><filter x="-50%" y="-50%" width="200%" height="200%" filterUnits="objectBoundingBox" id="y"><feOffset in="SourceAlpha" result="shadowOffsetOuter1"/><feGaussianBlur stdDeviation="5" in="shadowOffsetOuter1" result="shadowBlurOuter1"/><feColorMatrix values="0 0 0 0 0 0 0 0 0 0 0 0 0 0 0 0 0 0 0.1 0" in="shadowBlurOuter1"/></filter><path id="A" d="M0 0v49.9h47.68V0H0z"/><rect id="D" width="95.437" height="95.455" rx="20"/><filter x="-50%" y="-50%" width="200%" height="200%" filterUnits="objectBoundingBox" id="C"><feOffset in="SourceAlpha" result="shadowOffsetOuter1"/><feGaussianBlur stdDeviation="5" in="shadowOffsetOuter1" result="shadowBlurOuter1"/><feColorMatrix values="0 0 0 0 0 0 0 0 0 0 0 0 0 0 0 0 0 0 0.1 0" in="shadowBlurOuter1"/></filter><rect id="F" width="95.437" height="95.455" rx="20"/><filter x="-50%" y="-50%" width="200%" height="200%" filterUnits="objectBoundingBox" id="E"><feOffset in="SourceAlpha" result="shadowOffsetOuter1"/><feGaussianBlur stdDeviation="5" in="shadowOffsetOuter1" result="shadowBlurOuter1"/><feColorMatrix values="0 0 0 0 0 0 0 0 0 0 0 0 0 0 0 0 0 0 0.1 0" in="shadowBlurOuter1"/></filter><path id="G" d="M0 .14v20.406h49.647V.14H0z"/><rect id="J" width="95.437" height="95.455" rx="20"/><filter x="-50%" y="-50%" width="200%" height="200%" filterUnits="objectBoundingBox" id="I"><feOffset in="SourceAlpha" result="shadowOffsetOuter1"/><feGaussianBlur stdDeviation="5" in="shadowOffsetOuter1" result="shadowBlurOuter1"/><feColorMatrix values="0 0 0 0 0 0 0 0 0 0 0 0 0 0 0 0 0 0 0.1 0" in="shadowBlurOuter1"/></filter><rect id="L" width="95.437" height="95.455" rx="20"/><filter x="-50%" y="-50%" width="200%" height="200%" filterUnits="objectBoundingBox" id="K"><feOffset in="SourceAlpha" result="shadowOffsetOuter1"/><feGaussianBlur stdDeviation="5" in="shadowOffsetOuter1" result="shadowBlurOuter1"/><feColorMatrix values="0 0 0 0 0 0 0 0 0 0 0 0 0 0 0 0 0 0 0.1 0" in="shadowBlurOuter1"/></filter><linearGradient x1=".004%" y1="49.998%" x2="100.032%" y2="49.998%" id="M"><stop stop-opacity=".1" offset="0%"/><stop stop-opacity=".2" offset="100%"/></linearGradient><rect id="O" width="95.437" height="95.455" rx="20"/><filter x="-50%" y="-50%" width="200%" height="200%" filterUnits="objectBoundingBox" id="N"><feOffset in="SourceAlpha" result="shadowOffsetOuter1"/><feGaussianBlur stdDeviation="5" in="shadowOffsetOuter1" result="shadowBlurOuter1"/><feColorMatrix values="0 0 0 0 0 0 0 0 0 0 0 0 0 0 0 0 0 0 0.1 0" in="shadowBlurOuter1"/></filter><rect id="Q" width="95.437" height="95.455" rx="20"/><filter x="-50%" y="-50%" width="200%" height="200%" filterUnits="objectBoundingBox" id="P"><feOffset in="SourceAlpha" result="shadowOffsetOuter1"/><feGaussianBlur stdDeviation="5" in="shadowOffsetOuter1" result="shadowBlurOuter1"/><feColorMatrix values="0 0 0 0 0 0 0 0 0 0 0 0 0 0 0 0 0 0 0.1 0" in="shadowBlurOuter1"/></filter><rect id="S" width="95.437" height="95.455" rx="20"/><filter x="-50%" y="-50%" width="200%" height="200%" filterUnits="objectBoundingBox" id="R"><feOffset in="SourceAlpha" result="shadowOffsetOuter1"/><feGaussianBlur stdDeviation="5" in="shadowOffsetOuter1" result="shadowBlurOuter1"/><feColorMatrix values="0 0 0 0 0 0 0 0 0 0 0 0 0 0 0 0 0 0 0.1 0" in="shadowBlurOuter1"/></filter></defs><g fill="none" fill-rule="evenodd"><mask id="b" fill="#fff"><use xlink:href="#a"/></mask><g mask="url(#b)"><g transform="translate(404 424)"><use fill="#000" filter="url(#c)" xlink:href="#d"/><use fill="#00749A" xlink:href="#d"/></g><g transform="translate(427 447)"><mask id="f" fill="#fff"><use xlink:href="#e"/></mask><g mask="url(#f)" fill-rule="nonzero"><path d="M127.313 19.604h-8.641v.917c2.703 0 3.137.58 3.137 4.007v6.18c0 3.427-.433 4.055-3.137 4.055-2.075-.29-3.476-1.4-5.407-3.525l-2.22-2.413c2.992-.532 4.585-2.414 4.585-4.538 0-2.655-2.268-4.683-6.516-4.683h-8.496v.917c2.703 0 3.137.58 3.137 4.007v6.18c0 3.427-.434 4.055-3.137 4.055v.917h9.606v-.917c-2.702 0-3.137-.628-3.137-4.056V28.97h.82l5.359 6.71h14.047c6.903 0 9.897-3.669 9.897-8.062-.001-4.393-2.994-8.014-9.897-8.014zm-20.226 7.868v-6.42h1.979c2.172 0 3.138 1.497 3.138 3.235 0 1.69-.966 3.186-3.138 3.186h-1.979zm20.371 6.71h-.338c-1.737 0-1.979-.433-1.979-2.654V21.053h2.317c5.02 0 5.937 3.668 5.937 6.517 0 2.944-.917 6.613-5.937 6.613zM73.731 29.26l3.33-9.848c.966-2.848.532-3.668-2.558-3.668v-.966h9.075v.966c-3.04 0-3.765.723-4.971 4.247L73.103 36.5h-.627l-4.924-15.11-5.02 15.11h-.628l-5.358-16.51c-1.159-3.523-1.931-4.247-4.731-4.247v-.966H62.53v.966c-2.848 0-3.62.676-2.607 3.668l3.235 9.849 4.875-14.483h.918L73.73 29.26zm16.412 7.048c-5.31 0-9.654-3.91-9.654-8.69 0-4.73 4.344-8.641 9.654-8.641s9.655 3.91 9.655 8.641c0 4.78-4.345 8.69-9.655 8.69zm0-15.833c-4.44 0-5.986 4.005-5.986 7.143 0 3.187 1.545 7.145 5.986 7.145 4.49 0 6.035-3.958 6.035-7.145 0-3.138-1.545-7.143-6.035-7.143z" fill="#00749A"/><g fill="#FFF"><path d="M3.54 24.902c0 8.457 4.914 15.764 12.04 19.228L5.39 16.208a21.282 21.282 0 0 0-1.85 8.694zm35.785-1.078c0-2.64-.948-4.468-1.762-5.891-1.083-1.76-2.097-3.25-2.097-5.01 0-1.964 1.489-3.792 3.587-3.792.095 0 .184.012.277.017A21.286 21.286 0 0 0 24.903 3.54c-7.463 0-14.03 3.83-17.85 9.63.502.014.975.024 1.375.024 2.235 0 5.694-.27 5.694-.27 1.152-.069 1.287 1.623.137 1.759 0 0-1.157.136-2.445.204l7.78 23.14 4.675-14.022-3.329-9.119a38.796 38.796 0 0 1-2.24-.203c-1.151-.068-1.016-1.828.135-1.76 0 0 3.528.27 5.627.27 2.234 0 5.694-.27 5.694-.27 1.152-.068 1.287 1.623.137 1.76 0 0-1.16.136-2.445.203l7.72 22.965 2.13-7.12c.924-2.955 1.627-5.078 1.627-6.907z"/><path d="M25.278 26.771l-6.41 18.625a21.348 21.348 0 0 0 13.13-.34 1.81 1.81 0 0 1-.152-.294l-6.568-17.99zm18.37-12.118c.093.68.145 1.411.145 2.197 0 2.167-.405 4.604-1.625 7.652l-6.525 18.867c6.35-3.704 10.623-10.585 10.623-18.467a21.247 21.247 0 0 0-2.617-10.25z"/><path d="M24.903 0C11.172 0 0 11.171 0 24.902c0 13.733 11.172 24.905 24.903 24.905 13.731 0 24.905-11.171 24.905-24.905C49.808 11.172 38.634 0 24.903 0zm0 48.665c-13.101 0-23.761-10.66-23.761-23.763 0-13.1 10.66-23.76 23.761-23.76 13.101 0 23.76 10.66 23.76 23.76 0 13.103-10.659 23.763-23.76 23.763z"/></g></g></g></g><g mask="url(#b)"><g transform="translate(298 424)"><use fill="#000" filter="url(#g)" xlink:href="#h"/><use fill="#FC636B" xlink:href="#h"/></g><g transform="translate(321 449.227)"><mask id="j" fill="#fff"><use xlink:href="#i"/></mask><path d="M38.97 24.493c-5.973 0-10.815 4.842-10.815 10.815 0 5.974 4.842 10.817 10.816 10.817 5.973 0 10.815-4.843 10.815-10.817 0-5.973-4.842-10.815-10.816-10.815m-28.1 0C4.897 24.494.056 29.336.056 35.31c0 5.973 4.842 10.816 10.816 10.816 5.973 0 10.816-4.843 10.816-10.816 0-5.974-4.843-10.815-10.817-10.815m24.866-13.52c0 5.973-4.842 10.816-10.815 10.816-5.974 0-10.816-4.843-10.816-10.817C14.105 5 18.947.158 24.92.158S35.736 5 35.736 10.973" fill="#FFF" mask="url(#j)"/></g><g transform="translate(321 449.227)"><mask id="l" fill="#fff"><use xlink:href="#k"/></mask><path d="M24.92.158c15.04 0 27.23 12.192 27.23 27.23 0 15.037-12.19 27.227-27.228 27.227-15.038 0-27.229-12.19-27.229-27.227C-2.308 12.35 9.883.158 24.921.158" fill="#FFF" mask="url(#l)"/></g></g><g mask="url(#b)"><g transform="translate(192 424)"><use fill="#000" filter="url(#m)" xlink:href="#n"/><use fill="#FFF" xlink:href="#n"/></g><g fill-rule="nonzero"><path fill="#3777E3" d="M223.328 493.282l8.328-14.427h33.311l-8.328 14.427z"/><path fill="#FFCF63" d="M248.312 478.855h16.655L248.312 450h-16.656z"/><path fill="#11A861" d="M215 478.855l8.328 14.427 16.656-28.855L231.656 450z"/></g></g><g mask="url(#b)"><g transform="translate(86 424)"><use fill="#000" filter="url(#o)" xlink:href="#p"/><use fill="#00549E" xlink:href="#p"/></g><g transform="translate(122 447)"><mask id="r" fill="#fff"><use xlink:href="#q"/></mask><path d="M14.914 48.072H4.971V24.035H.001V15.75h4.97v-4.973C4.971 4.02 7.776 0 15.746 0h6.637v8.285h-4.147c-3.103 0-3.309 1.158-3.309 3.318l-.013 4.147h7.517l-.88 8.285h-6.637v24.037z" fill="#FFF" mask="url(#r)"/></g></g><g mask="url(#b)"><g transform="translate(-20 424)"><use fill="#000" filter="url(#s)" xlink:href="#t"/><use fill="#7AC143" xlink:href="#t"/></g><path d="M37.158 470.65c-.676-.023-1.326.02-1.933.117.172-1.377.74-3.068 2.754-2.997 2.23.077 2.543 2.184 2.55 3.611-.94-.418-2.104-.686-3.371-.73m9.534-14.951c-.372-1.996-1.56-2.98-2.633-3.366-1.156-.418-3.503-.851-6.451-1.198-2.37-.28-5.16-.258-6.843-.206-.203-1.384-1.174-2.649-2.26-3.087-2.894-1.165-7.367-.882-8.516-.561-.912.256-1.922.778-2.484 1.582-.377.54-.621 1.228-.622 2.191 0 .545.015 1.829.029 2.97.013 1.143.03 2.167.03 2.174a1.853 1.853 0 0 1-1.85 1.849h-4.694c-1.001 0-1.766.167-2.35.433-.586.266-1 .624-1.315 1.047-.627.842-.735 1.88-.733 2.941 0 0 .009.866.217 2.542.174 1.297 1.58 10.356 2.917 13.112.517 1.071.863 1.518 1.88 1.99 2.267.972 7.446 2.051 9.874 2.36 2.422.31 3.943.962 4.85-.938.001-.005.181-.472.425-1.16.788-2.384.898-4.499.898-6.03 0-.155.227-.162.227 0 0 1.081-.205 4.906 2.683 5.931 1.141.405 3.506.765 5.91 1.048 2.174.25 3.752 1.104 3.752 6.682 0 3.393-.713 3.857-4.438 3.857-3.02 0-4.171.078-4.171-2.32 0-1.94 1.918-1.736 3.338-1.736.636 0 .175-.472.175-1.669 0-1.19.745-1.878.04-1.896-4.915-.135-7.806-.005-7.806 6.142 0 5.58 2.135 6.616 9.11 6.616 5.47 0 7.396-.18 9.656-7.186.447-1.383 1.527-5.604 2.182-12.692.414-4.482-.39-18.009-1.027-21.422m-36.514.985h4.696a.488.488 0 0 0 .486-.486c0-.002-.058-4.024-.058-5.142v-.014c0-.918.193-1.718.529-2.39l.16-.302a.102.102 0 0 0-.053.03l-9.118 9.042a.103.103 0 0 0-.034.052c.189-.092.447-.22.483-.236.793-.359 1.756-.554 2.91-.554" fill="#FFF"/></g><g mask="url(#b)"><g transform="translate(298 318)"><use fill="#000" filter="url(#u)" xlink:href="#v"/><use fill="#1DA1F2" xlink:href="#v"/></g><path d="M336.724 386.628c18.868 0 29.188-15.632 29.188-29.188 0-.444 0-.886-.03-1.326a20.872 20.872 0 0 0 5.118-5.31 20.476 20.476 0 0 1-5.892 1.614 10.294 10.294 0 0 0 4.51-5.674 20.558 20.558 0 0 1-6.514 2.49 10.268 10.268 0 0 0-17.482 9.356 29.124 29.124 0 0 1-21.142-10.718 10.266 10.266 0 0 0 3.176 13.694 10.182 10.182 0 0 1-4.656-1.284v.13a10.262 10.262 0 0 0 8.23 10.056c-1.51.412-3.095.472-4.632.176a10.27 10.27 0 0 0 9.584 7.124A20.584 20.584 0 0 1 321 382.02a29.042 29.042 0 0 0 15.724 4.6" fill="#FFF" fill-rule="nonzero"/></g><g mask="url(#b)"><g transform="translate(192 318)"><use fill="#000" filter="url(#w)" xlink:href="#x"/><use fill="#37404A" xlink:href="#x"/></g><path fill="#8BCBCA" d="M250.463 390.782h4.878v-49.728h-4.878z"/><path d="M224 352.38h6.112V341h8.102v11.38h7.32v6.242h-7.32v20.265c0 .88.036 1.64.106 2.275.072.638.238 1.175.498 1.616.26.44.65.77 1.173.991.521.22 1.231.33 2.132.33.569 0 1.138-.01 1.706-.037a8.148 8.148 0 0 0 1.706-.256v6.462c-.902.097-1.777.194-2.63.293a23.28 23.28 0 0 1-2.63.147c-2.132 0-3.85-.21-5.152-.624-1.304-.416-2.322-1.028-3.056-1.836-.735-.808-1.233-1.823-1.493-3.048-.261-1.222-.415-2.617-.462-4.184v-22.394H224v-6.241z" fill="#FFF"/></g><g mask="url(#b)"><g transform="translate(86 318)"><use fill="#000" filter="url(#y)" xlink:href="#z"/><use fill="#6DC5DC" xlink:href="#z"/></g><g transform="translate(110 341.1)"><mask id="B" fill="#fff"><use xlink:href="#A"/></mask><path d="M41.742 46.134v.778h.206v-.562l.169.562h.176l.168-.563v.563h.207v-.778h-.323l-.14.448-.14-.448h-.323zm-.528.187v.59h.227v-.59h.231v-.187h-.686v.187h.228zm5.722-10.663c-.04.127-3.712 14.246-18.145 14.242-12.476-.004-18.39-10.848-18.39-10.848a6.464 6.464 0 0 1-2.595-.391c-3.66-1.345-5.417-5.532-4.154-9.046l-2.011-1.537C-6.152 22.142 15.923-5.023 23.73 1.123l1.863 1.5C28.396.92 31.172 0 33.428 0c1.603 0 2.943.464 3.845 1.441 2.027 2.194 1.298 6.383-1.468 10.625.595.565 1.088 1.333 1.44 2.095.88.678 1.45 1.71 1.733 3.135.315 1.585.38 3.842.579 4.811.746.337.428.181 1.223.579.83.414 1.84.919 2.956 1.993 1.984.497 2.742 2.607 1.58 4.046-.03.039-.17.205-.316.37.035.091.416.708.69 1.963.822.194 1.477.7 1.821 1.435.594 1.436-.575 3.165-.575 3.165z" fill="#684C46" mask="url(#B)"/></g><path d="M150.82 382.965c3.914-3.076 4.598-6.78 4.663-6.907.963-1.155.701-2.293-.571-2.293-.405 0-.71.106-.71.106s.004-1.685-.776-2.998c-.6.676-2.27 2.015-4.458 3.054-2.053.975-4.792 1.829-8.187 1.942-.95.04-1.538-.114-1.87.994-.105.392-.06.973.02 1.141.268.918.967 1.323 1.888 1.537.699.163 1.44.178 1.44.178 6.885.193 12.413-5.176 12.479-5.221.064-.052.117-.114.117-.114l-.068.158c-.995 2.236-6.752 6.291-12.483 6.175l-.018.007c-1.33-.005-2.944-.347-3.784-1.388-1.328-1.647-.639-4.386 1.478-4.45l.706-.017c5.242-.16 9.945-2.087 13.312-6.108.463-.575-.054-1.365-1.058-1.389a.033.033 0 0 1-.023-.01c-1.19-1.274-2.236-1.725-3.166-2.197-1.951-.994-1.767-.136-2.221-4.956-.123-1.3-.369-3.072-1.51-3.751a1.857 1.857 0 0 0-.966-.255c-.336 0-.5.069-.566.083-.625.139-.98.493-1.426.904-2.105 1.941-3.787 1.414-6.298 1.392-2.358-.02-4.44 1.625-4.839 4.15v.002c-.194 1.323-.069 2.666.139 3.27 0 0-.64-.425-.946-.802.37 2.308 2.475 3.816 2.475 3.816-.331.076-.809.044-.809.044.002.002 1.202.951 2.244 1.282-.271.169-1.644 1.523-2.352 3.388-.662 1.745-.393 3.84-.393 3.84l.576-.858s-.376 1.912.351 3.763c.241-.55.769-1.534.769-1.534s-.084 2.053.904 3.733c.026-.388.174-1.375.174-1.375s.567 1.752 1.877 2.977c2.452 2.177 8.945 2.57 13.886-1.313m-27.474-11.52c.314-.799.473-1.455.473-1.455.36 1.1.544 2.257.471 3.427.299-.397.619-1.145.619-1.145.555 3.267-1.83 6.257-4.97 6.257-2.788 0-5.049-2.38-5.049-5.315 0-2.935 2.26-5.315 5.05-5.315.722 0 1.41.16 2.031.448 0 0 1.073.541 1.375 3.098" fill="#F6DCBA"/><path d="M114.408 369.22c-.02-.006-1.9-1.385-2.167-1.84-1.582-2.669 1.17-8.151 3.128-11.268 4.84-7.702 12.895-13.78 16.554-12.912l3.757 1.94a30.4 30.4 0 0 0-3.715 2.612l-.8.67s-2.334 1.573-3.495 2.564c-4.655 3.971-9.238 10.12-10.938 16.055 0 0-1.396.693-2.324 2.179" fill="#0688BF"/><path d="M131.923 343.2c-3.659-.868-11.714 5.21-16.554 12.912l-.004.007.02.002 3.856 3.036c4.234-6.721 9.556-10.187 9.706-10.289l-.612-4.113 1.146-.549 2.298.745-.175-.768.319-.983z" fill="#46B8E3"/><path d="M135.68 345.14l-3.715 2.612-.26.203-3.294-2.69-.076-.51 1.146-.548 2.298.744.039-1.427.105-.324 1.006-.386 2.75 2.325" fill="#FFD14F"/><path d="M143.01 342.576c-2.456 0-5.214 1.293-7.33 2.563-.297.175-.591.357-.88.544l-1.107-.928.402 1.397c-.152.105-.3.209-.446.312l-2.287-.698 1.514 1.267a26.86 26.86 0 0 0-.91.72l-3.63-2.998.191 1.343 2.639 2.325s-2.335 1.571-3.496 2.562c-4.655 3.972-9.238 10.121-10.938 16.056l.097-.054.04-.02c.047-.026.094-.05.141-.074a4.58 4.58 0 0 1 .237-.112l.086-.038a5.01 5.01 0 0 1 .158-.062c.025-.01.049-.02.073-.028.077-.028.154-.053.23-.076 1.155-.344 2.727-.566 4.568.215.924-2.33 2.028-4.702 3.768-6.98 1.41-1.849 2.767-3.498 4.395-4.405 3.082-2.895 11.388-5.966 14.05-3.304.629-1.03 1.175-2.004 1.625-3.226 1.11-2.937 1.13-6.3-3.19-6.3" fill="#121F30"/><path fill="#121F30" d="M132.466 345.173l-.543-1.973-.32.983.192.773z"/><path d="M138.065 343.864c1.342-.618 2.78-1.107 4.16-1.248-1.37.308-3.04 1.019-5.018 2.229-.048.028-4.68 3.154-7.51 5.961-1.543 1.53-7.736 8.956-7.73 8.95 1.131-2.142 1.877-3.193 3.669-5.447a50.52 50.52 0 0 1 3.201-3.658 42.67 42.67 0 0 1 1.124-1.12c.143-.137 3.38-3.451 8.104-5.667M154.2 373.87s.005-1.686-.775-2.999c-.6.676-2.269 2.015-4.458 3.054-2.053.975-4.792 1.829-8.187 1.942-.95.04-1.538-.114-1.87.994a1.814 1.814 0 0 0-.051.312v.011h-.001a2.685 2.685 0 0 0-.005.375v.006l.001.017c.003.048.007.095.012.139l.001.007.001.006a.969.969 0 0 0 .062.268l.004.015c.271.908.968 1.31 1.884 1.522.699.163 1.44.178 1.44.178 5.617.158 10.332-3.388 11.913-4.723.027-.374.043-.64.03-1.124" fill="#FFF"/><path d="M121.698 375.477l.004-.003c.298-.32.423-.768.353-1.197-.11-.616-.809-.74-1.27-1.219l-.022-.023a1.296 1.296 0 0 1-.023-.025l-.001-.002a1.03 1.03 0 0 1-.263-.753c.036-.63.596-.807.887-.691 0 0 .346.081.614.455v-.002c-.041-.123-.033-.322-.242-.618-.344-.487-1.132-.981-2.25-.744h.001c-.207.043-.09.019-.295.076a.753.753 0 0 0-.086.028c-.064.03-.123.05-.18.081-.03.016-.197.093-.399.245-1.256 1.621.871 4.561 3.172 4.392m27.39.457a.28.28 0 0 0-.052.009c-.571.132-6.457 2.412-10.177 1.243-.017.204-.012.631.072.817v.001a10.89 10.89 0 0 0 2.102.185c4.896 0 8.424-2.226 8.056-2.255m-.684-11.427c-.553-.398-.573-1.091-.875-4.298-.097-1.023-.27-2.338-.896-3.184-.13-.113-.312-.243-.574-.243-.395-.017-.842.393-1.095.673-.72 1.038-1.407 1.706-2.622 2.286-1.23.556-2.4.758-3.613.72-.888-.028-1.666-.175-2.429-.184-1.413-.022-2.638.436-3.53 1.563-.612.773-.858 1.59-.936 2.562a8.57 8.57 0 0 0 .056.773c.063.493.151.748.151.748a.04.04 0 0 1-.001.012l.022.07s-.64-.427-.945-.804c.308 1.924 1.822 3.293 2.318 3.695a8.736 8.736 0 0 1 .157.122c-.332.076-.809.044-.809.044.002.002 1.202.951 2.243 1.282 1.382-1.168 2.948-1.616 4.234-1.755.78-.483 1.618-.958 2.517-1.417-.272-1.696 1.232-3.405 3.126-3.569 1.429-.104 2.124.537 2.624 1.221.272-.086.578-.181.92-.282a.288.288 0 0 1-.043-.035m-10.48 12.093c.253-.938.965-1.68 2.055-1.714l.706-.017c5.242-.16 9.945-2.087 13.312-6.108.463-.575-.054-1.365-1.058-1.39h-.014c-.17.18-.2.508-.481.998-1.024 1.78-2.44 2.593-4.33 3.537-5.792 2.884-8.795 1.542-10 3.307-.35.52-.357 1.1-.19 1.387m8.394-11.49c-.8-.568-2.125-.115-2.417.826.463.023.954.374.924.822a1.773 1.773 0 0 1 1.243-.487c-.218-.35-.107-.952.25-1.16m4.501 17.853c-.672.528-1.372.977-2.087 1.353-1.654-.628-2.67-1.967-2.67-1.967s1.419-.336 3.314-1.3c2.305-1.17 4.46-2.863 6.106-4.992-.065.127-.75 3.831-4.663 6.906" fill="#EBBE8D"/><path d="M131.85 354.6c5.435-3.522 10.864-3.927 12.724-2.497a1.384 1.384 0 0 0-.045-.115c-.472-1.004-1.574-1.704-2.556-1.984.173.178.422.506.523.7a7.822 7.822 0 0 0-2.753-1.17s.122.088.143.108c.205.19.477.492.589.751-.982-.394-2.223-.615-3.286-.41-.015.002-.133.03-.133.03l.17.044c.352.104.855.319 1.076.613-1.764-.31-3.704.033-4.75.619.134-.006.133-.007.246-.004.386.01 1.161.063 1.487.27-1.113.226-2.723.724-3.59 1.47.153-.018 1.022-.13 1.377-.072-4.771 2.73-6.942 6.858-6.942 6.858 1.406-1.833 3.231-3.597 5.72-5.21m11.562 11.653c-.157.288.035.697.43.914.395.216.843.158 1.001-.13.158-.288-.034-.697-.43-.914-.395-.216-.843-.158-1 .13m3.155-1.149c-.287-.045-.57.238-.631.632-.062.394.122.75.409.795.287.044.57-.238.631-.632.062-.394-.121-.75-.409-.795m-25.331 7.499a.467.467 0 0 1-.187-.27c-.044-.203-.02-.321.153-.443.134-.092.242-.136.242-.194.006-.109-.442-.221-.755.087-.26.277-.342.855.073 1.305.462.498 1.18.615 1.291 1.242.015.088.026.187.018.285.002.112-.035.273-.037.283-.14.605-.713 1.183-1.66 1.036-.175-.026-.288-.047-.322 0-.072.103.333.567 1.076.55.727-.015 1.448-.56 1.68-1.377.002-.011.07-.243.076-.45a1.871 1.871 0 0 0-.027-.479c-.19-1.05-1.233-1.266-1.621-1.575m.166-1.5c.142.113.25.233.331.348.266.375.181.595.29.701.04.039.096.051.152.028.15-.062.224-.301.238-.468v-.001c.038-.402-.174-.853-.455-1.173l-.001-.001a2.467 2.467 0 0 0-.669-.537 2.783 2.783 0 0 0-.927-.317 3.491 3.491 0 0 0-1.345.074h.001c-.084.024-.188.047-.278.082-.97.378-1.61 1.073-1.894 1.994a3.476 3.476 0 0 0-.068 1.745c.083.375.25.798.513 1.076.328.355.688.287.534-.043-.036-.09-.234-.464-.261-1.14a3.334 3.334 0 0 1 .206-1.321c.09-.227.212-.448.373-.647.33-.404.735-.584.782-.61.057-.03.116-.052.18-.082a.785.785 0 0 1 .086-.028c.204-.057.088-.032.295-.076.776-.165 1.445.015 1.917.396m18.585-4.427c-.316-.241-.898-.403-1.502-.3-.127.019-.244.058-.36.09a2.08 2.08 0 0 0-.798.462c-.24.232-.31.448-.24.501.069.055.236-.026.493-.13.863-.36 1.474-.369 2.056-.328.28.019.468.036.512-.04.03-.053-.025-.151-.16-.255m.228-1.18c.106.156.134.273.091.321-.085.1-.39-.035-.84-.21-1.154-.43-2.003-.496-3.507.073-.38.145-.65.258-.78.238-.21-.031-.006-.417.455-.792.927-.74 2.2-.97 3.29-.564.476.175 1.01.525 1.29.935" fill="#9C7356"/><path d="M144.673 362.297c-.008-.374.052-.993.404-1.108h.001c.603-.21 1.4 1.334 1.438 2.704a3.021 3.021 0 0 0-1.612-.29 4.64 4.64 0 0 1-.231-1.306" fill="#684C46"/></g><g mask="url(#b)"><g transform="translate(-20 318)"><use fill="#000" filter="url(#C)" xlink:href="#D"/><use fill="#FFF" xlink:href="#D"/></g><g fill-rule="nonzero"><path d="M7.39 367.277c-1.855.014-3.427-1.092-4.007-2.818a4.618 4.618 0 0 1-.06-.197c-.632-2.211.593-4.524 2.788-5.264l35.217-11.799c.418-.12.85-.184 1.286-.188 1.905-.014 3.52 1.116 4.115 2.879l.052.17c.66 2.303-.978 4.358-2.939 5.017l-35.02 11.956c-.461.158-.944.24-1.431.244z" fill="#70CADB"/><path d="M13.26 384.596c-1.87.014-3.447-1.077-4.02-2.778a4.34 4.34 0 0 1 2.725-5.511L47.182 364.4a4.53 4.53 0 0 1 1.398-.234c1.876-.015 3.524 1.131 4.105 2.852l.054.18a4.45 4.45 0 0 1-.537 3.58c-.504.785-2.094 1.476-2.094 1.476L14.757 384.34a4.85 4.85 0 0 1-1.496.256z" fill="#E01765"/><path d="M42.577 384.672a4.324 4.324 0 0 1-4.14-2.947l-11.754-34.913-.058-.195a4.322 4.322 0 0 1 2.782-5.289 4.304 4.304 0 0 1 3.305.225 4.315 4.315 0 0 1 2.18 2.497l11.752 34.91.034.112c.66 2.311-.562 4.635-2.757 5.375a4.37 4.37 0 0 1-1.344.225z" fill="#E8A723"/><path d="M25.106 390.552a4.325 4.325 0 0 1-4.141-2.95l-11.75-34.91a4.323 4.323 0 0 1 4.065-5.709 4.323 4.323 0 0 1 4.141 2.947l11.751 34.912a4.323 4.323 0 0 1-4.067 5.71h.001z" fill="#3EB890"/><path fill="#CC2027" d="M36.783 376.81l8.195-2.803-2.679-7.956-8.205 2.773 2.689 7.985z"/><path fill="#361238" d="M19.34 382.774l8.194-2.802-2.7-8.017-8.202 2.774 2.707 8.045z"/><path fill="#65863A" d="M30.948 359.48l8.196-2.799-2.647-7.863-8.212 2.751z"/><path fill="#1A937D" d="M13.503 365.436l8.196-2.798-2.68-7.964-8.212 2.75 2.696 8.012z"/></g></g><g mask="url(#b)"><g transform="translate(192 212)"><use fill="#000" filter="url(#E)" xlink:href="#F"/><use fill="#FFF" xlink:href="#F"/></g><path d="M258.713 280.444h-37.778a3.333 3.333 0 0 1-3.334-3.333v-37.778a3.333 3.333 0 0 1 3.334-3.333h37.778a3.334 3.334 0 0 1 3.333 3.333v37.778a3.334 3.334 0 0 1-3.333 3.333" fill="#C5C5C5"/><g transform="translate(215 243.349)"><mask id="H" fill="#fff"><use xlink:href="#G"/></mask><path d="M47.046 20.546H2.601L.048 4.55A3.81 3.81 0 0 1 3.81.14h42.027a3.809 3.809 0 0 1 3.761 4.41l-2.552 15.996z" fill="#3362CF" mask="url(#H)"/></g><path d="M217.601 263.895h44.445l1.187 15.996c.349 2.313-1.34 4.41-3.554 4.41h-39.71c-2.215 0-3.904-2.097-3.555-4.41l1.187-15.996z" fill="#4284F2"/><path d="M229.798 262.244h2.133c1.077-.01 1.93-.288 2.56-.836.629-.548.944-1.34.944-2.379 0-1-.262-1.775-.786-2.328-.524-.552-1.324-.829-2.4-.829-.942 0-1.716.271-2.321.815-.606.543-.909 1.251-.909 2.126h-3.502c0-1.076.285-2.057.857-2.941.572-.884 1.37-1.574 2.393-2.069 1.024-.494 2.17-.742 3.439-.742 2.094 0 3.74.526 4.937 1.579 1.196 1.052 1.795 2.515 1.795 4.39 0 .941-.301 1.828-.901 2.66a5.651 5.651 0 0 1-2.329 1.88c1.154.394 2.03 1.014 2.631 1.86.6.846.901 1.855.901 3.027 0 1.884-.646 3.383-1.939 4.498-1.293 1.115-2.99 1.672-5.095 1.672-2.019 0-3.672-.538-4.96-1.614-1.288-1.077-1.931-2.509-1.931-4.296h3.503c0 .922.31 1.672.93 2.248.62.577 1.453.866 2.5.866 1.087 0 1.942-.289 2.567-.866.624-.576.937-1.412.937-2.508 0-1.104-.327-1.955-.98-2.552-.654-.595-1.625-.893-2.913-.893h-2.061v-2.768zm22.215 12.095h-3.489v-16.862l-5.146 1.754v-2.94l8.188-3.014h.447z" fill="#FFF"/><path d="M237.847 284.301h-17.88c-2.215 0-3.9-2.095-3.553-4.41l1.176-15.852 20.257 20.262z" fill="#4688F4"/><path d="M227.76 241.397a1.905 1.905 0 1 1 0-3.81 1.905 1.905 0 0 1 0 3.81m24.253 0a1.905 1.905 0 1 1 0-3.81 1.905 1.905 0 0 1 0 3.81" fill="#EFEFEF"/></g><g mask="url(#b)"><g transform="translate(86 212)"><use fill="#000" filter="url(#I)" xlink:href="#J"/><use fill="#0079BF" xlink:href="#J"/></g><g transform="translate(109 235)" fill-rule="nonzero"><rect fill="#FFF" width="50" height="50" rx="4.883"/><rect fill="#0079BF" x="28" y="7" width="15" height="22" rx="2.344"/><rect fill="#0079BF" x="6" y="7" width="15" height="34" rx="2.344"/></g></g><g mask="url(#b)"><g transform="translate(-20 212)"><use fill="#000" filter="url(#K)" xlink:href="#L"/><use fill="#D54B3D" xlink:href="#L"/></g><g fill-rule="nonzero"><path d="M49.647 278.812H6.155a3.116 3.116 0 0 1-3.106-3.107v-31.42a3.116 3.116 0 0 1 3.106-3.107h43.492a3.116 3.116 0 0 1 3.107 3.106v31.42a3.087 3.087 0 0 1-3.107 3.108z" fill="#E3E3E3"/><path fill="#231F20" opacity=".1" d="M9.262 278.812l18.595-14.956.133-.8-19.172-13.801-.044 28.89z"/><path d="M6.155 278.812a3.087 3.087 0 0 1-3.106-3.107V244.24c0-1.731 1.375-2.042 3.106-2.042 1.73 0 3.107.355 3.107 2.042v34.572H6.155z" fill="#D54B3D"/><path d="M6.155 242.642c2.22 0 2.663.666 2.663 1.598v34.128H6.155a2.67 2.67 0 0 1-2.663-2.663V244.24c0-.977.444-1.598 2.663-1.598zm0-.444c-1.73 0-3.106.355-3.106 2.042v31.465a3.087 3.087 0 0 0 3.106 3.107h3.107V244.24c0-1.731-1.376-2.042-3.107-2.042z" fill="#D72B27"/><path d="M49.647 278.812h-3.106V244.15c0-1.73 1.375-1.953 3.106-1.953 1.731 0 3.107.222 3.107 1.953v31.598c0 1.687-1.376 3.063-3.107 3.063z" fill="#D54B3D"/><path d="M49.647 242.642c1.997 0 2.663.4 2.663 1.509v31.598a2.67 2.67 0 0 1-2.663 2.663h-2.663v-34.261c0-1.154.666-1.509 2.663-1.509zm0-.444c-1.73 0-3.106.222-3.106 1.953v34.705h3.106a3.087 3.087 0 0 0 3.107-3.107v-31.598c0-1.73-1.376-1.953-3.107-1.953z" fill="#D72B27"/><path d="M33.333 37.812L.31 4.53l1.737.707L25.034 21.79l24.72-18.126V34.75c0 1.687-1.376 3.063-3.107 3.063H33.333z" fill="url(#M)" transform="translate(3 241)"/><path d="M27.857 263.856L4.38 246.814c-1.376-1.021-1.775-2.974-.755-4.35 1.021-1.375 3.018-1.686 4.438-.665l19.838 14.423 19.971-14.6c1.376-1.021 3.329-.71 4.35.71 1.02 1.375.71 3.328-.71 4.349l-23.655 17.175z" fill="#D54B3D"/><path d="M49.647 241.444c.843 0 1.642.4 2.175 1.11a2.726 2.726 0 0 1-.577 3.727l-23.388 17.042-23.21-16.864c-1.199-.888-1.51-2.574-.666-3.728a2.795 2.795 0 0 1 2.219-1.11c.576 0 1.153.178 1.597.533l19.794 14.379.266.177.266-.177 19.927-14.601c.488-.31 1.02-.488 1.597-.488zm0-.444c-.621 0-1.287.178-1.82.577l-19.97 14.6-19.838-14.423c-.532-.399-1.198-.576-1.864-.576-.976 0-1.953.443-2.574 1.287-.976 1.375-.577 3.328.799 4.349L27.857 263.9l23.61-17.22a3.16 3.16 0 0 0 .71-4.349 3.041 3.041 0 0 0-2.53-1.331z" fill="#D72B27"/></g></g><g mask="url(#b)"><g transform="translate(86 106)"><use fill="#000" filter="url(#N)" xlink:href="#O"/><use fill="#2DA468" xlink:href="#O"/></g><path d="M113 174h42v-40h-42v40zm23-27.291h13V140h-13v6.709zm-17 0h13V140h-13v6.709zm17 10.646h13v-6.646h-13v6.646zm-17 0h13v-6.646h-13v6.646zM136 168h13v-6.646h-13V168zm-17 0h13v-6.646h-13V168z" fill="#FFF"/></g><g mask="url(#b)"><g transform="translate(-20 106)"><use fill="#000" filter="url(#P)" xlink:href="#Q"/><use fill="#C4161C" xlink:href="#Q"/></g><path d="M51.567 142.905c.663.07 1.143.675 1.074 1.35l-2.085 20.333.173 2.288a1.22 1.22 0 0 1-.173.726v.887c0 .416-.202.78-.513 1.002l-.168 1.64a1.21 1.21 0 0 1-1.326 1.094l-9.448-1.01.23-2.235.52.055v-1.567h.941c.903 0 1.635-.745 1.635-1.665s-.732-1.666-1.635-1.666h-4.516c-.903 0-1.635.746-1.635 1.666 0 .92.732 1.665 1.635 1.665h.941v2.247h-.61l-.124 1.222-9.298-.993-8.126.634-.065-.863h-.292v-2.247h.942c.903 0 1.635-.746 1.635-1.665 0-.92-.732-1.667-1.635-1.667h-4.517c-.903 0-1.634.746-1.634 1.667 0 .919.73 1.665 1.634 1.665h.942v1.087l.195-.015.17 2.244-10.109.788a1.214 1.214 0 0 1-1.295-1.131l-.095-1.26a1.244 1.244 0 0 1-.21-.692v-1.149c-.3-.253-.476-.65-.432-1.075l.245-2.38-1.534-20.39a1.22 1.22 0 0 1 1.11-1.318l.611-.048v-.665c0-.298.108-.567.28-.779l-.038-.525a.516.516 0 0 1 .468-.558l1.498-.117v-1.196c0-.287.228-.518.509-.518h2.003l.134-1.306a.512.512 0 0 1 .56-.462l11.15 1.19c.28.03.483.286.454.57l-.2 1.936 5.024.537h2.422l18.418-1.438a1.212 1.212 0 0 1 1.294 1.132l.023.306h.627c.666 0 1.205.549 1.205 1.228v1.333l1.011.108zM30.153 161.11v-2.113a5.593 5.593 0 0 0-3.259-5.105 4.189 4.189 0 0 0 1.874-3.504c0-2.306-1.836-4.177-4.102-4.177-2.265 0-4.101 1.871-4.101 4.177 0 1.47.746 2.76 1.875 3.504a5.593 5.593 0 0 0-3.26 5.105v2.113h10.973zm7.915-2.11v-2.113a5.59 5.59 0 0 0-3.261-5.105 4.192 4.192 0 0 0 1.875-3.505c0-2.307-1.836-4.177-4.101-4.177a4.066 4.066 0 0 0-3.223 1.598 4.17 4.17 0 0 1 2.727 3.932c0 1.47-.748 2.759-1.874 3.505a5.592 5.592 0 0 1 3.26 5.103V159h4.597z" fill="#FFF"/></g><g mask="url(#b)"><g transform="translate(-20)"><use fill="#000" filter="url(#R)" xlink:href="#S"/><use fill="#28A038" xlink:href="#S"/></g><path d="M16.553 33.71c-7.632 0-13.816 6.185-13.816 13.816 0 7.632 6.184 13.816 13.816 13.816h1.315v-4.868h-1.315c-5 0-8.948-4.08-8.948-8.948 0-5 4.08-8.947 8.948-8.947h4.342v29.605h5V33.711h-9.342zm21.579 27.764c7.631 0 13.815-6.185 13.815-13.816 0-7.632-6.184-13.816-13.815-13.816h-1.316v4.869h1.316c5 0 8.947 4.078 8.947 8.947 0 5-4.079 8.947-8.947 8.947h-4.343V27h-5v34.474h9.343z" fill="#FFF"/></g></g></svg>