<svg xmlns="http://www.w3.org/2000/svg" viewBox="0 0 30.851 30.851" width="512" height="512"><g fill="#FFF"><path d="M28.645 2.203H2.204A2.203 2.203 0 0 0 0 4.405v22.038c0 1.216.987 2.204 2.204 2.204h26.441a2.208 2.208 0 0 0 2.206-2.204V4.405a2.206 2.206 0 0 0-2.206-2.202zM7.162 3.857a1.102 1.102 0 1 1 0 2.201A1.1 1.1 0 0 1 6.058 4.96a1.102 1.102 0 0 1 1.104-1.103zm-3.307 0a1.101 1.101 0 1 1 0 2.201 1.1 1.1 0 1 1 0-2.201zm24.79 22.587H2.204V7.735h26.441v18.709z"/><path d="M12.351 12.264L5.275 9.028v1.561l5.471 2.34v.029l-5.471 2.336v1.56l7.076-3.236zm3.331-.065h3.855v1.486h-3.855z"/></g></svg>