<svg xmlns="http://www.w3.org/2000/svg" viewBox="0 0 60 60" width="512" height="512"><g fill="#FFF"><path d="M55.783 8H4.217A4.222 4.222 0 0 0 0 12.217v35.566A4.222 4.222 0 0 0 4.217 52h51.566A4.222 4.222 0 0 0 60 47.783V12.217A4.222 4.222 0 0 0 55.783 8zM58 47.783A2.219 2.219 0 0 1 55.783 50H4.217A2.219 2.219 0 0 1 2 47.783V12.217C2 10.994 2.994 10 4.217 10h51.566c1.223 0 2.217.994 2.217 2.217v35.566z"/><path d="M22.638 36.246L19 34.388v-.387c1.628-.889 2.773-2.353 3.412-4.364A2.976 2.976 0 0 0 24 27v-1c0-.926-.431-1.785-1.151-2.349-.624-3.78-3.262-5.696-7.849-5.696-.217 0-.429.008-.636.024-.864.071-2.129-.004-3.224-.74-.409-.276-.718-.544-.915-.793a1.192 1.192 0 0 0-1.402-.373 1.187 1.187 0 0 0-.734 1.247c.042.374.105.809.2 1.286.193.975.193.975-.078 1.558-.102.221-.228.49-.376.853a11.167 11.167 0 0 0-.701 2.647A2.985 2.985 0 0 0 6 26v1c0 1.122.619 2.123 1.588 2.637.639 2.012 1.784 3.476 3.412 4.364v.376l-3.769 1.858A4.277 4.277 0 0 0 5 39.993v1.325C5 42.121 5 44 15 44s10-1.879 10-2.682v-1.245a4.258 4.258 0 0 0-2.362-3.827zM23 41.092c-.624.38-3.162.908-8 .908s-7.376-.528-8-.908v-1.099c0-.835.455-1.603 1.152-1.982l3.857-1.901c.602-.294.99-.917.99-1.588v-1.803l-.604-.26c-1.517-.654-2.503-1.901-3.015-3.814l-.143-.533-.526-.164A1.01 1.01 0 0 1 8 27v-1c0-.362.207-.698.541-.876l.469-.25.055-.529a9.39 9.39 0 0 1 .622-2.57c.133-.325.246-.568.338-.767.339-.728.462-1.104.377-1.875 1.176.672 2.589.958 4.122.841a5.71 5.71 0 0 1 .477-.019c3.744 0 5.572 1.356 5.929 4.398l.062.522.465.246c.334.178.543.515.543.879v1c0 .428-.293.817-.712.947l-.526.164-.143.533c-.512 1.913-1.498 3.16-3.015 3.814l-.604.261v1.811c0 .669.37 1.272.964 1.575l3.775 1.929A2.266 2.266 0 0 1 23 40.073v1.019zM30 23h10a1 1 0 1 0 0-2H30a1 1 0 1 0 0 2zm14 0h1a1 1 0 1 0 0-2h-1a1 1 0 1 0 0 2zM31 38h-1a1 1 0 1 0 0 2h1a1 1 0 1 0 0-2zm6 0h-2a1 1 0 1 0 0 2h2a1 1 0 1 0 0-2zm5 0h-1a1 1 0 1 0 0 2h1a1 1 0 1 0 0-2zm6 0h-2a1 1 0 1 0 0 2h2a1 1 0 1 0 0-2zm3.29.29c-.181.189-.29.45-.29.71s.109.52.29.71c.189.18.45.29.71.29s.52-.11.71-.29c.18-.19.29-.45.29-.71s-.11-.521-.29-.71c-.38-.37-1.05-.37-1.42 0zM52 27H30a1 1 0 1 0 0 2h22a1 1 0 1 0 0-2zm0 6H30a1 1 0 1 0 0 2h22a1 1 0 1 0 0-2z"/></g></svg>