<svg xmlns="http://www.w3.org/2000/svg" viewBox="0 0 60 60" width="512" height="512"><path d="M44.5 14.5C35.953 14.5 29 21.453 29 30c0 7.444-6.056 13.5-13.5 13.5S2 37.444 2 30s6.056-13.5 13.5-13.5c2.687 0 5.282.787 7.505 2.277.74.495 1.432 1.065 2.058 1.694a1 1 0 0 0 1.417-1.412 15.629 15.629 0 0 0-2.361-1.944A15.433 15.433 0 0 0 15.5 14.5C6.953 14.5 0 21.453 0 30s6.953 15.5 15.5 15.5S31 38.547 31 30c0-7.444 6.056-13.5 13.5-13.5S58 22.556 58 30s-6.056 13.5-13.5 13.5a13.409 13.409 0 0 1-9.544-3.952.999.999 0 1 0-1.414 1.414A15.394 15.394 0 0 0 44.5 45.5C53.047 45.5 60 38.547 60 30s-6.953-15.5-15.5-15.5z" fill="#FFF"/></svg>