<svg xmlns="http://www.w3.org/2000/svg" width="512" height="512" viewBox="0 0 488.022 488.022"><g fill="#FFF"><path d="M408.871 206.974l21.833-53.701c2.447-6.023-.619-9.328-6.807-7.355l-21.717 6.921c-24.075-50.386-66.184-88.565-118.759-107.589-53.09-19.216-110.488-16.603-161.617 7.35C70.68 76.555 31.939 118.988 12.723 172.079c-13.64 37.707-16.278 77.577-8.08 115.838 3.346 15.615 8.495 30.958 15.438 45.774 23.958 51.127 66.384 89.868 119.474 109.081 53.093 19.217 110.491 16.604 161.617-7.354 7.252-3.396 14.491-6.814 20.985-11.325 8.619-5.987 17.692-11.305 8.786-24.34-9.014-13.19-26.874-3.275-44.197 4.883-42.862 20.184-91.064 22.295-135.622 6.171-44.549-16.122-80.154-48.633-100.26-91.538-5.825-12.438-10.147-25.31-12.956-38.414-6.873-32.104-4.664-65.573 6.788-97.208 16.124-44.554 48.63-80.164 91.532-100.263 42.906-20.104 91.072-22.292 135.628-6.176 42.629 15.441 77.037 45.892 97.536 86.083l-22.52 7.184c-6.19 1.974-6.774 6.445-1.296 9.942l48.878 31.154c5.485 3.49 11.971 1.42 14.417-4.597z"/><path d="M200.435 120.945v122.212l-82.918 67.61c-5.891 4.802-6.772 13.474-1.968 19.362 2.718 3.336 6.68 5.063 10.676 5.063 3.058 0 6.135-1.013 8.688-3.099l93.048-75.863V120.945c0-7.603-6.164-13.765-13.762-13.765-7.61 0-13.764 6.162-13.764 13.765zm232.467 132.76c-14.729 0-28.564 5.734-38.756 15.903l-17.808 17.097-17.546-16.837c-10.403-10.428-24.26-16.163-38.988-16.163-14.726 0-28.569 5.761-38.957 16.163-10.428 10.407-16.167 24.239-16.167 38.981 0 14.704 5.732 28.56 16.155 38.957 10.383 10.417 24.23 16.162 38.969 16.162 14.717 0 28.577-5.731 38.744-15.926l17.799-17.075 17.562 16.839c10.404 10.417 24.265 16.162 38.994 16.162 14.716 0 28.549-5.731 38.952-16.162 10.42-10.381 16.167-24.241 16.167-38.982s-5.724-28.562-16.167-38.979c-10.416-10.406-24.249-16.14-38.953-16.14zm-96.685 71.531c-8.77 8.773-24.04 8.773-32.817 0-4.393-4.387-6.807-10.221-6.807-16.4 0-6.205 2.414-12.013 6.832-16.424 4.362-4.387 10.191-6.804 16.38-6.804 6.191 0 12.025 2.417 16.656 7.026l16.853 16.215-17.097 16.387zm113.085 0c-8.773 8.784-23.827 8.997-33.062-.226l-16.86-16.213 17.097-16.398c8.772-8.786 24.052-8.786 32.825-.025 4.388 4.411 6.8 10.221 6.8 16.425 0 6.193-2.413 12.051-6.8 16.437z"/></g></svg>