<svg xmlns="http://www.w3.org/2000/svg" viewBox="0 0 511.999 511.999" width="512" height="512"><path d="M183.445 81.304c9.436 0 18.301 4.587 23.713 12.27a7.497 7.497 0 0 0 13.626-4.316V7.497A7.497 7.497 0 0 0 213.287 0H7.848A7.497 7.497 0 0 0 .351 7.497v51.638a7.497 7.497 0 1 0 14.994 0V14.994h190.444v57.403a44.068 44.068 0 0 0-22.345-6.087c-24.182 0-43.853 19.672-43.853 43.853s19.672 43.854 43.853 43.854a44.078 44.078 0 0 0 22.345-6.087v57.403h-74.787a7.497 7.497 0 0 0-4.23 13.687 28.873 28.873 0 0 1 12.603 23.844c0 15.914-12.946 28.86-28.86 28.86-15.913 0-28.859-12.946-28.859-28.86a28.874 28.874 0 0 1 12.602-23.844 7.5 7.5 0 0 0 2.933-8.404 7.5 7.5 0 0 0-7.163-5.283H15.346V84.126a7.497 7.497 0 1 0-14.994 0v128.703a7.497 7.497 0 0 0 7.497 7.497h65.048a43.817 43.817 0 0 0-6.236 22.536c0 24.182 19.672 43.854 43.853 43.854s43.854-19.672 43.854-43.854a43.807 43.807 0 0 0-6.236-22.536h65.154a7.497 7.497 0 0 0 7.497-7.497v-81.76a7.496 7.496 0 0 0-13.626-4.317c-5.412 7.684-14.276 12.27-23.713 12.27-15.913 0-28.859-12.946-28.859-28.86.002-15.912 12.948-28.858 28.86-28.858z" fill="#FFF"/><path d="M504.151 185.64a7.497 7.497 0 0 0 7.497-7.497V98.077a7.497 7.497 0 0 0-7.497-7.497H300.833a7.498 7.498 0 0 0-7.497 7.497v64.226a43.192 43.192 0 0 0-22.122-6.099c-23.974 0-43.478 19.504-43.478 43.478s19.504 43.478 43.478 43.478a43.2 43.2 0 0 0 22.122-6.099v56.729h-73.525a7.494 7.494 0 0 0-7.146 5.233 7.496 7.496 0 0 0 2.829 8.394c7.585 5.342 12.112 14.053 12.112 23.3 0 15.706-12.778 28.484-28.484 28.484s-28.484-12.778-28.484-28.484c0-9.247 4.527-17.958 12.112-23.3a7.496 7.496 0 0 0 2.829-8.394 7.496 7.496 0 0 0-7.146-5.233H97.516a7.497 7.497 0 0 0-7.497 7.497v118.394a7.497 7.497 0 1 0 14.994 0V308.786h56.584a43.448 43.448 0 0 0-5.954 21.932c0 23.974 19.504 43.478 43.478 43.478s43.478-19.504 43.478-43.478a43.445 43.445 0 0 0-5.954-21.932h56.689v73.834a7.496 7.496 0 1 0 13.687 4.229c5.316-7.778 14.058-12.425 23.391-12.437 15.684.025 28.437 12.792 28.437 28.483 0 15.69-12.753 28.457-28.437 28.482-9.333-.013-18.075-4.659-23.392-12.437a7.496 7.496 0 1 0-13.686 4.231v73.834H105.013v-52.332a7.497 7.497 0 1 0-14.994 0v59.829a7.497 7.497 0 0 0 7.497 7.497h406.636a7.497 7.497 0 0 0 7.497-7.497V203.133a7.497 7.497 0 1 0-14.994 0v90.66H440.07a43.448 43.448 0 0 0 5.954-21.932c0-.056-.004-.112-.004-.169 0-.042.004-.084.004-.126 0-23.974-19.504-43.478-43.477-43.478-23.974 0-43.478 19.505-43.478 43.478 0 .042.004.084.004.126-.001.056-.004.112-.004.169a43.445 43.445 0 0 0 5.954 21.932h-56.69v-73.834a7.496 7.496 0 0 0-13.687-4.23c-5.322 7.789-14.081 12.438-23.429 12.438-15.706 0-28.484-12.778-28.484-28.484 0-15.706 12.778-28.484 28.484-28.484 9.348 0 18.106 4.649 23.429 12.437a7.496 7.496 0 1 0 13.687-4.23v-73.834h188.325v72.568a7.492 7.492 0 0 0 7.493 7.5zM308.33 308.786h73.525v.001h.414a7.496 7.496 0 1 0 4.23-13.687 28.494 28.494 0 0 1-12.434-23.401c.088-15.632 12.828-28.323 28.48-28.323s28.391 12.691 28.479 28.323A28.496 28.496 0 0 1 418.59 295.1a7.499 7.499 0 0 0 4.23 13.687h73.834v188.219H308.33v-56.598a43.703 43.703 0 0 0 22.038 5.967l.049-.001.036.001c23.974 0 43.478-19.505 43.478-43.478 0-23.974-19.504-43.478-43.478-43.478l-.036.001-.049-.001a43.709 43.709 0 0 0-22.038 5.967v-56.6z" fill="#FFF"/></svg>