<svg xmlns="http://www.w3.org/2000/svg" viewBox="0 0 512 512" width="512" height="512"><path d="M113.566 249.738h-.137c-5.77 0-10.448 4.678-10.448 10.448s4.677 10.448 10.448 10.448h.137c5.77 0 10.448-4.678 10.448-10.448s-4.678-10.448-10.448-10.448zm-33.938 0H49.816c-5.77 0-10.448 4.678-10.448 10.448s4.678 10.448 10.448 10.448h29.812c5.77 0 10.448-4.678 10.448-10.448s-4.678-10.448-10.448-10.448zm54.587 60.946H49.816c-5.77 0-10.448 4.678-10.448 10.448 0 5.77 4.678 10.448 10.448 10.448h84.399c5.77 0 10.448-4.677 10.448-10.448 0-5.77-4.677-10.448-10.448-10.448zm-20.649-30.474h-.137c-5.77 0-10.448 4.678-10.448 10.448 0 5.77 4.677 10.448 10.448 10.448h.137c5.77 0 10.448-4.677 10.448-10.448 0-5.77-4.678-10.448-10.448-10.448zm-33.938.002H49.816c-5.77 0-10.448 4.677-10.448 10.448 0 5.77 4.678 10.448 10.448 10.448h29.812c5.77 0 10.448-4.677 10.448-10.448 0-5.771-4.678-10.448-10.448-10.448zm65.195 0h-.976c-5.77 0-10.448 4.677-10.448 10.448 0 5.77 4.678 10.448 10.448 10.448h.976c5.77 0 10.448-4.677 10.448-10.448 0-5.771-4.678-10.448-10.448-10.448zM10.585 491.085h-.137C4.678 491.085 0 495.763 0 501.533s4.678 10.448 10.448 10.448h.137c5.77 0 10.448-4.678 10.448-10.448s-4.678-10.448-10.448-10.448zm490.916 0h-.137c-5.77 0-10.448 4.678-10.448 10.448s4.677 10.448 10.448 10.448h.137c5.77 0 10.448-4.678 10.448-10.448s-4.678-10.448-10.448-10.448zm-207.424-278.96c-6.44 0-11.679 5.239-11.679 11.679 0 6.439 5.239 11.678 11.679 11.678s11.679-5.239 11.679-11.678c0-6.44-5.239-11.679-11.679-11.679zm-76.205 0c-6.44 0-11.679 5.239-11.679 11.679 0 6.439 5.239 11.678 11.679 11.678 6.439 0 11.678-5.239 11.679-11.678 0-6.44-5.239-11.679-11.679-11.679zm48.356 49.226h-20.419c-5.77 0-10.448 4.678-10.448 10.448 0 11.39 9.267 20.658 20.658 20.658s20.657-9.266 20.658-20.658c-.001-5.771-4.679-10.448-10.449-10.448zm-51.997 183.854l16.078-16.077c4.08-4.081 4.081-10.697 0-14.776-4.081-4.08-10.697-4.08-14.777 0l-23.465 23.465c-4.08 4.081-4.08 10.697 0 14.777l23.465 23.465a10.414 10.414 0 0 0 7.388 3.06c2.674 0 5.348-1.02 7.389-3.059 4.08-4.081 4.08-10.697 0-14.776l-16.078-16.079zm105.353-7.39l-23.465-23.465c-4.081-4.08-10.697-4.08-14.777 0-4.08 4.081-4.08 10.697 0 14.777l16.078 16.077-16.078 16.077c-4.08 4.081-4.08 10.697 0 14.776a10.414 10.414 0 0 0 7.388 3.06c2.674 0 5.348-1.02 7.389-3.061l23.465-23.465c4.079-4.08 4.079-10.696 0-14.776zm-57.193-26.589c-5.68-1.044-11.122 2.71-12.167 8.384l-8.681 47.169c-1.044 5.675 2.709 11.122 8.384 12.167.639.117 1.275.174 1.903.174 4.943 0 9.336-3.524 10.264-8.559l8.681-47.169c1.044-5.675-2.709-11.122-8.384-12.166zM81.704 64.431c-17.379 0-31.518 14.139-31.518 31.518v20.547c0 17.379 14.139 31.518 31.518 31.518s31.518-14.138 31.518-31.517V95.95c0-17.379-14.139-31.519-31.518-31.519zm10.622 52.067c0 5.857-4.765 10.622-10.622 10.622s-10.622-4.765-10.622-10.622V95.95c0-5.857 4.765-10.622 10.622-10.622s10.622 4.765 10.622 10.622v20.548zm-56.6-51.271a10.45 10.45 0 0 0-11.386 2.264L3.11 88.721c-4.08 4.081-4.08 10.697 0 14.777 4.081 4.079 10.697 4.079 14.776 0l3.393-3.393v37.463c0 5.77 4.678 10.448 10.448 10.448s10.448-4.678 10.447-10.447V74.88a10.446 10.446 0 0 0-6.448-9.653zM430.854.019c-17.379 0-31.518 14.139-31.518 31.518v20.547c0 17.379 14.139 31.518 31.518 31.518s31.518-14.139 31.518-31.517V31.537c0-17.379-14.139-31.518-31.518-31.518zm10.622 52.066c0 5.857-4.765 10.622-10.622 10.622s-10.622-4.765-10.622-10.622V31.537c0-5.857 4.765-10.622 10.622-10.622s10.622 4.765 10.622 10.622v20.548zM505.549.815a10.448 10.448 0 0 0-11.386 2.264l-21.229 21.229c-4.08 4.081-4.08 10.697 0 14.776 4.081 4.079 10.697 4.079 14.777 0l3.393-3.395v37.464c0 5.77 4.678 10.448 10.448 10.448S512 78.925 511.999 73.155V10.468c0-4.226-2.545-8.036-6.45-9.653zm-17.195 219.023h-63.457c-13.038 0-23.646 10.609-23.646 23.648V363.72c0 13.039 10.608 23.648 23.646 23.648h63.457c13.038 0 23.646-10.609 23.646-23.648V243.486c0-13.039-10.608-23.648-23.646-23.648zm-66.206 23.648a2.754 2.754 0 0 1 2.75-2.752h63.457a2.755 2.755 0 0 1 2.75 2.752v2.073h-68.956v-2.073zm0 22.969h68.956v70.743h-68.956v-70.743zm68.956 97.265a2.754 2.754 0 0 1-2.75 2.752h-63.457a2.755 2.755 0 0 1-2.75-2.752v-5.626h68.956v5.626z" fill="#FFF"/><path d="M467.563 491.085h-57.964v-70.644c0-20.365-12.291-39.709-29.888-47.042l-67.241-28.016a6.374 6.374 0 0 1-3.857-4.916c-.004-.05-.01-.1-.016-.151a6.285 6.285 0 0 1-.063-.838v-16.27l27.31-15.659c.19-.109.377-.225.561-.346 13.674-9.03 22.654-25.091 24.02-42.961.021-.264.03-.531.03-.796v-8.674c13.568-4.413 23.402-17.181 23.402-32.202s-9.836-27.786-23.403-32.201v-5.185c5.962-12.971 30.71-74.005-6.696-121.661-17.285-22.027-38.017-31.388-56.688-26.029-15.794-11.703-34.499-17.405-56.975-17.405-66.872 0-106.833 51.212-106.833 100.722 0 33.246 9.204 58.21 15.085 70.772a34.027 34.027 0 0 0-18.131 19.258H23.986c-13.198 0-23.935 11.026-23.935 24.578v160.273c0 5.77 4.678 10.448 10.448 10.448H69.4v21.209h-7.706c-5.77 0-10.448 4.678-10.448 10.448s4.678 10.448 10.448 10.448h40.657v42.837H44.386c-5.77 0-10.448 4.678-10.448 10.448s4.678 10.448 10.448 10.448h423.177c5.77 0 10.448-4.678 10.448-10.448s-4.678-10.445-10.448-10.445zM240.095 40.987c26.2 0 40.129 9.315 48.327 16.322a10.45 10.45 0 0 0 11.361 1.452c10.726-5.221 24.76 1.382 37.537 17.664 21.947 27.961 16.227 63.633 9.906 84.443-4.608-5.502-10.702-11.98-18.564-18.927-5.032-4.448-11.885-7.786-19.141-11.319-8.555-4.167-19.2-9.352-21.217-14.605a10.448 10.448 0 0 0-17.663-3.083c-14.117 16.354-31.666 23.971-55.224 23.971-28.871 0-44.797 15.611-53.073 28.709-.367.58-.72 1.159-1.064 1.737-3.725-11.666-7.124-27.524-7.124-46.536.001-39.24 32.145-79.828 85.939-79.828zm58.119 140.703c-20.591 0-37.863 14.437-42.255 33.718-4.391-19.281-21.663-33.718-42.255-33.718-13.198 0-25.028 5.935-32.985 15.27l-7.698-3.893c2.416-9.563 11.754-35.265 42.396-35.265 25.023 0 45.467-7.259 62.134-22.129 6.466 5.771 14.972 9.914 22.819 13.736 5.68 2.766 11.551 5.626 14.453 8.19 14.735 13.022 22.154 23.859 24.734 28.054v7.146l-8.274 4.26c-7.956-9.392-19.825-15.369-33.069-15.369zm22.45 43.344c0 12.379-10.071 22.45-22.449 22.45s-22.449-10.071-22.449-22.45 10.071-22.448 22.449-22.448 22.449 10.07 22.449 22.448zm-84.509 0c0 12.379-10.071 22.45-22.449 22.45s-22.449-10.071-22.449-22.45 10.071-22.448 22.449-22.448 22.449 10.07 22.449 22.448zm-76.33-15.226l11.569 5.851a43.318 43.318 0 0 0-1.033 9.376c0 23.901 19.445 43.345 43.345 43.345 20.591 0 37.863-14.437 42.255-33.719 4.391 19.281 21.663 33.719 42.255 33.719 23.901 0 43.345-19.445 43.345-43.345a43.3 43.3 0 0 0-1.003-9.248l11.603-5.973c6.117 1.03 10.799 6.352 10.799 12.76 0 7.143-5.812 12.954-12.954 12.954-5.77 0-10.448 4.677-10.448 10.448v17.05c-.949 11.049-6.442 21.174-14.419 26.574l-56.094 32.165c-.191.11-.377.225-.561.346-7.831 5.173-17.184 5.174-25.018 0a9.551 9.551 0 0 0-.573-.352l-56.258-32.161c-7.984-5.406-13.284-15.292-14.245-26.569v-17.052c0-5.77-4.678-10.448-10.448-10.448-7.143 0-12.954-5.812-12.954-12.954.001-6.421 4.7-11.75 10.837-12.767zm127.813 125.384v19.091c0 17.538-14.14 31.806-31.678 31.806s-31.648-14.268-31.648-31.806v-19.078l7.938 4.539c7.333 4.763 15.529 7.144 23.725 7.144 8.198 0 16.396-2.383 23.73-7.148l7.933-4.548zm-185.288 85.25v6.911H90.296v-21.209h14.079c-1.313 4.607-2.025 9.422-2.025 14.298zm13.486-35.194H20.947V235.422c0-1.996 1.392-3.682 3.039-3.682H129.38c3.066 10.874 11.419 19.555 22.115 23.035v8.674c0 .265.01.532.03.796 1.372 17.943 10.288 34.003 23.852 42.961.187.123.378.24.573.352l27.467 15.702v16.219a6.38 6.38 0 0 1-3.936 5.904L132.239 373.4c-6.241 2.6-11.809 6.717-16.403 11.848zm7.41 105.837v-70.644c0-11.776 7.321-23.707 17.029-27.753l64.288-26.786c5.308 23.486 26.329 41.083 51.396 41.083 25.071 0 46.094-17.603 51.398-41.094l64.315 26.798c9.708 4.045 17.029 15.976 17.029 27.753v70.643H123.246z" fill="#FFF"/></svg>