<svg xmlns="http://www.w3.org/2000/svg" id="Layer_1" width="100" height="100" viewBox="0 0 100 100"><style>.st0{fill:none;stroke:#111;stroke-width:3;stroke-linecap:round;stroke-linejoin:round;stroke-miterlimit:10}</style><path class="st0" d="M67.4 62.9L67 82h-1.6L55 68.4h-9.8L34.7 82h-1.8l-.4-19.1 7.5-7.5c-.1-19 0-19.2 0-19.2C40 27 49.7 15 50 15c.3 0 10.1 12.8 10 21.3l-.1 19.3 7.5 7.3z"/><circle class="st0" cx="50" cy="40.4" r="4.1"/><path class="st0" d="M40.4 55.6s4.6 2.7 10.5 2.2c5.9-.4 9.1-2.3 9.1-2.3M50 77.9V73m-4.1 9.7v-4.8m7.3 7.1v-4.8"/></svg>