<svg xmlns="http://www.w3.org/2000/svg" width="512" height="512" viewBox="0 0 626.25 626.25"><g fill="#FFF"><path d="M433.156 626.25c-33.637 0-66.376-9.051-95.161-26.257a304.422 304.422 0 0 1-27.234 1.224C151.65 601.217 22.2 470.422 22.2 309.537c0-12.395.815-24.973 2.364-37.449-12.354-25.645-18.856-54.164-18.856-82.785C5.708 84.928 89.738 0 193.073 0c28.928 0 57.732 6.891 83.582 19.916 11.273-1.344 22.709-1.996 34.105-1.996 159.172 0 288.58 130.834 288.58 291.658 0 11.945-.734 23.973-2.201 35.838 15.33 27.969 23.402 59.486 23.402 91.49-.04 104.417-84.069 189.344-187.385 189.344zm-88.107-57.039l4.444 2.812c25.033 15.982 53.981 24.382 83.663 24.382 86.925 0 157.541-71.513 157.541-159.499 0-28.498-7.583-56.508-21.854-80.971l-2.568-4.404.692-5.096c1.713-12.191 2.609-24.545 2.609-36.816 0-144.373-116.117-261.855-258.816-261.855-11.641 0-23.383.836-34.86 2.385l-4.79.57-4.261-2.281c-22.628-12.15-48.151-18.633-73.776-18.633-86.884 0-157.521 71.512-157.521 159.498 0 25.502 6.096 50.883 17.694 73.469l2.182 4.221-.713 4.668c-1.795 12.619-2.712 25.359-2.712 37.918 0 144.371 116.097 261.875 258.757 261.875 9.642 0 19.427-.57 29.069-1.631l5.22-.612z"/><path d="M304.339 514.943c-49.231 0-89.718-11.416-120.276-34.003-29.11-20.956-44.562-47.866-44.562-77.751 0-16.676 5.932-31.312 17.164-42.443 11.987-11.824 28.521-17.777 45.848-16.594-53.901-28.072-63.013-75.041-63.013-103.539 0-43.381 18.755-78.588 54.165-101.787 28.336-18.285 63.501-27.561 104.701-27.561 35.776 0 69.271 8.643 99.482 25.727 37.02 20.916 55.775 47.703 55.775 79.605 0 17.574-7.299 33.066-20.468 43.627-9.581 7.686-20.63 12.23-33.024 13.658 57.08 28.295 66.742 78.057 66.742 108.514 0 39.955-14.719 72.369-43.91 96.302-28.458 24.015-68.414 36.245-118.624 36.245zM198.496 373.834c-8.562 0-15.392 2.65-20.916 8.113-5.545 5.504-8.256 12.477-8.256 21.201 0 20.467 10.56 38 32.312 53.736 25.421 18.756 59.954 28.255 102.703 28.255 42.993 0 76.549-9.866 99.625-29.355 22.343-18.388 33.106-42.362 33.106-73.388 0-49.191-28.377-80.707-84.315-93.611l-62.747-14.271c-35.553-8.031-52.84-20.467-52.84-38.039 0-12.312 5.035-22.424 14.983-30.027 9.765-7.502 23.627-11.314 41.158-11.314 20.468 0 37.408 4.525 50.312 13.373 1.346.916 5.627 3.832 24.096 23.83 7.502 8.236 15.371 12.232 23.934 12.232 9.01 0 16.471-2.508 22.75-7.604 6.197-4.955 9.337-11.805 9.337-20.367 0-20.365-13.577-38.406-40.567-53.654-25.728-14.475-54.247-21.834-84.846-21.834-35.329 0-65.092 7.645-88.475 22.752-27.296 17.877-40.567 43.014-40.567 76.752 0 45.541 26.542 75.467 78.853 89.004l84.601 21.67c22.384 5.871 33.677 18.184 33.677 36.654 0 12.271-5.504 22.912-16.431 31.68-11.538 9.58-26.604 14.27-45.889 14.27-21.976 0-40.037-5.586-53.777-16.555-1.427-1.141-5.219-4.158-24.973-28.621-8.052-10.03-16.819-14.882-26.848-14.882zm37.122-16.758c4.587 3.588 8.93 7.869 12.986 12.885 16.328 20.141 20.324 23.973 20.752 24.381 8.053 6.441 19.489 9.703 34.778 9.703 12.109 0 20.957-2.486 27.134-7.584 5.382-4.32 5.382-6.848 5.382-8.52 0-2.162 0-4.812-11.355-7.789l-84.499-21.648a157.5 157.5 0 0 1-5.178-1.428zm31.517-122.681c2.793 2.283 11.232 6.932 29.478 11.01l54.512 12.436c-1.794-1.672-3.588-3.426-5.301-5.301-15.064-16.309-19.101-19.449-19.284-19.57-7.584-5.26-18.857-7.971-33.229-7.971-10.519 0-18.693 1.834-23.035 5.178-2.061 1.528-2.856 2.669-3.141 4.218z"/></g></svg>