<svg xmlns="http://www.w3.org/2000/svg" viewBox="0 0 504 504" width="512" height="512"><path d="M334 265.6c-3.2-7.6-8.8-13.2-16-18-7.2-4.4-15.6-8.4-25.6-11.6s-21.2-6-33.2-8.4c-9.6-2-16.8-4-20.8-5.2-4-1.2-8-2.8-12-4.8-3.6-2-6.8-4-8.8-6.8-2-2.4-3.2-5.2-3.2-8.4 0-5.6 3.2-10 9.2-14 6.4-4 15.2-6.4 26-6.4 11.6 0 20 2 25.2 5.6 5.2 4 9.6 9.6 13.6 16.4 3.2 5.6 6 9.2 8.8 11.6 3.2 2.8 7.2 4 12.8 4 6 0 11.2-2 15.6-6.4 4-4 6-8.8 6-14.4s-1.6-11.2-4.8-16.8c-3.2-5.6-8-11.2-14.4-16-6.4-5.2-14.8-9.2-24.8-12-10-3.2-21.6-4.4-35.2-4.4-16.8 0-31.6 2.4-44 6.8-12.8 4.4-22.4 11.2-29.2 20s-10 18.8-10 30c0 11.6 3.2 21.6 9.6 29.6 6.4 8 15.2 14 25.6 18.8 10.4 4.4 23.6 8.4 39.2 11.6 11.6 2.4 20.8 4.8 27.6 6.8 6.4 2 12 4.8 16 8.8 4 3.6 5.6 8 5.6 14 0 7.2-3.6 13.6-11.2 18.4-7.6 5.2-18 7.6-30.4 7.6-8.8 0-16.4-1.2-21.6-4-5.2-2.4-9.6-5.6-12.4-9.6-3.2-4-6-9.2-8.8-15.2-2.4-5.6-5.2-9.6-8.8-12.8-3.6-2.8-8-4.4-13.2-4.4-6.4 0-11.6 2-15.6 5.6-4 4-6.4 8.4-6.4 14 0 8.8 3.2 17.6 9.6 26.8 6.4 8.8 14.8 16.4 24.8 21.6 14 7.2 32 11.2 53.6 11.2 18 0 33.6-2.8 46.8-8 13.2-5.6 23.6-13.2 30.4-22.8s10.4-20.8 10.4-32.8c0-10-2-18.8-6-26z" fill="#FFF"/><path d="M377.6 0H126C56.8 0 0 56.8 0 126.4V378c0 69.2 56.8 126 126 126h251.6c69.6 0 126.4-56.8 126.4-126.4V126.4C504 56.8 447.2 0 377.6 0zm-55.2 409.2c-14.8 0-28.8-3.6-41.2-10-8.8 1.6-18 2.4-27.6 2.4-82.8 0-150-66.4-150-148 0-10 1.2-20 3.2-29.6-7.6-12.8-12-27.6-12-43.2 0-47.2 38.8-85.6 86.8-85.6 16.8 0 32.8 4.8 46.4 13.2 8.4-1.2 16.8-2 25.6-2 82.8 0 150 66.4 150 148 0 10.8-1.2 21.6-3.6 31.6 5.6 11.6 9.2 24.4 9.2 38 0 46.8-38.8 85.2-86.8 85.2z" fill="#FFF"/></svg>