<svg xmlns="http://www.w3.org/2000/svg" xmlns:xlink="http://www.w3.org/1999/xlink" viewBox="0 0 512.001 512.001"><pattern x="-50" y="652" width="38.163" height="38.163" patternUnits="userSpaceOnUse" id="a" viewBox="0 -38.163 38.163 38.163" overflow="visible"><path fill="none" d="M0 0h38.163v-38.163H0z"/><path fill="none" d="M0-38.163h38.163V0H0z"/><path fill="#e8f1f8" d="M38.163-38.163H0V0h38.163z"/></pattern><path fill="#fcfcfc" d="M32.907 155.815h446.375v298.863H32.907z"/><path d="M495.639 24.605H16.361C7.325 24.605 0 31.93 0 40.966v430.07c0 9.036 7.325 16.361 16.361 16.361h479.28c9.036 0 16.361-7.325 16.361-16.361V40.966c-.002-9.036-7.327-16.361-16.363-16.361zm-16.359 430.07H32.72v-298.86h446.56v298.86z" fill="#5aaae7"/><path d="M479.28 155.815H256v22.276h21.267c7.086 0 12.83 5.744 12.83 12.83v14.696a103.661 103.661 0 0 1 14.359 5.953l10.395-10.395c5.01-5.01 13.134-5.01 18.144 0l28.129 28.13c5.01 5.01 5.01 13.134 0 18.144l-10.394 10.394a103.959 103.959 0 0 1 5.953 14.359h14.696c7.086 0 12.83 5.744 12.83 12.83v39.781c0 7.086-5.744 12.83-12.83 12.83h-14.696a103.661 103.661 0 0 1-5.953 14.359l10.394 10.394c5.01 5.01 5.01 13.134 0 18.144l-28.129 28.13c-5.01 5.01-13.134 5.011-18.144 0l-10.395-10.395a103.959 103.959 0 0 1-14.359 5.953v14.696c0 7.086-5.744 12.83-12.83 12.83H256v22.924h223.28V155.815z" fill="#d8d7da"/><g fill="#00e7f0"><circle cx="369.197" cy="96.679" r="18.541"/><circle cx="433.542" cy="96.679" r="18.541"/></g><g fill="#fcfcfc"><path d="M193.016 308.874c0 34.785 28.199 62.984 62.984 62.984V245.89c-34.785 0-62.984 28.199-62.984 62.984z"/><path d="M237.486 431.751c-7.086 0-12.83-5.744-12.83-12.83v-14.696a103.784 103.784 0 0 1-14.359-5.953l-10.395 10.395c-5.01 5.01-13.134 5.01-18.144 0l-28.13-28.13c-5.01-5.01-5.01-13.134 0-18.144l10.395-10.395a103.703 103.703 0 0 1-5.951-14.359h-14.696c-7.086 0-12.83-5.744-12.83-12.83v-39.781c0-7.086 5.744-12.83 12.83-12.83h14.696a103.898 103.898 0 0 1 5.951-14.359l-10.395-10.395c-5.01-5.01-5.01-13.134 0-18.144l28.13-28.13c5.01-5.01 13.134-5.01 18.144 0l10.395 10.395a103.703 103.703 0 0 1 14.359-5.951V190.92c0-7.086 5.744-12.83 12.83-12.83H256v-22.275H32.72v298.86H256v-22.924h-18.514z"/></g><path d="M16.361 24.605C7.325 24.605 0 31.93 0 40.966v430.07c0 9.036 7.325 16.361 16.361 16.361H256v-32.72H32.72V155.815H256V24.605H16.361z" fill="#78b9eb"/><pattern id="b" xlink:href="#a" patternTransform="matrix(1.1131 0 0 -1.1131 1490.683 -21377.795)"/><path d="M224.657 190.92v14.696a103.898 103.898 0 0 0-14.359 5.951l-10.395-10.395c-5.01-5.01-13.134-5.01-18.144 0l-28.13 28.13c-5.01 5.01-5.01 13.134 0 18.144l10.395 10.395a103.703 103.703 0 0 0-5.951 14.359h-14.696c-7.086 0-12.83 5.744-12.83 12.83v39.781c0 7.086 5.744 12.83 12.83 12.83h14.696A103.898 103.898 0 0 0 164.024 352l-10.395 10.395c-5.01 5.01-5.01 13.134 0 18.144l28.13 28.13c5.01 5.01 13.134 5.01 18.144 0l10.395-10.395a103.959 103.959 0 0 0 14.359 5.953v14.696c0 7.086 5.744 12.83 12.83 12.83H256v-59.894c-34.785 0-62.984-28.199-62.984-62.984s28.199-62.984 62.984-62.984v-67.8h-18.514c-7.086 0-12.829 5.744-12.829 12.829z" fill="url(#b)"/><path d="M224.657 190.92v14.696a103.898 103.898 0 0 0-14.359 5.951l-10.395-10.395c-5.01-5.01-13.134-5.01-18.144 0l-28.13 28.13c-5.01 5.01-5.01 13.134 0 18.144l10.395 10.395a103.703 103.703 0 0 0-5.951 14.359h-14.696c-7.086 0-12.83 5.744-12.83 12.83v39.781c0 7.086 5.744 12.83 12.83 12.83h14.696A103.898 103.898 0 0 0 164.024 352l-10.395 10.395c-5.01 5.01-5.01 13.134 0 18.144l28.13 28.13c5.01 5.01 13.134 5.01 18.144 0l10.395-10.395a103.959 103.959 0 0 0 14.359 5.953v14.696c0 7.086 5.744 12.83 12.83 12.83H256v-59.894c-34.785 0-62.984-28.199-62.984-62.984s28.199-62.984 62.984-62.984v-67.8h-18.514c-7.086 0-12.829 5.744-12.829 12.829z" fill="#898890"/><path d="M318.984 308.874c0-34.785-28.199-62.984-62.984-62.984v125.966c34.785.002 62.984-28.197 62.984-62.982z" fill="#d8d7da"/><pattern id="c" xlink:href="#a" patternTransform="matrix(1.1131 0 0 -1.1131 1490.683 -21377.795)"/><path d="M318.984 308.874c0 34.785-28.199 62.984-62.984 62.984v59.894h21.267c7.086 0 12.83-5.744 12.83-12.83v-14.695a103.784 103.784 0 0 0 14.359-5.953l10.395 10.395c5.01 5.01 13.134 5.01 18.144 0l28.129-28.13c5.01-5.01 5.01-13.134 0-18.144l-10.394-10.394a103.959 103.959 0 0 0 5.953-14.359h14.696c7.086 0 12.83-5.744 12.83-12.83V285.03c0-7.086-5.744-12.83-12.83-12.83h-14.696a103.661 103.661 0 0 0-5.953-14.359l10.394-10.394c5.01-5.01 5.01-13.133 0-18.144l-28.129-28.13c-5.01-5.01-13.134-5.011-18.144 0l-10.395 10.395a103.959 103.959 0 0 0-14.359-5.953V190.92c0-7.086-5.744-12.83-12.83-12.83H256v67.8c34.785 0 62.984 28.199 62.984 62.984z" fill="url(#c)"/><path d="M318.984 308.874c0 34.785-28.199 62.984-62.984 62.984v59.894h21.267c7.086 0 12.83-5.744 12.83-12.83v-14.695a103.784 103.784 0 0 0 14.359-5.953l10.395 10.395c5.01 5.01 13.134 5.01 18.144 0l28.129-28.13c5.01-5.01 5.01-13.134 0-18.144l-10.394-10.394a103.959 103.959 0 0 0 5.953-14.359h14.696c7.086 0 12.83-5.744 12.83-12.83V285.03c0-7.086-5.744-12.83-12.83-12.83h-14.696a103.661 103.661 0 0 0-5.953-14.359l10.394-10.394c5.01-5.01 5.01-13.133 0-18.144l-28.129-28.13c-5.01-5.01-13.134-5.011-18.144 0l-10.395 10.395a103.959 103.959 0 0 0-14.359-5.953V190.92c0-7.086-5.744-12.83-12.83-12.83H256v67.8c34.785 0 62.984 28.199 62.984 62.984z" fill="#57565c"/><path fill="#d8d7da" d="M32.907 155.815h223.855v13.351H32.907z"/></svg>