<svg xmlns="http://www.w3.org/2000/svg" viewBox="0 0 448 448" width="512" height="512"><g fill="#FFF"><path d="M384 172.4C384 83.6 312.4 12 224 12S64 83.6 64 172v.4C28.4 174.4 0 204 0 240v8c0 37.6 30.4 68 68 68h3.6l28.4 45.2c20 32 54 50.8 91.6 50.8h5.6c3.6 13.6 16 24 30.8 24 17.6 0 32-14.4 32-32s-14.4-32-32-32c-14.8 0-27.2 10.4-30.8 24h-5.6c-32 0-61.2-16.4-78-43.6L90.4 316H96c8.8 0 16-7.2 16-16V188c0-8.8-7.2-16-16-16H80c0-79.6 64.4-144 144-144s144 64.4 144 144h-16c-8.8 0-16 7.2-16 16v112c0 8.8 7.2 16 16 16h28c37.6 0 68-30.4 68-68v-8c0-36-28.4-65.6-64-67.6zM228 388c8.8 0 16 7.2 16 16s-7.2 16-16 16-16-7.2-16-16 7.2-16 16-16zM96 188v112H68c-28.8 0-52-23.2-52-52v-8c0-28.8 23.2-52 52-52h28zm336 60c0 28.8-23.2 52-52 52h-28V188h28c28.8 0 52 23.2 52 52v8z"/><path d="M290.4 72.4c-.8-.4-2-1.2-3.2-2-1.2-.8-2.4-1.6-3.2-2-3.6-2.4-8.8-1.2-10.8 2.8S272 79.6 276 82c.8.4 2 1.2 3.2 2s2.4 1.6 3.6 2c1.2.8 2.8 1.2 4 1.2 2.8 0 5.2-1.2 6.8-4 2-3.6.8-8.4-3.2-10.8zM224 52c-34 0-66 14.8-88 40.4-2.8 3.2-2.4 8.4.8 11.2 1.6 1.2 3.2 2 5.2 2 2.4 0 4.4-.8 6-2.8 19.2-22 46.8-34.8 76-34.8 7.2 0 14.4.8 21.6 2.4 4.4.8 8.4-2 9.6-6s-2-8.4-6-9.6c-8.4-2-16.8-2.8-25.2-2.8z"/></g></svg>