<svg xmlns="http://www.w3.org/2000/svg" viewBox="0 0 512 512"><path d="M152.565 293.037v-38.473c0-9.292-7.558-16.85-16.849-16.85h-.858c-4.89 0-9.298 2.092-12.38 5.428-2.352-6.474-8.565-11.112-15.843-11.112h-.858c-4.622 0-8.912 1.848-12.024 5.023-2.539-6.094-8.557-10.387-15.561-10.387h-.858a16.803 16.803 0 0 0-11.221 4.283c-1.918-7.196-8.493-12.515-16.285-12.515h-.858c-9.291 0-16.849 7.56-16.849 16.851v27.864l-3.787-.592c-8.51-1.331-14.99-.105-19.45 3.634-8.723 7.298-8.54 21.618-7.265 42.629 1.537 25.368 26.936 46.8 32.652 51.315v27.694h100.753v-35.744c16.826-15.279 18.862-45.102 17.541-59.048z" fill="#fbcb99"/><g fill="#e9b585"><path d="M43.109 387.83v-31.114c-9.899-8.063-30.337-26.587-31.628-47.894-1.274-21.013-2.553-35.331 6.17-42.629 2.003-1.679 8.82-2.823 11.639-3.485l-.956-.15c-8.51-1.331-14.99-.105-19.45 3.634-8.723 7.298-8.54 21.618-7.265 42.629 1.537 25.368 26.936 46.8 32.652 51.315v27.694h8.838z"/><path d="M49.167 218.443l-.828.031a16.966 16.966 0 0 0-11.743 5.353c-3.034 3.257-4.634 7.489-4.512 12.015l.049 39.214.013 2.422.233 5.686s-.702 5.023 4.136 5.398c4.837.375 4.628-4.871 4.628-4.871l-.268-10.493-.047-38.624c-.122-4.526 1.479-8.758 4.512-12.014 1.651-1.771 3.673-3.135 5.882-4.052a17.54 17.54 0 0 0-2.055-.065zm20.587 71.455c4.838.375 4.629-4.871 4.629-4.871l-.27-10.493-.047-38.624c-.089-3.3.748-6.437 2.378-9.159a16.976 16.976 0 0 0-10.162 4.296 17.065 17.065 0 0 0-.96 6.132l.049 39.214.014 2.422.233 5.686c.001-.001-.702 5.022 4.136 5.397zm34.894-57.837c-4.129.287-8.045 2.139-10.881 5.045a16.998 16.998 0 0 0-1.247 6.886l.815 37.867.013 2.422.235 5.686s-.704 5.023 4.135 5.398c4.838.375 4.628-4.871 4.628-4.871l-.268-10.493-.813-37.277c-.107-3.925 1.087-7.626 3.383-10.663zm26.718 59.614l-.268-10.493-.047-38.624c-.041-1.534.13-3.029.474-4.47-.371.076-.746.136-1.111.237a16.815 16.815 0 0 0-8.097 5.011c0 .163-.014.325-.01.489l.049 39.214.013 2.423.235 5.686s-.702 5.023 4.135 5.398c4.837.373 4.627-4.871 4.627-4.871z"/></g><path d="M174.277 3.53L119.489 0c-3.088.046-6.712 1.009-1.314 6.281l.007.007 37.7 36.824 2.55 1.077 18.75-39.472-2.905-1.187z" fill="#fbcb99"/><path d="M115.566 1.323c-.482.924.045 2.455 2.609 4.959l.007.007 37.7 36.824 2.55 1.077 9.744-20.512-52.61-22.355z" fill="#e9b585"/><path d="M155.155 42.805l78.429 33.124 11.492-42.7-71.167-29.91zm192.191 33.409l-9.082 32.839-.098.637c-.042.27-.103.641-.184 1.098l-1.509 8.596 30.096 12.713 18.59-39.989-37.813-15.894z" fill="#f37521"/><path d="M347.346 76.214l-5.838 21.112 34.253 14.369 8.492-17.742.907-1.848zM164.9 22.285l74.592 31.694 5.584-20.75-71.167-29.91z" fill="#f7971d"/><path d="M510.695 248.173V209.7c0-9.292-7.558-16.85-16.849-16.85h-.858c-4.89 0-9.298 2.092-12.38 5.428-2.352-6.474-8.565-11.112-15.843-11.112h-.858c-4.622 0-8.912 1.848-12.024 5.023-2.539-6.094-8.559-10.387-15.561-10.387h-.858a16.803 16.803 0 0 0-11.221 4.283c-1.918-7.196-8.493-12.515-16.285-12.515h-.858c-9.291 0-16.849 7.559-16.849 16.851v27.864l-3.787-.592c-8.51-1.331-14.99-.105-19.45 3.634-8.723 7.298-8.54 21.618-7.265 42.629 1.537 25.368 26.936 46.8 32.652 51.315v27.694h100.753v-35.744c16.826-15.28 18.861-45.102 17.541-59.048z" fill="#fbcb99"/><path d="M401.239 342.967v-31.115c-9.899-8.062-30.337-26.587-31.628-47.894-1.274-21.013-2.553-35.331 6.17-42.629 2.003-1.679 8.82-2.823 11.639-3.485l-.956-.15c-8.51-1.331-14.99-.105-19.45 3.634-8.723 7.298-8.54 21.618-7.265 42.629 1.537 25.368 26.936 46.8 32.652 51.315v27.694h8.839v.001z" fill="#e9b585"/><path d="M343.313 51.343l-.834-.198a16.843 16.843 0 0 0-3.902-.459 16.818 16.818 0 0 0-9.402 2.851c-.803-6.829-5.775-12.762-12.851-14.444l-.81-.192c-4.401-1.056-9.122-.228-12.87 2.131a16.76 16.76 0 0 0-2.297-6.176 16.755 16.755 0 0 0-10.45-7.553l-.827-.196c-4.037-.967-8.357-.359-11.912 1.566a16.75 16.75 0 0 0-2.506-8.379c-2.36-3.83-6.071-6.511-10.472-7.559l-.807-.19a16.955 16.955 0 0 0-12.741 2.048c-3.788 2.335-6.454 5.992-7.536 10.387l-13.17 48.929-28.216-11.912-3.637 11.452c-2.204 6.933-3.661 15.296-4.948 22.672-4.436 25.445 16.148 52.749 20.153 57.767l.037 49.364h99.846l.122-34.414c23.713-13.319 29.626-48.264 30.345-53.155L355.737 71.9l.148-.601c1.928-8.897-3.711-17.852-12.572-19.956z" fill="#fbcb99"/><path d="M205.312 96.124c1.287-7.376 2.744-15.738 4.948-22.672l2.196-6.914L201.71 62l-3.637 11.452c-2.204 6.933-3.661 15.296-4.948 22.672-4.436 25.445 16.148 52.749 20.153 57.767l.037 49.364h12.187l-.037-49.364c-4.003-5.019-24.589-32.322-20.153-57.767z" fill="#e9b585"/><path d="M410.209 107.792a16.073 16.073 0 0 0-8.708-8.819l-18.806-7.905-18.345 40.089 19.997 8.446c2.01.85 4.131 1.283 6.304 1.283 2.096 0 4.148-.403 6.081-1.19a16.06 16.06 0 0 0 8.818-8.694l4.572-10.826a16.06 16.06 0 0 0 .087-12.384z" fill="#ef4c35"/><path d="M198.302 503.471c0 7.2 5.29 8.391 8.001 8.529h1.2c.23-.013.364-.028.364-.028l.009.028h107.525l.009-.028s.134.016.364.028h1.2c2.481-.126 7.12-1.135 7.89-6.823V240.902H198.247v261.615c.033.292.055.603.055.954zM387.843 512h1.2c.23-.013.364-.028.364-.028l.008.028h107.527l.008-.028s.134.016.364.028h1.2c2.596-.133 7.559-1.231 7.972-7.648V379.766H379.87v124.586c.414 6.417 5.377 7.515 7.973 7.648z" fill="#3b7ead"/><path d="M315.408 511.97s.134.016.364.028h1.2c2.481-.126 7.12-1.135 7.89-6.823V240.902H225.63V512h89.769l.009-.03zm181.541 0s.134.016.364.028h1.2c2.596-.133 7.559-1.231 7.972-7.648V379.765H405.061V512h91.88l.008-.03z" fill="#6598cb"/><path d="M148.355 503.733v-78.641H21.738v78.47c0 6.407 4.188 8.056 7.021 8.438h112.579c2.808-.38 6.94-2.006 7.017-8.267z" fill="#3b7ead"/><path d="M148.355 503.733v-78.641H49.121V512h92.217c2.808-.38 6.94-2.006 7.017-8.267z" fill="#6598cb"/><path d="M324.837 207.124c0-6.75-4.352-8.231-7.043-8.5H205.29c-2.691.27-7.043 1.75-7.043 8.5v39.257h126.615v-38.175a23.147 23.147 0 0 1-.025-1.082z" fill="#e1e5ec"/><path d="M324.837 207.124c0-6.75-4.352-8.231-7.043-8.5h-92.162v47.758h99.232v-38.175a20.6 20.6 0 0 1-.027-1.083z" fill="#eff2f9"/><path d="M264.18 12.737l-.807-.19a16.955 16.955 0 0 0-12.741 2.048c-3.788 2.335-6.454 5.992-7.536 10.387l-10.348 37.824-.629 2.34-1.282 5.545s-2.009 4.657 2.557 6.301c4.565 1.644 5.753-3.469 5.753-3.469l2.523-10.189 10.195-37.254c1.082-4.397 3.748-8.053 7.536-10.387 2.061-1.27 4.372-2.049 6.746-2.348a17.436 17.436 0 0 0-1.967-.608zm1.173 73.387c4.565 1.644 5.753-3.469 5.753-3.469l2.523-10.189 10.195-37.254c.789-3.205 2.427-6.008 4.721-8.201a16.97 16.97 0 0 0-10.935 1.448 17.084 17.084 0 0 0-2.551 5.658L264.71 71.94l-.629 2.34-1.282 5.545c-.002-.002-2.011 4.656 2.554 6.299zm49.582-47.331c-4.057-.817-8.324-.069-11.827 1.98a17.033 17.033 0 0 0-3.029 6.31l-9.252 36.728-.629 2.34-1.282 5.545s-2.009 4.657 2.557 6.301 5.753-3.469 5.753-3.469l2.523-10.189 9.099-36.158c.935-3.815 3.068-7.066 6.087-9.388zm10.416 63.587l2.523-10.189 10.195-37.254a17.24 17.24 0 0 1 1.642-4.184c-.378-.025-.755-.067-1.133-.067-3.347 0-6.488.979-9.136 2.685-.043.159-.1.31-.139.47l-10.348 37.824-.629 2.34-1.282 5.545s-2.009 4.657 2.557 6.301c4.562 1.642 5.75-3.471 5.75-3.471zm81.947 71.198l-.828.031a16.966 16.966 0 0 0-11.743 5.353c-3.033 3.257-4.634 7.489-4.512 12.015l.049 39.214.013 2.422.233 5.686s-.702 5.023 4.136 5.398c4.837.375 4.628-4.871 4.628-4.871l-.268-10.493-.047-38.624c-.122-4.526 1.479-8.758 4.512-12.014 1.651-1.771 3.674-3.135 5.883-4.052a17.792 17.792 0 0 0-2.056-.065zm20.586 71.456c4.838.375 4.629-4.871 4.629-4.871l-.27-10.493-.047-38.624c-.089-3.3.748-6.437 2.378-9.159a16.97 16.97 0 0 0-10.161 4.296 17.065 17.065 0 0 0-.96 6.132l.049 39.214.014 2.422.233 5.686c0-.001-.702 5.023 4.135 5.397zm34.895-57.838c-4.128.287-8.045 2.139-10.881 5.045a16.998 16.998 0 0 0-1.247 6.886l.815 37.867.013 2.422.234 5.686s-.704 5.023 4.135 5.398c4.838.375 4.628-4.871 4.628-4.871l-.268-10.493-.813-37.277c-.106-3.924 1.087-7.624 3.384-10.663zm26.717 59.615l-.268-10.493-.047-38.624c-.041-1.534.13-3.029.475-4.47-.371.076-.746.136-1.111.237a16.823 16.823 0 0 0-8.097 5.011c0 .163-.014.325-.01.489l.049 39.214.013 2.423.234 5.685s-.702 5.023 4.135 5.398c4.838.375 4.627-4.87 4.627-4.87z" fill="#e9b585"/><path d="M506.459 345.987c0-6.75-4.352-8.231-7.043-8.5H386.913c-2.691.27-7.043 1.75-7.043 8.5v39.257h126.615v-38.175a23.048 23.048 0 0 1-.026-1.082z" fill="#e1e5ec"/><path d="M506.459 345.987c0-6.75-4.352-8.231-7.043-8.5h-94.355v47.758h101.423V347.07a24.695 24.695 0 0 1-.025-1.083z" fill="#eff2f9"/><path d="M148.326 391.042c0-6.75-4.352-8.231-7.043-8.5H28.781c-2.691.27-7.043 1.75-7.043 8.5V430.3h126.615v-38.175a21.716 21.716 0 0 1-.027-1.083z" fill="#e1e5ec"/><path d="M148.326 391.042c0-6.75-4.352-8.231-7.043-8.5H49.121V430.3h99.232v-38.175a21.716 21.716 0 0 1-.027-1.083z" fill="#eff2f9"/></svg>