<svg xmlns="http://www.w3.org/2000/svg" width="744" height="538" viewBox="108 6 744 538"><path fill="#A8A9A9" d="M488.2 506.8c-29.4 0-57.7-5.3-84-15.7-.8-.3-1.5-1-1.9-1.9-.2-.5-.5-1.4-.2-2.3.5-1.3 1.9-2.3 3.3-2.3.3 0 .6.1.9.2 25.8 9.9 52.9 14.9 80.6 14.9 59.8 0 118.1-24 159.9-65.8 42.3-43.1 65.6-99.7 65.6-159.3 0-60.4-23.3-117-65.6-159.3l-15.5-15.5V179c0 1.3-1 3.2-3.2 3.2-1.3 0-3.2-1-3.2-3.2V90.6c0-1.3 1-3.2 3.2-3.2h88.4c1.3 0 3.2 1 3.2 3.2 0 1.3-1 3.2-3.2 3.2h-80.9l16.5 17.7c43.6 43.6 67.7 101.8 67.7 163.8s-24 120.2-67.7 163.8c-21.8 21.8-47.3 38.7-75.8 50.4-28.1 11.5-57.7 17.3-88.1 17.3zm-227.5-44.9c-1.4 0-3.2-1.8-3.2-3.2 0-1.3 1-3.2 3.2-3.2h79.2l-17-17c-43.6-43.6-67.7-101.8-67.7-163.8s24-120.2 67.7-163.8c22-21.7 47.6-38.6 76.2-50.3 28.3-11.5 58-17.4 88.5-17.4 27.4 0 54.4 4.8 80.2 14.2 1.6.7 2.7 2.7 2.1 4.2-.5 1.3-1.9 2.3-3.3 2.3-.3 0-.6-.1-.9-.2-25.3-9.5-51.7-14.3-78.6-14.3-29.4 0-58.2 5.7-85.5 16.9-27.7 11.4-52.4 27.8-73.5 49-42.3 43.1-65.6 99.7-65.6 159.3 0 60.4 23.3 117 65.6 159.3l17 17v-80.7c0-1.3 1-3.2 3.2-3.2 2.1 0 3.2 1.1 3.2 3.2v88.4c0 .9-.2 1.4-1 2.2-.9.9-1.3 1-2.2 1h-87.6z"/></svg>