<svg xmlns="http://www.w3.org/2000/svg" viewBox="0 0 512 512" width="512" height="512"><path d="M451.72 237.26c-17.422-8.71-50.087-8.811-51.469-8.811a7.5 7.5 0 0 0 0 15c8.429.001 32.902 1.299 44.761 7.228a7.502 7.502 0 0 0 6.708-13.417z" fill="#FFF"/><path d="M489.112 344.041l-30.975-8.85a3.145 3.145 0 0 1-2.271-3.011v-10.339a56.368 56.368 0 0 0 7.171-5.881c10.89-10.568 16.887-24.743 16.887-39.915v-14.267l2.995-5.989a47.846 47.846 0 0 0 5.024-21.286v-38.65a7.5 7.5 0 0 0-7.5-7.5H408.27c-26.244 0-47.596 21.352-47.596 47.596v.447a39.78 39.78 0 0 0 4.178 17.699l3.841 7.682v12.25c0 19.414 9.567 36.833 24.058 47.315l.002 10.836c0 1.671 0 2.363-6.193 4.133l-15.114 4.318-43.721-15.898a7.491 7.491 0 0 0-2.044-5.742l-13.971-14.678v-24.64a90.427 90.427 0 0 0 4.344-3.789c17.625-16.52 27.733-39.844 27.733-63.991v-19.678c5.322-11.581 8.019-23.836 8.019-36.457v-80.19a7.5 7.5 0 0 0-7.5-7.5H232.037c-39.51 0-71.653 32.144-71.653 71.653v16.039c0 12.621 2.697 24.876 8.019 36.457v16.931c0 28.036 12.466 53.294 32.077 69.946v25.22l-13.971 14.678a7.491 7.491 0 0 0-2.044 5.742l-46.145 16.779a39.33 39.33 0 0 0-9.272 4.858l-7.246-3.623c21.57-9.389 28.403-22.594 28.731-23.25a7.498 7.498 0 0 0 0-6.708c-5.407-10.814-6.062-30.635-6.588-46.561-.175-5.302-.341-10.311-.658-14.771-2.557-35.974-29.905-63.103-63.615-63.103s-61.059 27.128-63.615 63.103c-.317 4.461-.483 9.47-.658 14.773-.526 15.925-1.182 35.744-6.588 46.558a7.498 7.498 0 0 0 0 6.708c.328.656 7.147 13.834 28.76 23.234l-20.127 10.063C6.684 358.176 0 368.991 0 381.02v55.409a7.5 7.5 0 0 0 15 0V381.02c0-6.312 3.507-11.987 9.152-14.81l25.063-12.531 8.718 8.285a31.466 31.466 0 0 0 21.739 8.688 31.475 31.475 0 0 0 21.739-8.688l8.717-8.284 8.172 4.086c-3.848 6.157-6.032 13.377-6.032 20.94v57.725a7.5 7.5 0 0 0 15 0v-57.725c0-10.296 6.501-19.578 16.178-23.097l48.652-17.691 20.253 30.381a15.462 15.462 0 0 0 11.383 6.835 15.458 15.458 0 0 0 12.504-4.47l12.356-12.356v78.124a7.5 7.5 0 0 0 15 0v-78.124l12.356 12.356a15.452 15.452 0 0 0 10.957 4.547c.513 0 1.029-.025 1.546-.076a15.462 15.462 0 0 0 11.384-6.835l20.254-30.38 48.651 17.691c9.676 3.519 16.178 12.801 16.178 23.097v57.725a7.5 7.5 0 0 0 15 0v-57.725c0-10.428-4.143-20.208-11.093-27.441l1.853-.529c1.869-.534 4.419-1.265 6.979-2.52l19.149 19.149v69.066a7.5 7.5 0 0 0 15 0v-69.066l19.016-19.016c1.011.514 2.073.948 3.191 1.267l30.976 8.85c7.07 2.02 12.009 8.567 12.009 15.921v62.044a7.5 7.5 0 0 0 15 0v-62.044c0-14.018-9.412-26.497-22.888-30.348zM48.115 330.794c-14.029-5.048-21.066-11.778-24.07-15.453 2.048-5.354 3.376-11.486 4.275-17.959 4.136 9.917 11.063 18.383 19.795 24.423v8.989zm42.965 20.298c-6.397 6.078-16.418 6.077-22.813-.001l-6.975-6.628a15.518 15.518 0 0 0 1.824-7.324v-7.994a55.427 55.427 0 0 0 16.558 2.517c5.757 0 11.316-.886 16.557-2.512l-.001 7.988c0 2.62.646 5.121 1.824 7.327l-6.974 6.627zm-11.404-34.43c-22.396 0-40.615-18.22-40.615-40.615a7.5 7.5 0 0 0-7.5-7.5c-.42 0-.83.043-1.231.11l.065-1.93c.167-5.157.328-10.028.625-14.206.958-13.476 6.343-25.894 15.163-34.968 8.899-9.156 20.793-14.198 33.491-14.198s24.591 5.042 33.491 14.198c8.82 9.074 14.205 21.492 15.163 34.968.296 4.177.458 9.047.628 14.203l.045 1.338c-8.16-12.572-20.762-21.837-37.045-27.069-15.043-4.833-27.981-4.534-28.527-4.52a7.5 7.5 0 0 0-5.191 2.291l-13.532 14.034a7.5 7.5 0 1 0 10.798 10.412l11.26-11.677c9.697.474 40.894 4.102 53.027 30.819-3.053 19.688-19.975 34.31-40.115 34.31zm31.553 14.157l.001-8.945a55.477 55.477 0 0 0 19.801-24.449c.899 6.458 2.226 12.576 4.27 17.918-2.987 3.64-10.057 10.43-24.072 15.476zm72.174-121.674v-18.608a7.501 7.501 0 0 0-.746-3.261c-4.826-9.994-7.273-20.598-7.273-31.518V139.72c0-31.239 25.415-56.653 56.653-56.653h104.769v72.692c0 10.92-2.447 21.524-7.273 31.518a7.501 7.501 0 0 0-.746 3.261v21.355c0 20.311-8.165 39.15-22.991 53.047a74.636 74.636 0 0 1-5.758 4.875c-.044.03-.086.063-.129.094-13.889 10.545-30.901 15.67-48.667 14.519-38.041-2.463-67.839-35.531-67.839-75.283zm42.229 150.911c-.052.052-.173.175-.418.149a.477.477 0 0 1-.381-.229l-23.325-34.988 7.506-7.887 35.385 24.187-18.767 18.768zm30.463-28.943l-40.615-27.762v-14c10.509 5.681 22.276 9.234 34.791 10.044 1.977.128 3.942.191 5.901.191 14.341 0 28.143-3.428 40.538-9.935v13.7l-40.615 27.762zm31.262 28.865a.477.477 0 0 1-.381.229c-.245.031-.365-.098-.418-.149l-18.767-18.767 35.385-24.188 7.507 7.887-23.326 34.988zm136.951-6.328l-17.02-17.019c.297-1.349.465-2.826.464-4.455l-.001-3.165a52.589 52.589 0 0 0 16.579 2.65 55.71 55.71 0 0 0 16.536-2.501v3.02c0 1.496.188 2.962.542 4.371l-17.1 17.099zm28.283-48.454c-7.949 7.714-18.45 11.788-29.537 11.446-21.704-.651-39.361-19.768-39.361-42.613v-14.021a7.493 7.493 0 0 0-.792-3.354l-4.633-9.266a24.706 24.706 0 0 1-2.594-10.991v-.447c0-17.974 14.623-32.596 32.596-32.596h64.673v31.15a32.77 32.77 0 0 1-3.441 14.578l-3.786 7.572a7.496 7.496 0 0 0-.792 3.354v16.038c0 11.08-4.38 21.432-12.333 29.15z" fill="#FFF"/><path d="M472.423 380.814a7.5 7.5 0 0 0-7.5 7.5v48.115a7.5 7.5 0 0 0 15 0v-48.115a7.5 7.5 0 0 0-7.5-7.5zm-432.846 9.914a7.5 7.5 0 0 0-7.5 7.5v38.201a7.5 7.5 0 0 0 15 0v-38.201a7.5 7.5 0 0 0-7.5-7.5zm277.955-232.253c-28.366-28.366-87.715-22.943-111.917-19.295-7.623 1.149-13.155 7.6-13.155 15.339v17.278a7.5 7.5 0 0 0 15 0v-17.279c0-.255.168-.473.392-.507 9.667-1.457 28.85-3.705 48.725-2.38 23.388 1.557 40.328 7.428 50.349 17.45a7.5 7.5 0 0 0 10.606 0 7.5 7.5 0 0 0 0-10.606zM167.884 396.853a7.5 7.5 0 0 0-7.5 7.5v32.077a7.5 7.5 0 0 0 15 0v-32.077a7.5 7.5 0 0 0-7.5-7.5zm176.422 0a7.5 7.5 0 0 0-7.5 7.5v32.077a7.5 7.5 0 0 0 15 0v-32.077a7.5 7.5 0 0 0-7.5-7.5z" fill="#FFF"/></svg>