<svg xmlns="http://www.w3.org/2000/svg" viewBox="0 0 511.801 511.801" width="512" height="512"><g fill="#FFF"><path d="M242.004 458.953a154.932 154.932 0 0 1-29.05-30.519c-3.228-4.481-9.477-5.498-13.959-2.268-4.48 3.228-5.496 9.478-2.268 13.959a174.954 174.954 0 0 0 32.798 34.458 9.957 9.957 0 0 0 6.232 2.185 9.978 9.978 0 0 0 7.822-3.761c3.446-4.316 2.74-10.608-1.575-14.054zM414.96 205.104a154.616 154.616 0 0 1 33.251 25.861 9.974 9.974 0 0 0 7.157 3.015 9.964 9.964 0 0 0 6.984-2.844c3.952-3.858 4.028-10.189.171-14.142a174.653 174.653 0 0 0-37.552-29.205c-4.784-2.764-10.898-1.129-13.663 3.651-2.764 4.782-1.128 10.9 3.652 13.664zm73.205 99.107c1.056 4.639 5.178 7.783 9.742 7.783.734 0 1.48-.081 2.228-.251 5.385-1.226 8.757-6.584 7.532-11.97a172.913 172.913 0 0 0-16.854-44.522c-2.646-4.848-8.725-6.634-13.568-3.984-4.848 2.646-6.632 8.722-3.984 13.568a152.981 152.981 0 0 1 14.904 39.376zM318.854 491.349a153.06 153.06 0 0 1-40.666-10.866c-5.092-2.146-10.954.238-13.101 5.327-2.147 5.089.238 10.954 5.327 13.101a173.07 173.07 0 0 0 45.979 12.286c.418.052.833.077 1.243.077 4.974 0 9.284-3.708 9.911-8.771.681-5.481-3.212-10.475-8.693-11.154zm69.264-309.344c1.357-5.354-1.883-10.794-7.235-12.151-10.824-2.744-21.94-4.424-33.159-5.044C342.665 73.368 266.683.527 174 .527c-95.944 0-174 78.056-174 174 0 92.852 73.105 168.946 164.781 173.755a9.966 9.966 0 0 0-.301 3.251 173.265 173.265 0 0 0 9.977 46.53 10.003 10.003 0 0 0 9.397 6.581 9.986 9.986 0 0 0 3.421-.606c5.189-1.891 7.864-7.629 5.975-12.818a153.3 153.3 0 0 1-8.824-41.161 10.087 10.087 0 0 0-.314-1.833c87.725-5.052 158.227-75.383 163.553-163.035l.009.009c.008-.124.02-.248.027-.372 9.566.596 19.04 2.072 28.268 4.412 5.356 1.359 10.792-1.883 12.149-7.235zM184.344 328.183c5.113-76.688 66.625-138.199 143.313-143.313-5.114 76.688-66.626 138.2-143.313 143.313zm-20.031.048l-.011-.006C83.883 323.208 20 256.188 20 174.527c0-84.916 69.084-154 154-154 81.661 0 148.681 63.883 153.698 144.302l.006.011c-87.761 5.147-158.244 75.63-163.391 163.391zm337.975 8.449c-5.532-.283-10.206 3.984-10.476 9.501a153.566 153.566 0 0 1-7.779 41.375c-1.757 5.236 1.063 10.905 6.299 12.662a9.996 9.996 0 0 0 3.183.522c4.18 0 8.076-2.641 9.479-6.821a173.557 173.557 0 0 0 8.795-46.764c.27-5.515-3.984-10.205-9.501-10.475zm-23.107 85.944c-4.563-3.114-10.783-1.94-13.897 2.62a154.84 154.84 0 0 1-28.27 31.238c-4.229 3.553-4.775 9.861-1.222 14.089a9.976 9.976 0 0 0 7.66 3.566c2.271 0 4.555-.77 6.429-2.345a174.889 174.889 0 0 0 31.92-35.271c3.114-4.561 1.94-10.783-2.62-13.897zm-77.808 56.303a152.86 152.86 0 0 1-40.386 11.897c-5.462.816-9.228 5.907-8.41 11.369.741 4.961 5.008 8.521 9.877 8.521.492 0 .991-.036 1.492-.111a172.896 172.896 0 0 0 45.667-13.452c5.032-2.275 7.268-8.2 4.992-13.232s-8.2-7.263-13.232-4.992z"/><path d="M93.776 73.501C62.778 98.145 45 134.967 45 174.527c0 5.522 4.478 10 10 10s10-4.477 10-10c0-33.427 15.025-64.543 41.223-85.371 4.323-3.437 5.042-9.728 1.604-14.051-3.436-4.323-9.727-5.042-14.051-1.604zm80.225-27.973a129.19 129.19 0 0 0-35.768 5.025c-5.307 1.528-8.37 7.069-6.842 12.377 1.261 4.382 5.26 7.235 9.604 7.235.916 0 1.848-.127 2.774-.393a109.217 109.217 0 0 1 30.232-4.244c5.522 0 10-4.478 10-10s-4.478-10-10-10z"/></g></svg>