<svg xmlns="http://www.w3.org/2000/svg" viewBox="0 0 512.001 512.001" width="512" height="512"><g fill="#FFF"><path d="M191.023 256h95.511c26.333 0 47.756-21.423 47.756-47.756 0-26.333-21.423-47.756-47.756-47.756h-95.511c-26.333 0-47.756 21.423-47.756 47.756 0 26.333 21.423 47.756 47.756 47.756zm0-74.286h95.511c14.629 0 26.531 11.902 26.531 26.531s-11.902 26.531-26.531 26.531h-95.511c-14.629 0-26.531-11.902-26.531-26.531 0-14.63 11.902-26.531 26.531-26.531z"/><path d="M510.984 171.427c-2.035-7.599-6.91-13.949-13.722-17.882l-19.705-11.378V63.386c0-5.861-4.751-10.612-10.612-10.612H10.612C4.751 52.773 0 57.524 0 63.386v385.23c0 5.861 4.751 10.612 10.612 10.612h456.333c5.861 0 10.612-4.751 10.612-10.612V246.574l30.485-52.801c3.934-6.811 4.979-14.747 2.942-22.346zM21.225 73.998h435.108v21.225H21.225V73.998zm435.108 364.005H21.225V116.448h435.108v17.519c-10.484-.306-20.81 5.003-26.411 14.705l-78.509 135.983H111.43c-5.861 0-10.612 4.751-10.612 10.612v42.45c0 5.861 4.751 10.612 10.612 10.612h210.377l.592 58.51a10.611 10.611 0 0 0 15.825 9.136l59.049-33.301a10.57 10.57 0 0 0 3.337-2.978c.222-.301.437-.608.625-.931.006-.011.015-.02.021-.031l55.076-95.398v154.667zm-109.512-102.95l57.838-100.178 41.359 23.878-57.838 100.178-41.359-23.878zm23.832 38.267l-27.211 15.346-.316-31.239 13.763 7.947 13.764 7.946zm-31.495-67.441l-12.254 21.225H122.042v-21.225h217.116zm117.473-65.506l-41.359-23.878 10.612-18.382 41.359 23.878-10.612 18.382zm33.03-57.212l-11.806 20.449-41.359-23.878 11.806-20.449c2.268-3.927 7.309-5.278 11.235-3.011l27.113 15.653c3.929 2.269 5.279 7.309 3.011 11.236z"/><path d="M203.227 372.737h-89.675c-5.861 0-10.612 4.751-10.612 10.612s4.751 10.612 10.612 10.612h89.675c5.861 0 10.612-4.751 10.612-10.612.001-5.861-4.751-10.612-10.612-10.612zm42.45 0h-1.061c-5.861 0-10.612 4.751-10.612 10.612s4.751 10.612 10.612 10.612h1.061c5.861 0 10.612-4.751 10.612-10.612s-4.751-10.612-10.612-10.612z"/></g></svg>