<svg xmlns="http://www.w3.org/2000/svg" baseProfile="full" width="50" height="50" viewBox="0 0 50.00 50.00"><path fill="#75878F" d="M0 0h50v50H0z"/><path d="M21.526 43.453h-4.053V36.36h-7.347v7.093H6.072V25.72h4.054v7.093h7.347V25.72h4.053v17.733zm4.054 0V25.72h6.483c1.987 0 3.514.362 4.582 1.085 1.067.723 1.6 1.741 1.6 3.055 0 .953-.324 1.786-.973 2.5-.65.714-1.48 1.21-2.49 1.49v.052c1.283.156 2.307.622 3.074 1.4.767.776 1.15 1.723 1.15 2.84 0 1.63-.586 2.923-1.758 3.878-1.171.956-2.772 1.433-4.801 1.433h-6.868zm4.053-14.693v4.053h1.713c.805 0 1.439-.192 1.9-.578.462-.385.693-.915.693-1.59 0-1.257-.949-1.885-2.846-1.885h-1.46zm0 7.093v4.56h2.14c.914 0 1.63-.209 2.148-.627.519-.418.778-.989.778-1.712 0-.691-.255-1.234-.764-1.629-.51-.394-1.222-.592-2.137-.592h-2.165z" fill="#21262E"/></svg>